<?xml version="1.0" encoding="UTF-8" standalone="no"?>
<!DOCTYPE svg PUBLIC "-//W3C//DTD SVG 1.1//EN"
 "http://www.w3.org/Graphics/SVG/1.1/DTD/svg11.dtd">
<!-- Generated by graphviz version 12.0.0 (20240704.0754)
 -->
<!-- Title: G Pages: 1 -->
<svg width="1682pt" height="4008pt"
 viewBox="0.00 0.00 403.75 962.00" xmlns="http://www.w3.org/2000/svg" xmlns:xlink="http://www.w3.org/1999/xlink">
<g id="graph0" class="graph" transform="scale(4.16667 4.16667) rotate(0) translate(4 958)">
<title>G</title>
<polygon fill="white" stroke="none" points="-4,4 -4,-958 399.75,-958 399.75,4 -4,4"/>
<!-- ce6863bc&#45;c36f&#45;404f&#45;8c71&#45;29899358d58c -->
<g id="node1" class="node">
<title>ce6863bc&#45;c36f&#45;404f&#45;8c71&#45;29899358d58c</title>
<polygon fill="none" stroke="black" points="54,-495 0,-495 0,-459 54,-459 54,-495"/>
<text text-anchor="middle" x="27" y="-471.95" font-family="Times,serif" font-size="14.00">.</text>
</g>
<!-- created -->
<g id="node2" class="node">
<title>created</title>
<polygon fill="none" stroke="black" points="199,-954 144,-954 144,-918 199,-918 199,-954"/>
<text text-anchor="middle" x="171.5" y="-930.95" font-family="Times,serif" font-size="14.00">created</text>
</g>
<!-- ce6863bc&#45;c36f&#45;404f&#45;8c71&#45;29899358d58c&#45;&gt;created -->
<g id="edge1" class="edge">
<title>ce6863bc&#45;c36f&#45;404f&#45;8c71&#45;29899358d58c&#45;&gt;created</title>
<path fill="none" stroke="black" d="M28.15,-495.41C29.14,-569.46 36.39,-844.69 90,-909 100.56,-921.67 117.26,-928.42 132.71,-932.01"/>
<polygon fill="black" stroke="black" points="131.68,-935.37 142.16,-933.81 133,-928.5 131.68,-935.37"/>
</g>
<!-- created_by_ref -->
<g id="node3" class="node">
<title>created_by_ref</title>
<polygon fill="none" stroke="black" points="220,-900 123,-900 123,-864 220,-864 220,-900"/>
<text text-anchor="middle" x="171.5" y="-876.95" font-family="Times,serif" font-size="14.00">created_by_ref</text>
</g>
<!-- ce6863bc&#45;c36f&#45;404f&#45;8c71&#45;29899358d58c&#45;&gt;created_by_ref -->
<g id="edge2" class="edge">
<title>ce6863bc&#45;c36f&#45;404f&#45;8c71&#45;29899358d58c&#45;&gt;created_by_ref</title>
<path fill="none" stroke="black" d="M28.57,-495.39C31.04,-563.42 42.92,-799.66 90,-855 95.98,-862.02 103.84,-867.23 112.31,-871.08"/>
<polygon fill="black" stroke="black" points="110.85,-874.27 121.44,-874.6 113.37,-867.74 110.85,-874.27"/>
</g>
<!-- description -->
<g id="node4" class="node">
<title>description</title>
<polygon fill="none" stroke="black" points="209.5,-846 133.5,-846 133.5,-810 209.5,-810 209.5,-846"/>
<text text-anchor="middle" x="171.5" y="-822.95" font-family="Times,serif" font-size="14.00">description</text>
</g>
<!-- ce6863bc&#45;c36f&#45;404f&#45;8c71&#45;29899358d58c&#45;&gt;description -->
<g id="edge3" class="edge">
<title>ce6863bc&#45;c36f&#45;404f&#45;8c71&#45;29899358d58c&#45;&gt;description</title>
<path fill="none" stroke="black" d="M29.12,-495.27C33.22,-556.7 49.4,-754.53 90,-801 98.32,-810.52 110.09,-816.69 122.08,-820.69"/>
<polygon fill="black" stroke="black" points="121.02,-824.03 131.6,-823.37 122.92,-817.29 121.02,-824.03"/>
</g>
<!-- external_references[] -->
<g id="node5" class="node">
<title>external_references[]</title>
<polygon fill="none" stroke="black" points="236.88,-792 106.12,-792 106.12,-756 236.88,-756 236.88,-792"/>
<text text-anchor="middle" x="171.5" y="-768.95" font-family="Times,serif" font-size="14.00">external_references[]</text>
</g>
<!-- ce6863bc&#45;c36f&#45;404f&#45;8c71&#45;29899358d58c&#45;&gt;external_references[] -->
<g id="edge4" class="edge">
<title>ce6863bc&#45;c36f&#45;404f&#45;8c71&#45;29899358d58c&#45;&gt;external_references[]</title>
<path fill="none" stroke="black" d="M29.87,-495.22C35.8,-549.61 55.84,-709.32 90,-747 91.95,-749.15 94.07,-751.13 96.34,-752.95"/>
<polygon fill="black" stroke="black" points="94.16,-755.7 104.41,-758.38 98.07,-749.9 94.16,-755.7"/>
</g>
<!-- id -->
<g id="node9" class="node">
<title>id</title>
<polygon fill="none" stroke="black" points="198.5,-738 144.5,-738 144.5,-702 198.5,-702 198.5,-738"/>
<text text-anchor="middle" x="171.5" y="-714.95" font-family="Times,serif" font-size="14.00">id</text>
</g>
<!-- ce6863bc&#45;c36f&#45;404f&#45;8c71&#45;29899358d58c&#45;&gt;id -->
<g id="edge5" class="edge">
<title>ce6863bc&#45;c36f&#45;404f&#45;8c71&#45;29899358d58c&#45;&gt;id</title>
<path fill="none" stroke="black" d="M27.86,-495.39C28.56,-536.5 36.06,-636.62 90,-693 101.29,-704.8 117.88,-711.44 133.07,-715.18"/>
<polygon fill="black" stroke="black" points="132.32,-718.6 142.82,-717.21 133.74,-711.75 132.32,-718.6"/>
</g>
<!-- kill_chain_phases[] -->
<g id="node10" class="node">
<title>kill_chain_phases[]</title>
<polygon fill="none" stroke="black" points="232.38,-684 110.62,-684 110.62,-648 232.38,-648 232.38,-684"/>
<text text-anchor="middle" x="171.5" y="-660.95" font-family="Times,serif" font-size="14.00">kill_chain_phases[]</text>
</g>
<!-- ce6863bc&#45;c36f&#45;404f&#45;8c71&#45;29899358d58c&#45;&gt;kill_chain_phases[] -->
<g id="edge6" class="edge">
<title>ce6863bc&#45;c36f&#45;404f&#45;8c71&#45;29899358d58c&#45;&gt;kill_chain_phases[]</title>
<path fill="none" stroke="black" d="M29.93,-495.33C34.41,-528.61 48.49,-599.19 90,-639 93.2,-642.07 96.76,-644.79 100.55,-647.2"/>
<polygon fill="black" stroke="black" points="98.59,-650.12 109.05,-651.85 101.96,-643.98 98.59,-650.12"/>
</g>
<!-- modified -->
<g id="node13" class="node">
<title>modified</title>
<polygon fill="none" stroke="black" points="204.25,-630 138.75,-630 138.75,-594 204.25,-594 204.25,-630"/>
<text text-anchor="middle" x="171.5" y="-606.95" font-family="Times,serif" font-size="14.00">modified</text>
</g>
<!-- ce6863bc&#45;c36f&#45;404f&#45;8c71&#45;29899358d58c&#45;&gt;modified -->
<g id="edge7" class="edge">
<title>ce6863bc&#45;c36f&#45;404f&#45;8c71&#45;29899358d58c&#45;&gt;modified</title>
<path fill="none" stroke="black" d="M33.9,-495.39C42.51,-519.35 60.74,-561.01 90,-585 100.78,-593.83 114.57,-599.83 127.69,-603.87"/>
<polygon fill="black" stroke="black" points="126.43,-607.15 137,-606.43 128.28,-600.4 126.43,-607.15"/>
</g>
<!-- name -->
<g id="node14" class="node">
<title>name</title>
<polygon fill="none" stroke="black" points="198.5,-576 144.5,-576 144.5,-540 198.5,-540 198.5,-576"/>
<text text-anchor="middle" x="171.5" y="-552.95" font-family="Times,serif" font-size="14.00">name</text>
</g>
<!-- ce6863bc&#45;c36f&#45;404f&#45;8c71&#45;29899358d58c&#45;&gt;name -->
<g id="edge8" class="edge">
<title>ce6863bc&#45;c36f&#45;404f&#45;8c71&#45;29899358d58c&#45;&gt;name</title>
<path fill="none" stroke="black" d="M45.25,-495.37C56.95,-506.93 73.28,-521.42 90,-531 103.32,-538.63 119.13,-544.52 133.2,-548.82"/>
<polygon fill="black" stroke="black" points="131.99,-552.12 142.57,-551.52 133.92,-545.39 131.99,-552.12"/>
</g>
<!-- object_marking_refs -->
<g id="node15" class="node">
<title>object_marking_refs</title>
<polygon fill="none" stroke="black" points="235.75,-522 107.25,-522 107.25,-486 235.75,-486 235.75,-522"/>
<text text-anchor="middle" x="171.5" y="-498.95" font-family="Times,serif" font-size="14.00">object_marking_refs</text>
</g>
<!-- ce6863bc&#45;c36f&#45;404f&#45;8c71&#45;29899358d58c&#45;&gt;object_marking_refs -->
<g id="edge9" class="edge">
<title>ce6863bc&#45;c36f&#45;404f&#45;8c71&#45;29899358d58c&#45;&gt;object_marking_refs</title>
<path fill="none" stroke="black" d="M54.47,-482.02C66.27,-484.25 80.83,-487.01 95.6,-489.81"/>
<polygon fill="black" stroke="black" points="94.92,-493.24 105.4,-491.67 96.23,-486.37 94.92,-493.24"/>
</g>
<!-- revoked -->
<g id="node16" class="node">
<title>revoked</title>
<polygon fill="none" stroke="black" points="201.25,-468 141.75,-468 141.75,-432 201.25,-432 201.25,-468"/>
<text text-anchor="middle" x="171.5" y="-444.95" font-family="Times,serif" font-size="14.00">revoked</text>
</g>
<!-- ce6863bc&#45;c36f&#45;404f&#45;8c71&#45;29899358d58c&#45;&gt;revoked -->
<g id="edge10" class="edge">
<title>ce6863bc&#45;c36f&#45;404f&#45;8c71&#45;29899358d58c&#45;&gt;revoked</title>
<path fill="none" stroke="black" d="M54.47,-471.98C75.87,-467.93 106.34,-462.16 130.68,-457.54"/>
<polygon fill="black" stroke="black" points="131.06,-461.03 140.24,-455.73 129.76,-454.16 131.06,-461.03"/>
</g>
<!-- type -->
<g id="node17" class="node">
<title>type</title>
<polygon fill="none" stroke="black" points="198.5,-414 144.5,-414 144.5,-378 198.5,-378 198.5,-414"/>
<text text-anchor="middle" x="171.5" y="-390.95" font-family="Times,serif" font-size="14.00">type</text>
</g>
<!-- ce6863bc&#45;c36f&#45;404f&#45;8c71&#45;29899358d58c&#45;&gt;type -->
<g id="edge11" class="edge">
<title>ce6863bc&#45;c36f&#45;404f&#45;8c71&#45;29899358d58c&#45;&gt;type</title>
<path fill="none" stroke="black" d="M45.25,-458.63C56.95,-447.07 73.28,-432.58 90,-423 103.32,-415.37 119.13,-409.48 133.2,-405.18"/>
<polygon fill="black" stroke="black" points="133.92,-408.61 142.57,-402.48 131.99,-401.88 133.92,-408.61"/>
</g>
<!-- x_mitre_defense_bypassed -->
<g id="node18" class="node">
<title>x_mitre_defense_bypassed</title>
<polygon fill="none" stroke="black" points="253,-360 90,-360 90,-324 253,-324 253,-360"/>
<text text-anchor="middle" x="171.5" y="-336.95" font-family="Times,serif" font-size="14.00">x_mitre_defense_bypassed</text>
</g>
<!-- ce6863bc&#45;c36f&#45;404f&#45;8c71&#45;29899358d58c&#45;&gt;x_mitre_defense_bypassed -->
<g id="edge12" class="edge">
<title>ce6863bc&#45;c36f&#45;404f&#45;8c71&#45;29899358d58c&#45;&gt;x_mitre_defense_bypassed</title>
<path fill="none" stroke="black" d="M33.9,-458.61C42.51,-434.65 60.74,-392.99 90,-369 91.12,-368.08 92.28,-367.19 93.46,-366.33"/>
<polygon fill="black" stroke="black" points="95.14,-369.41 101.74,-361.12 91.42,-363.48 95.14,-369.41"/>
</g>
<!-- x_mitre_detection -->
<g id="node19" class="node">
<title>x_mitre_detection</title>
<polygon fill="none" stroke="black" points="229,-306 114,-306 114,-270 229,-270 229,-306"/>
<text text-anchor="middle" x="171.5" y="-282.95" font-family="Times,serif" font-size="14.00">x_mitre_detection</text>
</g>
<!-- ce6863bc&#45;c36f&#45;404f&#45;8c71&#45;29899358d58c&#45;&gt;x_mitre_detection -->
<g id="edge13" class="edge">
<title>ce6863bc&#45;c36f&#45;404f&#45;8c71&#45;29899358d58c&#45;&gt;x_mitre_detection</title>
<path fill="none" stroke="black" d="M29.93,-458.67C34.41,-425.39 48.49,-354.81 90,-315 93.98,-311.18 98.52,-307.91 103.36,-305.09"/>
<polygon fill="black" stroke="black" points="104.93,-308.22 112.3,-300.62 101.79,-301.96 104.93,-308.22"/>
</g>
<!-- x_mitre_domains -->
<g id="node20" class="node">
<title>x_mitre_domains</title>
<polygon fill="none" stroke="black" points="227.5,-252 115.5,-252 115.5,-216 227.5,-216 227.5,-252"/>
<text text-anchor="middle" x="171.5" y="-228.95" font-family="Times,serif" font-size="14.00">x_mitre_domains</text>
</g>
<!-- ce6863bc&#45;c36f&#45;404f&#45;8c71&#45;29899358d58c&#45;&gt;x_mitre_domains -->
<g id="edge14" class="edge">
<title>ce6863bc&#45;c36f&#45;404f&#45;8c71&#45;29899358d58c&#45;&gt;x_mitre_domains</title>
<path fill="none" stroke="black" d="M27.86,-458.61C28.56,-417.5 36.06,-317.38 90,-261 94.33,-256.47 99.44,-252.71 104.96,-249.57"/>
<polygon fill="black" stroke="black" points="106.41,-252.76 113.87,-245.24 103.35,-246.46 106.41,-252.76"/>
</g>
<!-- x_mitre_is_subtechnique -->
<g id="node21" class="node">
<title>x_mitre_is_subtechnique</title>
<polygon fill="none" stroke="black" points="247.75,-198 95.25,-198 95.25,-162 247.75,-162 247.75,-198"/>
<text text-anchor="middle" x="171.5" y="-174.95" font-family="Times,serif" font-size="14.00">x_mitre_is_subtechnique</text>
</g>
<!-- ce6863bc&#45;c36f&#45;404f&#45;8c71&#45;29899358d58c&#45;&gt;x_mitre_is_subtechnique -->
<g id="edge15" class="edge">
<title>ce6863bc&#45;c36f&#45;404f&#45;8c71&#45;29899358d58c&#45;&gt;x_mitre_is_subtechnique</title>
<path fill="none" stroke="black" d="M29.87,-458.78C35.8,-404.39 55.84,-244.68 90,-207 90.46,-206.49 90.94,-205.99 91.42,-205.49"/>
<polygon fill="black" stroke="black" points="93.42,-208.39 98.84,-199.29 88.93,-203.02 93.42,-208.39"/>
</g>
<!-- x_mitre_modified_by_ref -->
<g id="node22" class="node">
<title>x_mitre_modified_by_ref</title>
<polygon fill="none" stroke="black" points="250,-144 93,-144 93,-108 250,-108 250,-144"/>
<text text-anchor="middle" x="171.5" y="-120.95" font-family="Times,serif" font-size="14.00">x_mitre_modified_by_ref</text>
</g>
<!-- ce6863bc&#45;c36f&#45;404f&#45;8c71&#45;29899358d58c&#45;&gt;x_mitre_modified_by_ref -->
<g id="edge16" class="edge">
<title>ce6863bc&#45;c36f&#45;404f&#45;8c71&#45;29899358d58c&#45;&gt;x_mitre_modified_by_ref</title>
<path fill="none" stroke="black" d="M29.12,-458.73C33.22,-397.3 49.4,-199.47 90,-153 90.35,-152.6 90.71,-152.2 91.07,-151.81"/>
<polygon fill="black" stroke="black" points="93.13,-154.66 98.36,-145.44 88.53,-149.39 93.13,-154.66"/>
</g>
<!-- x_mitre_platforms -->
<g id="node23" class="node">
<title>x_mitre_platforms</title>
<polygon fill="none" stroke="black" points="230.5,-90 112.5,-90 112.5,-54 230.5,-54 230.5,-90"/>
<text text-anchor="middle" x="171.5" y="-66.95" font-family="Times,serif" font-size="14.00">x_mitre_platforms</text>
</g>
<!-- ce6863bc&#45;c36f&#45;404f&#45;8c71&#45;29899358d58c&#45;&gt;x_mitre_platforms -->
<g id="edge17" class="edge">
<title>ce6863bc&#45;c36f&#45;404f&#45;8c71&#45;29899358d58c&#45;&gt;x_mitre_platforms</title>
<path fill="none" stroke="black" d="M28.57,-458.61C31.04,-390.58 42.92,-154.34 90,-99 93.52,-94.87 97.69,-91.36 102.25,-88.4"/>
<polygon fill="black" stroke="black" points="103.65,-91.62 110.75,-83.75 100.3,-85.47 103.65,-91.62"/>
</g>
<!-- x_mitre_version -->
<g id="node24" class="node">
<title>x_mitre_version</title>
<polygon fill="none" stroke="black" points="224.12,-36 118.88,-36 118.88,0 224.12,0 224.12,-36"/>
<text text-anchor="middle" x="171.5" y="-12.95" font-family="Times,serif" font-size="14.00">x_mitre_version</text>
</g>
<!-- ce6863bc&#45;c36f&#45;404f&#45;8c71&#45;29899358d58c&#45;&gt;x_mitre_version -->
<g id="edge18" class="edge">
<title>ce6863bc&#45;c36f&#45;404f&#45;8c71&#45;29899358d58c&#45;&gt;x_mitre_version</title>
<path fill="none" stroke="black" d="M28.15,-458.59C29.14,-384.54 36.39,-109.31 90,-45 94.95,-39.07 101.24,-34.43 108.12,-30.81"/>
<polygon fill="black" stroke="black" points="109.43,-34.06 117.16,-26.81 106.6,-27.66 109.43,-34.06"/>
</g>
<!-- external_references[].external_id -->
<g id="node6" class="node">
<title>external_references[].external_id</title>
<polygon fill="none" stroke="black" points="380.75,-846 304,-846 304,-810 380.75,-810 380.75,-846"/>
<text text-anchor="middle" x="342.38" y="-822.95" font-family="Times,serif" font-size="14.00">external_id</text>
</g>
<!-- external_references[]&#45;&gt;external_references[].external_id -->
<g id="edge19" class="edge">
<title>external_references[]&#45;&gt;external_references[].external_id</title>
<path fill="none" stroke="black" d="M230.14,-792.43C250.53,-798.95 273.23,-806.21 292.79,-812.46"/>
<polygon fill="black" stroke="black" points="291.56,-815.75 302.15,-815.46 293.7,-809.08 291.56,-815.75"/>
</g>
<!-- external_references[].source_name -->
<g id="node7" class="node">
<title>external_references[].source_name</title>
<polygon fill="none" stroke="black" points="386.38,-792 298.38,-792 298.38,-756 386.38,-756 386.38,-792"/>
<text text-anchor="middle" x="342.38" y="-768.95" font-family="Times,serif" font-size="14.00">source_name</text>
</g>
<!-- external_references[]&#45;&gt;external_references[].source_name -->
<g id="edge20" class="edge">
<title>external_references[]&#45;&gt;external_references[].source_name</title>
<path fill="none" stroke="black" d="M237.31,-774C253.63,-774 270.98,-774 286.74,-774"/>
<polygon fill="black" stroke="black" points="286.39,-777.5 296.39,-774 286.39,-770.5 286.39,-777.5"/>
</g>
<!-- external_references[].url -->
<g id="node8" class="node">
<title>external_references[].url</title>
<polygon fill="none" stroke="black" points="369.38,-738 315.38,-738 315.38,-702 369.38,-702 369.38,-738"/>
<text text-anchor="middle" x="342.38" y="-714.95" font-family="Times,serif" font-size="14.00">url</text>
</g>
<!-- external_references[]&#45;&gt;external_references[].url -->
<g id="edge21" class="edge">
<title>external_references[]&#45;&gt;external_references[].url</title>
<path fill="none" stroke="black" d="M230.14,-755.57C254.72,-747.71 282.67,-738.77 304.4,-731.82"/>
<polygon fill="black" stroke="black" points="305.25,-735.23 313.71,-728.85 303.12,-728.56 305.25,-735.23"/>
</g>
<!-- kill_chain_phases[].kill_chain_name -->
<g id="node11" class="node">
<title>kill_chain_phases[].kill_chain_name</title>
<polygon fill="none" stroke="black" points="395.75,-684 289,-684 289,-648 395.75,-648 395.75,-684"/>
<text text-anchor="middle" x="342.38" y="-660.95" font-family="Times,serif" font-size="14.00">kill_chain_name</text>
</g>
<!-- kill_chain_phases[]&#45;&gt;kill_chain_phases[].kill_chain_name -->
<g id="edge22" class="edge">
<title>kill_chain_phases[]&#45;&gt;kill_chain_phases[].kill_chain_name</title>
<path fill="none" stroke="black" d="M232.51,-666C246.95,-666 262.43,-666 277.06,-666"/>
<polygon fill="black" stroke="black" points="277.05,-669.5 287.05,-666 277.05,-662.5 277.05,-669.5"/>
</g>
<!-- kill_chain_phases[].phase_name -->
<g id="node12" class="node">
<title>kill_chain_phases[].phase_name</title>
<polygon fill="none" stroke="black" points="384.12,-630 300.62,-630 300.62,-594 384.12,-594 384.12,-630"/>
<text text-anchor="middle" x="342.38" y="-606.95" font-family="Times,serif" font-size="14.00">phase_name</text>
</g>
<!-- kill_chain_phases[]&#45;&gt;kill_chain_phases[].phase_name -->
<g id="edge23" class="edge">
<title>kill_chain_phases[]&#45;&gt;kill_chain_phases[].phase_name</title>
<path fill="none" stroke="black" d="M230.14,-647.57C249.39,-641.41 270.72,-634.59 289.5,-628.59"/>
<polygon fill="black" stroke="black" points="290.33,-632 298.79,-625.62 288.2,-625.33 290.33,-632"/>
</g>
</g>
</svg>
