<?xml version="1.0" encoding="UTF-8" standalone="no"?>
<!DOCTYPE svg PUBLIC "-//W3C//DTD SVG 1.1//EN"
 "http://www.w3.org/Graphics/SVG/1.1/DTD/svg11.dtd">
<!-- Generated by graphviz version 12.0.0 (20240704.0754)
 -->
<!-- Title: G Pages: 1 -->
<svg width="1654pt" height="4458pt"
 viewBox="0.00 0.00 397.00 1070.00" xmlns="http://www.w3.org/2000/svg" xmlns:xlink="http://www.w3.org/1999/xlink">
<g id="graph0" class="graph" transform="scale(4.16667 4.16667) rotate(0) translate(4 1066)">
<title>G</title>
<polygon fill="white" stroke="none" points="-4,4 -4,-1066 393,-1066 393,4 -4,4"/>
<!-- cc94ba62&#45;cc75&#45;4622&#45;bd02&#45;851bdbe9625a -->
<g id="node1" class="node">
<title>cc94ba62&#45;cc75&#45;4622&#45;bd02&#45;851bdbe9625a</title>
<polygon fill="none" stroke="black" points="54,-549 0,-549 0,-513 54,-513 54,-549"/>
<text text-anchor="middle" x="27" y="-525.95" font-family="Times,serif" font-size="14.00">.</text>
</g>
<!-- aliases -->
<g id="node2" class="node">
<title>aliases</title>
<polygon fill="none" stroke="black" points="204.5,-1062 150.5,-1062 150.5,-1026 204.5,-1026 204.5,-1062"/>
<text text-anchor="middle" x="177.5" y="-1038.95" font-family="Times,serif" font-size="14.00">aliases</text>
</g>
<!-- cc94ba62&#45;cc75&#45;4622&#45;bd02&#45;851bdbe9625a&#45;&gt;aliases -->
<g id="edge1" class="edge">
<title>cc94ba62&#45;cc75&#45;4622&#45;bd02&#45;851bdbe9625a&#45;&gt;aliases</title>
<path fill="none" stroke="black" d="M27.79,-549.25C27.24,-628.78 29.01,-944.23 90,-1017 102.02,-1031.34 121.54,-1038.18 139,-1041.4"/>
<polygon fill="black" stroke="black" points="138.18,-1044.82 148.58,-1042.81 139.2,-1037.89 138.18,-1044.82"/>
</g>
<!-- created -->
<g id="node3" class="node">
<title>created</title>
<polygon fill="none" stroke="black" points="205,-1008 150,-1008 150,-972 205,-972 205,-1008"/>
<text text-anchor="middle" x="177.5" y="-984.95" font-family="Times,serif" font-size="14.00">created</text>
</g>
<!-- cc94ba62&#45;cc75&#45;4622&#45;bd02&#45;851bdbe9625a&#45;&gt;created -->
<g id="edge2" class="edge">
<title>cc94ba62&#45;cc75&#45;4622&#45;bd02&#45;851bdbe9625a&#45;&gt;created</title>
<path fill="none" stroke="black" d="M28.12,-549.44C28.95,-623.62 35.72,-899.26 90,-963 102.05,-977.15 121.39,-983.99 138.74,-987.25"/>
<polygon fill="black" stroke="black" points="137.84,-990.66 148.25,-988.7 138.89,-983.74 137.84,-990.66"/>
</g>
<!-- created_by_ref -->
<g id="node4" class="node">
<title>created_by_ref</title>
<polygon fill="none" stroke="black" points="226,-954 129,-954 129,-918 226,-918 226,-954"/>
<text text-anchor="middle" x="177.5" y="-930.95" font-family="Times,serif" font-size="14.00">created_by_ref</text>
</g>
<!-- cc94ba62&#45;cc75&#45;4622&#45;bd02&#45;851bdbe9625a&#45;&gt;created_by_ref -->
<g id="edge3" class="edge">
<title>cc94ba62&#45;cc75&#45;4622&#45;bd02&#45;851bdbe9625a&#45;&gt;created_by_ref</title>
<path fill="none" stroke="black" d="M28.53,-549.43C30.87,-617.56 42.34,-854.16 90,-909 97.35,-917.46 107.31,-923.3 117.86,-927.33"/>
<polygon fill="black" stroke="black" points="116.5,-930.57 127.09,-930.31 118.65,-923.91 116.5,-930.57"/>
</g>
<!-- description -->
<g id="node5" class="node">
<title>description</title>
<polygon fill="none" stroke="black" points="215.5,-900 139.5,-900 139.5,-864 215.5,-864 215.5,-900"/>
<text text-anchor="middle" x="177.5" y="-876.95" font-family="Times,serif" font-size="14.00">description</text>
</g>
<!-- cc94ba62&#45;cc75&#45;4622&#45;bd02&#45;851bdbe9625a&#45;&gt;description -->
<g id="edge4" class="edge">
<title>cc94ba62&#45;cc75&#45;4622&#45;bd02&#45;851bdbe9625a&#45;&gt;description</title>
<path fill="none" stroke="black" d="M29.08,-549.3C33.06,-610.84 48.91,-808.96 90,-855 99.84,-866.02 114.09,-872.59 128.21,-876.49"/>
<polygon fill="black" stroke="black" points="127.4,-879.9 137.93,-878.74 128.98,-873.08 127.4,-879.9"/>
</g>
<!-- external_references[] -->
<g id="node6" class="node">
<title>external_references[]</title>
<polygon fill="none" stroke="black" points="242.88,-846 112.12,-846 112.12,-810 242.88,-810 242.88,-846"/>
<text text-anchor="middle" x="177.5" y="-822.95" font-family="Times,serif" font-size="14.00">external_references[]</text>
</g>
<!-- cc94ba62&#45;cc75&#45;4622&#45;bd02&#45;851bdbe9625a&#45;&gt;external_references[] -->
<g id="edge5" class="edge">
<title>cc94ba62&#45;cc75&#45;4622&#45;bd02&#45;851bdbe9625a&#45;&gt;external_references[]</title>
<path fill="none" stroke="black" d="M29.84,-549.26C35.67,-603.73 55.44,-763.68 90,-801 93.52,-804.8 97.57,-808.08 101.95,-810.89"/>
<polygon fill="black" stroke="black" points="100.21,-813.93 110.67,-815.62 103.55,-807.78 100.21,-813.93"/>
</g>
<!-- first_seen -->
<g id="node11" class="node">
<title>first_seen</title>
<polygon fill="none" stroke="black" points="211.75,-792 143.25,-792 143.25,-756 211.75,-756 211.75,-792"/>
<text text-anchor="middle" x="177.5" y="-768.95" font-family="Times,serif" font-size="14.00">first_seen</text>
</g>
<!-- cc94ba62&#45;cc75&#45;4622&#45;bd02&#45;851bdbe9625a&#45;&gt;first_seen -->
<g id="edge6" class="edge">
<title>cc94ba62&#45;cc75&#45;4622&#45;bd02&#45;851bdbe9625a&#45;&gt;first_seen</title>
<path fill="none" stroke="black" d="M27.77,-549.47C28.3,-590.75 35.46,-691.19 90,-747 101.04,-758.3 116.73,-764.89 131.72,-768.72"/>
<polygon fill="black" stroke="black" points="130.96,-772.14 141.47,-770.83 132.44,-765.3 130.96,-772.14"/>
</g>
<!-- id -->
<g id="node12" class="node">
<title>id</title>
<polygon fill="none" stroke="black" points="204.5,-738 150.5,-738 150.5,-702 204.5,-702 204.5,-738"/>
<text text-anchor="middle" x="177.5" y="-714.95" font-family="Times,serif" font-size="14.00">id</text>
</g>
<!-- cc94ba62&#45;cc75&#45;4622&#45;bd02&#45;851bdbe9625a&#45;&gt;id -->
<g id="edge7" class="edge">
<title>cc94ba62&#45;cc75&#45;4622&#45;bd02&#45;851bdbe9625a&#45;&gt;id</title>
<path fill="none" stroke="black" d="M29.85,-549.41C34.19,-582.83 48.07,-653.63 90,-693 103.23,-705.42 122.11,-712.13 138.85,-715.76"/>
<polygon fill="black" stroke="black" points="138.05,-719.17 148.52,-717.53 139.31,-712.28 138.05,-719.17"/>
</g>
<!-- last_seen -->
<g id="node13" class="node">
<title>last_seen</title>
<polygon fill="none" stroke="black" points="210.25,-684 144.75,-684 144.75,-648 210.25,-648 210.25,-684"/>
<text text-anchor="middle" x="177.5" y="-660.95" font-family="Times,serif" font-size="14.00">last_seen</text>
</g>
<!-- cc94ba62&#45;cc75&#45;4622&#45;bd02&#45;851bdbe9625a&#45;&gt;last_seen -->
<g id="edge8" class="edge">
<title>cc94ba62&#45;cc75&#45;4622&#45;bd02&#45;851bdbe9625a&#45;&gt;last_seen</title>
<path fill="none" stroke="black" d="M33.83,-549.48C42.35,-573.55 60.49,-615.32 90,-639 102.42,-648.96 118.54,-655.27 133.49,-659.25"/>
<polygon fill="black" stroke="black" points="132.61,-662.64 143.14,-661.52 134.21,-655.82 132.61,-662.64"/>
</g>
<!-- modified -->
<g id="node14" class="node">
<title>modified</title>
<polygon fill="none" stroke="black" points="210.25,-630 144.75,-630 144.75,-594 210.25,-594 210.25,-630"/>
<text text-anchor="middle" x="177.5" y="-606.95" font-family="Times,serif" font-size="14.00">modified</text>
</g>
<!-- cc94ba62&#45;cc75&#45;4622&#45;bd02&#45;851bdbe9625a&#45;&gt;modified -->
<g id="edge9" class="edge">
<title>cc94ba62&#45;cc75&#45;4622&#45;bd02&#45;851bdbe9625a&#45;&gt;modified</title>
<path fill="none" stroke="black" d="M45.19,-549.49C56.86,-561.1 73.18,-575.6 90,-585 103.46,-592.52 119.29,-598.24 133.71,-602.44"/>
<polygon fill="black" stroke="black" points="132.37,-605.7 142.94,-604.95 134.21,-598.94 132.37,-605.7"/>
</g>
<!-- name -->
<g id="node15" class="node">
<title>name</title>
<polygon fill="none" stroke="black" points="204.5,-576 150.5,-576 150.5,-540 204.5,-540 204.5,-576"/>
<text text-anchor="middle" x="177.5" y="-552.95" font-family="Times,serif" font-size="14.00">name</text>
</g>
<!-- cc94ba62&#45;cc75&#45;4622&#45;bd02&#45;851bdbe9625a&#45;&gt;name -->
<g id="edge10" class="edge">
<title>cc94ba62&#45;cc75&#45;4622&#45;bd02&#45;851bdbe9625a&#45;&gt;name</title>
<path fill="none" stroke="black" d="M54.21,-535.76C77.71,-540.04 112.46,-546.36 138.92,-551.17"/>
<polygon fill="black" stroke="black" points="138.1,-554.58 148.57,-552.92 139.35,-547.69 138.1,-554.58"/>
</g>
<!-- object_marking_refs -->
<g id="node16" class="node">
<title>object_marking_refs</title>
<polygon fill="none" stroke="black" points="241.75,-522 113.25,-522 113.25,-486 241.75,-486 241.75,-522"/>
<text text-anchor="middle" x="177.5" y="-498.95" font-family="Times,serif" font-size="14.00">object_marking_refs</text>
</g>
<!-- cc94ba62&#45;cc75&#45;4622&#45;bd02&#45;851bdbe9625a&#45;&gt;object_marking_refs -->
<g id="edge11" class="edge">
<title>cc94ba62&#45;cc75&#45;4622&#45;bd02&#45;851bdbe9625a&#45;&gt;object_marking_refs</title>
<path fill="none" stroke="black" d="M54.21,-526.24C67.59,-523.8 84.63,-520.7 101.71,-517.6"/>
<polygon fill="black" stroke="black" points="102.2,-521.07 111.41,-515.83 100.95,-514.18 102.2,-521.07"/>
</g>
<!-- revoked -->
<g id="node17" class="node">
<title>revoked</title>
<polygon fill="none" stroke="black" points="207.25,-468 147.75,-468 147.75,-432 207.25,-432 207.25,-468"/>
<text text-anchor="middle" x="177.5" y="-444.95" font-family="Times,serif" font-size="14.00">revoked</text>
</g>
<!-- cc94ba62&#45;cc75&#45;4622&#45;bd02&#45;851bdbe9625a&#45;&gt;revoked -->
<g id="edge12" class="edge">
<title>cc94ba62&#45;cc75&#45;4622&#45;bd02&#45;851bdbe9625a&#45;&gt;revoked</title>
<path fill="none" stroke="black" d="M45.19,-512.51C56.86,-500.9 73.18,-486.4 90,-477 104.34,-468.99 121.36,-463.02 136.5,-458.76"/>
<polygon fill="black" stroke="black" points="137.39,-462.15 146.17,-456.22 135.61,-455.38 137.39,-462.15"/>
</g>
<!-- type -->
<g id="node18" class="node">
<title>type</title>
<polygon fill="none" stroke="black" points="204.5,-414 150.5,-414 150.5,-378 204.5,-378 204.5,-414"/>
<text text-anchor="middle" x="177.5" y="-390.95" font-family="Times,serif" font-size="14.00">type</text>
</g>
<!-- cc94ba62&#45;cc75&#45;4622&#45;bd02&#45;851bdbe9625a&#45;&gt;type -->
<g id="edge13" class="edge">
<title>cc94ba62&#45;cc75&#45;4622&#45;bd02&#45;851bdbe9625a&#45;&gt;type</title>
<path fill="none" stroke="black" d="M33.83,-512.52C42.35,-488.45 60.49,-446.68 90,-423 104.06,-411.72 122.86,-405.13 139.34,-401.29"/>
<polygon fill="black" stroke="black" points="139.71,-404.79 148.81,-399.35 138.31,-397.93 139.71,-404.79"/>
</g>
<!-- x_mitre_attack_spec_version -->
<g id="node19" class="node">
<title>x_mitre_attack_spec_version</title>
<polygon fill="none" stroke="black" points="265,-360 90,-360 90,-324 265,-324 265,-360"/>
<text text-anchor="middle" x="177.5" y="-336.95" font-family="Times,serif" font-size="14.00">x_mitre_attack_spec_version</text>
</g>
<!-- cc94ba62&#45;cc75&#45;4622&#45;bd02&#45;851bdbe9625a&#45;&gt;x_mitre_attack_spec_version -->
<g id="edge14" class="edge">
<title>cc94ba62&#45;cc75&#45;4622&#45;bd02&#45;851bdbe9625a&#45;&gt;x_mitre_attack_spec_version</title>
<path fill="none" stroke="black" d="M29.85,-512.59C34.19,-479.17 48.07,-408.37 90,-369 90.75,-368.29 91.52,-367.61 92.31,-366.93"/>
<polygon fill="black" stroke="black" points="94.05,-370 100.1,-361.31 89.95,-364.33 94.05,-370"/>
</g>
<!-- x_mitre_deprecated -->
<g id="node20" class="node">
<title>x_mitre_deprecated</title>
<polygon fill="none" stroke="black" points="239.5,-306 115.5,-306 115.5,-270 239.5,-270 239.5,-306"/>
<text text-anchor="middle" x="177.5" y="-282.95" font-family="Times,serif" font-size="14.00">x_mitre_deprecated</text>
</g>
<!-- cc94ba62&#45;cc75&#45;4622&#45;bd02&#45;851bdbe9625a&#45;&gt;x_mitre_deprecated -->
<g id="edge15" class="edge">
<title>cc94ba62&#45;cc75&#45;4622&#45;bd02&#45;851bdbe9625a&#45;&gt;x_mitre_deprecated</title>
<path fill="none" stroke="black" d="M27.77,-512.53C28.3,-471.25 35.46,-370.81 90,-315 94.4,-310.5 99.53,-306.75 105.07,-303.62"/>
<polygon fill="black" stroke="black" points="106.55,-306.79 114.03,-299.29 103.5,-300.49 106.55,-306.79"/>
</g>
<!-- x_mitre_domains -->
<g id="node21" class="node">
<title>x_mitre_domains</title>
<polygon fill="none" stroke="black" points="233.5,-252 121.5,-252 121.5,-216 233.5,-216 233.5,-252"/>
<text text-anchor="middle" x="177.5" y="-228.95" font-family="Times,serif" font-size="14.00">x_mitre_domains</text>
</g>
<!-- cc94ba62&#45;cc75&#45;4622&#45;bd02&#45;851bdbe9625a&#45;&gt;x_mitre_domains -->
<g id="edge16" class="edge">
<title>cc94ba62&#45;cc75&#45;4622&#45;bd02&#45;851bdbe9625a&#45;&gt;x_mitre_domains</title>
<path fill="none" stroke="black" d="M29.84,-512.74C35.67,-458.27 55.44,-298.32 90,-261 95.8,-254.74 103.02,-249.92 110.8,-246.21"/>
<polygon fill="black" stroke="black" points="111.94,-249.53 119.89,-242.52 109.31,-243.04 111.94,-249.53"/>
</g>
<!-- x_mitre_first_seen_citation -->
<g id="node22" class="node">
<title>x_mitre_first_seen_citation</title>
<polygon fill="none" stroke="black" points="260.12,-198 94.88,-198 94.88,-162 260.12,-162 260.12,-198"/>
<text text-anchor="middle" x="177.5" y="-174.95" font-family="Times,serif" font-size="14.00">x_mitre_first_seen_citation</text>
</g>
<!-- cc94ba62&#45;cc75&#45;4622&#45;bd02&#45;851bdbe9625a&#45;&gt;x_mitre_first_seen_citation -->
<g id="edge17" class="edge">
<title>cc94ba62&#45;cc75&#45;4622&#45;bd02&#45;851bdbe9625a&#45;&gt;x_mitre_first_seen_citation</title>
<path fill="none" stroke="black" d="M29.08,-512.7C33.06,-451.16 48.91,-253.04 90,-207 90.46,-206.49 90.93,-205.98 91.4,-205.49"/>
<polygon fill="black" stroke="black" points="93.37,-208.41 98.71,-199.26 88.83,-203.09 93.37,-208.41"/>
</g>
<!-- x_mitre_last_seen_citation -->
<g id="node23" class="node">
<title>x_mitre_last_seen_citation</title>
<polygon fill="none" stroke="black" points="258.62,-144 96.38,-144 96.38,-108 258.62,-108 258.62,-144"/>
<text text-anchor="middle" x="177.5" y="-120.95" font-family="Times,serif" font-size="14.00">x_mitre_last_seen_citation</text>
</g>
<!-- cc94ba62&#45;cc75&#45;4622&#45;bd02&#45;851bdbe9625a&#45;&gt;x_mitre_last_seen_citation -->
<g id="edge18" class="edge">
<title>cc94ba62&#45;cc75&#45;4622&#45;bd02&#45;851bdbe9625a&#45;&gt;x_mitre_last_seen_citation</title>
<path fill="none" stroke="black" d="M28.53,-512.57C30.87,-444.44 42.34,-207.84 90,-153 90.26,-152.7 90.53,-152.4 90.79,-152.11"/>
<polygon fill="black" stroke="black" points="93.1,-154.74 98.24,-145.47 88.45,-149.51 93.1,-154.74"/>
</g>
<!-- x_mitre_modified_by_ref -->
<g id="node24" class="node">
<title>x_mitre_modified_by_ref</title>
<polygon fill="none" stroke="black" points="256,-90 99,-90 99,-54 256,-54 256,-90"/>
<text text-anchor="middle" x="177.5" y="-66.95" font-family="Times,serif" font-size="14.00">x_mitre_modified_by_ref</text>
</g>
<!-- cc94ba62&#45;cc75&#45;4622&#45;bd02&#45;851bdbe9625a&#45;&gt;x_mitre_modified_by_ref -->
<g id="edge19" class="edge">
<title>cc94ba62&#45;cc75&#45;4622&#45;bd02&#45;851bdbe9625a&#45;&gt;x_mitre_modified_by_ref</title>
<path fill="none" stroke="black" d="M28.12,-512.56C28.95,-438.38 35.72,-162.74 90,-99 90.26,-98.7 90.52,-98.4 90.78,-98.1"/>
<polygon fill="black" stroke="black" points="93.11,-100.72 98.17,-91.41 88.41,-95.53 93.11,-100.72"/>
</g>
<!-- x_mitre_version -->
<g id="node25" class="node">
<title>x_mitre_version</title>
<polygon fill="none" stroke="black" points="230.12,-36 124.88,-36 124.88,0 230.12,0 230.12,-36"/>
<text text-anchor="middle" x="177.5" y="-12.95" font-family="Times,serif" font-size="14.00">x_mitre_version</text>
</g>
<!-- cc94ba62&#45;cc75&#45;4622&#45;bd02&#45;851bdbe9625a&#45;&gt;x_mitre_version -->
<g id="edge20" class="edge">
<title>cc94ba62&#45;cc75&#45;4622&#45;bd02&#45;851bdbe9625a&#45;&gt;x_mitre_version</title>
<path fill="none" stroke="black" d="M27.79,-512.75C27.24,-433.22 29.01,-117.77 90,-45 96.39,-37.38 104.89,-31.87 114.09,-27.91"/>
<polygon fill="black" stroke="black" points="115.05,-31.28 123.25,-24.57 112.66,-24.7 115.05,-31.28"/>
</g>
<!-- external_references[].description -->
<g id="node7" class="node">
<title>external_references[].description</title>
<polygon fill="none" stroke="black" points="383,-927 307,-927 307,-891 383,-891 383,-927"/>
<text text-anchor="middle" x="345" y="-903.95" font-family="Times,serif" font-size="14.00">description</text>
</g>
<!-- external_references[]&#45;&gt;external_references[].description -->
<g id="edge21" class="edge">
<title>external_references[]&#45;&gt;external_references[].description</title>
<path fill="none" stroke="black" d="M243.25,-845.52C250.73,-848.33 258.14,-851.49 265,-855 282.8,-864.11 284.52,-870.67 301,-882 302.19,-882.81 303.39,-883.63 304.62,-884.46"/>
<polygon fill="black" stroke="black" points="302.64,-887.34 312.92,-889.9 306.47,-881.49 302.64,-887.34"/>
</g>
<!-- external_references[].external_id -->
<g id="node8" class="node">
<title>external_references[].external_id</title>
<polygon fill="none" stroke="black" points="383.38,-873 306.62,-873 306.62,-837 383.38,-837 383.38,-873"/>
<text text-anchor="middle" x="345" y="-849.95" font-family="Times,serif" font-size="14.00">external_id</text>
</g>
<!-- external_references[]&#45;&gt;external_references[].external_id -->
<g id="edge22" class="edge">
<title>external_references[]&#45;&gt;external_references[].external_id</title>
<path fill="none" stroke="black" d="M242.96,-838.52C260.36,-841.36 278.9,-844.38 295.29,-847.05"/>
<polygon fill="black" stroke="black" points="294.32,-850.44 304.75,-848.6 295.45,-843.53 294.32,-850.44"/>
</g>
<!-- external_references[].source_name -->
<g id="node9" class="node">
<title>external_references[].source_name</title>
<polygon fill="none" stroke="black" points="389,-819 301,-819 301,-783 389,-783 389,-819"/>
<text text-anchor="middle" x="345" y="-795.95" font-family="Times,serif" font-size="14.00">source_name</text>
</g>
<!-- external_references[]&#45;&gt;external_references[].source_name -->
<g id="edge23" class="edge">
<title>external_references[]&#45;&gt;external_references[].source_name</title>
<path fill="none" stroke="black" d="M242.96,-817.48C258.44,-814.96 274.81,-812.29 289.77,-809.85"/>
<polygon fill="black" stroke="black" points="290.1,-813.34 299.4,-808.28 288.97,-806.43 290.1,-813.34"/>
</g>
<!-- external_references[].url -->
<g id="node10" class="node">
<title>external_references[].url</title>
<polygon fill="none" stroke="black" points="372,-765 318,-765 318,-729 372,-729 372,-765"/>
<text text-anchor="middle" x="345" y="-741.95" font-family="Times,serif" font-size="14.00">url</text>
</g>
<!-- external_references[]&#45;&gt;external_references[].url -->
<g id="edge24" class="edge">
<title>external_references[]&#45;&gt;external_references[].url</title>
<path fill="none" stroke="black" d="M243.25,-810.48C250.73,-807.67 258.14,-804.51 265,-801 282.8,-791.89 284.52,-785.33 301,-774 303.35,-772.38 305.8,-770.74 308.27,-769.11"/>
<polygon fill="black" stroke="black" points="310.08,-772.12 316.58,-763.75 306.28,-766.23 310.08,-772.12"/>
</g>
</g>
</svg>
