<?xml version="1.0" encoding="UTF-8" standalone="no"?>
<!DOCTYPE svg PUBLIC "-//W3C//DTD SVG 1.1//EN"
 "http://www.w3.org/Graphics/SVG/1.1/DTD/svg11.dtd">
<!-- Generated by graphviz version 12.0.0 (20240704.0754)
 -->
<!-- Title: G Pages: 1 -->
<svg width="1579pt" height="2883pt"
 viewBox="0.00 0.00 379.00 692.00" xmlns="http://www.w3.org/2000/svg" xmlns:xlink="http://www.w3.org/1999/xlink">
<g id="graph0" class="graph" transform="scale(4.16667 4.16667) rotate(0) translate(4 688)">
<title>G</title>
<polygon fill="white" stroke="none" points="-4,4 -4,-688 375,-688 375,4 -4,4"/>
<!-- 565cb00d&#45;c100&#45;485f&#45;8dc6&#45;4a77b41d42c7 -->
<g id="node1" class="node">
<title>565cb00d&#45;c100&#45;485f&#45;8dc6&#45;4a77b41d42c7</title>
<polygon fill="none" stroke="black" points="54,-360 0,-360 0,-324 54,-324 54,-360"/>
<text text-anchor="middle" x="27" y="-336.95" font-family="Times,serif" font-size="14.00">.</text>
</g>
<!-- created -->
<g id="node2" class="node">
<title>created</title>
<polygon fill="none" stroke="black" points="196,-684 141,-684 141,-648 196,-648 196,-684"/>
<text text-anchor="middle" x="168.5" y="-660.95" font-family="Times,serif" font-size="14.00">created</text>
</g>
<!-- 565cb00d&#45;c100&#45;485f&#45;8dc6&#45;4a77b41d42c7&#45;&gt;created -->
<g id="edge1" class="edge">
<title>565cb00d&#45;c100&#45;485f&#45;8dc6&#45;4a77b41d42c7&#45;&gt;created</title>
<path fill="none" stroke="black" d="M29.49,-360.35C34.56,-418.4 52.89,-596.75 90,-639 100.09,-650.49 115.34,-657.09 129.65,-660.88"/>
<polygon fill="black" stroke="black" points="128.81,-664.28 139.33,-663.03 130.33,-657.45 128.81,-664.28"/>
</g>
<!-- created_by_ref -->
<g id="node3" class="node">
<title>created_by_ref</title>
<polygon fill="none" stroke="black" points="217,-630 120,-630 120,-594 217,-594 217,-630"/>
<text text-anchor="middle" x="168.5" y="-606.95" font-family="Times,serif" font-size="14.00">created_by_ref</text>
</g>
<!-- 565cb00d&#45;c100&#45;485f&#45;8dc6&#45;4a77b41d42c7&#45;&gt;created_by_ref -->
<g id="edge2" class="edge">
<title>565cb00d&#45;c100&#45;485f&#45;8dc6&#45;4a77b41d42c7&#45;&gt;created_by_ref</title>
<path fill="none" stroke="black" d="M27.19,-360.23C26.25,-404.68 30.08,-519.73 90,-585 95.43,-590.92 102.23,-595.54 109.53,-599.15"/>
<polygon fill="black" stroke="black" points="107.74,-602.19 118.32,-602.87 110.48,-595.75 107.74,-602.19"/>
</g>
<!-- description -->
<g id="node4" class="node">
<title>description</title>
<polygon fill="none" stroke="black" points="206.5,-576 130.5,-576 130.5,-540 206.5,-540 206.5,-576"/>
<text text-anchor="middle" x="168.5" y="-552.95" font-family="Times,serif" font-size="14.00">description</text>
</g>
<!-- 565cb00d&#45;c100&#45;485f&#45;8dc6&#45;4a77b41d42c7&#45;&gt;description -->
<g id="edge3" class="edge">
<title>565cb00d&#45;c100&#45;485f&#45;8dc6&#45;4a77b41d42c7&#45;&gt;description</title>
<path fill="none" stroke="black" d="M28.81,-360.32C31.43,-397.57 42.58,-482.7 90,-531 98.01,-539.16 108.62,-544.86 119.4,-548.83"/>
<polygon fill="black" stroke="black" points="118.12,-552.1 128.71,-551.8 120.25,-545.43 118.12,-552.1"/>
</g>
<!-- external_references[] -->
<g id="node5" class="node">
<title>external_references[]</title>
<polygon fill="none" stroke="black" points="233.88,-522 103.12,-522 103.12,-486 233.88,-486 233.88,-522"/>
<text text-anchor="middle" x="168.5" y="-498.95" font-family="Times,serif" font-size="14.00">external_references[]</text>
</g>
<!-- 565cb00d&#45;c100&#45;485f&#45;8dc6&#45;4a77b41d42c7&#45;&gt;external_references[] -->
<g id="edge4" class="edge">
<title>565cb00d&#45;c100&#45;485f&#45;8dc6&#45;4a77b41d42c7&#45;&gt;external_references[]</title>
<path fill="none" stroke="black" d="M31.62,-360.45C38.22,-389.3 54.88,-445.08 90,-477 91.1,-478 92.23,-478.96 93.4,-479.88"/>
<polygon fill="black" stroke="black" points="91.45,-482.79 101.7,-485.47 95.36,-476.98 91.45,-482.79"/>
</g>
<!-- id -->
<g id="node10" class="node">
<title>id</title>
<polygon fill="none" stroke="black" points="195.5,-468 141.5,-468 141.5,-432 195.5,-432 195.5,-468"/>
<text text-anchor="middle" x="168.5" y="-444.95" font-family="Times,serif" font-size="14.00">id</text>
</g>
<!-- 565cb00d&#45;c100&#45;485f&#45;8dc6&#45;4a77b41d42c7&#45;&gt;id -->
<g id="edge5" class="edge">
<title>565cb00d&#45;c100&#45;485f&#45;8dc6&#45;4a77b41d42c7&#45;&gt;id</title>
<path fill="none" stroke="black" d="M37.73,-360.28C48.33,-378.56 66.9,-406.29 90,-423 101.9,-431.61 116.79,-437.67 130.33,-441.83"/>
<polygon fill="black" stroke="black" points="129.26,-445.16 139.83,-444.49 131.14,-438.42 129.26,-445.16"/>
</g>
<!-- modified -->
<g id="node11" class="node">
<title>modified</title>
<polygon fill="none" stroke="black" points="201.25,-414 135.75,-414 135.75,-378 201.25,-378 201.25,-414"/>
<text text-anchor="middle" x="168.5" y="-390.95" font-family="Times,serif" font-size="14.00">modified</text>
</g>
<!-- 565cb00d&#45;c100&#45;485f&#45;8dc6&#45;4a77b41d42c7&#45;&gt;modified -->
<g id="edge6" class="edge">
<title>565cb00d&#45;c100&#45;485f&#45;8dc6&#45;4a77b41d42c7&#45;&gt;modified</title>
<path fill="none" stroke="black" d="M54.37,-354.01C65.31,-358.85 78.19,-364.38 90,-369 101.16,-373.37 113.35,-377.78 124.7,-381.74"/>
<polygon fill="black" stroke="black" points="123.22,-384.93 133.82,-384.88 125.51,-378.31 123.22,-384.93"/>
</g>
<!-- name -->
<g id="node12" class="node">
<title>name</title>
<polygon fill="none" stroke="black" points="195.5,-360 141.5,-360 141.5,-324 195.5,-324 195.5,-360"/>
<text text-anchor="middle" x="168.5" y="-336.95" font-family="Times,serif" font-size="14.00">name</text>
</g>
<!-- 565cb00d&#45;c100&#45;485f&#45;8dc6&#45;4a77b41d42c7&#45;&gt;name -->
<g id="edge7" class="edge">
<title>565cb00d&#45;c100&#45;485f&#45;8dc6&#45;4a77b41d42c7&#45;&gt;name</title>
<path fill="none" stroke="black" d="M54.24,-342C75.57,-342 105.95,-342 129.88,-342"/>
<polygon fill="black" stroke="black" points="129.87,-345.5 139.87,-342 129.87,-338.5 129.87,-345.5"/>
</g>
<!-- object_marking_refs -->
<g id="node13" class="node">
<title>object_marking_refs</title>
<polygon fill="none" stroke="black" points="232.75,-306 104.25,-306 104.25,-270 232.75,-270 232.75,-306"/>
<text text-anchor="middle" x="168.5" y="-282.95" font-family="Times,serif" font-size="14.00">object_marking_refs</text>
</g>
<!-- 565cb00d&#45;c100&#45;485f&#45;8dc6&#45;4a77b41d42c7&#45;&gt;object_marking_refs -->
<g id="edge8" class="edge">
<title>565cb00d&#45;c100&#45;485f&#45;8dc6&#45;4a77b41d42c7&#45;&gt;object_marking_refs</title>
<path fill="none" stroke="black" d="M54.37,-329.99C65.31,-325.15 78.19,-319.62 90,-315 94.06,-313.41 98.26,-311.81 102.51,-310.24"/>
<polygon fill="black" stroke="black" points="103.49,-313.6 111.69,-306.88 101.09,-307.03 103.49,-313.6"/>
</g>
<!-- type -->
<g id="node14" class="node">
<title>type</title>
<polygon fill="none" stroke="black" points="195.5,-252 141.5,-252 141.5,-216 195.5,-216 195.5,-252"/>
<text text-anchor="middle" x="168.5" y="-228.95" font-family="Times,serif" font-size="14.00">type</text>
</g>
<!-- 565cb00d&#45;c100&#45;485f&#45;8dc6&#45;4a77b41d42c7&#45;&gt;type -->
<g id="edge9" class="edge">
<title>565cb00d&#45;c100&#45;485f&#45;8dc6&#45;4a77b41d42c7&#45;&gt;type</title>
<path fill="none" stroke="black" d="M37.73,-323.72C48.33,-305.44 66.9,-277.71 90,-261 101.9,-252.39 116.79,-246.33 130.33,-242.17"/>
<polygon fill="black" stroke="black" points="131.14,-245.58 139.83,-239.51 129.26,-238.84 131.14,-245.58"/>
</g>
<!-- x_mitre_deprecated -->
<g id="node15" class="node">
<title>x_mitre_deprecated</title>
<polygon fill="none" stroke="black" points="230.5,-198 106.5,-198 106.5,-162 230.5,-162 230.5,-198"/>
<text text-anchor="middle" x="168.5" y="-174.95" font-family="Times,serif" font-size="14.00">x_mitre_deprecated</text>
</g>
<!-- 565cb00d&#45;c100&#45;485f&#45;8dc6&#45;4a77b41d42c7&#45;&gt;x_mitre_deprecated -->
<g id="edge10" class="edge">
<title>565cb00d&#45;c100&#45;485f&#45;8dc6&#45;4a77b41d42c7&#45;&gt;x_mitre_deprecated</title>
<path fill="none" stroke="black" d="M31.62,-323.55C38.22,-294.7 54.88,-238.92 90,-207 92.08,-205.11 94.29,-203.36 96.61,-201.72"/>
<polygon fill="black" stroke="black" points="98,-204.98 104.72,-196.79 94.36,-199 98,-204.98"/>
</g>
<!-- x_mitre_domains -->
<g id="node16" class="node">
<title>x_mitre_domains</title>
<polygon fill="none" stroke="black" points="224.5,-144 112.5,-144 112.5,-108 224.5,-108 224.5,-144"/>
<text text-anchor="middle" x="168.5" y="-120.95" font-family="Times,serif" font-size="14.00">x_mitre_domains</text>
</g>
<!-- 565cb00d&#45;c100&#45;485f&#45;8dc6&#45;4a77b41d42c7&#45;&gt;x_mitre_domains -->
<g id="edge11" class="edge">
<title>565cb00d&#45;c100&#45;485f&#45;8dc6&#45;4a77b41d42c7&#45;&gt;x_mitre_domains</title>
<path fill="none" stroke="black" d="M28.81,-323.68C31.43,-286.43 42.58,-201.3 90,-153 93.58,-149.36 97.67,-146.2 102.07,-143.48"/>
<polygon fill="black" stroke="black" points="103.57,-146.64 110.76,-138.87 100.29,-140.46 103.57,-146.64"/>
</g>
<!-- x_mitre_modified_by_ref -->
<g id="node17" class="node">
<title>x_mitre_modified_by_ref</title>
<polygon fill="none" stroke="black" points="247,-90 90,-90 90,-54 247,-54 247,-90"/>
<text text-anchor="middle" x="168.5" y="-66.95" font-family="Times,serif" font-size="14.00">x_mitre_modified_by_ref</text>
</g>
<!-- 565cb00d&#45;c100&#45;485f&#45;8dc6&#45;4a77b41d42c7&#45;&gt;x_mitre_modified_by_ref -->
<g id="edge12" class="edge">
<title>565cb00d&#45;c100&#45;485f&#45;8dc6&#45;4a77b41d42c7&#45;&gt;x_mitre_modified_by_ref</title>
<path fill="none" stroke="black" d="M27.19,-323.77C26.25,-279.32 30.08,-164.27 90,-99 90.47,-98.49 90.94,-97.99 91.43,-97.5"/>
<polygon fill="black" stroke="black" points="93.42,-100.4 98.89,-91.33 88.95,-95.01 93.42,-100.4"/>
</g>
<!-- x_mitre_version -->
<g id="node18" class="node">
<title>x_mitre_version</title>
<polygon fill="none" stroke="black" points="221.12,-36 115.88,-36 115.88,0 221.12,0 221.12,-36"/>
<text text-anchor="middle" x="168.5" y="-12.95" font-family="Times,serif" font-size="14.00">x_mitre_version</text>
</g>
<!-- 565cb00d&#45;c100&#45;485f&#45;8dc6&#45;4a77b41d42c7&#45;&gt;x_mitre_version -->
<g id="edge13" class="edge">
<title>565cb00d&#45;c100&#45;485f&#45;8dc6&#45;4a77b41d42c7&#45;&gt;x_mitre_version</title>
<path fill="none" stroke="black" d="M29.49,-323.65C34.56,-265.6 52.89,-87.25 90,-45 94.34,-40.06 99.63,-36.03 105.39,-32.73"/>
<polygon fill="black" stroke="black" points="106.61,-36.03 114.07,-28.51 103.55,-29.73 106.61,-36.03"/>
</g>
<!-- external_references[].description -->
<g id="node6" class="node">
<title>external_references[].description</title>
<polygon fill="none" stroke="black" points="365,-603 289,-603 289,-567 365,-567 365,-603"/>
<text text-anchor="middle" x="327" y="-579.95" font-family="Times,serif" font-size="14.00">description</text>
</g>
<!-- external_references[]&#45;&gt;external_references[].description -->
<g id="edge14" class="edge">
<title>external_references[]&#45;&gt;external_references[].description</title>
<path fill="none" stroke="black" d="M228.71,-522.48C235.01,-525.07 241.22,-527.92 247,-531 264.65,-540.4 266.52,-546.67 283,-558 284.19,-558.81 285.39,-559.63 286.62,-560.46"/>
<polygon fill="black" stroke="black" points="284.64,-563.34 294.92,-565.9 288.47,-557.49 284.64,-563.34"/>
</g>
<!-- external_references[].external_id -->
<g id="node7" class="node">
<title>external_references[].external_id</title>
<polygon fill="none" stroke="black" points="365.38,-549 288.62,-549 288.62,-513 365.38,-513 365.38,-549"/>
<text text-anchor="middle" x="327" y="-525.95" font-family="Times,serif" font-size="14.00">external_id</text>
</g>
<!-- external_references[]&#45;&gt;external_references[].external_id -->
<g id="edge15" class="edge">
<title>external_references[]&#45;&gt;external_references[].external_id</title>
<path fill="none" stroke="black" d="M234.06,-515.14C248.53,-517.63 263.65,-520.24 277.34,-522.61"/>
<polygon fill="black" stroke="black" points="276.53,-526.02 286.98,-524.27 277.72,-519.12 276.53,-526.02"/>
</g>
<!-- external_references[].source_name -->
<g id="node8" class="node">
<title>external_references[].source_name</title>
<polygon fill="none" stroke="black" points="371,-495 283,-495 283,-459 371,-459 371,-495"/>
<text text-anchor="middle" x="327" y="-471.95" font-family="Times,serif" font-size="14.00">source_name</text>
</g>
<!-- external_references[]&#45;&gt;external_references[].source_name -->
<g id="edge16" class="edge">
<title>external_references[]&#45;&gt;external_references[].source_name</title>
<path fill="none" stroke="black" d="M234.06,-492.86C246.44,-490.73 259.29,-488.51 271.32,-486.43"/>
<polygon fill="black" stroke="black" points="271.81,-489.9 281.07,-484.75 270.62,-483 271.81,-489.9"/>
</g>
<!-- external_references[].url -->
<g id="node9" class="node">
<title>external_references[].url</title>
<polygon fill="none" stroke="black" points="354,-441 300,-441 300,-405 354,-405 354,-441"/>
<text text-anchor="middle" x="327" y="-417.95" font-family="Times,serif" font-size="14.00">url</text>
</g>
<!-- external_references[]&#45;&gt;external_references[].url -->
<g id="edge17" class="edge">
<title>external_references[]&#45;&gt;external_references[].url</title>
<path fill="none" stroke="black" d="M228.71,-485.52C235.01,-482.93 241.22,-480.08 247,-477 264.65,-467.6 266.52,-461.33 283,-450 285.35,-448.38 287.8,-446.74 290.27,-445.11"/>
<polygon fill="black" stroke="black" points="292.08,-448.12 298.58,-439.75 288.28,-442.23 292.08,-448.12"/>
</g>
</g>
</svg>
