<?xml version="1.0" encoding="UTF-8" standalone="no"?>
<!DOCTYPE svg PUBLIC "-//W3C//DTD SVG 1.1//EN"
 "http://www.w3.org/Graphics/SVG/1.1/DTD/svg11.dtd">
<!-- Generated by graphviz version 12.0.0 (20240704.0754)
 -->
<!-- Title: G Pages: 1 -->
<svg width="944pt" height="1533pt"
 viewBox="0.00 0.00 226.50 368.00" xmlns="http://www.w3.org/2000/svg" xmlns:xlink="http://www.w3.org/1999/xlink">
<g id="graph0" class="graph" transform="scale(4.16667 4.16667) rotate(0) translate(4 364)">
<title>G</title>
<polygon fill="white" stroke="none" points="-4,4 -4,-364 222.5,-364 222.5,4 -4,4"/>
<!-- 058b8c64&#45;434e&#45;444e&#45;9904&#45;ca2d8edfb304 -->
<g id="node1" class="node">
<title>058b8c64&#45;434e&#45;444e&#45;9904&#45;ca2d8edfb304</title>
<polygon fill="none" stroke="black" points="54,-198 0,-198 0,-162 54,-162 54,-198"/>
<text text-anchor="middle" x="27" y="-174.95" font-family="Times,serif" font-size="14.00">.</text>
</g>
<!-- created -->
<g id="node2" class="node">
<title>created</title>
<polygon fill="none" stroke="black" points="181.75,-360 126.75,-360 126.75,-324 181.75,-324 181.75,-360"/>
<text text-anchor="middle" x="154.25" y="-336.95" font-family="Times,serif" font-size="14.00">created</text>
</g>
<!-- 058b8c64&#45;434e&#45;444e&#45;9904&#45;ca2d8edfb304&#45;&gt;created -->
<g id="edge1" class="edge">
<title>058b8c64&#45;434e&#45;444e&#45;9904&#45;ca2d8edfb304&#45;&gt;created</title>
<path fill="none" stroke="black" d="M31.88,-198.17C38.84,-226.64 55.99,-281.9 90,-315 97.2,-322 106.49,-327.32 115.72,-331.3"/>
<polygon fill="black" stroke="black" points="114.41,-334.54 125,-334.84 116.91,-328 114.41,-334.54"/>
</g>
<!-- id -->
<g id="node3" class="node">
<title>id</title>
<polygon fill="none" stroke="black" points="181.25,-306 127.25,-306 127.25,-270 181.25,-270 181.25,-306"/>
<text text-anchor="middle" x="154.25" y="-282.95" font-family="Times,serif" font-size="14.00">id</text>
</g>
<!-- 058b8c64&#45;434e&#45;444e&#45;9904&#45;ca2d8edfb304&#45;&gt;id -->
<g id="edge2" class="edge">
<title>058b8c64&#45;434e&#45;444e&#45;9904&#45;ca2d8edfb304&#45;&gt;id</title>
<path fill="none" stroke="black" d="M38.18,-198.3C49,-216.32 67.62,-243.62 90,-261 97.86,-267.11 107.31,-272.1 116.48,-276.06"/>
<polygon fill="black" stroke="black" points="115.01,-279.24 125.6,-279.67 117.59,-272.73 115.01,-279.24"/>
</g>
<!-- identity_class -->
<g id="node4" class="node">
<title>identity_class</title>
<polygon fill="none" stroke="black" points="199.38,-252 109.12,-252 109.12,-216 199.38,-216 199.38,-252"/>
<text text-anchor="middle" x="154.25" y="-228.95" font-family="Times,serif" font-size="14.00">identity_class</text>
</g>
<!-- 058b8c64&#45;434e&#45;444e&#45;9904&#45;ca2d8edfb304&#45;&gt;identity_class -->
<g id="edge3" class="edge">
<title>058b8c64&#45;434e&#45;444e&#45;9904&#45;ca2d8edfb304&#45;&gt;identity_class</title>
<path fill="none" stroke="black" d="M54.23,-191.47C65.26,-196.29 78.25,-201.93 90,-207 93.13,-208.35 96.36,-209.74 99.61,-211.13"/>
<polygon fill="black" stroke="black" points="98.06,-214.28 108.63,-215 100.82,-207.84 98.06,-214.28"/>
</g>
<!-- modified -->
<g id="node5" class="node">
<title>modified</title>
<polygon fill="none" stroke="black" points="187,-198 121.5,-198 121.5,-162 187,-162 187,-198"/>
<text text-anchor="middle" x="154.25" y="-174.95" font-family="Times,serif" font-size="14.00">modified</text>
</g>
<!-- 058b8c64&#45;434e&#45;444e&#45;9904&#45;ca2d8edfb304&#45;&gt;modified -->
<g id="edge4" class="edge">
<title>058b8c64&#45;434e&#45;444e&#45;9904&#45;ca2d8edfb304&#45;&gt;modified</title>
<path fill="none" stroke="black" d="M54.26,-180C70.34,-180 91.32,-180 109.82,-180"/>
<polygon fill="black" stroke="black" points="109.74,-183.5 119.74,-180 109.74,-176.5 109.74,-183.5"/>
</g>
<!-- name -->
<g id="node6" class="node">
<title>name</title>
<polygon fill="none" stroke="black" points="181.25,-144 127.25,-144 127.25,-108 181.25,-108 181.25,-144"/>
<text text-anchor="middle" x="154.25" y="-120.95" font-family="Times,serif" font-size="14.00">name</text>
</g>
<!-- 058b8c64&#45;434e&#45;444e&#45;9904&#45;ca2d8edfb304&#45;&gt;name -->
<g id="edge5" class="edge">
<title>058b8c64&#45;434e&#45;444e&#45;9904&#45;ca2d8edfb304&#45;&gt;name</title>
<path fill="none" stroke="black" d="M54.23,-168.53C65.26,-163.71 78.25,-158.07 90,-153 98.48,-149.34 107.61,-145.43 116.22,-141.75"/>
<polygon fill="black" stroke="black" points="117.55,-144.99 125.37,-137.85 114.8,-138.55 117.55,-144.99"/>
</g>
<!-- object_marking_refs -->
<g id="node7" class="node">
<title>object_marking_refs</title>
<polygon fill="none" stroke="black" points="218.5,-90 90,-90 90,-54 218.5,-54 218.5,-90"/>
<text text-anchor="middle" x="154.25" y="-66.95" font-family="Times,serif" font-size="14.00">object_marking_refs</text>
</g>
<!-- 058b8c64&#45;434e&#45;444e&#45;9904&#45;ca2d8edfb304&#45;&gt;object_marking_refs -->
<g id="edge6" class="edge">
<title>058b8c64&#45;434e&#45;444e&#45;9904&#45;ca2d8edfb304&#45;&gt;object_marking_refs</title>
<path fill="none" stroke="black" d="M38.18,-161.7C49,-143.68 67.62,-116.38 90,-99 91.14,-98.11 92.31,-97.25 93.52,-96.41"/>
<polygon fill="black" stroke="black" points="95.23,-99.47 101.89,-91.23 91.54,-93.52 95.23,-99.47"/>
</g>
<!-- type -->
<g id="node8" class="node">
<title>type</title>
<polygon fill="none" stroke="black" points="181.25,-36 127.25,-36 127.25,0 181.25,0 181.25,-36"/>
<text text-anchor="middle" x="154.25" y="-12.95" font-family="Times,serif" font-size="14.00">type</text>
</g>
<!-- 058b8c64&#45;434e&#45;444e&#45;9904&#45;ca2d8edfb304&#45;&gt;type -->
<g id="edge7" class="edge">
<title>058b8c64&#45;434e&#45;444e&#45;9904&#45;ca2d8edfb304&#45;&gt;type</title>
<path fill="none" stroke="black" d="M31.88,-161.83C38.84,-133.36 55.99,-78.1 90,-45 97.4,-37.8 107.01,-32.38 116.5,-28.37"/>
<polygon fill="black" stroke="black" points="117.5,-31.73 125.63,-24.94 115.03,-25.18 117.5,-31.73"/>
</g>
</g>
</svg>
