<?xml version="1.0" encoding="UTF-8" standalone="no"?>
<!DOCTYPE svg PUBLIC "-//W3C//DTD SVG 1.1//EN"
 "http://www.w3.org/Graphics/SVG/1.1/DTD/svg11.dtd">
<!-- Generated by graphviz version 12.0.0 (20240704.0754)
 -->
<!-- Title: G Pages: 1 -->
<svg width="1579pt" height="2883pt"
 viewBox="0.00 0.00 379.00 692.00" xmlns="http://www.w3.org/2000/svg" xmlns:xlink="http://www.w3.org/1999/xlink">
<g id="graph0" class="graph" transform="scale(4.16667 4.16667) rotate(0) translate(4 688)">
<title>G</title>
<polygon fill="white" stroke="none" points="-4,4 -4,-688 375,-688 375,4 -4,4"/>
<!-- 536891cd&#45;e044&#45;4f22&#45;ad43&#45;9d770877f419 -->
<g id="node1" class="node">
<title>536891cd&#45;e044&#45;4f22&#45;ad43&#45;9d770877f419</title>
<polygon fill="none" stroke="black" points="54,-360 0,-360 0,-324 54,-324 54,-360"/>
<text text-anchor="middle" x="27" y="-336.95" font-family="Times,serif" font-size="14.00">.</text>
</g>
<!-- aliases -->
<g id="node2" class="node">
<title>aliases</title>
<polygon fill="none" stroke="black" points="195.5,-684 141.5,-684 141.5,-648 195.5,-648 195.5,-684"/>
<text text-anchor="middle" x="168.5" y="-660.95" font-family="Times,serif" font-size="14.00">aliases</text>
</g>
<!-- 536891cd&#45;e044&#45;4f22&#45;ad43&#45;9d770877f419&#45;&gt;aliases -->
<g id="edge1" class="edge">
<title>536891cd&#45;e044&#45;4f22&#45;ad43&#45;9d770877f419&#45;&gt;aliases</title>
<path fill="none" stroke="black" d="M29.49,-360.35C34.56,-418.4 52.89,-596.75 90,-639 100.16,-650.57 115.56,-657.19 129.96,-660.97"/>
<polygon fill="black" stroke="black" points="129.18,-664.38 139.7,-663.1 130.69,-657.54 129.18,-664.38"/>
</g>
<!-- created -->
<g id="node3" class="node">
<title>created</title>
<polygon fill="none" stroke="black" points="196,-630 141,-630 141,-594 196,-594 196,-630"/>
<text text-anchor="middle" x="168.5" y="-606.95" font-family="Times,serif" font-size="14.00">created</text>
</g>
<!-- 536891cd&#45;e044&#45;4f22&#45;ad43&#45;9d770877f419&#45;&gt;created -->
<g id="edge2" class="edge">
<title>536891cd&#45;e044&#45;4f22&#45;ad43&#45;9d770877f419&#45;&gt;created</title>
<path fill="none" stroke="black" d="M27.19,-360.23C26.25,-404.68 30.08,-519.73 90,-585 100.26,-596.18 115.4,-602.73 129.59,-606.57"/>
<polygon fill="black" stroke="black" points="128.64,-609.94 139.17,-608.76 130.2,-603.12 128.64,-609.94"/>
</g>
<!-- created_by_ref -->
<g id="node4" class="node">
<title>created_by_ref</title>
<polygon fill="none" stroke="black" points="217,-576 120,-576 120,-540 217,-540 217,-576"/>
<text text-anchor="middle" x="168.5" y="-552.95" font-family="Times,serif" font-size="14.00">created_by_ref</text>
</g>
<!-- 536891cd&#45;e044&#45;4f22&#45;ad43&#45;9d770877f419&#45;&gt;created_by_ref -->
<g id="edge3" class="edge">
<title>536891cd&#45;e044&#45;4f22&#45;ad43&#45;9d770877f419&#45;&gt;created_by_ref</title>
<path fill="none" stroke="black" d="M28.81,-360.32C31.43,-397.57 42.58,-482.7 90,-531 95.43,-536.53 102.06,-540.93 109.12,-544.43"/>
<polygon fill="black" stroke="black" points="107.74,-547.65 118.31,-548.35 110.48,-541.21 107.74,-547.65"/>
</g>
<!-- description -->
<g id="node5" class="node">
<title>description</title>
<polygon fill="none" stroke="black" points="206.5,-522 130.5,-522 130.5,-486 206.5,-486 206.5,-522"/>
<text text-anchor="middle" x="168.5" y="-498.95" font-family="Times,serif" font-size="14.00">description</text>
</g>
<!-- 536891cd&#45;e044&#45;4f22&#45;ad43&#45;9d770877f419&#45;&gt;description -->
<g id="edge4" class="edge">
<title>536891cd&#45;e044&#45;4f22&#45;ad43&#45;9d770877f419&#45;&gt;description</title>
<path fill="none" stroke="black" d="M31.62,-360.45C38.22,-389.3 54.88,-445.08 90,-477 98.38,-484.62 109.03,-490.11 119.73,-494.06"/>
<polygon fill="black" stroke="black" points="118.34,-497.29 128.93,-497.05 120.5,-490.63 118.34,-497.29"/>
</g>
<!-- external_references[] -->
<g id="node6" class="node">
<title>external_references[]</title>
<polygon fill="none" stroke="black" points="233.88,-468 103.12,-468 103.12,-432 233.88,-432 233.88,-468"/>
<text text-anchor="middle" x="168.5" y="-444.95" font-family="Times,serif" font-size="14.00">external_references[]</text>
</g>
<!-- 536891cd&#45;e044&#45;4f22&#45;ad43&#45;9d770877f419&#45;&gt;external_references[] -->
<g id="edge5" class="edge">
<title>536891cd&#45;e044&#45;4f22&#45;ad43&#45;9d770877f419&#45;&gt;external_references[]</title>
<path fill="none" stroke="black" d="M37.73,-360.28C48.33,-378.56 66.9,-406.29 90,-423 91.37,-423.99 92.78,-424.95 94.22,-425.87"/>
<polygon fill="black" stroke="black" points="92.42,-428.87 102.84,-430.77 95.87,-422.79 92.42,-428.87"/>
</g>
<!-- id -->
<g id="node11" class="node">
<title>id</title>
<polygon fill="none" stroke="black" points="195.5,-414 141.5,-414 141.5,-378 195.5,-378 195.5,-414"/>
<text text-anchor="middle" x="168.5" y="-390.95" font-family="Times,serif" font-size="14.00">id</text>
</g>
<!-- 536891cd&#45;e044&#45;4f22&#45;ad43&#45;9d770877f419&#45;&gt;id -->
<g id="edge6" class="edge">
<title>536891cd&#45;e044&#45;4f22&#45;ad43&#45;9d770877f419&#45;&gt;id</title>
<path fill="none" stroke="black" d="M54.37,-354.01C65.31,-358.85 78.19,-364.38 90,-369 103.03,-374.1 117.47,-379.26 130.32,-383.69"/>
<polygon fill="black" stroke="black" points="129.11,-386.97 139.7,-386.88 131.36,-380.34 129.11,-386.97"/>
</g>
<!-- modified -->
<g id="node12" class="node">
<title>modified</title>
<polygon fill="none" stroke="black" points="201.25,-360 135.75,-360 135.75,-324 201.25,-324 201.25,-360"/>
<text text-anchor="middle" x="168.5" y="-336.95" font-family="Times,serif" font-size="14.00">modified</text>
</g>
<!-- 536891cd&#45;e044&#45;4f22&#45;ad43&#45;9d770877f419&#45;&gt;modified -->
<g id="edge7" class="edge">
<title>536891cd&#45;e044&#45;4f22&#45;ad43&#45;9d770877f419&#45;&gt;modified</title>
<path fill="none" stroke="black" d="M54.24,-342C73.86,-342 101.14,-342 124.01,-342"/>
<polygon fill="black" stroke="black" points="123.99,-345.5 133.99,-342 123.99,-338.5 123.99,-345.5"/>
</g>
<!-- name -->
<g id="node13" class="node">
<title>name</title>
<polygon fill="none" stroke="black" points="195.5,-306 141.5,-306 141.5,-270 195.5,-270 195.5,-306"/>
<text text-anchor="middle" x="168.5" y="-282.95" font-family="Times,serif" font-size="14.00">name</text>
</g>
<!-- 536891cd&#45;e044&#45;4f22&#45;ad43&#45;9d770877f419&#45;&gt;name -->
<g id="edge8" class="edge">
<title>536891cd&#45;e044&#45;4f22&#45;ad43&#45;9d770877f419&#45;&gt;name</title>
<path fill="none" stroke="black" d="M54.37,-329.99C65.31,-325.15 78.19,-319.62 90,-315 103.03,-309.9 117.47,-304.74 130.32,-300.31"/>
<polygon fill="black" stroke="black" points="131.36,-303.66 139.7,-297.12 129.11,-297.03 131.36,-303.66"/>
</g>
<!-- object_marking_refs -->
<g id="node14" class="node">
<title>object_marking_refs</title>
<polygon fill="none" stroke="black" points="232.75,-252 104.25,-252 104.25,-216 232.75,-216 232.75,-252"/>
<text text-anchor="middle" x="168.5" y="-228.95" font-family="Times,serif" font-size="14.00">object_marking_refs</text>
</g>
<!-- 536891cd&#45;e044&#45;4f22&#45;ad43&#45;9d770877f419&#45;&gt;object_marking_refs -->
<g id="edge9" class="edge">
<title>536891cd&#45;e044&#45;4f22&#45;ad43&#45;9d770877f419&#45;&gt;object_marking_refs</title>
<path fill="none" stroke="black" d="M37.73,-323.72C48.33,-305.44 66.9,-277.71 90,-261 91.37,-260.01 92.78,-259.05 94.22,-258.13"/>
<polygon fill="black" stroke="black" points="95.87,-261.21 102.84,-253.23 92.42,-255.13 95.87,-261.21"/>
</g>
<!-- type -->
<g id="node15" class="node">
<title>type</title>
<polygon fill="none" stroke="black" points="195.5,-198 141.5,-198 141.5,-162 195.5,-162 195.5,-198"/>
<text text-anchor="middle" x="168.5" y="-174.95" font-family="Times,serif" font-size="14.00">type</text>
</g>
<!-- 536891cd&#45;e044&#45;4f22&#45;ad43&#45;9d770877f419&#45;&gt;type -->
<g id="edge10" class="edge">
<title>536891cd&#45;e044&#45;4f22&#45;ad43&#45;9d770877f419&#45;&gt;type</title>
<path fill="none" stroke="black" d="M31.62,-323.55C38.22,-294.7 54.88,-238.92 90,-207 101.15,-196.87 116.31,-190.5 130.26,-186.51"/>
<polygon fill="black" stroke="black" points="130.78,-189.99 139.63,-184.17 129.08,-183.2 130.78,-189.99"/>
</g>
<!-- x_mitre_domains -->
<g id="node16" class="node">
<title>x_mitre_domains</title>
<polygon fill="none" stroke="black" points="224.5,-144 112.5,-144 112.5,-108 224.5,-108 224.5,-144"/>
<text text-anchor="middle" x="168.5" y="-120.95" font-family="Times,serif" font-size="14.00">x_mitre_domains</text>
</g>
<!-- 536891cd&#45;e044&#45;4f22&#45;ad43&#45;9d770877f419&#45;&gt;x_mitre_domains -->
<g id="edge11" class="edge">
<title>536891cd&#45;e044&#45;4f22&#45;ad43&#45;9d770877f419&#45;&gt;x_mitre_domains</title>
<path fill="none" stroke="black" d="M28.81,-323.68C31.43,-286.43 42.58,-201.3 90,-153 93.58,-149.36 97.67,-146.2 102.07,-143.48"/>
<polygon fill="black" stroke="black" points="103.57,-146.64 110.76,-138.87 100.29,-140.46 103.57,-146.64"/>
</g>
<!-- x_mitre_modified_by_ref -->
<g id="node17" class="node">
<title>x_mitre_modified_by_ref</title>
<polygon fill="none" stroke="black" points="247,-90 90,-90 90,-54 247,-54 247,-90"/>
<text text-anchor="middle" x="168.5" y="-66.95" font-family="Times,serif" font-size="14.00">x_mitre_modified_by_ref</text>
</g>
<!-- 536891cd&#45;e044&#45;4f22&#45;ad43&#45;9d770877f419&#45;&gt;x_mitre_modified_by_ref -->
<g id="edge12" class="edge">
<title>536891cd&#45;e044&#45;4f22&#45;ad43&#45;9d770877f419&#45;&gt;x_mitre_modified_by_ref</title>
<path fill="none" stroke="black" d="M27.19,-323.77C26.25,-279.32 30.08,-164.27 90,-99 90.47,-98.49 90.94,-97.99 91.43,-97.5"/>
<polygon fill="black" stroke="black" points="93.42,-100.4 98.89,-91.33 88.95,-95.01 93.42,-100.4"/>
</g>
<!-- x_mitre_version -->
<g id="node18" class="node">
<title>x_mitre_version</title>
<polygon fill="none" stroke="black" points="221.12,-36 115.88,-36 115.88,0 221.12,0 221.12,-36"/>
<text text-anchor="middle" x="168.5" y="-12.95" font-family="Times,serif" font-size="14.00">x_mitre_version</text>
</g>
<!-- 536891cd&#45;e044&#45;4f22&#45;ad43&#45;9d770877f419&#45;&gt;x_mitre_version -->
<g id="edge13" class="edge">
<title>536891cd&#45;e044&#45;4f22&#45;ad43&#45;9d770877f419&#45;&gt;x_mitre_version</title>
<path fill="none" stroke="black" d="M29.49,-323.65C34.56,-265.6 52.89,-87.25 90,-45 94.34,-40.06 99.63,-36.03 105.39,-32.73"/>
<polygon fill="black" stroke="black" points="106.61,-36.03 114.07,-28.51 103.55,-29.73 106.61,-36.03"/>
</g>
<!-- external_references[].description -->
<g id="node7" class="node">
<title>external_references[].description</title>
<polygon fill="none" stroke="black" points="365,-549 289,-549 289,-513 365,-513 365,-549"/>
<text text-anchor="middle" x="327" y="-525.95" font-family="Times,serif" font-size="14.00">description</text>
</g>
<!-- external_references[]&#45;&gt;external_references[].description -->
<g id="edge14" class="edge">
<title>external_references[]&#45;&gt;external_references[].description</title>
<path fill="none" stroke="black" d="M228.71,-468.48C235.01,-471.07 241.22,-473.92 247,-477 264.65,-486.4 266.52,-492.67 283,-504 284.19,-504.81 285.39,-505.63 286.62,-506.46"/>
<polygon fill="black" stroke="black" points="284.64,-509.34 294.92,-511.9 288.47,-503.49 284.64,-509.34"/>
</g>
<!-- external_references[].external_id -->
<g id="node8" class="node">
<title>external_references[].external_id</title>
<polygon fill="none" stroke="black" points="365.38,-495 288.62,-495 288.62,-459 365.38,-459 365.38,-495"/>
<text text-anchor="middle" x="327" y="-471.95" font-family="Times,serif" font-size="14.00">external_id</text>
</g>
<!-- external_references[]&#45;&gt;external_references[].external_id -->
<g id="edge15" class="edge">
<title>external_references[]&#45;&gt;external_references[].external_id</title>
<path fill="none" stroke="black" d="M234.06,-461.14C248.53,-463.63 263.65,-466.24 277.34,-468.61"/>
<polygon fill="black" stroke="black" points="276.53,-472.02 286.98,-470.27 277.72,-465.12 276.53,-472.02"/>
</g>
<!-- external_references[].source_name -->
<g id="node9" class="node">
<title>external_references[].source_name</title>
<polygon fill="none" stroke="black" points="371,-441 283,-441 283,-405 371,-405 371,-441"/>
<text text-anchor="middle" x="327" y="-417.95" font-family="Times,serif" font-size="14.00">source_name</text>
</g>
<!-- external_references[]&#45;&gt;external_references[].source_name -->
<g id="edge16" class="edge">
<title>external_references[]&#45;&gt;external_references[].source_name</title>
<path fill="none" stroke="black" d="M234.06,-438.86C246.44,-436.73 259.29,-434.51 271.32,-432.43"/>
<polygon fill="black" stroke="black" points="271.81,-435.9 281.07,-430.75 270.62,-429 271.81,-435.9"/>
</g>
<!-- external_references[].url -->
<g id="node10" class="node">
<title>external_references[].url</title>
<polygon fill="none" stroke="black" points="354,-387 300,-387 300,-351 354,-351 354,-387"/>
<text text-anchor="middle" x="327" y="-363.95" font-family="Times,serif" font-size="14.00">url</text>
</g>
<!-- external_references[]&#45;&gt;external_references[].url -->
<g id="edge17" class="edge">
<title>external_references[]&#45;&gt;external_references[].url</title>
<path fill="none" stroke="black" d="M228.71,-431.52C235.01,-428.93 241.22,-426.08 247,-423 264.65,-413.6 266.52,-407.33 283,-396 285.35,-394.38 287.8,-392.74 290.27,-391.11"/>
<polygon fill="black" stroke="black" points="292.08,-394.12 298.58,-385.75 288.28,-388.23 292.08,-394.12"/>
</g>
</g>
</svg>
