<?xml version="1.0" encoding="UTF-8" standalone="no"?>
<!DOCTYPE svg PUBLIC "-//W3C//DTD SVG 1.1//EN"
 "http://www.w3.org/Graphics/SVG/1.1/DTD/svg11.dtd">
<!-- Generated by graphviz version 12.0.0 (20240704.0754)
 -->
<!-- Title: G Pages: 1 -->
<svg width="1573pt" height="1533pt"
 viewBox="0.00 0.00 377.50 368.00" xmlns="http://www.w3.org/2000/svg" xmlns:xlink="http://www.w3.org/1999/xlink">
<g id="graph0" class="graph" transform="scale(4.16667 4.16667) rotate(0) translate(4 364)">
<title>G</title>
<polygon fill="white" stroke="none" points="-4,4 -4,-364 373.5,-364 373.5,4 -4,4"/>
<!-- 28074113&#45;3601&#45;4b09&#45;a790&#45;8ad0d0f86bba -->
<g id="node1" class="node">
<title>28074113&#45;3601&#45;4b09&#45;a790&#45;8ad0d0f86bba</title>
<polygon fill="none" stroke="black" points="54,-198 0,-198 0,-162 54,-162 54,-198"/>
<text text-anchor="middle" x="27" y="-174.95" font-family="Times,serif" font-size="14.00">.</text>
</g>
<!-- created -->
<g id="node2" class="node">
<title>created</title>
<polygon fill="none" stroke="black" points="205,-360 150,-360 150,-324 205,-324 205,-360"/>
<text text-anchor="middle" x="177.5" y="-336.95" font-family="Times,serif" font-size="14.00">created</text>
</g>
<!-- 28074113&#45;3601&#45;4b09&#45;a790&#45;8ad0d0f86bba&#45;&gt;created -->
<g id="edge1" class="edge">
<title>28074113&#45;3601&#45;4b09&#45;a790&#45;8ad0d0f86bba&#45;&gt;created</title>
<path fill="none" stroke="black" d="M31.39,-198.12C37.75,-227.02 54.17,-283.49 90,-315 103.44,-326.82 122.01,-333.47 138.5,-337.2"/>
<polygon fill="black" stroke="black" points="137.53,-340.58 148.02,-339.06 138.87,-333.71 137.53,-340.58"/>
</g>
<!-- created_by_ref -->
<g id="node3" class="node">
<title>created_by_ref</title>
<polygon fill="none" stroke="black" points="226,-306 129,-306 129,-270 226,-270 226,-306"/>
<text text-anchor="middle" x="177.5" y="-282.95" font-family="Times,serif" font-size="14.00">created_by_ref</text>
</g>
<!-- 28074113&#45;3601&#45;4b09&#45;a790&#45;8ad0d0f86bba&#45;&gt;created_by_ref -->
<g id="edge2" class="edge">
<title>28074113&#45;3601&#45;4b09&#45;a790&#45;8ad0d0f86bba&#45;&gt;created_by_ref</title>
<path fill="none" stroke="black" d="M37.62,-198.44C48.13,-216.84 66.63,-244.67 90,-261 98.43,-266.89 108.19,-271.53 118.06,-275.18"/>
<polygon fill="black" stroke="black" points="116.72,-278.42 127.31,-278.28 118.94,-271.79 116.72,-278.42"/>
</g>
<!-- definition -->
<g id="node4" class="node">
<title>definition</title>
<polygon fill="none" stroke="black" points="211.75,-252 143.25,-252 143.25,-216 211.75,-216 211.75,-252"/>
<text text-anchor="middle" x="177.5" y="-228.95" font-family="Times,serif" font-size="14.00">definition</text>
</g>
<!-- 28074113&#45;3601&#45;4b09&#45;a790&#45;8ad0d0f86bba&#45;&gt;definition -->
<g id="edge3" class="edge">
<title>28074113&#45;3601&#45;4b09&#45;a790&#45;8ad0d0f86bba&#45;&gt;definition</title>
<path fill="none" stroke="black" d="M54.29,-192.2C65.23,-197.08 78.12,-202.57 90,-207 103.61,-212.07 118.65,-217 132.33,-221.22"/>
<polygon fill="black" stroke="black" points="130.91,-224.45 141.5,-224.01 132.95,-217.75 130.91,-224.45"/>
</g>
<!-- definition_type -->
<g id="node6" class="node">
<title>definition_type</title>
<polygon fill="none" stroke="black" points="226.75,-198 128.25,-198 128.25,-162 226.75,-162 226.75,-198"/>
<text text-anchor="middle" x="177.5" y="-174.95" font-family="Times,serif" font-size="14.00">definition_type</text>
</g>
<!-- 28074113&#45;3601&#45;4b09&#45;a790&#45;8ad0d0f86bba&#45;&gt;definition_type -->
<g id="edge4" class="edge">
<title>28074113&#45;3601&#45;4b09&#45;a790&#45;8ad0d0f86bba&#45;&gt;definition_type</title>
<path fill="none" stroke="black" d="M54.21,-180C71.43,-180 94.69,-180 116.31,-180"/>
<polygon fill="black" stroke="black" points="116.24,-183.5 126.24,-180 116.24,-176.5 116.24,-183.5"/>
</g>
<!-- id -->
<g id="node7" class="node">
<title>id</title>
<polygon fill="none" stroke="black" points="204.5,-144 150.5,-144 150.5,-108 204.5,-108 204.5,-144"/>
<text text-anchor="middle" x="177.5" y="-120.95" font-family="Times,serif" font-size="14.00">id</text>
</g>
<!-- 28074113&#45;3601&#45;4b09&#45;a790&#45;8ad0d0f86bba&#45;&gt;id -->
<g id="edge5" class="edge">
<title>28074113&#45;3601&#45;4b09&#45;a790&#45;8ad0d0f86bba&#45;&gt;id</title>
<path fill="none" stroke="black" d="M54.29,-167.8C65.23,-162.92 78.12,-157.43 90,-153 106.01,-147.03 124.01,-141.27 139.43,-136.61"/>
<polygon fill="black" stroke="black" points="140.1,-140.06 148.68,-133.86 138.1,-133.35 140.1,-140.06"/>
</g>
<!-- type -->
<g id="node8" class="node">
<title>type</title>
<polygon fill="none" stroke="black" points="204.5,-90 150.5,-90 150.5,-54 204.5,-54 204.5,-90"/>
<text text-anchor="middle" x="177.5" y="-66.95" font-family="Times,serif" font-size="14.00">type</text>
</g>
<!-- 28074113&#45;3601&#45;4b09&#45;a790&#45;8ad0d0f86bba&#45;&gt;type -->
<g id="edge6" class="edge">
<title>28074113&#45;3601&#45;4b09&#45;a790&#45;8ad0d0f86bba&#45;&gt;type</title>
<path fill="none" stroke="black" d="M37.62,-161.56C48.13,-143.16 66.63,-115.33 90,-99 104.42,-88.92 122.75,-82.49 138.83,-78.45"/>
<polygon fill="black" stroke="black" points="139.59,-81.87 148.57,-76.25 138.04,-75.04 139.59,-81.87"/>
</g>
<!-- x_mitre_attack_spec_version -->
<g id="node9" class="node">
<title>x_mitre_attack_spec_version</title>
<polygon fill="none" stroke="black" points="265,-36 90,-36 90,0 265,0 265,-36"/>
<text text-anchor="middle" x="177.5" y="-12.95" font-family="Times,serif" font-size="14.00">x_mitre_attack_spec_version</text>
</g>
<!-- 28074113&#45;3601&#45;4b09&#45;a790&#45;8ad0d0f86bba&#45;&gt;x_mitre_attack_spec_version -->
<g id="edge7" class="edge">
<title>28074113&#45;3601&#45;4b09&#45;a790&#45;8ad0d0f86bba&#45;&gt;x_mitre_attack_spec_version</title>
<path fill="none" stroke="black" d="M31.39,-161.88C37.75,-132.98 54.17,-76.51 90,-45 90.92,-44.19 91.85,-43.41 92.82,-42.66"/>
<polygon fill="black" stroke="black" points="94.42,-45.8 100.73,-37.29 90.49,-40 94.42,-45.8"/>
</g>
<!-- definition.statement -->
<g id="node5" class="node">
<title>definition.statement</title>
<polygon fill="none" stroke="black" points="369.5,-252 301,-252 301,-216 369.5,-216 369.5,-252"/>
<text text-anchor="middle" x="335.25" y="-228.95" font-family="Times,serif" font-size="14.00">statement</text>
</g>
<!-- definition&#45;&gt;definition.statement -->
<g id="edge8" class="edge">
<title>definition&#45;&gt;definition.statement</title>
<path fill="none" stroke="black" d="M211.91,-234C234.52,-234 264.65,-234 289.35,-234"/>
<polygon fill="black" stroke="black" points="289.11,-237.5 299.11,-234 289.11,-230.5 289.11,-237.5"/>
</g>
</g>
</svg>
