<?xml version="1.0" encoding="UTF-8" standalone="no"?>
<!DOCTYPE svg PUBLIC "-//W3C//DTD SVG 1.1//EN"
 "http://www.w3.org/Graphics/SVG/1.1/DTD/svg11.dtd">
<!-- Generated by graphviz version 12.0.0 (20240704.0754)
 -->
<!-- Title: G Pages: 1 -->
<svg width="1579pt" height="2883pt"
 viewBox="0.00 0.00 379.00 692.00" xmlns="http://www.w3.org/2000/svg" xmlns:xlink="http://www.w3.org/1999/xlink">
<g id="graph0" class="graph" transform="scale(4.16667 4.16667) rotate(0) translate(4 688)">
<title>G</title>
<polygon fill="white" stroke="none" points="-4,4 -4,-688 375,-688 375,4 -4,4"/>
<!-- 3453c05f&#45;59be&#45;4e51&#45;982c&#45;b67b4619dba4 -->
<g id="node1" class="node">
<title>3453c05f&#45;59be&#45;4e51&#45;982c&#45;b67b4619dba4</title>
<polygon fill="none" stroke="black" points="54,-360 0,-360 0,-324 54,-324 54,-360"/>
<text text-anchor="middle" x="27" y="-336.95" font-family="Times,serif" font-size="14.00">.</text>
</g>
<!-- created -->
<g id="node2" class="node">
<title>created</title>
<polygon fill="none" stroke="black" points="196,-684 141,-684 141,-648 196,-648 196,-684"/>
<text text-anchor="middle" x="168.5" y="-660.95" font-family="Times,serif" font-size="14.00">created</text>
</g>
<!-- 3453c05f&#45;59be&#45;4e51&#45;982c&#45;b67b4619dba4&#45;&gt;created -->
<g id="edge1" class="edge">
<title>3453c05f&#45;59be&#45;4e51&#45;982c&#45;b67b4619dba4&#45;&gt;created</title>
<path fill="none" stroke="black" d="M29.49,-360.35C34.56,-418.4 52.89,-596.75 90,-639 100.09,-650.49 115.34,-657.09 129.65,-660.88"/>
<polygon fill="black" stroke="black" points="128.81,-664.28 139.33,-663.03 130.33,-657.45 128.81,-664.28"/>
</g>
<!-- created_by_ref -->
<g id="node3" class="node">
<title>created_by_ref</title>
<polygon fill="none" stroke="black" points="217,-630 120,-630 120,-594 217,-594 217,-630"/>
<text text-anchor="middle" x="168.5" y="-606.95" font-family="Times,serif" font-size="14.00">created_by_ref</text>
</g>
<!-- 3453c05f&#45;59be&#45;4e51&#45;982c&#45;b67b4619dba4&#45;&gt;created_by_ref -->
<g id="edge2" class="edge">
<title>3453c05f&#45;59be&#45;4e51&#45;982c&#45;b67b4619dba4&#45;&gt;created_by_ref</title>
<path fill="none" stroke="black" d="M27.19,-360.23C26.25,-404.68 30.08,-519.73 90,-585 95.43,-590.92 102.23,-595.54 109.53,-599.15"/>
<polygon fill="black" stroke="black" points="107.74,-602.19 118.32,-602.87 110.48,-595.75 107.74,-602.19"/>
</g>
<!-- description -->
<g id="node4" class="node">
<title>description</title>
<polygon fill="none" stroke="black" points="206.5,-576 130.5,-576 130.5,-540 206.5,-540 206.5,-576"/>
<text text-anchor="middle" x="168.5" y="-552.95" font-family="Times,serif" font-size="14.00">description</text>
</g>
<!-- 3453c05f&#45;59be&#45;4e51&#45;982c&#45;b67b4619dba4&#45;&gt;description -->
<g id="edge3" class="edge">
<title>3453c05f&#45;59be&#45;4e51&#45;982c&#45;b67b4619dba4&#45;&gt;description</title>
<path fill="none" stroke="black" d="M28.81,-360.32C31.43,-397.57 42.58,-482.7 90,-531 98.01,-539.16 108.62,-544.86 119.4,-548.83"/>
<polygon fill="black" stroke="black" points="118.12,-552.1 128.71,-551.8 120.25,-545.43 118.12,-552.1"/>
</g>
<!-- external_references[] -->
<g id="node5" class="node">
<title>external_references[]</title>
<polygon fill="none" stroke="black" points="233.88,-522 103.12,-522 103.12,-486 233.88,-486 233.88,-522"/>
<text text-anchor="middle" x="168.5" y="-498.95" font-family="Times,serif" font-size="14.00">external_references[]</text>
</g>
<!-- 3453c05f&#45;59be&#45;4e51&#45;982c&#45;b67b4619dba4&#45;&gt;external_references[] -->
<g id="edge4" class="edge">
<title>3453c05f&#45;59be&#45;4e51&#45;982c&#45;b67b4619dba4&#45;&gt;external_references[]</title>
<path fill="none" stroke="black" d="M31.62,-360.45C38.22,-389.3 54.88,-445.08 90,-477 91.1,-478 92.23,-478.96 93.4,-479.88"/>
<polygon fill="black" stroke="black" points="91.45,-482.79 101.7,-485.47 95.36,-476.98 91.45,-482.79"/>
</g>
<!-- id -->
<g id="node9" class="node">
<title>id</title>
<polygon fill="none" stroke="black" points="195.5,-468 141.5,-468 141.5,-432 195.5,-432 195.5,-468"/>
<text text-anchor="middle" x="168.5" y="-444.95" font-family="Times,serif" font-size="14.00">id</text>
</g>
<!-- 3453c05f&#45;59be&#45;4e51&#45;982c&#45;b67b4619dba4&#45;&gt;id -->
<g id="edge5" class="edge">
<title>3453c05f&#45;59be&#45;4e51&#45;982c&#45;b67b4619dba4&#45;&gt;id</title>
<path fill="none" stroke="black" d="M37.73,-360.28C48.33,-378.56 66.9,-406.29 90,-423 101.9,-431.61 116.79,-437.67 130.33,-441.83"/>
<polygon fill="black" stroke="black" points="129.26,-445.16 139.83,-444.49 131.14,-438.42 129.26,-445.16"/>
</g>
<!-- modified -->
<g id="node10" class="node">
<title>modified</title>
<polygon fill="none" stroke="black" points="201.25,-414 135.75,-414 135.75,-378 201.25,-378 201.25,-414"/>
<text text-anchor="middle" x="168.5" y="-390.95" font-family="Times,serif" font-size="14.00">modified</text>
</g>
<!-- 3453c05f&#45;59be&#45;4e51&#45;982c&#45;b67b4619dba4&#45;&gt;modified -->
<g id="edge6" class="edge">
<title>3453c05f&#45;59be&#45;4e51&#45;982c&#45;b67b4619dba4&#45;&gt;modified</title>
<path fill="none" stroke="black" d="M54.37,-354.01C65.31,-358.85 78.19,-364.38 90,-369 101.16,-373.37 113.35,-377.78 124.7,-381.74"/>
<polygon fill="black" stroke="black" points="123.22,-384.93 133.82,-384.88 125.51,-378.31 123.22,-384.93"/>
</g>
<!-- object_marking_refs -->
<g id="node11" class="node">
<title>object_marking_refs</title>
<polygon fill="none" stroke="black" points="232.75,-360 104.25,-360 104.25,-324 232.75,-324 232.75,-360"/>
<text text-anchor="middle" x="168.5" y="-336.95" font-family="Times,serif" font-size="14.00">object_marking_refs</text>
</g>
<!-- 3453c05f&#45;59be&#45;4e51&#45;982c&#45;b67b4619dba4&#45;&gt;object_marking_refs -->
<g id="edge7" class="edge">
<title>3453c05f&#45;59be&#45;4e51&#45;982c&#45;b67b4619dba4&#45;&gt;object_marking_refs</title>
<path fill="none" stroke="black" d="M54.24,-342C65.39,-342 79,-342 92.88,-342"/>
<polygon fill="black" stroke="black" points="92.5,-345.5 102.5,-342 92.5,-338.5 92.5,-345.5"/>
</g>
<!-- relationship_type -->
<g id="node12" class="node">
<title>relationship_type</title>
<polygon fill="none" stroke="black" points="223.38,-306 113.62,-306 113.62,-270 223.38,-270 223.38,-306"/>
<text text-anchor="middle" x="168.5" y="-282.95" font-family="Times,serif" font-size="14.00">relationship_type</text>
</g>
<!-- 3453c05f&#45;59be&#45;4e51&#45;982c&#45;b67b4619dba4&#45;&gt;relationship_type -->
<g id="edge8" class="edge">
<title>3453c05f&#45;59be&#45;4e51&#45;982c&#45;b67b4619dba4&#45;&gt;relationship_type</title>
<path fill="none" stroke="black" d="M54.37,-329.99C65.31,-325.15 78.19,-319.62 90,-315 94.14,-313.38 98.41,-311.76 102.74,-310.15"/>
<polygon fill="black" stroke="black" points="103.91,-313.45 112.1,-306.73 101.51,-306.87 103.91,-313.45"/>
</g>
<!-- source_ref -->
<g id="node13" class="node">
<title>source_ref</title>
<polygon fill="none" stroke="black" points="205,-252 132,-252 132,-216 205,-216 205,-252"/>
<text text-anchor="middle" x="168.5" y="-228.95" font-family="Times,serif" font-size="14.00">source_ref</text>
</g>
<!-- 3453c05f&#45;59be&#45;4e51&#45;982c&#45;b67b4619dba4&#45;&gt;source_ref -->
<g id="edge9" class="edge">
<title>3453c05f&#45;59be&#45;4e51&#45;982c&#45;b67b4619dba4&#45;&gt;source_ref</title>
<path fill="none" stroke="black" d="M37.73,-323.72C48.33,-305.44 66.9,-277.71 90,-261 99.26,-254.3 110.33,-249.14 121.17,-245.23"/>
<polygon fill="black" stroke="black" points="122.01,-248.64 130.41,-242.18 119.82,-241.99 122.01,-248.64"/>
</g>
<!-- target_ref -->
<g id="node14" class="node">
<title>target_ref</title>
<polygon fill="none" stroke="black" points="202.75,-198 134.25,-198 134.25,-162 202.75,-162 202.75,-198"/>
<text text-anchor="middle" x="168.5" y="-174.95" font-family="Times,serif" font-size="14.00">target_ref</text>
</g>
<!-- 3453c05f&#45;59be&#45;4e51&#45;982c&#45;b67b4619dba4&#45;&gt;target_ref -->
<g id="edge10" class="edge">
<title>3453c05f&#45;59be&#45;4e51&#45;982c&#45;b67b4619dba4&#45;&gt;target_ref</title>
<path fill="none" stroke="black" d="M31.62,-323.55C38.22,-294.7 54.88,-238.92 90,-207 99.28,-198.56 111.35,-192.73 123.18,-188.72"/>
<polygon fill="black" stroke="black" points="123.87,-192.17 132.45,-185.95 121.87,-185.46 123.87,-192.17"/>
</g>
<!-- type -->
<g id="node15" class="node">
<title>type</title>
<polygon fill="none" stroke="black" points="195.5,-144 141.5,-144 141.5,-108 195.5,-108 195.5,-144"/>
<text text-anchor="middle" x="168.5" y="-120.95" font-family="Times,serif" font-size="14.00">type</text>
</g>
<!-- 3453c05f&#45;59be&#45;4e51&#45;982c&#45;b67b4619dba4&#45;&gt;type -->
<g id="edge11" class="edge">
<title>3453c05f&#45;59be&#45;4e51&#45;982c&#45;b67b4619dba4&#45;&gt;type</title>
<path fill="none" stroke="black" d="M28.81,-323.68C31.43,-286.43 42.58,-201.3 90,-153 100.71,-142.09 116.06,-135.58 130.28,-131.7"/>
<polygon fill="black" stroke="black" points="130.91,-135.15 139.85,-129.47 129.32,-128.33 130.91,-135.15"/>
</g>
<!-- x_mitre_modified_by_ref -->
<g id="node16" class="node">
<title>x_mitre_modified_by_ref</title>
<polygon fill="none" stroke="black" points="247,-90 90,-90 90,-54 247,-54 247,-90"/>
<text text-anchor="middle" x="168.5" y="-66.95" font-family="Times,serif" font-size="14.00">x_mitre_modified_by_ref</text>
</g>
<!-- 3453c05f&#45;59be&#45;4e51&#45;982c&#45;b67b4619dba4&#45;&gt;x_mitre_modified_by_ref -->
<g id="edge12" class="edge">
<title>3453c05f&#45;59be&#45;4e51&#45;982c&#45;b67b4619dba4&#45;&gt;x_mitre_modified_by_ref</title>
<path fill="none" stroke="black" d="M27.19,-323.77C26.25,-279.32 30.08,-164.27 90,-99 90.47,-98.49 90.94,-97.99 91.43,-97.5"/>
<polygon fill="black" stroke="black" points="93.42,-100.4 98.89,-91.33 88.95,-95.01 93.42,-100.4"/>
</g>
<!-- x_mitre_version -->
<g id="node17" class="node">
<title>x_mitre_version</title>
<polygon fill="none" stroke="black" points="221.12,-36 115.88,-36 115.88,0 221.12,0 221.12,-36"/>
<text text-anchor="middle" x="168.5" y="-12.95" font-family="Times,serif" font-size="14.00">x_mitre_version</text>
</g>
<!-- 3453c05f&#45;59be&#45;4e51&#45;982c&#45;b67b4619dba4&#45;&gt;x_mitre_version -->
<g id="edge13" class="edge">
<title>3453c05f&#45;59be&#45;4e51&#45;982c&#45;b67b4619dba4&#45;&gt;x_mitre_version</title>
<path fill="none" stroke="black" d="M29.49,-323.65C34.56,-265.6 52.89,-87.25 90,-45 94.34,-40.06 99.63,-36.03 105.39,-32.73"/>
<polygon fill="black" stroke="black" points="106.61,-36.03 114.07,-28.51 103.55,-29.73 106.61,-36.03"/>
</g>
<!-- external_references[].description -->
<g id="node6" class="node">
<title>external_references[].description</title>
<polygon fill="none" stroke="black" points="365,-576 289,-576 289,-540 365,-540 365,-576"/>
<text text-anchor="middle" x="327" y="-552.95" font-family="Times,serif" font-size="14.00">description</text>
</g>
<!-- external_references[]&#45;&gt;external_references[].description -->
<g id="edge14" class="edge">
<title>external_references[]&#45;&gt;external_references[].description</title>
<path fill="none" stroke="black" d="M222.92,-522.43C240.81,-528.61 260.64,-535.45 278.08,-541.47"/>
<polygon fill="black" stroke="black" points="276.57,-544.65 287.17,-544.6 278.86,-538.03 276.57,-544.65"/>
</g>
<!-- external_references[].source_name -->
<g id="node7" class="node">
<title>external_references[].source_name</title>
<polygon fill="none" stroke="black" points="371,-522 283,-522 283,-486 371,-486 371,-522"/>
<text text-anchor="middle" x="327" y="-498.95" font-family="Times,serif" font-size="14.00">source_name</text>
</g>
<!-- external_references[]&#45;&gt;external_references[].source_name -->
<g id="edge15" class="edge">
<title>external_references[]&#45;&gt;external_references[].source_name</title>
<path fill="none" stroke="black" d="M234.06,-504C246.44,-504 259.29,-504 271.32,-504"/>
<polygon fill="black" stroke="black" points="271.05,-507.5 281.05,-504 271.05,-500.5 271.05,-507.5"/>
</g>
<!-- external_references[].url -->
<g id="node8" class="node">
<title>external_references[].url</title>
<polygon fill="none" stroke="black" points="354,-468 300,-468 300,-432 354,-432 354,-468"/>
<text text-anchor="middle" x="327" y="-444.95" font-family="Times,serif" font-size="14.00">url</text>
</g>
<!-- external_references[]&#45;&gt;external_references[].url -->
<g id="edge16" class="edge">
<title>external_references[]&#45;&gt;external_references[].url</title>
<path fill="none" stroke="black" d="M222.92,-485.57C244.64,-478.07 269.2,-469.6 288.9,-462.8"/>
<polygon fill="black" stroke="black" points="289.84,-466.18 298.15,-459.61 287.56,-459.56 289.84,-466.18"/>
</g>
</g>
</svg>
