<?xml version="1.0" encoding="UTF-8" standalone="no"?>
<!DOCTYPE svg PUBLIC "-//W3C//DTD SVG 1.1//EN"
 "http://www.w3.org/Graphics/SVG/1.1/DTD/svg11.dtd">
<!-- Generated by graphviz version 12.0.0 (20240704.0754)
 -->
<!-- Title: G Pages: 1 -->
<svg width="1138pt" height="2658pt"
 viewBox="0.00 0.00 273.00 638.00" xmlns="http://www.w3.org/2000/svg" xmlns:xlink="http://www.w3.org/1999/xlink">
<g id="graph0" class="graph" transform="scale(4.16667 4.16667) rotate(0) translate(4 634)">
<title>G</title>
<polygon fill="white" stroke="none" points="-4,4 -4,-634 269,-634 269,4 -4,4"/>
<!-- 32f75301&#45;1d7c&#45;411b&#45;b59b&#45;d1645fc082c2 -->
<g id="node1" class="node">
<title>32f75301&#45;1d7c&#45;411b&#45;b59b&#45;d1645fc082c2</title>
<polygon fill="none" stroke="black" points="54,-333 0,-333 0,-297 54,-297 54,-333"/>
<text text-anchor="middle" x="27" y="-309.95" font-family="Times,serif" font-size="14.00">.</text>
</g>
<!-- created -->
<g id="node2" class="node">
<title>created</title>
<polygon fill="none" stroke="black" points="205,-630 150,-630 150,-594 205,-594 205,-630"/>
<text text-anchor="middle" x="177.5" y="-606.95" font-family="Times,serif" font-size="14.00">created</text>
</g>
<!-- 32f75301&#45;1d7c&#45;411b&#45;b59b&#45;d1645fc082c2&#45;&gt;created -->
<g id="edge1" class="edge">
<title>32f75301&#45;1d7c&#45;411b&#45;b59b&#45;d1645fc082c2&#45;&gt;created</title>
<path fill="none" stroke="black" d="M29.84,-333.26C35.67,-387.73 55.44,-547.68 90,-585 102.42,-598.41 121.38,-605.21 138.39,-608.64"/>
<polygon fill="black" stroke="black" points="137.82,-612.09 148.26,-610.26 138.96,-605.18 137.82,-612.09"/>
</g>
<!-- created_by_ref -->
<g id="node3" class="node">
<title>created_by_ref</title>
<polygon fill="none" stroke="black" points="226,-576 129,-576 129,-540 226,-540 226,-576"/>
<text text-anchor="middle" x="177.5" y="-552.95" font-family="Times,serif" font-size="14.00">created_by_ref</text>
</g>
<!-- 32f75301&#45;1d7c&#45;411b&#45;b59b&#45;d1645fc082c2&#45;&gt;created_by_ref -->
<g id="edge2" class="edge">
<title>32f75301&#45;1d7c&#45;411b&#45;b59b&#45;d1645fc082c2&#45;&gt;created_by_ref</title>
<path fill="none" stroke="black" d="M27.77,-333.47C28.3,-374.75 35.46,-475.19 90,-531 97.67,-538.85 107.59,-544.43 117.95,-548.39"/>
<polygon fill="black" stroke="black" points="116.81,-551.69 127.4,-551.48 118.99,-545.04 116.81,-551.69"/>
</g>
<!-- description -->
<g id="node4" class="node">
<title>description</title>
<polygon fill="none" stroke="black" points="215.5,-522 139.5,-522 139.5,-486 215.5,-486 215.5,-522"/>
<text text-anchor="middle" x="177.5" y="-498.95" font-family="Times,serif" font-size="14.00">description</text>
</g>
<!-- 32f75301&#45;1d7c&#45;411b&#45;b59b&#45;d1645fc082c2&#45;&gt;description -->
<g id="edge3" class="edge">
<title>32f75301&#45;1d7c&#45;411b&#45;b59b&#45;d1645fc082c2&#45;&gt;description</title>
<path fill="none" stroke="black" d="M29.85,-333.41C34.19,-366.83 48.07,-437.63 90,-477 100.5,-486.86 114.55,-493.12 128.27,-497.09"/>
<polygon fill="black" stroke="black" points="127.1,-500.41 137.65,-499.45 128.81,-493.62 127.1,-500.41"/>
</g>
<!-- id -->
<g id="node5" class="node">
<title>id</title>
<polygon fill="none" stroke="black" points="204.5,-468 150.5,-468 150.5,-432 204.5,-432 204.5,-468"/>
<text text-anchor="middle" x="177.5" y="-444.95" font-family="Times,serif" font-size="14.00">id</text>
</g>
<!-- 32f75301&#45;1d7c&#45;411b&#45;b59b&#45;d1645fc082c2&#45;&gt;id -->
<g id="edge4" class="edge">
<title>32f75301&#45;1d7c&#45;411b&#45;b59b&#45;d1645fc082c2&#45;&gt;id</title>
<path fill="none" stroke="black" d="M33.83,-333.48C42.35,-357.55 60.49,-399.32 90,-423 104.06,-434.28 122.86,-440.87 139.34,-444.71"/>
<polygon fill="black" stroke="black" points="138.31,-448.07 148.81,-446.65 139.71,-441.21 138.31,-448.07"/>
</g>
<!-- modified -->
<g id="node6" class="node">
<title>modified</title>
<polygon fill="none" stroke="black" points="210.25,-414 144.75,-414 144.75,-378 210.25,-378 210.25,-414"/>
<text text-anchor="middle" x="177.5" y="-390.95" font-family="Times,serif" font-size="14.00">modified</text>
</g>
<!-- 32f75301&#45;1d7c&#45;411b&#45;b59b&#45;d1645fc082c2&#45;&gt;modified -->
<g id="edge5" class="edge">
<title>32f75301&#45;1d7c&#45;411b&#45;b59b&#45;d1645fc082c2&#45;&gt;modified</title>
<path fill="none" stroke="black" d="M45.19,-333.49C56.86,-345.1 73.18,-359.6 90,-369 103.46,-376.52 119.29,-382.24 133.71,-386.44"/>
<polygon fill="black" stroke="black" points="132.37,-389.7 142.94,-388.95 134.21,-382.94 132.37,-389.7"/>
</g>
<!-- name -->
<g id="node7" class="node">
<title>name</title>
<polygon fill="none" stroke="black" points="204.5,-360 150.5,-360 150.5,-324 204.5,-324 204.5,-360"/>
<text text-anchor="middle" x="177.5" y="-336.95" font-family="Times,serif" font-size="14.00">name</text>
</g>
<!-- 32f75301&#45;1d7c&#45;411b&#45;b59b&#45;d1645fc082c2&#45;&gt;name -->
<g id="edge6" class="edge">
<title>32f75301&#45;1d7c&#45;411b&#45;b59b&#45;d1645fc082c2&#45;&gt;name</title>
<path fill="none" stroke="black" d="M54.21,-319.76C77.71,-324.04 112.46,-330.36 138.92,-335.17"/>
<polygon fill="black" stroke="black" points="138.1,-338.58 148.57,-336.92 139.35,-331.69 138.1,-338.58"/>
</g>
<!-- object_marking_refs -->
<g id="node8" class="node">
<title>object_marking_refs</title>
<polygon fill="none" stroke="black" points="241.75,-306 113.25,-306 113.25,-270 241.75,-270 241.75,-306"/>
<text text-anchor="middle" x="177.5" y="-282.95" font-family="Times,serif" font-size="14.00">object_marking_refs</text>
</g>
<!-- 32f75301&#45;1d7c&#45;411b&#45;b59b&#45;d1645fc082c2&#45;&gt;object_marking_refs -->
<g id="edge7" class="edge">
<title>32f75301&#45;1d7c&#45;411b&#45;b59b&#45;d1645fc082c2&#45;&gt;object_marking_refs</title>
<path fill="none" stroke="black" d="M54.21,-310.24C67.59,-307.8 84.63,-304.7 101.71,-301.6"/>
<polygon fill="black" stroke="black" points="102.2,-305.07 111.41,-299.83 100.95,-298.18 102.2,-305.07"/>
</g>
<!-- type -->
<g id="node9" class="node">
<title>type</title>
<polygon fill="none" stroke="black" points="204.5,-252 150.5,-252 150.5,-216 204.5,-216 204.5,-252"/>
<text text-anchor="middle" x="177.5" y="-228.95" font-family="Times,serif" font-size="14.00">type</text>
</g>
<!-- 32f75301&#45;1d7c&#45;411b&#45;b59b&#45;d1645fc082c2&#45;&gt;type -->
<g id="edge8" class="edge">
<title>32f75301&#45;1d7c&#45;411b&#45;b59b&#45;d1645fc082c2&#45;&gt;type</title>
<path fill="none" stroke="black" d="M45.19,-296.51C56.86,-284.9 73.18,-270.4 90,-261 105.14,-252.54 123.28,-246.36 139.03,-242.06"/>
<polygon fill="black" stroke="black" points="139.71,-245.5 148.53,-239.64 137.98,-238.72 139.71,-245.5"/>
</g>
<!-- x_mitre_attack_spec_version -->
<g id="node10" class="node">
<title>x_mitre_attack_spec_version</title>
<polygon fill="none" stroke="black" points="265,-198 90,-198 90,-162 265,-162 265,-198"/>
<text text-anchor="middle" x="177.5" y="-174.95" font-family="Times,serif" font-size="14.00">x_mitre_attack_spec_version</text>
</g>
<!-- 32f75301&#45;1d7c&#45;411b&#45;b59b&#45;d1645fc082c2&#45;&gt;x_mitre_attack_spec_version -->
<g id="edge9" class="edge">
<title>32f75301&#45;1d7c&#45;411b&#45;b59b&#45;d1645fc082c2&#45;&gt;x_mitre_attack_spec_version</title>
<path fill="none" stroke="black" d="M33.83,-296.52C42.35,-272.45 60.49,-230.68 90,-207 91.14,-206.09 92.31,-205.2 93.51,-204.35"/>
<polygon fill="black" stroke="black" points="95.21,-207.41 101.87,-199.17 91.53,-201.46 95.21,-207.41"/>
</g>
<!-- x_mitre_data_source_ref -->
<g id="node11" class="node">
<title>x_mitre_data_source_ref</title>
<polygon fill="none" stroke="black" points="253.38,-144 101.62,-144 101.62,-108 253.38,-108 253.38,-144"/>
<text text-anchor="middle" x="177.5" y="-120.95" font-family="Times,serif" font-size="14.00">x_mitre_data_source_ref</text>
</g>
<!-- 32f75301&#45;1d7c&#45;411b&#45;b59b&#45;d1645fc082c2&#45;&gt;x_mitre_data_source_ref -->
<g id="edge10" class="edge">
<title>32f75301&#45;1d7c&#45;411b&#45;b59b&#45;d1645fc082c2&#45;&gt;x_mitre_data_source_ref</title>
<path fill="none" stroke="black" d="M29.85,-296.59C34.19,-263.17 48.07,-192.37 90,-153 90.75,-152.29 91.52,-151.61 92.31,-150.93"/>
<polygon fill="black" stroke="black" points="94.05,-154 100.1,-145.31 89.95,-148.33 94.05,-154"/>
</g>
<!-- x_mitre_modified_by_ref -->
<g id="node12" class="node">
<title>x_mitre_modified_by_ref</title>
<polygon fill="none" stroke="black" points="256,-90 99,-90 99,-54 256,-54 256,-90"/>
<text text-anchor="middle" x="177.5" y="-66.95" font-family="Times,serif" font-size="14.00">x_mitre_modified_by_ref</text>
</g>
<!-- 32f75301&#45;1d7c&#45;411b&#45;b59b&#45;d1645fc082c2&#45;&gt;x_mitre_modified_by_ref -->
<g id="edge11" class="edge">
<title>32f75301&#45;1d7c&#45;411b&#45;b59b&#45;d1645fc082c2&#45;&gt;x_mitre_modified_by_ref</title>
<path fill="none" stroke="black" d="M27.77,-296.53C28.3,-255.25 35.46,-154.81 90,-99 90.6,-98.39 91.21,-97.79 91.83,-97.21"/>
<polygon fill="black" stroke="black" points="93.69,-100.2 99.41,-91.28 89.38,-94.68 93.69,-100.2"/>
</g>
<!-- x_mitre_version -->
<g id="node13" class="node">
<title>x_mitre_version</title>
<polygon fill="none" stroke="black" points="230.12,-36 124.88,-36 124.88,0 230.12,0 230.12,-36"/>
<text text-anchor="middle" x="177.5" y="-12.95" font-family="Times,serif" font-size="14.00">x_mitre_version</text>
</g>
<!-- 32f75301&#45;1d7c&#45;411b&#45;b59b&#45;d1645fc082c2&#45;&gt;x_mitre_version -->
<g id="edge12" class="edge">
<title>32f75301&#45;1d7c&#45;411b&#45;b59b&#45;d1645fc082c2&#45;&gt;x_mitre_version</title>
<path fill="none" stroke="black" d="M29.84,-296.74C35.67,-242.27 55.44,-82.32 90,-45 96.53,-37.95 104.87,-32.72 113.78,-28.86"/>
<polygon fill="black" stroke="black" points="114.85,-32.19 123.02,-25.44 112.42,-25.63 114.85,-32.19"/>
</g>
</g>
</svg>
