<?xml version="1.0" encoding="UTF-8" standalone="no"?>
<!DOCTYPE svg PUBLIC "-//W3C//DTD SVG 1.1//EN"
 "http://www.w3.org/Graphics/SVG/1.1/DTD/svg11.dtd">
<!-- Generated by graphviz version 12.0.0 (20240704.0754)
 -->
<!-- Title: G Pages: 1 -->
<svg width="1654pt" height="3108pt"
 viewBox="0.00 0.00 397.00 746.00" xmlns="http://www.w3.org/2000/svg" xmlns:xlink="http://www.w3.org/1999/xlink">
<g id="graph0" class="graph" transform="scale(4.16667 4.16667) rotate(0) translate(4 742)">
<title>G</title>
<polygon fill="white" stroke="none" points="-4,4 -4,-742 393,-742 393,4 -4,4"/>
<!-- faa84507&#45;ed70&#45;4837&#45;9272&#45;1158a82f906b -->
<g id="node1" class="node">
<title>faa84507&#45;ed70&#45;4837&#45;9272&#45;1158a82f906b</title>
<polygon fill="none" stroke="black" points="54,-387 0,-387 0,-351 54,-351 54,-387"/>
<text text-anchor="middle" x="27" y="-363.95" font-family="Times,serif" font-size="14.00">.</text>
</g>
<!-- created -->
<g id="node2" class="node">
<title>created</title>
<polygon fill="none" stroke="black" points="205,-738 150,-738 150,-702 205,-702 205,-738"/>
<text text-anchor="middle" x="177.5" y="-714.95" font-family="Times,serif" font-size="14.00">created</text>
</g>
<!-- faa84507&#45;ed70&#45;4837&#45;9272&#45;1158a82f906b&#45;&gt;created -->
<g id="edge1" class="edge">
<title>faa84507&#45;ed70&#45;4837&#45;9272&#45;1158a82f906b&#45;&gt;created</title>
<path fill="none" stroke="black" d="M29.08,-387.3C33.06,-448.84 48.91,-646.96 90,-693 102.29,-706.77 121.48,-713.59 138.66,-716.94"/>
<polygon fill="black" stroke="black" points="137.65,-720.32 148.08,-718.43 138.75,-713.41 137.65,-720.32"/>
</g>
<!-- created_by_ref -->
<g id="node3" class="node">
<title>created_by_ref</title>
<polygon fill="none" stroke="black" points="226,-684 129,-684 129,-648 226,-648 226,-684"/>
<text text-anchor="middle" x="177.5" y="-660.95" font-family="Times,serif" font-size="14.00">created_by_ref</text>
</g>
<!-- faa84507&#45;ed70&#45;4837&#45;9272&#45;1158a82f906b&#45;&gt;created_by_ref -->
<g id="edge2" class="edge">
<title>faa84507&#45;ed70&#45;4837&#45;9272&#45;1158a82f906b&#45;&gt;created_by_ref</title>
<path fill="none" stroke="black" d="M29.84,-387.26C35.67,-441.73 55.44,-601.68 90,-639 97.62,-647.22 107.69,-652.96 118.27,-656.96"/>
<polygon fill="black" stroke="black" points="116.91,-660.2 127.5,-659.94 119.06,-653.54 116.91,-660.2"/>
</g>
<!-- description -->
<g id="node4" class="node">
<title>description</title>
<polygon fill="none" stroke="black" points="215.5,-630 139.5,-630 139.5,-594 215.5,-594 215.5,-630"/>
<text text-anchor="middle" x="177.5" y="-606.95" font-family="Times,serif" font-size="14.00">description</text>
</g>
<!-- faa84507&#45;ed70&#45;4837&#45;9272&#45;1158a82f906b&#45;&gt;description -->
<g id="edge3" class="edge">
<title>faa84507&#45;ed70&#45;4837&#45;9272&#45;1158a82f906b&#45;&gt;description</title>
<path fill="none" stroke="black" d="M27.77,-387.47C28.3,-428.75 35.46,-529.19 90,-585 100.15,-595.39 114.23,-601.79 128.08,-605.74"/>
<polygon fill="black" stroke="black" points="127.05,-609.09 137.6,-608.05 128.7,-602.29 127.05,-609.09"/>
</g>
<!-- external_references[] -->
<g id="node5" class="node">
<title>external_references[]</title>
<polygon fill="none" stroke="black" points="242.88,-576 112.12,-576 112.12,-540 242.88,-540 242.88,-576"/>
<text text-anchor="middle" x="177.5" y="-552.95" font-family="Times,serif" font-size="14.00">external_references[]</text>
</g>
<!-- faa84507&#45;ed70&#45;4837&#45;9272&#45;1158a82f906b&#45;&gt;external_references[] -->
<g id="edge4" class="edge">
<title>faa84507&#45;ed70&#45;4837&#45;9272&#45;1158a82f906b&#45;&gt;external_references[]</title>
<path fill="none" stroke="black" d="M29.85,-387.41C34.19,-420.83 48.07,-491.63 90,-531 93.65,-534.42 97.72,-537.41 102.06,-540.03"/>
<polygon fill="black" stroke="black" points="100.1,-542.95 110.59,-544.46 103.33,-536.74 100.1,-542.95"/>
</g>
<!-- id -->
<g id="node9" class="node">
<title>id</title>
<polygon fill="none" stroke="black" points="204.5,-522 150.5,-522 150.5,-486 204.5,-486 204.5,-522"/>
<text text-anchor="middle" x="177.5" y="-498.95" font-family="Times,serif" font-size="14.00">id</text>
</g>
<!-- faa84507&#45;ed70&#45;4837&#45;9272&#45;1158a82f906b&#45;&gt;id -->
<g id="edge5" class="edge">
<title>faa84507&#45;ed70&#45;4837&#45;9272&#45;1158a82f906b&#45;&gt;id</title>
<path fill="none" stroke="black" d="M33.83,-387.48C42.35,-411.55 60.49,-453.32 90,-477 104.06,-488.28 122.86,-494.87 139.34,-498.71"/>
<polygon fill="black" stroke="black" points="138.31,-502.07 148.81,-500.65 139.71,-495.21 138.31,-502.07"/>
</g>
<!-- modified -->
<g id="node10" class="node">
<title>modified</title>
<polygon fill="none" stroke="black" points="210.25,-468 144.75,-468 144.75,-432 210.25,-432 210.25,-468"/>
<text text-anchor="middle" x="177.5" y="-444.95" font-family="Times,serif" font-size="14.00">modified</text>
</g>
<!-- faa84507&#45;ed70&#45;4837&#45;9272&#45;1158a82f906b&#45;&gt;modified -->
<g id="edge6" class="edge">
<title>faa84507&#45;ed70&#45;4837&#45;9272&#45;1158a82f906b&#45;&gt;modified</title>
<path fill="none" stroke="black" d="M45.19,-387.49C56.86,-399.1 73.18,-413.6 90,-423 103.46,-430.52 119.29,-436.24 133.71,-440.44"/>
<polygon fill="black" stroke="black" points="132.37,-443.7 142.94,-442.95 134.21,-436.94 132.37,-443.7"/>
</g>
<!-- name -->
<g id="node11" class="node">
<title>name</title>
<polygon fill="none" stroke="black" points="204.5,-414 150.5,-414 150.5,-378 204.5,-378 204.5,-414"/>
<text text-anchor="middle" x="177.5" y="-390.95" font-family="Times,serif" font-size="14.00">name</text>
</g>
<!-- faa84507&#45;ed70&#45;4837&#45;9272&#45;1158a82f906b&#45;&gt;name -->
<g id="edge7" class="edge">
<title>faa84507&#45;ed70&#45;4837&#45;9272&#45;1158a82f906b&#45;&gt;name</title>
<path fill="none" stroke="black" d="M54.21,-373.76C77.71,-378.04 112.46,-384.36 138.92,-389.17"/>
<polygon fill="black" stroke="black" points="138.1,-392.58 148.57,-390.92 139.35,-385.69 138.1,-392.58"/>
</g>
<!-- object_marking_refs -->
<g id="node12" class="node">
<title>object_marking_refs</title>
<polygon fill="none" stroke="black" points="241.75,-360 113.25,-360 113.25,-324 241.75,-324 241.75,-360"/>
<text text-anchor="middle" x="177.5" y="-336.95" font-family="Times,serif" font-size="14.00">object_marking_refs</text>
</g>
<!-- faa84507&#45;ed70&#45;4837&#45;9272&#45;1158a82f906b&#45;&gt;object_marking_refs -->
<g id="edge8" class="edge">
<title>faa84507&#45;ed70&#45;4837&#45;9272&#45;1158a82f906b&#45;&gt;object_marking_refs</title>
<path fill="none" stroke="black" d="M54.21,-364.24C67.59,-361.8 84.63,-358.7 101.71,-355.6"/>
<polygon fill="black" stroke="black" points="102.2,-359.07 111.41,-353.83 100.95,-352.18 102.2,-359.07"/>
</g>
<!-- type -->
<g id="node13" class="node">
<title>type</title>
<polygon fill="none" stroke="black" points="204.5,-306 150.5,-306 150.5,-270 204.5,-270 204.5,-306"/>
<text text-anchor="middle" x="177.5" y="-282.95" font-family="Times,serif" font-size="14.00">type</text>
</g>
<!-- faa84507&#45;ed70&#45;4837&#45;9272&#45;1158a82f906b&#45;&gt;type -->
<g id="edge9" class="edge">
<title>faa84507&#45;ed70&#45;4837&#45;9272&#45;1158a82f906b&#45;&gt;type</title>
<path fill="none" stroke="black" d="M45.19,-350.51C56.86,-338.9 73.18,-324.4 90,-315 105.14,-306.54 123.28,-300.36 139.03,-296.06"/>
<polygon fill="black" stroke="black" points="139.71,-299.5 148.53,-293.64 137.98,-292.72 139.71,-299.5"/>
</g>
<!-- x_mitre_attack_spec_version -->
<g id="node14" class="node">
<title>x_mitre_attack_spec_version</title>
<polygon fill="none" stroke="black" points="265,-252 90,-252 90,-216 265,-216 265,-252"/>
<text text-anchor="middle" x="177.5" y="-228.95" font-family="Times,serif" font-size="14.00">x_mitre_attack_spec_version</text>
</g>
<!-- faa84507&#45;ed70&#45;4837&#45;9272&#45;1158a82f906b&#45;&gt;x_mitre_attack_spec_version -->
<g id="edge10" class="edge">
<title>faa84507&#45;ed70&#45;4837&#45;9272&#45;1158a82f906b&#45;&gt;x_mitre_attack_spec_version</title>
<path fill="none" stroke="black" d="M33.83,-350.52C42.35,-326.45 60.49,-284.68 90,-261 91.14,-260.09 92.31,-259.2 93.51,-258.35"/>
<polygon fill="black" stroke="black" points="95.21,-261.41 101.87,-253.17 91.53,-255.46 95.21,-261.41"/>
</g>
<!-- x_mitre_domains -->
<g id="node15" class="node">
<title>x_mitre_domains</title>
<polygon fill="none" stroke="black" points="233.5,-198 121.5,-198 121.5,-162 233.5,-162 233.5,-198"/>
<text text-anchor="middle" x="177.5" y="-174.95" font-family="Times,serif" font-size="14.00">x_mitre_domains</text>
</g>
<!-- faa84507&#45;ed70&#45;4837&#45;9272&#45;1158a82f906b&#45;&gt;x_mitre_domains -->
<g id="edge11" class="edge">
<title>faa84507&#45;ed70&#45;4837&#45;9272&#45;1158a82f906b&#45;&gt;x_mitre_domains</title>
<path fill="none" stroke="black" d="M29.85,-350.59C34.19,-317.17 48.07,-246.37 90,-207 95.99,-201.37 103.14,-196.92 110.73,-193.39"/>
<polygon fill="black" stroke="black" points="111.91,-196.69 119.87,-189.7 109.29,-190.2 111.91,-196.69"/>
</g>
<!-- x_mitre_modified_by_ref -->
<g id="node16" class="node">
<title>x_mitre_modified_by_ref</title>
<polygon fill="none" stroke="black" points="256,-144 99,-144 99,-108 256,-108 256,-144"/>
<text text-anchor="middle" x="177.5" y="-120.95" font-family="Times,serif" font-size="14.00">x_mitre_modified_by_ref</text>
</g>
<!-- faa84507&#45;ed70&#45;4837&#45;9272&#45;1158a82f906b&#45;&gt;x_mitre_modified_by_ref -->
<g id="edge12" class="edge">
<title>faa84507&#45;ed70&#45;4837&#45;9272&#45;1158a82f906b&#45;&gt;x_mitre_modified_by_ref</title>
<path fill="none" stroke="black" d="M27.77,-350.53C28.3,-309.25 35.46,-208.81 90,-153 90.6,-152.39 91.21,-151.79 91.83,-151.21"/>
<polygon fill="black" stroke="black" points="93.69,-154.2 99.41,-145.28 89.38,-148.68 93.69,-154.2"/>
</g>
<!-- x_mitre_shortname -->
<g id="node17" class="node">
<title>x_mitre_shortname</title>
<polygon fill="none" stroke="black" points="238.75,-90 116.25,-90 116.25,-54 238.75,-54 238.75,-90"/>
<text text-anchor="middle" x="177.5" y="-66.95" font-family="Times,serif" font-size="14.00">x_mitre_shortname</text>
</g>
<!-- faa84507&#45;ed70&#45;4837&#45;9272&#45;1158a82f906b&#45;&gt;x_mitre_shortname -->
<g id="edge13" class="edge">
<title>faa84507&#45;ed70&#45;4837&#45;9272&#45;1158a82f906b&#45;&gt;x_mitre_shortname</title>
<path fill="none" stroke="black" d="M29.84,-350.74C35.67,-296.27 55.44,-136.32 90,-99 94.52,-94.12 99.91,-90.11 105.75,-86.83"/>
<polygon fill="black" stroke="black" points="107.07,-90.08 114.58,-82.6 104.04,-83.76 107.07,-90.08"/>
</g>
<!-- x_mitre_version -->
<g id="node18" class="node">
<title>x_mitre_version</title>
<polygon fill="none" stroke="black" points="230.12,-36 124.88,-36 124.88,0 230.12,0 230.12,-36"/>
<text text-anchor="middle" x="177.5" y="-12.95" font-family="Times,serif" font-size="14.00">x_mitre_version</text>
</g>
<!-- faa84507&#45;ed70&#45;4837&#45;9272&#45;1158a82f906b&#45;&gt;x_mitre_version -->
<g id="edge14" class="edge">
<title>faa84507&#45;ed70&#45;4837&#45;9272&#45;1158a82f906b&#45;&gt;x_mitre_version</title>
<path fill="none" stroke="black" d="M29.08,-350.7C33.06,-289.16 48.91,-91.04 90,-45 96.48,-37.74 104.87,-32.42 113.87,-28.51"/>
<polygon fill="black" stroke="black" points="115.05,-31.81 123.22,-25.07 112.63,-25.24 115.05,-31.81"/>
</g>
<!-- external_references[].external_id -->
<g id="node6" class="node">
<title>external_references[].external_id</title>
<polygon fill="none" stroke="black" points="383.38,-630 306.62,-630 306.62,-594 383.38,-594 383.38,-630"/>
<text text-anchor="middle" x="345" y="-606.95" font-family="Times,serif" font-size="14.00">external_id</text>
</g>
<!-- external_references[]&#45;&gt;external_references[].external_id -->
<g id="edge15" class="edge">
<title>external_references[]&#45;&gt;external_references[].external_id</title>
<path fill="none" stroke="black" d="M238.13,-576.38C247.14,-579.23 256.33,-582.16 265,-585 274.91,-588.24 285.5,-591.79 295.59,-595.23"/>
<polygon fill="black" stroke="black" points="294.27,-598.47 304.86,-598.39 296.53,-591.85 294.27,-598.47"/>
</g>
<!-- external_references[].source_name -->
<g id="node7" class="node">
<title>external_references[].source_name</title>
<polygon fill="none" stroke="black" points="389,-576 301,-576 301,-540 389,-540 389,-576"/>
<text text-anchor="middle" x="345" y="-552.95" font-family="Times,serif" font-size="14.00">source_name</text>
</g>
<!-- external_references[]&#45;&gt;external_references[].source_name -->
<g id="edge16" class="edge">
<title>external_references[]&#45;&gt;external_references[].source_name</title>
<path fill="none" stroke="black" d="M242.96,-558C258.44,-558 274.81,-558 289.77,-558"/>
<polygon fill="black" stroke="black" points="289.38,-561.5 299.38,-558 289.38,-554.5 289.38,-561.5"/>
</g>
<!-- external_references[].url -->
<g id="node8" class="node">
<title>external_references[].url</title>
<polygon fill="none" stroke="black" points="372,-522 318,-522 318,-486 372,-486 372,-522"/>
<text text-anchor="middle" x="345" y="-498.95" font-family="Times,serif" font-size="14.00">url</text>
</g>
<!-- external_references[]&#45;&gt;external_references[].url -->
<g id="edge17" class="edge">
<title>external_references[]&#45;&gt;external_references[].url</title>
<path fill="none" stroke="black" d="M238.13,-539.62C247.14,-536.77 256.33,-533.84 265,-531 278.78,-526.5 293.84,-521.39 307.09,-516.84"/>
<polygon fill="black" stroke="black" points="307.98,-520.24 316.29,-513.67 305.7,-513.62 307.98,-520.24"/>
</g>
</g>
</svg>
