<?xml version="1.0" encoding="UTF-8" standalone="no"?>
<!DOCTYPE svg PUBLIC "-//W3C//DTD SVG 1.1//EN"
 "http://www.w3.org/Graphics/SVG/1.1/DTD/svg11.dtd">
<!-- Generated by graphviz version 12.0.0 (20240704.0754)
 -->
<!-- Title: G Pages: 1 -->
<svg width="1654pt" height="4008pt"
 viewBox="0.00 0.00 397.00 962.00" xmlns="http://www.w3.org/2000/svg" xmlns:xlink="http://www.w3.org/1999/xlink">
<g id="graph0" class="graph" transform="scale(4.16667 4.16667) rotate(0) translate(4 958)">
<title>G</title>
<polygon fill="white" stroke="none" points="-4,4 -4,-958 393,-958 393,4 -4,4"/>
<!-- aaaebca6&#45;60aa&#45;44c7&#45;b7b0&#45;52b184d920f4 -->
<g id="node1" class="node">
<title>aaaebca6&#45;60aa&#45;44c7&#45;b7b0&#45;52b184d920f4</title>
<polygon fill="none" stroke="black" points="54,-495 0,-495 0,-459 54,-459 54,-495"/>
<text text-anchor="middle" x="27" y="-471.95" font-family="Times,serif" font-size="14.00">.</text>
</g>
<!-- created -->
<g id="node2" class="node">
<title>created</title>
<polygon fill="none" stroke="black" points="205,-954 150,-954 150,-918 205,-918 205,-954"/>
<text text-anchor="middle" x="177.5" y="-930.95" font-family="Times,serif" font-size="14.00">created</text>
</g>
<!-- aaaebca6&#45;60aa&#45;44c7&#45;b7b0&#45;52b184d920f4&#45;&gt;created -->
<g id="edge1" class="edge">
<title>aaaebca6&#45;60aa&#45;44c7&#45;b7b0&#45;52b184d920f4&#45;&gt;created</title>
<path fill="none" stroke="black" d="M28.12,-495.44C28.95,-569.62 35.72,-845.26 90,-909 102.05,-923.15 121.39,-929.99 138.74,-933.25"/>
<polygon fill="black" stroke="black" points="137.84,-936.66 148.25,-934.7 138.89,-929.74 137.84,-936.66"/>
</g>
<!-- created_by_ref -->
<g id="node3" class="node">
<title>created_by_ref</title>
<polygon fill="none" stroke="black" points="226,-900 129,-900 129,-864 226,-864 226,-900"/>
<text text-anchor="middle" x="177.5" y="-876.95" font-family="Times,serif" font-size="14.00">created_by_ref</text>
</g>
<!-- aaaebca6&#45;60aa&#45;44c7&#45;b7b0&#45;52b184d920f4&#45;&gt;created_by_ref -->
<g id="edge2" class="edge">
<title>aaaebca6&#45;60aa&#45;44c7&#45;b7b0&#45;52b184d920f4&#45;&gt;created_by_ref</title>
<path fill="none" stroke="black" d="M28.53,-495.43C30.87,-563.56 42.34,-800.16 90,-855 97.35,-863.46 107.31,-869.3 117.86,-873.33"/>
<polygon fill="black" stroke="black" points="116.5,-876.57 127.09,-876.31 118.65,-869.91 116.5,-876.57"/>
</g>
<!-- description -->
<g id="node4" class="node">
<title>description</title>
<polygon fill="none" stroke="black" points="215.5,-846 139.5,-846 139.5,-810 215.5,-810 215.5,-846"/>
<text text-anchor="middle" x="177.5" y="-822.95" font-family="Times,serif" font-size="14.00">description</text>
</g>
<!-- aaaebca6&#45;60aa&#45;44c7&#45;b7b0&#45;52b184d920f4&#45;&gt;description -->
<g id="edge3" class="edge">
<title>aaaebca6&#45;60aa&#45;44c7&#45;b7b0&#45;52b184d920f4&#45;&gt;description</title>
<path fill="none" stroke="black" d="M29.08,-495.3C33.06,-556.84 48.91,-754.96 90,-801 99.84,-812.02 114.09,-818.59 128.21,-822.49"/>
<polygon fill="black" stroke="black" points="127.4,-825.9 137.93,-824.74 128.98,-819.08 127.4,-825.9"/>
</g>
<!-- external_references[] -->
<g id="node5" class="node">
<title>external_references[]</title>
<polygon fill="none" stroke="black" points="242.88,-792 112.12,-792 112.12,-756 242.88,-756 242.88,-792"/>
<text text-anchor="middle" x="177.5" y="-768.95" font-family="Times,serif" font-size="14.00">external_references[]</text>
</g>
<!-- aaaebca6&#45;60aa&#45;44c7&#45;b7b0&#45;52b184d920f4&#45;&gt;external_references[] -->
<g id="edge4" class="edge">
<title>aaaebca6&#45;60aa&#45;44c7&#45;b7b0&#45;52b184d920f4&#45;&gt;external_references[]</title>
<path fill="none" stroke="black" d="M29.84,-495.26C35.67,-549.73 55.44,-709.68 90,-747 93.52,-750.8 97.57,-754.08 101.95,-756.89"/>
<polygon fill="black" stroke="black" points="100.21,-759.93 110.67,-761.62 103.55,-753.78 100.21,-759.93"/>
</g>
<!-- id -->
<g id="node9" class="node">
<title>id</title>
<polygon fill="none" stroke="black" points="204.5,-738 150.5,-738 150.5,-702 204.5,-702 204.5,-738"/>
<text text-anchor="middle" x="177.5" y="-714.95" font-family="Times,serif" font-size="14.00">id</text>
</g>
<!-- aaaebca6&#45;60aa&#45;44c7&#45;b7b0&#45;52b184d920f4&#45;&gt;id -->
<g id="edge5" class="edge">
<title>aaaebca6&#45;60aa&#45;44c7&#45;b7b0&#45;52b184d920f4&#45;&gt;id</title>
<path fill="none" stroke="black" d="M27.77,-495.47C28.3,-536.75 35.46,-637.19 90,-693 102.78,-706.07 121.77,-712.84 138.71,-716.33"/>
<polygon fill="black" stroke="black" points="138.07,-719.78 148.52,-718.01 139.25,-712.88 138.07,-719.78"/>
</g>
<!-- modified -->
<g id="node10" class="node">
<title>modified</title>
<polygon fill="none" stroke="black" points="210.25,-684 144.75,-684 144.75,-648 210.25,-648 210.25,-684"/>
<text text-anchor="middle" x="177.5" y="-660.95" font-family="Times,serif" font-size="14.00">modified</text>
</g>
<!-- aaaebca6&#45;60aa&#45;44c7&#45;b7b0&#45;52b184d920f4&#45;&gt;modified -->
<g id="edge6" class="edge">
<title>aaaebca6&#45;60aa&#45;44c7&#45;b7b0&#45;52b184d920f4&#45;&gt;modified</title>
<path fill="none" stroke="black" d="M29.85,-495.41C34.19,-528.83 48.07,-599.63 90,-639 101.81,-650.09 118.12,-656.63 133.4,-660.48"/>
<polygon fill="black" stroke="black" points="132.27,-663.82 142.78,-662.52 133.75,-656.98 132.27,-663.82"/>
</g>
<!-- name -->
<g id="node11" class="node">
<title>name</title>
<polygon fill="none" stroke="black" points="204.5,-630 150.5,-630 150.5,-594 204.5,-594 204.5,-630"/>
<text text-anchor="middle" x="177.5" y="-606.95" font-family="Times,serif" font-size="14.00">name</text>
</g>
<!-- aaaebca6&#45;60aa&#45;44c7&#45;b7b0&#45;52b184d920f4&#45;&gt;name -->
<g id="edge7" class="edge">
<title>aaaebca6&#45;60aa&#45;44c7&#45;b7b0&#45;52b184d920f4&#45;&gt;name</title>
<path fill="none" stroke="black" d="M33.83,-495.48C42.35,-519.55 60.49,-561.32 90,-585 104.06,-596.28 122.86,-602.87 139.34,-606.71"/>
<polygon fill="black" stroke="black" points="138.31,-610.07 148.81,-608.65 139.71,-603.21 138.31,-610.07"/>
</g>
<!-- object_marking_refs -->
<g id="node12" class="node">
<title>object_marking_refs</title>
<polygon fill="none" stroke="black" points="241.75,-576 113.25,-576 113.25,-540 241.75,-540 241.75,-576"/>
<text text-anchor="middle" x="177.5" y="-552.95" font-family="Times,serif" font-size="14.00">object_marking_refs</text>
</g>
<!-- aaaebca6&#45;60aa&#45;44c7&#45;b7b0&#45;52b184d920f4&#45;&gt;object_marking_refs -->
<g id="edge8" class="edge">
<title>aaaebca6&#45;60aa&#45;44c7&#45;b7b0&#45;52b184d920f4&#45;&gt;object_marking_refs</title>
<path fill="none" stroke="black" d="M45.19,-495.49C56.86,-507.1 73.18,-521.6 90,-531 93.91,-533.18 98.01,-535.21 102.22,-537.1"/>
<polygon fill="black" stroke="black" points="100.88,-540.33 111.46,-540.91 103.56,-533.86 100.88,-540.33"/>
</g>
<!-- revoked -->
<g id="node13" class="node">
<title>revoked</title>
<polygon fill="none" stroke="black" points="207.25,-522 147.75,-522 147.75,-486 207.25,-486 207.25,-522"/>
<text text-anchor="middle" x="177.5" y="-498.95" font-family="Times,serif" font-size="14.00">revoked</text>
</g>
<!-- aaaebca6&#45;60aa&#45;44c7&#45;b7b0&#45;52b184d920f4&#45;&gt;revoked -->
<g id="edge9" class="edge">
<title>aaaebca6&#45;60aa&#45;44c7&#45;b7b0&#45;52b184d920f4&#45;&gt;revoked</title>
<path fill="none" stroke="black" d="M54.21,-481.76C76.98,-485.91 110.32,-491.97 136.44,-496.72"/>
<polygon fill="black" stroke="black" points="135.55,-500.11 146.02,-498.46 136.81,-493.23 135.55,-500.11"/>
</g>
<!-- type -->
<g id="node14" class="node">
<title>type</title>
<polygon fill="none" stroke="black" points="204.5,-468 150.5,-468 150.5,-432 204.5,-432 204.5,-468"/>
<text text-anchor="middle" x="177.5" y="-444.95" font-family="Times,serif" font-size="14.00">type</text>
</g>
<!-- aaaebca6&#45;60aa&#45;44c7&#45;b7b0&#45;52b184d920f4&#45;&gt;type -->
<g id="edge10" class="edge">
<title>aaaebca6&#45;60aa&#45;44c7&#45;b7b0&#45;52b184d920f4&#45;&gt;type</title>
<path fill="none" stroke="black" d="M54.21,-472.24C77.71,-467.96 112.46,-461.64 138.92,-456.83"/>
<polygon fill="black" stroke="black" points="139.35,-460.31 148.57,-455.08 138.1,-453.42 139.35,-460.31"/>
</g>
<!-- x_mitre_attack_spec_version -->
<g id="node15" class="node">
<title>x_mitre_attack_spec_version</title>
<polygon fill="none" stroke="black" points="265,-414 90,-414 90,-378 265,-378 265,-414"/>
<text text-anchor="middle" x="177.5" y="-390.95" font-family="Times,serif" font-size="14.00">x_mitre_attack_spec_version</text>
</g>
<!-- aaaebca6&#45;60aa&#45;44c7&#45;b7b0&#45;52b184d920f4&#45;&gt;x_mitre_attack_spec_version -->
<g id="edge11" class="edge">
<title>aaaebca6&#45;60aa&#45;44c7&#45;b7b0&#45;52b184d920f4&#45;&gt;x_mitre_attack_spec_version</title>
<path fill="none" stroke="black" d="M45.19,-458.51C56.86,-446.9 73.18,-432.4 90,-423 92.46,-421.62 95.01,-420.31 97.61,-419.05"/>
<polygon fill="black" stroke="black" points="98.76,-422.37 106.48,-415.1 95.92,-415.97 98.76,-422.37"/>
</g>
<!-- x_mitre_collection_layers -->
<g id="node16" class="node">
<title>x_mitre_collection_layers</title>
<polygon fill="none" stroke="black" points="256.38,-360 98.62,-360 98.62,-324 256.38,-324 256.38,-360"/>
<text text-anchor="middle" x="177.5" y="-336.95" font-family="Times,serif" font-size="14.00">x_mitre_collection_layers</text>
</g>
<!-- aaaebca6&#45;60aa&#45;44c7&#45;b7b0&#45;52b184d920f4&#45;&gt;x_mitre_collection_layers -->
<g id="edge12" class="edge">
<title>aaaebca6&#45;60aa&#45;44c7&#45;b7b0&#45;52b184d920f4&#45;&gt;x_mitre_collection_layers</title>
<path fill="none" stroke="black" d="M33.83,-458.52C42.35,-434.45 60.49,-392.68 90,-369 91.14,-368.09 92.31,-367.2 93.51,-366.35"/>
<polygon fill="black" stroke="black" points="95.21,-369.41 101.87,-361.17 91.53,-363.46 95.21,-369.41"/>
</g>
<!-- x_mitre_contributors -->
<g id="node17" class="node">
<title>x_mitre_contributors</title>
<polygon fill="none" stroke="black" points="242.88,-306 112.12,-306 112.12,-270 242.88,-270 242.88,-306"/>
<text text-anchor="middle" x="177.5" y="-282.95" font-family="Times,serif" font-size="14.00">x_mitre_contributors</text>
</g>
<!-- aaaebca6&#45;60aa&#45;44c7&#45;b7b0&#45;52b184d920f4&#45;&gt;x_mitre_contributors -->
<g id="edge13" class="edge">
<title>aaaebca6&#45;60aa&#45;44c7&#45;b7b0&#45;52b184d920f4&#45;&gt;x_mitre_contributors</title>
<path fill="none" stroke="black" d="M29.85,-458.59C34.19,-425.17 48.07,-354.37 90,-315 93.65,-311.58 97.72,-308.59 102.06,-305.97"/>
<polygon fill="black" stroke="black" points="103.33,-309.26 110.59,-301.54 100.1,-303.05 103.33,-309.26"/>
</g>
<!-- x_mitre_deprecated -->
<g id="node18" class="node">
<title>x_mitre_deprecated</title>
<polygon fill="none" stroke="black" points="239.5,-252 115.5,-252 115.5,-216 239.5,-216 239.5,-252"/>
<text text-anchor="middle" x="177.5" y="-228.95" font-family="Times,serif" font-size="14.00">x_mitre_deprecated</text>
</g>
<!-- aaaebca6&#45;60aa&#45;44c7&#45;b7b0&#45;52b184d920f4&#45;&gt;x_mitre_deprecated -->
<g id="edge14" class="edge">
<title>aaaebca6&#45;60aa&#45;44c7&#45;b7b0&#45;52b184d920f4&#45;&gt;x_mitre_deprecated</title>
<path fill="none" stroke="black" d="M27.77,-458.53C28.3,-417.25 35.46,-316.81 90,-261 94.4,-256.5 99.53,-252.75 105.07,-249.62"/>
<polygon fill="black" stroke="black" points="106.55,-252.79 114.03,-245.29 103.5,-246.49 106.55,-252.79"/>
</g>
<!-- x_mitre_domains -->
<g id="node19" class="node">
<title>x_mitre_domains</title>
<polygon fill="none" stroke="black" points="233.5,-198 121.5,-198 121.5,-162 233.5,-162 233.5,-198"/>
<text text-anchor="middle" x="177.5" y="-174.95" font-family="Times,serif" font-size="14.00">x_mitre_domains</text>
</g>
<!-- aaaebca6&#45;60aa&#45;44c7&#45;b7b0&#45;52b184d920f4&#45;&gt;x_mitre_domains -->
<g id="edge15" class="edge">
<title>aaaebca6&#45;60aa&#45;44c7&#45;b7b0&#45;52b184d920f4&#45;&gt;x_mitre_domains</title>
<path fill="none" stroke="black" d="M29.84,-458.74C35.67,-404.27 55.44,-244.32 90,-207 95.8,-200.74 103.02,-195.92 110.8,-192.21"/>
<polygon fill="black" stroke="black" points="111.94,-195.53 119.89,-188.52 109.31,-189.04 111.94,-195.53"/>
</g>
<!-- x_mitre_modified_by_ref -->
<g id="node20" class="node">
<title>x_mitre_modified_by_ref</title>
<polygon fill="none" stroke="black" points="256,-144 99,-144 99,-108 256,-108 256,-144"/>
<text text-anchor="middle" x="177.5" y="-120.95" font-family="Times,serif" font-size="14.00">x_mitre_modified_by_ref</text>
</g>
<!-- aaaebca6&#45;60aa&#45;44c7&#45;b7b0&#45;52b184d920f4&#45;&gt;x_mitre_modified_by_ref -->
<g id="edge16" class="edge">
<title>aaaebca6&#45;60aa&#45;44c7&#45;b7b0&#45;52b184d920f4&#45;&gt;x_mitre_modified_by_ref</title>
<path fill="none" stroke="black" d="M29.08,-458.7C33.06,-397.16 48.91,-199.04 90,-153 90.46,-152.49 90.93,-151.98 91.4,-151.49"/>
<polygon fill="black" stroke="black" points="93.37,-154.41 98.71,-145.26 88.83,-149.09 93.37,-154.41"/>
</g>
<!-- x_mitre_platforms -->
<g id="node21" class="node">
<title>x_mitre_platforms</title>
<polygon fill="none" stroke="black" points="236.5,-90 118.5,-90 118.5,-54 236.5,-54 236.5,-90"/>
<text text-anchor="middle" x="177.5" y="-66.95" font-family="Times,serif" font-size="14.00">x_mitre_platforms</text>
</g>
<!-- aaaebca6&#45;60aa&#45;44c7&#45;b7b0&#45;52b184d920f4&#45;&gt;x_mitre_platforms -->
<g id="edge17" class="edge">
<title>aaaebca6&#45;60aa&#45;44c7&#45;b7b0&#45;52b184d920f4&#45;&gt;x_mitre_platforms</title>
<path fill="none" stroke="black" d="M28.53,-458.57C30.87,-390.44 42.34,-153.84 90,-99 94.99,-93.26 101.19,-88.72 107.95,-85.14"/>
<polygon fill="black" stroke="black" points="109.12,-88.45 116.81,-81.16 106.25,-82.06 109.12,-88.45"/>
</g>
<!-- x_mitre_version -->
<g id="node22" class="node">
<title>x_mitre_version</title>
<polygon fill="none" stroke="black" points="230.12,-36 124.88,-36 124.88,0 230.12,0 230.12,-36"/>
<text text-anchor="middle" x="177.5" y="-12.95" font-family="Times,serif" font-size="14.00">x_mitre_version</text>
</g>
<!-- aaaebca6&#45;60aa&#45;44c7&#45;b7b0&#45;52b184d920f4&#45;&gt;x_mitre_version -->
<g id="edge18" class="edge">
<title>aaaebca6&#45;60aa&#45;44c7&#45;b7b0&#45;52b184d920f4&#45;&gt;x_mitre_version</title>
<path fill="none" stroke="black" d="M28.12,-458.56C28.95,-384.38 35.72,-108.74 90,-45 96.45,-37.43 104.98,-31.95 114.19,-27.99"/>
<polygon fill="black" stroke="black" points="115.16,-31.36 123.36,-24.66 112.77,-24.79 115.16,-31.36"/>
</g>
<!-- external_references[].external_id -->
<g id="node6" class="node">
<title>external_references[].external_id</title>
<polygon fill="none" stroke="black" points="383.38,-846 306.62,-846 306.62,-810 383.38,-810 383.38,-846"/>
<text text-anchor="middle" x="345" y="-822.95" font-family="Times,serif" font-size="14.00">external_id</text>
</g>
<!-- external_references[]&#45;&gt;external_references[].external_id -->
<g id="edge19" class="edge">
<title>external_references[]&#45;&gt;external_references[].external_id</title>
<path fill="none" stroke="black" d="M238.13,-792.38C247.14,-795.23 256.33,-798.16 265,-801 274.91,-804.24 285.5,-807.79 295.59,-811.23"/>
<polygon fill="black" stroke="black" points="294.27,-814.47 304.86,-814.39 296.53,-807.85 294.27,-814.47"/>
</g>
<!-- external_references[].source_name -->
<g id="node7" class="node">
<title>external_references[].source_name</title>
<polygon fill="none" stroke="black" points="389,-792 301,-792 301,-756 389,-756 389,-792"/>
<text text-anchor="middle" x="345" y="-768.95" font-family="Times,serif" font-size="14.00">source_name</text>
</g>
<!-- external_references[]&#45;&gt;external_references[].source_name -->
<g id="edge20" class="edge">
<title>external_references[]&#45;&gt;external_references[].source_name</title>
<path fill="none" stroke="black" d="M242.96,-774C258.44,-774 274.81,-774 289.77,-774"/>
<polygon fill="black" stroke="black" points="289.38,-777.5 299.38,-774 289.38,-770.5 289.38,-777.5"/>
</g>
<!-- external_references[].url -->
<g id="node8" class="node">
<title>external_references[].url</title>
<polygon fill="none" stroke="black" points="372,-738 318,-738 318,-702 372,-702 372,-738"/>
<text text-anchor="middle" x="345" y="-714.95" font-family="Times,serif" font-size="14.00">url</text>
</g>
<!-- external_references[]&#45;&gt;external_references[].url -->
<g id="edge21" class="edge">
<title>external_references[]&#45;&gt;external_references[].url</title>
<path fill="none" stroke="black" d="M238.13,-755.62C247.14,-752.77 256.33,-749.84 265,-747 278.78,-742.5 293.84,-737.39 307.09,-732.84"/>
<polygon fill="black" stroke="black" points="307.98,-736.24 316.29,-729.67 305.7,-729.62 307.98,-736.24"/>
</g>
</g>
</svg>
