<?xml version="1.0" encoding="UTF-8" standalone="no"?>
<!DOCTYPE svg PUBLIC "-//W3C//DTD SVG 1.1//EN"
 "http://www.w3.org/Graphics/SVG/1.1/DTD/svg11.dtd">
<!-- Generated by graphviz version 12.0.0 (20240704.0754)
 -->
<!-- Title: G Pages: 1 -->
<svg width="1654pt" height="2883pt"
 viewBox="0.00 0.00 397.00 692.00" xmlns="http://www.w3.org/2000/svg" xmlns:xlink="http://www.w3.org/1999/xlink">
<g id="graph0" class="graph" transform="scale(4.16667 4.16667) rotate(0) translate(4 688)">
<title>G</title>
<polygon fill="white" stroke="none" points="-4,4 -4,-688 393,-688 393,4 -4,4"/>
<!-- adb1a537&#45;4e8b&#45;4d47&#45;b6cc&#45;88ac49aab5d2 -->
<g id="node1" class="node">
<title>adb1a537&#45;4e8b&#45;4d47&#45;b6cc&#45;88ac49aab5d2</title>
<polygon fill="none" stroke="black" points="54,-360 0,-360 0,-324 54,-324 54,-360"/>
<text text-anchor="middle" x="27" y="-336.95" font-family="Times,serif" font-size="14.00">.</text>
</g>
<!-- created -->
<g id="node2" class="node">
<title>created</title>
<polygon fill="none" stroke="black" points="205,-684 150,-684 150,-648 205,-648 205,-684"/>
<text text-anchor="middle" x="177.5" y="-660.95" font-family="Times,serif" font-size="14.00">created</text>
</g>
<!-- adb1a537&#45;4e8b&#45;4d47&#45;b6cc&#45;88ac49aab5d2&#45;&gt;created -->
<g id="edge1" class="edge">
<title>adb1a537&#45;4e8b&#45;4d47&#45;b6cc&#45;88ac49aab5d2&#45;&gt;created</title>
<path fill="none" stroke="black" d="M29.43,-360.4C34.33,-418.6 52.21,-597.36 90,-639 102.4,-652.66 121.6,-659.48 138.76,-662.84"/>
<polygon fill="black" stroke="black" points="137.73,-666.22 148.16,-664.36 138.84,-659.31 137.73,-666.22"/>
</g>
<!-- created_by_ref -->
<g id="node3" class="node">
<title>created_by_ref</title>
<polygon fill="none" stroke="black" points="226,-630 129,-630 129,-594 226,-594 226,-630"/>
<text text-anchor="middle" x="177.5" y="-606.95" font-family="Times,serif" font-size="14.00">created_by_ref</text>
</g>
<!-- adb1a537&#45;4e8b&#45;4d47&#45;b6cc&#45;88ac49aab5d2&#45;&gt;created_by_ref -->
<g id="edge2" class="edge">
<title>adb1a537&#45;4e8b&#45;4d47&#45;b6cc&#45;88ac49aab5d2&#45;&gt;created_by_ref</title>
<path fill="none" stroke="black" d="M30.34,-360.23C37.18,-410.92 58.69,-551.99 90,-585 97.55,-592.96 107.41,-598.59 117.76,-602.57"/>
<polygon fill="black" stroke="black" points="116.62,-605.87 127.21,-605.66 118.8,-599.22 116.62,-605.87"/>
</g>
<!-- description -->
<g id="node4" class="node">
<title>description</title>
<polygon fill="none" stroke="black" points="215.5,-576 139.5,-576 139.5,-540 215.5,-540 215.5,-576"/>
<text text-anchor="middle" x="177.5" y="-552.95" font-family="Times,serif" font-size="14.00">description</text>
</g>
<!-- adb1a537&#45;4e8b&#45;4d47&#45;b6cc&#45;88ac49aab5d2&#45;&gt;description -->
<g id="edge3" class="edge">
<title>adb1a537&#45;4e8b&#45;4d47&#45;b6cc&#45;88ac49aab5d2&#45;&gt;description</title>
<path fill="none" stroke="black" d="M28.68,-360.45C31.06,-397.94 41.8,-483.49 90,-531 100.34,-541.2 114.48,-547.55 128.32,-551.51"/>
<polygon fill="black" stroke="black" points="127.27,-554.85 137.81,-553.83 128.93,-548.05 127.27,-554.85"/>
</g>
<!-- external_references[] -->
<g id="node5" class="node">
<title>external_references[]</title>
<polygon fill="none" stroke="black" points="242.88,-522 112.12,-522 112.12,-486 242.88,-486 242.88,-522"/>
<text text-anchor="middle" x="177.5" y="-498.95" font-family="Times,serif" font-size="14.00">external_references[]</text>
</g>
<!-- adb1a537&#45;4e8b&#45;4d47&#45;b6cc&#45;88ac49aab5d2&#45;&gt;external_references[] -->
<g id="edge4" class="edge">
<title>adb1a537&#45;4e8b&#45;4d47&#45;b6cc&#45;88ac49aab5d2&#45;&gt;external_references[]</title>
<path fill="none" stroke="black" d="M31.39,-360.12C37.75,-389.02 54.17,-445.49 90,-477 93.59,-480.16 97.54,-482.94 101.73,-485.4"/>
<polygon fill="black" stroke="black" points="99.99,-488.45 110.49,-489.89 103.18,-482.22 99.99,-488.45"/>
</g>
<!-- id -->
<g id="node9" class="node">
<title>id</title>
<polygon fill="none" stroke="black" points="204.5,-468 150.5,-468 150.5,-432 204.5,-432 204.5,-468"/>
<text text-anchor="middle" x="177.5" y="-444.95" font-family="Times,serif" font-size="14.00">id</text>
</g>
<!-- adb1a537&#45;4e8b&#45;4d47&#45;b6cc&#45;88ac49aab5d2&#45;&gt;id -->
<g id="edge5" class="edge">
<title>adb1a537&#45;4e8b&#45;4d47&#45;b6cc&#45;88ac49aab5d2&#45;&gt;id</title>
<path fill="none" stroke="black" d="M37.62,-360.44C48.13,-378.84 66.63,-406.67 90,-423 104.42,-433.08 122.75,-439.51 138.83,-443.55"/>
<polygon fill="black" stroke="black" points="138.04,-446.96 148.57,-445.75 139.59,-440.13 138.04,-446.96"/>
</g>
<!-- modified -->
<g id="node10" class="node">
<title>modified</title>
<polygon fill="none" stroke="black" points="210.25,-414 144.75,-414 144.75,-378 210.25,-378 210.25,-414"/>
<text text-anchor="middle" x="177.5" y="-390.95" font-family="Times,serif" font-size="14.00">modified</text>
</g>
<!-- adb1a537&#45;4e8b&#45;4d47&#45;b6cc&#45;88ac49aab5d2&#45;&gt;modified -->
<g id="edge6" class="edge">
<title>adb1a537&#45;4e8b&#45;4d47&#45;b6cc&#45;88ac49aab5d2&#45;&gt;modified</title>
<path fill="none" stroke="black" d="M54.29,-354.2C65.23,-359.08 78.12,-364.57 90,-369 104.08,-374.24 119.68,-379.33 133.72,-383.65"/>
<polygon fill="black" stroke="black" points="132.55,-386.95 143.14,-386.5 134.58,-380.25 132.55,-386.95"/>
</g>
<!-- name -->
<g id="node11" class="node">
<title>name</title>
<polygon fill="none" stroke="black" points="204.5,-360 150.5,-360 150.5,-324 204.5,-324 204.5,-360"/>
<text text-anchor="middle" x="177.5" y="-336.95" font-family="Times,serif" font-size="14.00">name</text>
</g>
<!-- adb1a537&#45;4e8b&#45;4d47&#45;b6cc&#45;88ac49aab5d2&#45;&gt;name -->
<g id="edge7" class="edge">
<title>adb1a537&#45;4e8b&#45;4d47&#45;b6cc&#45;88ac49aab5d2&#45;&gt;name</title>
<path fill="none" stroke="black" d="M54.21,-342C77.6,-342 112.15,-342 138.56,-342"/>
<polygon fill="black" stroke="black" points="138.54,-345.5 148.54,-342 138.54,-338.5 138.54,-345.5"/>
</g>
<!-- object_marking_refs -->
<g id="node12" class="node">
<title>object_marking_refs</title>
<polygon fill="none" stroke="black" points="241.75,-306 113.25,-306 113.25,-270 241.75,-270 241.75,-306"/>
<text text-anchor="middle" x="177.5" y="-282.95" font-family="Times,serif" font-size="14.00">object_marking_refs</text>
</g>
<!-- adb1a537&#45;4e8b&#45;4d47&#45;b6cc&#45;88ac49aab5d2&#45;&gt;object_marking_refs -->
<g id="edge8" class="edge">
<title>adb1a537&#45;4e8b&#45;4d47&#45;b6cc&#45;88ac49aab5d2&#45;&gt;object_marking_refs</title>
<path fill="none" stroke="black" d="M54.29,-329.8C65.23,-324.92 78.12,-319.43 90,-315 94.6,-313.29 99.37,-311.59 104.19,-309.93"/>
<polygon fill="black" stroke="black" points="104.99,-313.35 113.36,-306.85 102.76,-306.71 104.99,-313.35"/>
</g>
<!-- tactic_refs -->
<g id="node13" class="node">
<title>tactic_refs</title>
<polygon fill="none" stroke="black" points="213.62,-252 141.38,-252 141.38,-216 213.62,-216 213.62,-252"/>
<text text-anchor="middle" x="177.5" y="-228.95" font-family="Times,serif" font-size="14.00">tactic_refs</text>
</g>
<!-- adb1a537&#45;4e8b&#45;4d47&#45;b6cc&#45;88ac49aab5d2&#45;&gt;tactic_refs -->
<g id="edge9" class="edge">
<title>adb1a537&#45;4e8b&#45;4d47&#45;b6cc&#45;88ac49aab5d2&#45;&gt;tactic_refs</title>
<path fill="none" stroke="black" d="M37.62,-323.56C48.13,-305.16 66.63,-277.33 90,-261 101.9,-252.68 116.47,-246.85 130.23,-242.79"/>
<polygon fill="black" stroke="black" points="130.81,-246.26 139.57,-240.3 129,-239.5 130.81,-246.26"/>
</g>
<!-- type -->
<g id="node14" class="node">
<title>type</title>
<polygon fill="none" stroke="black" points="204.5,-198 150.5,-198 150.5,-162 204.5,-162 204.5,-198"/>
<text text-anchor="middle" x="177.5" y="-174.95" font-family="Times,serif" font-size="14.00">type</text>
</g>
<!-- adb1a537&#45;4e8b&#45;4d47&#45;b6cc&#45;88ac49aab5d2&#45;&gt;type -->
<g id="edge10" class="edge">
<title>adb1a537&#45;4e8b&#45;4d47&#45;b6cc&#45;88ac49aab5d2&#45;&gt;type</title>
<path fill="none" stroke="black" d="M31.39,-323.88C37.75,-294.98 54.17,-238.51 90,-207 103.63,-195.01 122.54,-188.35 139.21,-184.64"/>
<polygon fill="black" stroke="black" points="139.65,-188.12 148.81,-182.8 138.33,-181.24 139.65,-188.12"/>
</g>
<!-- x_mitre_attack_spec_version -->
<g id="node15" class="node">
<title>x_mitre_attack_spec_version</title>
<polygon fill="none" stroke="black" points="265,-144 90,-144 90,-108 265,-108 265,-144"/>
<text text-anchor="middle" x="177.5" y="-120.95" font-family="Times,serif" font-size="14.00">x_mitre_attack_spec_version</text>
</g>
<!-- adb1a537&#45;4e8b&#45;4d47&#45;b6cc&#45;88ac49aab5d2&#45;&gt;x_mitre_attack_spec_version -->
<g id="edge11" class="edge">
<title>adb1a537&#45;4e8b&#45;4d47&#45;b6cc&#45;88ac49aab5d2&#45;&gt;x_mitre_attack_spec_version</title>
<path fill="none" stroke="black" d="M28.68,-323.55C31.06,-286.06 41.8,-200.51 90,-153 90.61,-152.4 91.23,-151.81 91.87,-151.24"/>
<polygon fill="black" stroke="black" points="93.7,-154.24 99.54,-145.4 89.46,-148.67 93.7,-154.24"/>
</g>
<!-- x_mitre_modified_by_ref -->
<g id="node16" class="node">
<title>x_mitre_modified_by_ref</title>
<polygon fill="none" stroke="black" points="256,-90 99,-90 99,-54 256,-54 256,-90"/>
<text text-anchor="middle" x="177.5" y="-66.95" font-family="Times,serif" font-size="14.00">x_mitre_modified_by_ref</text>
</g>
<!-- adb1a537&#45;4e8b&#45;4d47&#45;b6cc&#45;88ac49aab5d2&#45;&gt;x_mitre_modified_by_ref -->
<g id="edge12" class="edge">
<title>adb1a537&#45;4e8b&#45;4d47&#45;b6cc&#45;88ac49aab5d2&#45;&gt;x_mitre_modified_by_ref</title>
<path fill="none" stroke="black" d="M30.34,-323.77C37.18,-273.08 58.69,-132.01 90,-99 90.47,-98.5 90.96,-98.01 91.45,-97.53"/>
<polygon fill="black" stroke="black" points="93.37,-100.48 98.92,-91.45 88.95,-95.05 93.37,-100.48"/>
</g>
<!-- x_mitre_version -->
<g id="node17" class="node">
<title>x_mitre_version</title>
<polygon fill="none" stroke="black" points="230.12,-36 124.88,-36 124.88,0 230.12,0 230.12,-36"/>
<text text-anchor="middle" x="177.5" y="-12.95" font-family="Times,serif" font-size="14.00">x_mitre_version</text>
</g>
<!-- adb1a537&#45;4e8b&#45;4d47&#45;b6cc&#45;88ac49aab5d2&#45;&gt;x_mitre_version -->
<g id="edge13" class="edge">
<title>adb1a537&#45;4e8b&#45;4d47&#45;b6cc&#45;88ac49aab5d2&#45;&gt;x_mitre_version</title>
<path fill="none" stroke="black" d="M29.43,-323.6C34.33,-265.4 52.21,-86.64 90,-45 96.54,-37.8 104.96,-32.5 113.98,-28.61"/>
<polygon fill="black" stroke="black" points="115.15,-31.9 123.34,-25.17 112.74,-25.33 115.15,-31.9"/>
</g>
<!-- external_references[].external_id -->
<g id="node6" class="node">
<title>external_references[].external_id</title>
<polygon fill="none" stroke="black" points="383.38,-576 306.62,-576 306.62,-540 383.38,-540 383.38,-576"/>
<text text-anchor="middle" x="345" y="-552.95" font-family="Times,serif" font-size="14.00">external_id</text>
</g>
<!-- external_references[]&#45;&gt;external_references[].external_id -->
<g id="edge14" class="edge">
<title>external_references[]&#45;&gt;external_references[].external_id</title>
<path fill="none" stroke="black" d="M238.13,-522.38C247.14,-525.23 256.33,-528.16 265,-531 274.91,-534.24 285.5,-537.79 295.59,-541.23"/>
<polygon fill="black" stroke="black" points="294.27,-544.47 304.86,-544.39 296.53,-537.85 294.27,-544.47"/>
</g>
<!-- external_references[].source_name -->
<g id="node7" class="node">
<title>external_references[].source_name</title>
<polygon fill="none" stroke="black" points="389,-522 301,-522 301,-486 389,-486 389,-522"/>
<text text-anchor="middle" x="345" y="-498.95" font-family="Times,serif" font-size="14.00">source_name</text>
</g>
<!-- external_references[]&#45;&gt;external_references[].source_name -->
<g id="edge15" class="edge">
<title>external_references[]&#45;&gt;external_references[].source_name</title>
<path fill="none" stroke="black" d="M242.96,-504C258.44,-504 274.81,-504 289.77,-504"/>
<polygon fill="black" stroke="black" points="289.38,-507.5 299.38,-504 289.38,-500.5 289.38,-507.5"/>
</g>
<!-- external_references[].url -->
<g id="node8" class="node">
<title>external_references[].url</title>
<polygon fill="none" stroke="black" points="372,-468 318,-468 318,-432 372,-432 372,-468"/>
<text text-anchor="middle" x="345" y="-444.95" font-family="Times,serif" font-size="14.00">url</text>
</g>
<!-- external_references[]&#45;&gt;external_references[].url -->
<g id="edge16" class="edge">
<title>external_references[]&#45;&gt;external_references[].url</title>
<path fill="none" stroke="black" d="M238.13,-485.62C247.14,-482.77 256.33,-479.84 265,-477 278.78,-472.5 293.84,-467.39 307.09,-462.84"/>
<polygon fill="black" stroke="black" points="307.98,-466.24 316.29,-459.67 305.7,-459.62 307.98,-466.24"/>
</g>
</g>
</svg>
