<?xml version="1.0" encoding="UTF-8" standalone="no"?>
<!DOCTYPE svg PUBLIC "-//W3C//DTD SVG 1.1//EN"
 "http://www.w3.org/Graphics/SVG/1.1/DTD/svg11.dtd">
<!-- Generated by graphviz version 9.0.0 (20230911.1827)
 -->
<!-- Title: G Pages: 1 -->
<svg width="2115pt" height="8067pt"
 viewBox="0.00 0.00 507.50 1936.00" xmlns="http://www.w3.org/2000/svg" xmlns:xlink="http://www.w3.org/1999/xlink">
<g id="graph0" class="graph" transform="scale(4.16667 4.16667) rotate(0) translate(4 1932)">
<title>G</title>
<polygon fill="white" stroke="none" points="-4,4 -4,-1932 503.5,-1932 503.5,4 -4,4"/>
<!-- $schema -->
<g id="node1" class="node">
<title>$schema</title>
<path fill="none" stroke="black" d="M146.88,-1433C146.88,-1433 106.88,-1433 106.88,-1433 100.88,-1433 94.88,-1427 94.88,-1421 94.88,-1421 94.88,-1409 94.88,-1409 94.88,-1403 100.88,-1397 106.88,-1397 106.88,-1397 146.88,-1397 146.88,-1397 152.88,-1397 158.88,-1403 158.88,-1409 158.88,-1409 158.88,-1421 158.88,-1421 158.88,-1427 152.88,-1433 146.88,-1433"/>
<text text-anchor="middle" x="126.88" y="-1409.95" font-family="Times,serif" font-size="14.00">$schema</text>
</g>
<!-- . -->
<g id="node2" class="node">
<title>.</title>
<path fill="none" stroke="black" d="M42,-595C42,-595 12,-595 12,-595 6,-595 0,-589 0,-583 0,-583 0,-571 0,-571 0,-565 6,-559 12,-559 12,-559 42,-559 42,-559 48,-559 54,-565 54,-571 54,-571 54,-583 54,-583 54,-589 48,-595 42,-595"/>
<text text-anchor="middle" x="27" y="-571.95" font-family="Times,serif" font-size="14.00">.</text>
</g>
<!-- .&#45;&gt;$schema -->
<g id="edge1" class="edge">
<title>.&#45;&gt;$schema</title>
<path fill="none" stroke="black" d="M28.4,-595.32C30.93,-705.51 45.91,-1279.02 89.61,-1388.53"/>
<polygon fill="black" stroke="black" points="86.45,-1390.04 93.99,-1397.48 92.74,-1386.96 86.45,-1390.04"/>
</g>
<!-- definitions -->
<g id="node3" class="node">
<title>definitions</title>
<path fill="none" stroke="black" d="M151.75,-1390C151.75,-1390 102,-1390 102,-1390 96,-1390 90,-1384 90,-1378 90,-1378 90,-1366 90,-1366 90,-1360 96,-1354 102,-1354 102,-1354 151.75,-1354 151.75,-1354 157.75,-1354 163.75,-1360 163.75,-1366 163.75,-1366 163.75,-1378 163.75,-1378 163.75,-1384 157.75,-1390 151.75,-1390"/>
<text text-anchor="middle" x="126.88" y="-1366.95" font-family="Times,serif" font-size="14.00">definitions</text>
</g>
<!-- .&#45;&gt;definitions -->
<g id="edge2" class="edge">
<title>.&#45;&gt;definitions</title>
<path fill="none" stroke="black" d="M30.28,-595.48C43.09,-699.6 106.28,-1212.88 122.22,-1342.32"/>
<polygon fill="black" stroke="black" points="118.73,-1342.62 123.43,-1352.12 125.68,-1341.77 118.73,-1342.62"/>
</g>
<!-- license[] -->
<g id="node38" class="node">
<title>license[]</title>
<path fill="none" stroke="black" d="M146.12,-638C146.12,-638 107.62,-638 107.62,-638 101.62,-638 95.62,-632 95.62,-626 95.62,-626 95.62,-614 95.62,-614 95.62,-608 101.62,-602 107.62,-602 107.62,-602 146.12,-602 146.12,-602 152.12,-602 158.12,-608 158.12,-614 158.12,-614 158.12,-626 158.12,-626 158.12,-632 152.12,-638 146.12,-638"/>
<text text-anchor="middle" x="126.88" y="-614.95" font-family="Times,serif" font-size="14.00">license[]</text>
</g>
<!-- .&#45;&gt;license[] -->
<g id="edge3" class="edge">
<title>.&#45;&gt;license[]</title>
<path fill="none" stroke="black" d="M54.49,-588.64C63.81,-592.73 74.53,-597.44 84.78,-601.94"/>
<polygon fill="black" stroke="black" points="83.26,-605.1 93.82,-605.92 86.07,-598.69 83.26,-605.1"/>
</g>
<!-- properties -->
<g id="node39" class="node">
<title>properties</title>
<path fill="none" stroke="black" d="M149.88,-595C149.88,-595 103.88,-595 103.88,-595 97.88,-595 91.88,-589 91.88,-583 91.88,-583 91.88,-571 91.88,-571 91.88,-565 97.88,-559 103.88,-559 103.88,-559 149.88,-559 149.88,-559 155.88,-559 161.88,-565 161.88,-571 161.88,-571 161.88,-583 161.88,-583 161.88,-589 155.88,-595 149.88,-595"/>
<text text-anchor="middle" x="126.88" y="-571.95" font-family="Times,serif" font-size="14.00">properties</text>
</g>
<!-- .&#45;&gt;properties -->
<g id="edge4" class="edge">
<title>.&#45;&gt;properties</title>
<path fill="none" stroke="black" d="M54.49,-577C62.44,-577 71.4,-577 80.22,-577"/>
<polygon fill="black" stroke="black" points="80.12,-580.5 90.12,-577 80.12,-573.5 80.12,-580.5"/>
</g>
<!-- required[] -->
<g id="node81" class="node">
<title>required[]</title>
<path fill="none" stroke="black" d="M149.88,-552C149.88,-552 103.88,-552 103.88,-552 97.88,-552 91.88,-546 91.88,-540 91.88,-540 91.88,-528 91.88,-528 91.88,-522 97.88,-516 103.88,-516 103.88,-516 149.88,-516 149.88,-516 155.88,-516 161.88,-522 161.88,-528 161.88,-528 161.88,-540 161.88,-540 161.88,-546 155.88,-552 149.88,-552"/>
<text text-anchor="middle" x="126.88" y="-528.95" font-family="Times,serif" font-size="14.00">required[]</text>
</g>
<!-- .&#45;&gt;required[] -->
<g id="edge5" class="edge">
<title>.&#45;&gt;required[]</title>
<path fill="none" stroke="black" d="M54.49,-565.36C62.71,-561.75 72,-557.67 81.11,-553.67"/>
<polygon fill="black" stroke="black" points="82.5,-556.88 90.25,-549.65 79.68,-550.47 82.5,-556.88"/>
</g>
<!-- title -->
<g id="node82" class="node">
<title>title</title>
<path fill="none" stroke="black" d="M141.88,-509C141.88,-509 111.88,-509 111.88,-509 105.88,-509 99.88,-503 99.88,-497 99.88,-497 99.88,-485 99.88,-485 99.88,-479 105.88,-473 111.88,-473 111.88,-473 141.88,-473 141.88,-473 147.88,-473 153.88,-479 153.88,-485 153.88,-485 153.88,-497 153.88,-497 153.88,-503 147.88,-509 141.88,-509"/>
<text text-anchor="middle" x="126.88" y="-485.95" font-family="Times,serif" font-size="14.00">title</text>
</g>
<!-- .&#45;&gt;title -->
<g id="edge6" class="edge">
<title>.&#45;&gt;title</title>
<path fill="none" stroke="black" d="M43.49,-558.69C55.42,-545.18 72.74,-526.84 90,-513 90.09,-512.93 90.19,-512.85 90.28,-512.78"/>
<polygon fill="black" stroke="black" points="92.21,-515.7 98.26,-507.01 88.11,-510.03 92.21,-515.7"/>
</g>
<!-- type -->
<g id="node83" class="node">
<title>type</title>
<path fill="none" stroke="black" d="M141.88,-466C141.88,-466 111.88,-466 111.88,-466 105.88,-466 99.88,-460 99.88,-454 99.88,-454 99.88,-442 99.88,-442 99.88,-436 105.88,-430 111.88,-430 111.88,-430 141.88,-430 141.88,-430 147.88,-430 153.88,-436 153.88,-442 153.88,-442 153.88,-454 153.88,-454 153.88,-460 147.88,-466 141.88,-466"/>
<text text-anchor="middle" x="126.88" y="-442.95" font-family="Times,serif" font-size="14.00">type</text>
</g>
<!-- .&#45;&gt;type -->
<g id="edge7" class="edge">
<title>.&#45;&gt;type</title>
<path fill="none" stroke="black" d="M35.32,-558.54C45.09,-535.65 64.22,-496.44 90,-470 90.27,-469.73 90.54,-469.45 90.82,-469.18"/>
<polygon fill="black" stroke="black" points="92.96,-471.95 98.46,-462.9 88.51,-466.54 92.96,-471.95"/>
</g>
<!-- definitions.accessComplexityType -->
<g id="node4" class="node">
<title>definitions.accessComplexityType</title>
<path fill="none" stroke="black" d="M353,-1885C353,-1885 234.25,-1885 234.25,-1885 228.25,-1885 222.25,-1879 222.25,-1873 222.25,-1873 222.25,-1861 222.25,-1861 222.25,-1855 228.25,-1849 234.25,-1849 234.25,-1849 353,-1849 353,-1849 359,-1849 365,-1855 365,-1861 365,-1861 365,-1873 365,-1873 365,-1879 359,-1885 353,-1885"/>
<text text-anchor="middle" x="293.62" y="-1861.95" font-family="Times,serif" font-size="14.00">accessComplexityType</text>
</g>
<!-- definitions&#45;&gt;definitions.accessComplexityType -->
<g id="edge8" class="edge">
<title>definitions&#45;&gt;definitions.accessComplexityType</title>
<path fill="none" stroke="black" d="M161.17,-1390.45C162.11,-1391.57 162.98,-1392.76 163.75,-1394 259.79,-1549.16 107.88,-1645.33 199.75,-1803 209.38,-1819.53 225.2,-1832.77 241.06,-1842.82"/>
<polygon fill="black" stroke="black" points="239.21,-1845.79 249.6,-1847.89 242.79,-1839.77 239.21,-1845.79"/>
</g>
<!-- definitions.accessVectorType -->
<g id="node7" class="node">
<title>definitions.accessVectorType</title>
<path fill="none" stroke="black" d="M338.38,-1799C338.38,-1799 248.88,-1799 248.88,-1799 242.88,-1799 236.88,-1793 236.88,-1787 236.88,-1787 236.88,-1775 236.88,-1775 236.88,-1769 242.88,-1763 248.88,-1763 248.88,-1763 338.38,-1763 338.38,-1763 344.38,-1763 350.38,-1769 350.38,-1775 350.38,-1775 350.38,-1787 350.38,-1787 350.38,-1793 344.38,-1799 338.38,-1799"/>
<text text-anchor="middle" x="293.62" y="-1775.95" font-family="Times,serif" font-size="14.00">accessVectorType</text>
</g>
<!-- definitions&#45;&gt;definitions.accessVectorType -->
<g id="edge9" class="edge">
<title>definitions&#45;&gt;definitions.accessVectorType</title>
<path fill="none" stroke="black" d="M161.13,-1390.47C162.09,-1391.59 162.97,-1392.77 163.75,-1394 241.19,-1515.93 125.58,-1593.05 199.75,-1717 209.58,-1733.42 225.43,-1746.63 241.28,-1756.69"/>
<polygon fill="black" stroke="black" points="239.42,-1759.65 249.8,-1761.77 243,-1753.64 239.42,-1759.65"/>
</g>
<!-- definitions.authenticationType -->
<g id="node10" class="node">
<title>definitions.authenticationType</title>
<path fill="none" stroke="black" d="M341.75,-1713C341.75,-1713 245.5,-1713 245.5,-1713 239.5,-1713 233.5,-1707 233.5,-1701 233.5,-1701 233.5,-1689 233.5,-1689 233.5,-1683 239.5,-1677 245.5,-1677 245.5,-1677 341.75,-1677 341.75,-1677 347.75,-1677 353.75,-1683 353.75,-1689 353.75,-1689 353.75,-1701 353.75,-1701 353.75,-1707 347.75,-1713 341.75,-1713"/>
<text text-anchor="middle" x="293.62" y="-1689.95" font-family="Times,serif" font-size="14.00">authenticationType</text>
</g>
<!-- definitions&#45;&gt;definitions.authenticationType -->
<g id="edge10" class="edge">
<title>definitions&#45;&gt;definitions.authenticationType</title>
<path fill="none" stroke="black" d="M160.77,-1390.18C161.86,-1391.39 162.86,-1392.66 163.75,-1394 222.65,-1482.78 143.24,-1540.68 199.75,-1631 209.99,-1647.36 226.1,-1660.61 242.06,-1670.72"/>
<polygon fill="black" stroke="black" points="240.24,-1673.7 250.62,-1675.83 243.83,-1667.69 240.24,-1673.7"/>
</g>
<!-- definitions.ciaRequirementType -->
<g id="node13" class="node">
<title>definitions.ciaRequirementType</title>
<path fill="none" stroke="black" d="M346.62,-1627C346.62,-1627 240.62,-1627 240.62,-1627 234.62,-1627 228.62,-1621 228.62,-1615 228.62,-1615 228.62,-1603 228.62,-1603 228.62,-1597 234.62,-1591 240.62,-1591 240.62,-1591 346.62,-1591 346.62,-1591 352.62,-1591 358.62,-1597 358.62,-1603 358.62,-1603 358.62,-1615 358.62,-1615 358.62,-1621 352.62,-1627 346.62,-1627"/>
<text text-anchor="middle" x="293.62" y="-1603.95" font-family="Times,serif" font-size="14.00">ciaRequirementType</text>
</g>
<!-- definitions&#45;&gt;definitions.ciaRequirementType -->
<g id="edge11" class="edge">
<title>definitions&#45;&gt;definitions.ciaRequirementType</title>
<path fill="none" stroke="black" d="M160.64,-1390.28C161.76,-1391.46 162.81,-1392.7 163.75,-1394 204.25,-1449.85 160.75,-1488.09 199.75,-1545 210.95,-1561.34 227.79,-1574.76 244.08,-1585.01"/>
<polygon fill="black" stroke="black" points="241.88,-1587.78 252.26,-1589.91 245.47,-1581.77 241.88,-1587.78"/>
</g>
<!-- definitions.ciaType -->
<g id="node16" class="node">
<title>definitions.ciaType</title>
<path fill="none" stroke="black" d="M311.38,-1541C311.38,-1541 275.88,-1541 275.88,-1541 269.88,-1541 263.88,-1535 263.88,-1529 263.88,-1529 263.88,-1517 263.88,-1517 263.88,-1511 269.88,-1505 275.88,-1505 275.88,-1505 311.38,-1505 311.38,-1505 317.38,-1505 323.38,-1511 323.38,-1517 323.38,-1517 323.38,-1529 323.38,-1529 323.38,-1535 317.38,-1541 311.38,-1541"/>
<text text-anchor="middle" x="293.62" y="-1517.95" font-family="Times,serif" font-size="14.00">ciaType</text>
</g>
<!-- definitions&#45;&gt;definitions.ciaType -->
<g id="edge12" class="edge">
<title>definitions&#45;&gt;definitions.ciaType</title>
<path fill="none" stroke="black" d="M159.88,-1390.33C161.24,-1391.51 162.54,-1392.73 163.75,-1394 186.58,-1417.86 177.57,-1434.54 199.75,-1459 215.18,-1476.01 235.96,-1490.87 253.96,-1501.98"/>
<polygon fill="black" stroke="black" points="251.94,-1504.85 262.32,-1506.97 255.53,-1498.84 251.94,-1504.85"/>
</g>
<!-- definitions.collateralDamagePotentialType -->
<g id="node19" class="node">
<title>definitions.collateralDamagePotentialType</title>
<path fill="none" stroke="black" d="M375.5,-1455C375.5,-1455 211.75,-1455 211.75,-1455 205.75,-1455 199.75,-1449 199.75,-1443 199.75,-1443 199.75,-1431 199.75,-1431 199.75,-1425 205.75,-1419 211.75,-1419 211.75,-1419 375.5,-1419 375.5,-1419 381.5,-1419 387.5,-1425 387.5,-1431 387.5,-1431 387.5,-1443 387.5,-1443 387.5,-1449 381.5,-1455 375.5,-1455"/>
<text text-anchor="middle" x="293.62" y="-1431.95" font-family="Times,serif" font-size="14.00">collateralDamagePotentialType</text>
</g>
<!-- definitions&#45;&gt;definitions.collateralDamagePotentialType -->
<g id="edge13" class="edge">
<title>definitions&#45;&gt;definitions.collateralDamagePotentialType</title>
<path fill="none" stroke="black" d="M164.03,-1386.26C184.89,-1394.5 211.61,-1405.04 235.27,-1414.37"/>
<polygon fill="black" stroke="black" points="233.91,-1417.6 244.49,-1418.01 236.48,-1411.08 233.91,-1417.6"/>
</g>
<!-- definitions.exploitabilityType -->
<g id="node22" class="node">
<title>definitions.exploitabilityType</title>
<path fill="none" stroke="black" d="M339.5,-1390C339.5,-1390 247.75,-1390 247.75,-1390 241.75,-1390 235.75,-1384 235.75,-1378 235.75,-1378 235.75,-1366 235.75,-1366 235.75,-1360 241.75,-1354 247.75,-1354 247.75,-1354 339.5,-1354 339.5,-1354 345.5,-1354 351.5,-1360 351.5,-1366 351.5,-1366 351.5,-1378 351.5,-1378 351.5,-1384 345.5,-1390 339.5,-1390"/>
<text text-anchor="middle" x="293.62" y="-1366.95" font-family="Times,serif" font-size="14.00">exploitabilityType</text>
</g>
<!-- definitions&#45;&gt;definitions.exploitabilityType -->
<g id="edge14" class="edge">
<title>definitions&#45;&gt;definitions.exploitabilityType</title>
<path fill="none" stroke="black" d="M164.03,-1372C181.69,-1372 203.55,-1372 224.2,-1372"/>
<polygon fill="black" stroke="black" points="224,-1375.5 234,-1372 224,-1368.5 224,-1375.5"/>
</g>
<!-- definitions.remediationLevelType -->
<g id="node25" class="node">
<title>definitions.remediationLevelType</title>
<path fill="none" stroke="black" d="M351.5,-1326C351.5,-1326 235.75,-1326 235.75,-1326 229.75,-1326 223.75,-1320 223.75,-1314 223.75,-1314 223.75,-1302 223.75,-1302 223.75,-1296 229.75,-1290 235.75,-1290 235.75,-1290 351.5,-1290 351.5,-1290 357.5,-1290 363.5,-1296 363.5,-1302 363.5,-1302 363.5,-1314 363.5,-1314 363.5,-1320 357.5,-1326 351.5,-1326"/>
<text text-anchor="middle" x="293.62" y="-1302.95" font-family="Times,serif" font-size="14.00">remediationLevelType</text>
</g>
<!-- definitions&#45;&gt;definitions.remediationLevelType -->
<g id="edge15" class="edge">
<title>definitions&#45;&gt;definitions.remediationLevelType</title>
<path fill="none" stroke="black" d="M164.03,-1357.95C184.73,-1349.91 211.19,-1339.64 234.71,-1330.5"/>
<polygon fill="black" stroke="black" points="235.82,-1333.82 243.88,-1326.94 233.29,-1327.3 235.82,-1333.82"/>
</g>
<!-- definitions.reportConfidenceType -->
<g id="node28" class="node">
<title>definitions.reportConfidenceType</title>
<path fill="none" stroke="black" d="M350.75,-1240C350.75,-1240 236.5,-1240 236.5,-1240 230.5,-1240 224.5,-1234 224.5,-1228 224.5,-1228 224.5,-1216 224.5,-1216 224.5,-1210 230.5,-1204 236.5,-1204 236.5,-1204 350.75,-1204 350.75,-1204 356.75,-1204 362.75,-1210 362.75,-1216 362.75,-1216 362.75,-1228 362.75,-1228 362.75,-1234 356.75,-1240 350.75,-1240"/>
<text text-anchor="middle" x="293.62" y="-1216.95" font-family="Times,serif" font-size="14.00">reportConfidenceType</text>
</g>
<!-- definitions&#45;&gt;definitions.reportConfidenceType -->
<g id="edge16" class="edge">
<title>definitions&#45;&gt;definitions.reportConfidenceType</title>
<path fill="none" stroke="black" d="M141.24,-1353.56C154.82,-1335.49 177.05,-1307.71 199.75,-1287 216.06,-1272.11 235.92,-1257.79 253.08,-1246.39"/>
<polygon fill="black" stroke="black" points="254.57,-1249.6 261.03,-1241.2 250.74,-1243.74 254.57,-1249.6"/>
</g>
<!-- definitions.scoreType -->
<g id="node31" class="node">
<title>definitions.scoreType</title>
<path fill="none" stroke="black" d="M317.75,-1132C317.75,-1132 269.5,-1132 269.5,-1132 263.5,-1132 257.5,-1126 257.5,-1120 257.5,-1120 257.5,-1108 257.5,-1108 257.5,-1102 263.5,-1096 269.5,-1096 269.5,-1096 317.75,-1096 317.75,-1096 323.75,-1096 329.75,-1102 329.75,-1108 329.75,-1108 329.75,-1120 329.75,-1120 329.75,-1126 323.75,-1132 317.75,-1132"/>
<text text-anchor="middle" x="293.62" y="-1108.95" font-family="Times,serif" font-size="14.00">scoreType</text>
</g>
<!-- definitions&#45;&gt;definitions.scoreType -->
<g id="edge17" class="edge">
<title>definitions&#45;&gt;definitions.scoreType</title>
<path fill="none" stroke="black" d="M132.85,-1353.52C142.26,-1320.72 164.89,-1251.09 199.75,-1201 216.09,-1177.52 239.66,-1155.53 258.97,-1139.54"/>
<polygon fill="black" stroke="black" points="261.03,-1142.37 266.6,-1133.36 256.63,-1136.93 261.03,-1142.37"/>
</g>
<!-- definitions.targetDistributionType -->
<g id="node35" class="node">
<title>definitions.targetDistributionType</title>
<path fill="none" stroke="black" d="M351.5,-1025C351.5,-1025 235.75,-1025 235.75,-1025 229.75,-1025 223.75,-1019 223.75,-1013 223.75,-1013 223.75,-1001 223.75,-1001 223.75,-995 229.75,-989 235.75,-989 235.75,-989 351.5,-989 351.5,-989 357.5,-989 363.5,-995 363.5,-1001 363.5,-1001 363.5,-1013 363.5,-1013 363.5,-1019 357.5,-1025 351.5,-1025"/>
<text text-anchor="middle" x="293.62" y="-1001.95" font-family="Times,serif" font-size="14.00">targetDistributionType</text>
</g>
<!-- definitions&#45;&gt;definitions.targetDistributionType -->
<g id="edge18" class="edge">
<title>definitions&#45;&gt;definitions.targetDistributionType</title>
<path fill="none" stroke="black" d="M129.04,-1353.68C132.73,-1306.99 147.21,-1181.06 199.75,-1093 214.04,-1069.05 236.98,-1047.71 256.49,-1032.28"/>
<polygon fill="black" stroke="black" points="258.45,-1035.19 264.25,-1026.33 254.19,-1029.64 258.45,-1035.19"/>
</g>
<!-- definitions.accessComplexityType.enum[] -->
<g id="node5" class="node">
<title>definitions.accessComplexityType.enum[]</title>
<path fill="none" stroke="black" d="M477.38,-1928C477.38,-1928 445.62,-1928 445.62,-1928 439.62,-1928 433.62,-1922 433.62,-1916 433.62,-1916 433.62,-1904 433.62,-1904 433.62,-1898 439.62,-1892 445.62,-1892 445.62,-1892 477.38,-1892 477.38,-1892 483.38,-1892 489.38,-1898 489.38,-1904 489.38,-1904 489.38,-1916 489.38,-1916 489.38,-1922 483.38,-1928 477.38,-1928"/>
<text text-anchor="middle" x="461.5" y="-1904.95" font-family="Times,serif" font-size="14.00">enum[]</text>
</g>
<!-- definitions.accessComplexityType&#45;&gt;definitions.accessComplexityType.enum[] -->
<g id="edge19" class="edge">
<title>definitions.accessComplexityType&#45;&gt;definitions.accessComplexityType.enum[]</title>
<path fill="none" stroke="black" d="M365.45,-1885.36C384.91,-1890.41 405.28,-1895.69 422.15,-1900.06"/>
<polygon fill="black" stroke="black" points="421.19,-1903.43 431.75,-1902.55 422.95,-1896.65 421.19,-1903.43"/>
</g>
<!-- definitions.accessComplexityType.type -->
<g id="node6" class="node">
<title>definitions.accessComplexityType.type</title>
<path fill="none" stroke="black" d="M476.5,-1885C476.5,-1885 446.5,-1885 446.5,-1885 440.5,-1885 434.5,-1879 434.5,-1873 434.5,-1873 434.5,-1861 434.5,-1861 434.5,-1855 440.5,-1849 446.5,-1849 446.5,-1849 476.5,-1849 476.5,-1849 482.5,-1849 488.5,-1855 488.5,-1861 488.5,-1861 488.5,-1873 488.5,-1873 488.5,-1879 482.5,-1885 476.5,-1885"/>
<text text-anchor="middle" x="461.5" y="-1861.95" font-family="Times,serif" font-size="14.00">type</text>
</g>
<!-- definitions.accessComplexityType&#45;&gt;definitions.accessComplexityType.type -->
<g id="edge20" class="edge">
<title>definitions.accessComplexityType&#45;&gt;definitions.accessComplexityType.type</title>
<path fill="none" stroke="black" d="M365.45,-1867C385.2,-1867 405.88,-1867 422.89,-1867"/>
<polygon fill="black" stroke="black" points="422.51,-1870.5 432.51,-1867 422.51,-1863.5 422.51,-1870.5"/>
</g>
<!-- definitions.accessVectorType.enum[] -->
<g id="node8" class="node">
<title>definitions.accessVectorType.enum[]</title>
<path fill="none" stroke="black" d="M477.38,-1842C477.38,-1842 445.62,-1842 445.62,-1842 439.62,-1842 433.62,-1836 433.62,-1830 433.62,-1830 433.62,-1818 433.62,-1818 433.62,-1812 439.62,-1806 445.62,-1806 445.62,-1806 477.38,-1806 477.38,-1806 483.38,-1806 489.38,-1812 489.38,-1818 489.38,-1818 489.38,-1830 489.38,-1830 489.38,-1836 483.38,-1842 477.38,-1842"/>
<text text-anchor="middle" x="461.5" y="-1818.95" font-family="Times,serif" font-size="14.00">enum[]</text>
</g>
<!-- definitions.accessVectorType&#45;&gt;definitions.accessVectorType.enum[] -->
<g id="edge21" class="edge">
<title>definitions.accessVectorType&#45;&gt;definitions.accessVectorType.enum[]</title>
<path fill="none" stroke="black" d="M350.78,-1795.56C374.26,-1801.64 400.94,-1808.56 422.11,-1814.05"/>
<polygon fill="black" stroke="black" points="421.23,-1817.43 431.78,-1816.56 422.98,-1810.66 421.23,-1817.43"/>
</g>
<!-- definitions.accessVectorType.type -->
<g id="node9" class="node">
<title>definitions.accessVectorType.type</title>
<path fill="none" stroke="black" d="M476.5,-1799C476.5,-1799 446.5,-1799 446.5,-1799 440.5,-1799 434.5,-1793 434.5,-1787 434.5,-1787 434.5,-1775 434.5,-1775 434.5,-1769 440.5,-1763 446.5,-1763 446.5,-1763 476.5,-1763 476.5,-1763 482.5,-1763 488.5,-1769 488.5,-1775 488.5,-1775 488.5,-1787 488.5,-1787 488.5,-1793 482.5,-1799 476.5,-1799"/>
<text text-anchor="middle" x="461.5" y="-1775.95" font-family="Times,serif" font-size="14.00">type</text>
</g>
<!-- definitions.accessVectorType&#45;&gt;definitions.accessVectorType.type -->
<g id="edge22" class="edge">
<title>definitions.accessVectorType&#45;&gt;definitions.accessVectorType.type</title>
<path fill="none" stroke="black" d="M350.78,-1781C374.46,-1781 401.41,-1781 422.67,-1781"/>
<polygon fill="black" stroke="black" points="422.63,-1784.5 432.63,-1781 422.63,-1777.5 422.63,-1784.5"/>
</g>
<!-- definitions.authenticationType.enum[] -->
<g id="node11" class="node">
<title>definitions.authenticationType.enum[]</title>
<path fill="none" stroke="black" d="M477.38,-1756C477.38,-1756 445.62,-1756 445.62,-1756 439.62,-1756 433.62,-1750 433.62,-1744 433.62,-1744 433.62,-1732 433.62,-1732 433.62,-1726 439.62,-1720 445.62,-1720 445.62,-1720 477.38,-1720 477.38,-1720 483.38,-1720 489.38,-1726 489.38,-1732 489.38,-1732 489.38,-1744 489.38,-1744 489.38,-1750 483.38,-1756 477.38,-1756"/>
<text text-anchor="middle" x="461.5" y="-1732.95" font-family="Times,serif" font-size="14.00">enum[]</text>
</g>
<!-- definitions.authenticationType&#45;&gt;definitions.authenticationType.enum[] -->
<g id="edge23" class="edge">
<title>definitions.authenticationType&#45;&gt;definitions.authenticationType.enum[]</title>
<path fill="none" stroke="black" d="M354.04,-1710.4C376.84,-1716.31 402.22,-1722.89 422.48,-1728.14"/>
<polygon fill="black" stroke="black" points="421.44,-1731.49 431.99,-1730.61 423.19,-1724.71 421.44,-1731.49"/>
</g>
<!-- definitions.authenticationType.type -->
<g id="node12" class="node">
<title>definitions.authenticationType.type</title>
<path fill="none" stroke="black" d="M476.5,-1713C476.5,-1713 446.5,-1713 446.5,-1713 440.5,-1713 434.5,-1707 434.5,-1701 434.5,-1701 434.5,-1689 434.5,-1689 434.5,-1683 440.5,-1677 446.5,-1677 446.5,-1677 476.5,-1677 476.5,-1677 482.5,-1677 488.5,-1683 488.5,-1689 488.5,-1689 488.5,-1701 488.5,-1701 488.5,-1707 482.5,-1713 476.5,-1713"/>
<text text-anchor="middle" x="461.5" y="-1689.95" font-family="Times,serif" font-size="14.00">type</text>
</g>
<!-- definitions.authenticationType&#45;&gt;definitions.authenticationType.type -->
<g id="edge24" class="edge">
<title>definitions.authenticationType&#45;&gt;definitions.authenticationType.type</title>
<path fill="none" stroke="black" d="M354.04,-1695C377.04,-1695 402.68,-1695 423.03,-1695"/>
<polygon fill="black" stroke="black" points="422.82,-1698.5 432.82,-1695 422.82,-1691.5 422.82,-1698.5"/>
</g>
<!-- definitions.ciaRequirementType.enum[] -->
<g id="node14" class="node">
<title>definitions.ciaRequirementType.enum[]</title>
<path fill="none" stroke="black" d="M477.38,-1670C477.38,-1670 445.62,-1670 445.62,-1670 439.62,-1670 433.62,-1664 433.62,-1658 433.62,-1658 433.62,-1646 433.62,-1646 433.62,-1640 439.62,-1634 445.62,-1634 445.62,-1634 477.38,-1634 477.38,-1634 483.38,-1634 489.38,-1640 489.38,-1646 489.38,-1646 489.38,-1658 489.38,-1658 489.38,-1664 483.38,-1670 477.38,-1670"/>
<text text-anchor="middle" x="461.5" y="-1646.95" font-family="Times,serif" font-size="14.00">enum[]</text>
</g>
<!-- definitions.ciaRequirementType&#45;&gt;definitions.ciaRequirementType.enum[] -->
<g id="edge25" class="edge">
<title>definitions.ciaRequirementType&#45;&gt;definitions.ciaRequirementType.enum[]</title>
<path fill="none" stroke="black" d="M358.76,-1625.62C380.2,-1631.18 403.41,-1637.2 422.24,-1642.08"/>
<polygon fill="black" stroke="black" points="421.32,-1645.46 431.88,-1644.58 423.08,-1638.68 421.32,-1645.46"/>
</g>
<!-- definitions.ciaRequirementType.type -->
<g id="node15" class="node">
<title>definitions.ciaRequirementType.type</title>
<path fill="none" stroke="black" d="M476.5,-1627C476.5,-1627 446.5,-1627 446.5,-1627 440.5,-1627 434.5,-1621 434.5,-1615 434.5,-1615 434.5,-1603 434.5,-1603 434.5,-1597 440.5,-1591 446.5,-1591 446.5,-1591 476.5,-1591 476.5,-1591 482.5,-1591 488.5,-1597 488.5,-1603 488.5,-1603 488.5,-1615 488.5,-1615 488.5,-1621 482.5,-1627 476.5,-1627"/>
<text text-anchor="middle" x="461.5" y="-1603.95" font-family="Times,serif" font-size="14.00">type</text>
</g>
<!-- definitions.ciaRequirementType&#45;&gt;definitions.ciaRequirementType.type -->
<g id="edge26" class="edge">
<title>definitions.ciaRequirementType&#45;&gt;definitions.ciaRequirementType.type</title>
<path fill="none" stroke="black" d="M358.76,-1609C380.4,-1609 403.84,-1609 422.76,-1609"/>
<polygon fill="black" stroke="black" points="422.68,-1612.5 432.68,-1609 422.68,-1605.5 422.68,-1612.5"/>
</g>
<!-- definitions.ciaType.enum[] -->
<g id="node17" class="node">
<title>definitions.ciaType.enum[]</title>
<path fill="none" stroke="black" d="M477.38,-1584C477.38,-1584 445.62,-1584 445.62,-1584 439.62,-1584 433.62,-1578 433.62,-1572 433.62,-1572 433.62,-1560 433.62,-1560 433.62,-1554 439.62,-1548 445.62,-1548 445.62,-1548 477.38,-1548 477.38,-1548 483.38,-1548 489.38,-1554 489.38,-1560 489.38,-1560 489.38,-1572 489.38,-1572 489.38,-1578 483.38,-1584 477.38,-1584"/>
<text text-anchor="middle" x="461.5" y="-1560.95" font-family="Times,serif" font-size="14.00">enum[]</text>
</g>
<!-- definitions.ciaType&#45;&gt;definitions.ciaType.enum[] -->
<g id="edge27" class="edge">
<title>definitions.ciaType&#45;&gt;definitions.ciaType.enum[]</title>
<path fill="none" stroke="black" d="M323.52,-1530.49C350.93,-1537.6 392.28,-1548.32 422.38,-1556.12"/>
<polygon fill="black" stroke="black" points="421.29,-1559.45 431.85,-1558.57 423.05,-1552.67 421.29,-1559.45"/>
</g>
<!-- definitions.ciaType.type -->
<g id="node18" class="node">
<title>definitions.ciaType.type</title>
<path fill="none" stroke="black" d="M476.5,-1541C476.5,-1541 446.5,-1541 446.5,-1541 440.5,-1541 434.5,-1535 434.5,-1529 434.5,-1529 434.5,-1517 434.5,-1517 434.5,-1511 440.5,-1505 446.5,-1505 446.5,-1505 476.5,-1505 476.5,-1505 482.5,-1505 488.5,-1511 488.5,-1517 488.5,-1517 488.5,-1529 488.5,-1529 488.5,-1535 482.5,-1541 476.5,-1541"/>
<text text-anchor="middle" x="461.5" y="-1517.95" font-family="Times,serif" font-size="14.00">type</text>
</g>
<!-- definitions.ciaType&#45;&gt;definitions.ciaType.type -->
<g id="edge28" class="edge">
<title>definitions.ciaType&#45;&gt;definitions.ciaType.type</title>
<path fill="none" stroke="black" d="M323.52,-1523C351.05,-1523 392.66,-1523 422.79,-1523"/>
<polygon fill="black" stroke="black" points="422.61,-1526.5 432.61,-1523 422.61,-1519.5 422.61,-1526.5"/>
</g>
<!-- definitions.collateralDamagePotentialType.enum[] -->
<g id="node20" class="node">
<title>definitions.collateralDamagePotentialType.enum[]</title>
<path fill="none" stroke="black" d="M477.38,-1498C477.38,-1498 445.62,-1498 445.62,-1498 439.62,-1498 433.62,-1492 433.62,-1486 433.62,-1486 433.62,-1474 433.62,-1474 433.62,-1468 439.62,-1462 445.62,-1462 445.62,-1462 477.38,-1462 477.38,-1462 483.38,-1462 489.38,-1468 489.38,-1474 489.38,-1474 489.38,-1486 489.38,-1486 489.38,-1492 483.38,-1498 477.38,-1498"/>
<text text-anchor="middle" x="461.5" y="-1474.95" font-family="Times,serif" font-size="14.00">enum[]</text>
</g>
<!-- definitions.collateralDamagePotentialType&#45;&gt;definitions.collateralDamagePotentialType.enum[] -->
<g id="edge29" class="edge">
<title>definitions.collateralDamagePotentialType&#45;&gt;definitions.collateralDamagePotentialType.enum[]</title>
<path fill="none" stroke="black" d="M365.93,-1455.49C385.34,-1460.52 405.61,-1465.77 422.39,-1470.12"/>
<polygon fill="black" stroke="black" points="421.36,-1473.47 431.92,-1472.59 423.12,-1466.69 421.36,-1473.47"/>
</g>
<!-- definitions.collateralDamagePotentialType.type -->
<g id="node21" class="node">
<title>definitions.collateralDamagePotentialType.type</title>
<path fill="none" stroke="black" d="M476.5,-1455C476.5,-1455 446.5,-1455 446.5,-1455 440.5,-1455 434.5,-1449 434.5,-1443 434.5,-1443 434.5,-1431 434.5,-1431 434.5,-1425 440.5,-1419 446.5,-1419 446.5,-1419 476.5,-1419 476.5,-1419 482.5,-1419 488.5,-1425 488.5,-1431 488.5,-1431 488.5,-1443 488.5,-1443 488.5,-1449 482.5,-1455 476.5,-1455"/>
<text text-anchor="middle" x="461.5" y="-1431.95" font-family="Times,serif" font-size="14.00">type</text>
</g>
<!-- definitions.collateralDamagePotentialType&#45;&gt;definitions.collateralDamagePotentialType.type -->
<g id="edge30" class="edge">
<title>definitions.collateralDamagePotentialType&#45;&gt;definitions.collateralDamagePotentialType.type</title>
<path fill="none" stroke="black" d="M387.74,-1437C400.09,-1437 412.12,-1437 422.74,-1437"/>
<polygon fill="black" stroke="black" points="422.54,-1440.5 432.54,-1437 422.54,-1433.5 422.54,-1440.5"/>
</g>
<!-- definitions.exploitabilityType.enum[] -->
<g id="node23" class="node">
<title>definitions.exploitabilityType.enum[]</title>
<path fill="none" stroke="black" d="M477.38,-1412C477.38,-1412 445.62,-1412 445.62,-1412 439.62,-1412 433.62,-1406 433.62,-1400 433.62,-1400 433.62,-1388 433.62,-1388 433.62,-1382 439.62,-1376 445.62,-1376 445.62,-1376 477.38,-1376 477.38,-1376 483.38,-1376 489.38,-1382 489.38,-1388 489.38,-1388 489.38,-1400 489.38,-1400 489.38,-1406 483.38,-1412 477.38,-1412"/>
<text text-anchor="middle" x="461.5" y="-1388.95" font-family="Times,serif" font-size="14.00">enum[]</text>
</g>
<!-- definitions.exploitabilityType&#45;&gt;definitions.exploitabilityType.enum[] -->
<g id="edge31" class="edge">
<title>definitions.exploitabilityType&#45;&gt;definitions.exploitabilityType.enum[]</title>
<path fill="none" stroke="black" d="M351.71,-1379.57C375.01,-1382.66 401.33,-1386.15 422.24,-1388.93"/>
<polygon fill="black" stroke="black" points="421.69,-1392.38 432.06,-1390.23 422.61,-1385.44 421.69,-1392.38"/>
</g>
<!-- definitions.exploitabilityType.type -->
<g id="node24" class="node">
<title>definitions.exploitabilityType.type</title>
<path fill="none" stroke="black" d="M476.5,-1369C476.5,-1369 446.5,-1369 446.5,-1369 440.5,-1369 434.5,-1363 434.5,-1357 434.5,-1357 434.5,-1345 434.5,-1345 434.5,-1339 440.5,-1333 446.5,-1333 446.5,-1333 476.5,-1333 476.5,-1333 482.5,-1333 488.5,-1339 488.5,-1345 488.5,-1345 488.5,-1357 488.5,-1357 488.5,-1363 482.5,-1369 476.5,-1369"/>
<text text-anchor="middle" x="461.5" y="-1345.95" font-family="Times,serif" font-size="14.00">type</text>
</g>
<!-- definitions.exploitabilityType&#45;&gt;definitions.exploitabilityType.type -->
<g id="edge32" class="edge">
<title>definitions.exploitabilityType&#45;&gt;definitions.exploitabilityType.type</title>
<path fill="none" stroke="black" d="M351.71,-1364.77C375.16,-1361.8 401.68,-1358.45 422.67,-1355.79"/>
<polygon fill="black" stroke="black" points="423.02,-1359.27 432.51,-1354.54 422.15,-1352.33 423.02,-1359.27"/>
</g>
<!-- definitions.remediationLevelType.enum[] -->
<g id="node26" class="node">
<title>definitions.remediationLevelType.enum[]</title>
<path fill="none" stroke="black" d="M477.38,-1326C477.38,-1326 445.62,-1326 445.62,-1326 439.62,-1326 433.62,-1320 433.62,-1314 433.62,-1314 433.62,-1302 433.62,-1302 433.62,-1296 439.62,-1290 445.62,-1290 445.62,-1290 477.38,-1290 477.38,-1290 483.38,-1290 489.38,-1296 489.38,-1302 489.38,-1302 489.38,-1314 489.38,-1314 489.38,-1320 483.38,-1326 477.38,-1326"/>
<text text-anchor="middle" x="461.5" y="-1302.95" font-family="Times,serif" font-size="14.00">enum[]</text>
</g>
<!-- definitions.remediationLevelType&#45;&gt;definitions.remediationLevelType.enum[] -->
<g id="edge33" class="edge">
<title>definitions.remediationLevelType&#45;&gt;definitions.remediationLevelType.enum[]</title>
<path fill="none" stroke="black" d="M363.53,-1308C383.49,-1308 404.57,-1308 421.96,-1308"/>
<polygon fill="black" stroke="black" points="421.83,-1311.5 431.83,-1308 421.83,-1304.5 421.83,-1311.5"/>
</g>
<!-- definitions.remediationLevelType.type -->
<g id="node27" class="node">
<title>definitions.remediationLevelType.type</title>
<path fill="none" stroke="black" d="M476.5,-1283C476.5,-1283 446.5,-1283 446.5,-1283 440.5,-1283 434.5,-1277 434.5,-1271 434.5,-1271 434.5,-1259 434.5,-1259 434.5,-1253 440.5,-1247 446.5,-1247 446.5,-1247 476.5,-1247 476.5,-1247 482.5,-1247 488.5,-1253 488.5,-1259 488.5,-1259 488.5,-1271 488.5,-1271 488.5,-1277 482.5,-1283 476.5,-1283"/>
<text text-anchor="middle" x="461.5" y="-1259.95" font-family="Times,serif" font-size="14.00">type</text>
</g>
<!-- definitions.remediationLevelType&#45;&gt;definitions.remediationLevelType.type -->
<g id="edge34" class="edge">
<title>definitions.remediationLevelType&#45;&gt;definitions.remediationLevelType.type</title>
<path fill="none" stroke="black" d="M363.53,-1290.14C383.97,-1284.84 405.59,-1279.23 423.21,-1274.67"/>
<polygon fill="black" stroke="black" points="423.9,-1278.1 432.7,-1272.21 422.14,-1271.33 423.9,-1278.1"/>
</g>
<!-- definitions.reportConfidenceType.enum[] -->
<g id="node29" class="node">
<title>definitions.reportConfidenceType.enum[]</title>
<path fill="none" stroke="black" d="M477.38,-1240C477.38,-1240 445.62,-1240 445.62,-1240 439.62,-1240 433.62,-1234 433.62,-1228 433.62,-1228 433.62,-1216 433.62,-1216 433.62,-1210 439.62,-1204 445.62,-1204 445.62,-1204 477.38,-1204 477.38,-1204 483.38,-1204 489.38,-1210 489.38,-1216 489.38,-1216 489.38,-1228 489.38,-1228 489.38,-1234 483.38,-1240 477.38,-1240"/>
<text text-anchor="middle" x="461.5" y="-1216.95" font-family="Times,serif" font-size="14.00">enum[]</text>
</g>
<!-- definitions.reportConfidenceType&#45;&gt;definitions.reportConfidenceType.enum[] -->
<g id="edge35" class="edge">
<title>definitions.reportConfidenceType&#45;&gt;definitions.reportConfidenceType.enum[]</title>
<path fill="none" stroke="black" d="M363.05,-1222C383.06,-1222 404.24,-1222 421.72,-1222"/>
<polygon fill="black" stroke="black" points="421.66,-1225.5 431.66,-1222 421.66,-1218.5 421.66,-1225.5"/>
</g>
<!-- definitions.reportConfidenceType.type -->
<g id="node30" class="node">
<title>definitions.reportConfidenceType.type</title>
<path fill="none" stroke="black" d="M476.5,-1197C476.5,-1197 446.5,-1197 446.5,-1197 440.5,-1197 434.5,-1191 434.5,-1185 434.5,-1185 434.5,-1173 434.5,-1173 434.5,-1167 440.5,-1161 446.5,-1161 446.5,-1161 476.5,-1161 476.5,-1161 482.5,-1161 488.5,-1167 488.5,-1173 488.5,-1173 488.5,-1185 488.5,-1185 488.5,-1191 482.5,-1197 476.5,-1197"/>
<text text-anchor="middle" x="461.5" y="-1173.95" font-family="Times,serif" font-size="14.00">type</text>
</g>
<!-- definitions.reportConfidenceType&#45;&gt;definitions.reportConfidenceType.type -->
<g id="edge36" class="edge">
<title>definitions.reportConfidenceType&#45;&gt;definitions.reportConfidenceType.type</title>
<path fill="none" stroke="black" d="M363.05,-1204.26C383.69,-1198.91 405.58,-1193.24 423.36,-1188.63"/>
<polygon fill="black" stroke="black" points="424.14,-1192.04 432.94,-1186.14 422.38,-1185.27 424.14,-1192.04"/>
</g>
<!-- definitions.scoreType.maximum -->
<g id="node32" class="node">
<title>definitions.scoreType.maximum</title>
<path fill="none" stroke="black" d="M486,-1154C486,-1154 437,-1154 437,-1154 431,-1154 425,-1148 425,-1142 425,-1142 425,-1130 425,-1130 425,-1124 431,-1118 437,-1118 437,-1118 486,-1118 486,-1118 492,-1118 498,-1124 498,-1130 498,-1130 498,-1142 498,-1142 498,-1148 492,-1154 486,-1154"/>
<text text-anchor="middle" x="461.5" y="-1130.95" font-family="Times,serif" font-size="14.00">maximum</text>
</g>
<!-- definitions.scoreType&#45;&gt;definitions.scoreType.maximum -->
<g id="edge37" class="edge">
<title>definitions.scoreType&#45;&gt;definitions.scoreType.maximum</title>
<path fill="none" stroke="black" d="M330.21,-1118.72C354.51,-1121.94 386.96,-1126.25 413.39,-1129.75"/>
<polygon fill="black" stroke="black" points="412.81,-1133.21 423.19,-1131.05 413.74,-1126.27 412.81,-1133.21"/>
</g>
<!-- definitions.scoreType.minimum -->
<g id="node33" class="node">
<title>definitions.scoreType.minimum</title>
<path fill="none" stroke="black" d="M484.88,-1111C484.88,-1111 438.12,-1111 438.12,-1111 432.12,-1111 426.12,-1105 426.12,-1099 426.12,-1099 426.12,-1087 426.12,-1087 426.12,-1081 432.12,-1075 438.12,-1075 438.12,-1075 484.88,-1075 484.88,-1075 490.88,-1075 496.88,-1081 496.88,-1087 496.88,-1087 496.88,-1099 496.88,-1099 496.88,-1105 490.88,-1111 484.88,-1111"/>
<text text-anchor="middle" x="461.5" y="-1087.95" font-family="Times,serif" font-size="14.00">minimum</text>
</g>
<!-- definitions.scoreType&#45;&gt;definitions.scoreType.minimum -->
<g id="edge38" class="edge">
<title>definitions.scoreType&#45;&gt;definitions.scoreType.minimum</title>
<path fill="none" stroke="black" d="M330.21,-1109.49C354.84,-1106.38 387.84,-1102.2 414.47,-1098.83"/>
<polygon fill="black" stroke="black" points="414.84,-1102.31 424.33,-1097.58 413.97,-1095.36 414.84,-1102.31"/>
</g>
<!-- definitions.scoreType.type -->
<g id="node34" class="node">
<title>definitions.scoreType.type</title>
<path fill="none" stroke="black" d="M476.5,-1068C476.5,-1068 446.5,-1068 446.5,-1068 440.5,-1068 434.5,-1062 434.5,-1056 434.5,-1056 434.5,-1044 434.5,-1044 434.5,-1038 440.5,-1032 446.5,-1032 446.5,-1032 476.5,-1032 476.5,-1032 482.5,-1032 488.5,-1038 488.5,-1044 488.5,-1044 488.5,-1056 488.5,-1056 488.5,-1062 482.5,-1068 476.5,-1068"/>
<text text-anchor="middle" x="461.5" y="-1044.95" font-family="Times,serif" font-size="14.00">type</text>
</g>
<!-- definitions.scoreType&#45;&gt;definitions.scoreType.type -->
<g id="edge39" class="edge">
<title>definitions.scoreType&#45;&gt;definitions.scoreType.type</title>
<path fill="none" stroke="black" d="M330.21,-1100.27C357.77,-1089.64 395.83,-1074.95 423.7,-1064.2"/>
<polygon fill="black" stroke="black" points="424.73,-1067.55 432.8,-1060.69 422.21,-1061.02 424.73,-1067.55"/>
</g>
<!-- definitions.targetDistributionType.enum[] -->
<g id="node36" class="node">
<title>definitions.targetDistributionType.enum[]</title>
<path fill="none" stroke="black" d="M477.38,-1025C477.38,-1025 445.62,-1025 445.62,-1025 439.62,-1025 433.62,-1019 433.62,-1013 433.62,-1013 433.62,-1001 433.62,-1001 433.62,-995 439.62,-989 445.62,-989 445.62,-989 477.38,-989 477.38,-989 483.38,-989 489.38,-995 489.38,-1001 489.38,-1001 489.38,-1013 489.38,-1013 489.38,-1019 483.38,-1025 477.38,-1025"/>
<text text-anchor="middle" x="461.5" y="-1001.95" font-family="Times,serif" font-size="14.00">enum[]</text>
</g>
<!-- definitions.targetDistributionType&#45;&gt;definitions.targetDistributionType.enum[] -->
<g id="edge40" class="edge">
<title>definitions.targetDistributionType&#45;&gt;definitions.targetDistributionType.enum[]</title>
<path fill="none" stroke="black" d="M363.53,-1007C383.49,-1007 404.57,-1007 421.96,-1007"/>
<polygon fill="black" stroke="black" points="421.83,-1010.5 431.83,-1007 421.83,-1003.5 421.83,-1010.5"/>
</g>
<!-- definitions.targetDistributionType.type -->
<g id="node37" class="node">
<title>definitions.targetDistributionType.type</title>
<path fill="none" stroke="black" d="M476.5,-982C476.5,-982 446.5,-982 446.5,-982 440.5,-982 434.5,-976 434.5,-970 434.5,-970 434.5,-958 434.5,-958 434.5,-952 440.5,-946 446.5,-946 446.5,-946 476.5,-946 476.5,-946 482.5,-946 488.5,-952 488.5,-958 488.5,-958 488.5,-970 488.5,-970 488.5,-976 482.5,-982 476.5,-982"/>
<text text-anchor="middle" x="461.5" y="-958.95" font-family="Times,serif" font-size="14.00">type</text>
</g>
<!-- definitions.targetDistributionType&#45;&gt;definitions.targetDistributionType.type -->
<g id="edge41" class="edge">
<title>definitions.targetDistributionType&#45;&gt;definitions.targetDistributionType.type</title>
<path fill="none" stroke="black" d="M363.53,-989.14C383.97,-983.84 405.59,-978.23 423.21,-973.67"/>
<polygon fill="black" stroke="black" points="423.9,-977.1 432.7,-971.21 422.14,-970.33 423.9,-977.1"/>
</g>
<!-- properties.accessComplexity -->
<g id="node40" class="node">
<title>properties.accessComplexity</title>
<path fill="none" stroke="black" d="M339.12,-939C339.12,-939 248.12,-939 248.12,-939 242.12,-939 236.12,-933 236.12,-927 236.12,-927 236.12,-915 236.12,-915 236.12,-909 242.12,-903 248.12,-903 248.12,-903 339.12,-903 339.12,-903 345.12,-903 351.12,-909 351.12,-915 351.12,-915 351.12,-927 351.12,-927 351.12,-933 345.12,-939 339.12,-939"/>
<text text-anchor="middle" x="293.62" y="-915.95" font-family="Times,serif" font-size="14.00">accessComplexity</text>
</g>
<!-- properties&#45;&gt;properties.accessComplexity -->
<g id="edge42" class="edge">
<title>properties&#45;&gt;properties.accessComplexity</title>
<path fill="none" stroke="black" d="M161.12,-595.48C162.08,-596.6 162.96,-597.77 163.75,-599 236.22,-712.05 110.31,-798.82 199.75,-899 206.49,-906.54 215.29,-911.74 224.79,-915.28"/>
<polygon fill="black" stroke="black" points="223.71,-918.61 234.29,-918.17 225.74,-911.91 223.71,-918.61"/>
</g>
<!-- properties.accessVector -->
<g id="node42" class="node">
<title>properties.accessVector</title>
<path fill="none" stroke="black" d="M324.5,-896C324.5,-896 262.75,-896 262.75,-896 256.75,-896 250.75,-890 250.75,-884 250.75,-884 250.75,-872 250.75,-872 250.75,-866 256.75,-860 262.75,-860 262.75,-860 324.5,-860 324.5,-860 330.5,-860 336.5,-866 336.5,-872 336.5,-872 336.5,-884 336.5,-884 336.5,-890 330.5,-896 324.5,-896"/>
<text text-anchor="middle" x="293.62" y="-872.95" font-family="Times,serif" font-size="14.00">accessVector</text>
</g>
<!-- properties&#45;&gt;properties.accessVector -->
<g id="edge43" class="edge">
<title>properties&#45;&gt;properties.accessVector</title>
<path fill="none" stroke="black" d="M160.79,-595.17C161.87,-596.38 162.87,-597.66 163.75,-599 226.95,-695.48 122.09,-770.73 199.75,-856 209.89,-867.13 224.52,-873.13 239.19,-876.24"/>
<polygon fill="black" stroke="black" points="238.41,-879.66 248.85,-877.85 239.56,-872.75 238.41,-879.66"/>
</g>
<!-- properties.authentication -->
<g id="node44" class="node">
<title>properties.authentication</title>
<path fill="none" stroke="black" d="M327.88,-853C327.88,-853 259.38,-853 259.38,-853 253.38,-853 247.38,-847 247.38,-841 247.38,-841 247.38,-829 247.38,-829 247.38,-823 253.38,-817 259.38,-817 259.38,-817 327.88,-817 327.88,-817 333.88,-817 339.88,-823 339.88,-829 339.88,-829 339.88,-841 339.88,-841 339.88,-847 333.88,-853 327.88,-853"/>
<text text-anchor="middle" x="293.62" y="-829.95" font-family="Times,serif" font-size="14.00">authentication</text>
</g>
<!-- properties&#45;&gt;properties.authentication -->
<g id="edge44" class="edge">
<title>properties&#45;&gt;properties.authentication</title>
<path fill="none" stroke="black" d="M160.75,-595.2C161.84,-596.4 162.85,-597.67 163.75,-599 217.7,-678.94 133.84,-742.59 199.75,-813 209.31,-823.21 222.67,-829.08 236.28,-832.36"/>
<polygon fill="black" stroke="black" points="235.21,-835.72 245.69,-834.18 236.54,-828.85 235.21,-835.72"/>
</g>
<!-- properties.availabilityImpact -->
<g id="node46" class="node">
<title>properties.availabilityImpact</title>
<path fill="none" stroke="black" d="M339.12,-810C339.12,-810 248.12,-810 248.12,-810 242.12,-810 236.12,-804 236.12,-798 236.12,-798 236.12,-786 236.12,-786 236.12,-780 242.12,-774 248.12,-774 248.12,-774 339.12,-774 339.12,-774 345.12,-774 351.12,-780 351.12,-786 351.12,-786 351.12,-798 351.12,-798 351.12,-804 345.12,-810 339.12,-810"/>
<text text-anchor="middle" x="293.62" y="-786.95" font-family="Times,serif" font-size="14.00">availabilityImpact</text>
</g>
<!-- properties&#45;&gt;properties.availabilityImpact -->
<g id="edge45" class="edge">
<title>properties&#45;&gt;properties.availabilityImpact</title>
<path fill="none" stroke="black" d="M160.68,-595.25C161.79,-596.44 162.82,-597.69 163.75,-599 208.5,-662.48 145.53,-714.4 199.75,-770 206.73,-777.15 215.57,-782.16 225.01,-785.63"/>
<polygon fill="black" stroke="black" points="223.83,-788.93 234.42,-788.49 225.87,-782.23 223.83,-788.93"/>
</g>
<!-- properties.availabilityRequirement -->
<g id="node48" class="node">
<title>properties.availabilityRequirement</title>
<path fill="none" stroke="black" d="M355.25,-767C355.25,-767 232,-767 232,-767 226,-767 220,-761 220,-755 220,-755 220,-743 220,-743 220,-737 226,-731 232,-731 232,-731 355.25,-731 355.25,-731 361.25,-731 367.25,-737 367.25,-743 367.25,-743 367.25,-755 367.25,-755 367.25,-761 361.25,-767 355.25,-767"/>
<text text-anchor="middle" x="293.62" y="-743.95" font-family="Times,serif" font-size="14.00">availabilityRequirement</text>
</g>
<!-- properties&#45;&gt;properties.availabilityRequirement -->
<g id="edge46" class="edge">
<title>properties&#45;&gt;properties.availabilityRequirement</title>
<path fill="none" stroke="black" d="M160.57,-595.33C161.71,-596.49 162.78,-597.72 163.75,-599 199.39,-646.14 157.1,-686.09 199.75,-727 202.8,-729.93 206.16,-732.49 209.75,-734.73"/>
<polygon fill="black" stroke="black" points="207.87,-737.69 218.35,-739.23 211.11,-731.49 207.87,-737.69"/>
</g>
<!-- properties.baseScore -->
<g id="node50" class="node">
<title>properties.baseScore</title>
<path fill="none" stroke="black" d="M317,-724C317,-724 270.25,-724 270.25,-724 264.25,-724 258.25,-718 258.25,-712 258.25,-712 258.25,-700 258.25,-700 258.25,-694 264.25,-688 270.25,-688 270.25,-688 317,-688 317,-688 323,-688 329,-694 329,-700 329,-700 329,-712 329,-712 329,-718 323,-724 317,-724"/>
<text text-anchor="middle" x="293.62" y="-700.95" font-family="Times,serif" font-size="14.00">baseScore</text>
</g>
<!-- properties&#45;&gt;properties.baseScore -->
<g id="edge47" class="edge">
<title>properties&#45;&gt;properties.baseScore</title>
<path fill="none" stroke="black" d="M160.37,-595.49C161.57,-596.61 162.7,-597.78 163.75,-599 190.51,-630.1 168.41,-657.53 199.75,-684 212.81,-695.03 230.43,-700.75 246.82,-703.64"/>
<polygon fill="black" stroke="black" points="246,-707.05 256.39,-705 246.99,-700.12 246,-707.05"/>
</g>
<!-- properties.collateralDamagePotential -->
<g id="node52" class="node">
<title>properties.collateralDamagePotential</title>
<path fill="none" stroke="black" d="M361.62,-681C361.62,-681 225.62,-681 225.62,-681 219.62,-681 213.62,-675 213.62,-669 213.62,-669 213.62,-657 213.62,-657 213.62,-651 219.62,-645 225.62,-645 225.62,-645 361.62,-645 361.62,-645 367.62,-645 373.62,-651 373.62,-657 373.62,-657 373.62,-669 373.62,-669 373.62,-675 367.62,-681 361.62,-681"/>
<text text-anchor="middle" x="293.62" y="-657.95" font-family="Times,serif" font-size="14.00">collateralDamagePotential</text>
</g>
<!-- properties&#45;&gt;properties.collateralDamagePotential -->
<g id="edge48" class="edge">
<title>properties&#45;&gt;properties.collateralDamagePotential</title>
<path fill="none" stroke="black" d="M159.21,-595.38C160.78,-596.56 162.3,-597.77 163.75,-599 182.46,-614.95 178.76,-628.2 199.75,-641 200.81,-641.65 201.89,-642.27 202.98,-642.88"/>
<polygon fill="black" stroke="black" points="201.32,-645.97 211.84,-647.22 204.4,-639.68 201.32,-645.97"/>
</g>
<!-- properties.confidentialityImpact -->
<g id="node54" class="node">
<title>properties.confidentialityImpact</title>
<path fill="none" stroke="black" d="M348.12,-638C348.12,-638 239.12,-638 239.12,-638 233.12,-638 227.12,-632 227.12,-626 227.12,-626 227.12,-614 227.12,-614 227.12,-608 233.12,-602 239.12,-602 239.12,-602 348.12,-602 348.12,-602 354.12,-602 360.12,-608 360.12,-614 360.12,-614 360.12,-626 360.12,-626 360.12,-632 354.12,-638 348.12,-638"/>
<text text-anchor="middle" x="293.62" y="-614.95" font-family="Times,serif" font-size="14.00">confidentialityImpact</text>
</g>
<!-- properties&#45;&gt;properties.confidentialityImpact -->
<g id="edge49" class="edge">
<title>properties&#45;&gt;properties.confidentialityImpact</title>
<path fill="none" stroke="black" d="M162.14,-587.4C174.01,-590.9 187.43,-594.74 199.75,-598 204.93,-599.37 210.29,-600.75 215.7,-602.1"/>
<polygon fill="black" stroke="black" points="214.8,-605.49 225.34,-604.49 216.48,-598.69 214.8,-605.49"/>
</g>
<!-- properties.confidentialityRequirement -->
<g id="node56" class="node">
<title>properties.confidentialityRequirement</title>
<path fill="none" stroke="black" d="M364.25,-595C364.25,-595 223,-595 223,-595 217,-595 211,-589 211,-583 211,-583 211,-571 211,-571 211,-565 217,-559 223,-559 223,-559 364.25,-559 364.25,-559 370.25,-559 376.25,-565 376.25,-571 376.25,-571 376.25,-583 376.25,-583 376.25,-589 370.25,-595 364.25,-595"/>
<text text-anchor="middle" x="293.62" y="-571.95" font-family="Times,serif" font-size="14.00">confidentialityRequirement</text>
</g>
<!-- properties&#45;&gt;properties.confidentialityRequirement -->
<g id="edge50" class="edge">
<title>properties&#45;&gt;properties.confidentialityRequirement</title>
<path fill="none" stroke="black" d="M162.01,-577C173.13,-577 186.06,-577 199.37,-577"/>
<polygon fill="black" stroke="black" points="199.1,-580.5 209.1,-577 199.1,-573.5 199.1,-580.5"/>
</g>
<!-- properties.environmentalScore -->
<g id="node58" class="node">
<title>properties.environmentalScore</title>
<path fill="none" stroke="black" d="M344.38,-552C344.38,-552 242.88,-552 242.88,-552 236.88,-552 230.88,-546 230.88,-540 230.88,-540 230.88,-528 230.88,-528 230.88,-522 236.88,-516 242.88,-516 242.88,-516 344.38,-516 344.38,-516 350.38,-516 356.38,-522 356.38,-528 356.38,-528 356.38,-540 356.38,-540 356.38,-546 350.38,-552 344.38,-552"/>
<text text-anchor="middle" x="293.62" y="-528.95" font-family="Times,serif" font-size="14.00">environmentalScore</text>
</g>
<!-- properties&#45;&gt;properties.environmentalScore -->
<g id="edge51" class="edge">
<title>properties&#45;&gt;properties.environmentalScore</title>
<path fill="none" stroke="black" d="M162.14,-566.6C174.01,-563.1 187.43,-559.26 199.75,-556 206.11,-554.32 212.74,-552.63 219.39,-550.97"/>
<polygon fill="black" stroke="black" points="220.22,-554.37 229.1,-548.59 218.55,-547.58 220.22,-554.37"/>
</g>
<!-- properties.exploitability -->
<g id="node60" class="node">
<title>properties.exploitability</title>
<path fill="none" stroke="black" d="M325.62,-509C325.62,-509 261.62,-509 261.62,-509 255.62,-509 249.62,-503 249.62,-497 249.62,-497 249.62,-485 249.62,-485 249.62,-479 255.62,-473 261.62,-473 261.62,-473 325.62,-473 325.62,-473 331.62,-473 337.62,-479 337.62,-485 337.62,-485 337.62,-497 337.62,-497 337.62,-503 331.62,-509 325.62,-509"/>
<text text-anchor="middle" x="293.62" y="-485.95" font-family="Times,serif" font-size="14.00">exploitability</text>
</g>
<!-- properties&#45;&gt;properties.exploitability -->
<g id="edge52" class="edge">
<title>properties&#45;&gt;properties.exploitability</title>
<path fill="none" stroke="black" d="M159.21,-558.62C160.78,-557.44 162.3,-556.23 163.75,-555 182.46,-539.05 178.76,-525.8 199.75,-513 211.36,-505.93 225.06,-501.13 238.33,-497.87"/>
<polygon fill="black" stroke="black" points="238.81,-501.35 247.83,-495.8 237.32,-494.51 238.81,-501.35"/>
</g>
<!-- properties.integrityImpact -->
<g id="node62" class="node">
<title>properties.integrityImpact</title>
<path fill="none" stroke="black" d="M331.62,-466C331.62,-466 255.62,-466 255.62,-466 249.62,-466 243.62,-460 243.62,-454 243.62,-454 243.62,-442 243.62,-442 243.62,-436 249.62,-430 255.62,-430 255.62,-430 331.62,-430 331.62,-430 337.62,-430 343.62,-436 343.62,-442 343.62,-442 343.62,-454 343.62,-454 343.62,-460 337.62,-466 331.62,-466"/>
<text text-anchor="middle" x="293.62" y="-442.95" font-family="Times,serif" font-size="14.00">integrityImpact</text>
</g>
<!-- properties&#45;&gt;properties.integrityImpact -->
<g id="edge53" class="edge">
<title>properties&#45;&gt;properties.integrityImpact</title>
<path fill="none" stroke="black" d="M160.37,-558.51C161.57,-557.39 162.7,-556.22 163.75,-555 190.51,-523.9 168.41,-496.47 199.75,-470 209.05,-462.14 220.67,-456.98 232.51,-453.62"/>
<polygon fill="black" stroke="black" points="233,-457.1 241.91,-451.36 231.37,-450.29 233,-457.1"/>
</g>
<!-- properties.integrityRequirement -->
<g id="node64" class="node">
<title>properties.integrityRequirement</title>
<path fill="none" stroke="black" d="M347.75,-423C347.75,-423 239.5,-423 239.5,-423 233.5,-423 227.5,-417 227.5,-411 227.5,-411 227.5,-399 227.5,-399 227.5,-393 233.5,-387 239.5,-387 239.5,-387 347.75,-387 347.75,-387 353.75,-387 359.75,-393 359.75,-399 359.75,-399 359.75,-411 359.75,-411 359.75,-417 353.75,-423 347.75,-423"/>
<text text-anchor="middle" x="293.62" y="-399.95" font-family="Times,serif" font-size="14.00">integrityRequirement</text>
</g>
<!-- properties&#45;&gt;properties.integrityRequirement -->
<g id="edge54" class="edge">
<title>properties&#45;&gt;properties.integrityRequirement</title>
<path fill="none" stroke="black" d="M160.57,-558.67C161.71,-557.51 162.78,-556.28 163.75,-555 199.39,-507.86 157.1,-467.91 199.75,-427 204.77,-422.18 210.65,-418.35 216.96,-415.32"/>
<polygon fill="black" stroke="black" points="217.82,-418.74 225.77,-411.74 215.19,-412.26 217.82,-418.74"/>
</g>
<!-- properties.remediationLevel -->
<g id="node66" class="node">
<title>properties.remediationLevel</title>
<path fill="none" stroke="black" d="M337.62,-380C337.62,-380 249.62,-380 249.62,-380 243.62,-380 237.62,-374 237.62,-368 237.62,-368 237.62,-356 237.62,-356 237.62,-350 243.62,-344 249.62,-344 249.62,-344 337.62,-344 337.62,-344 343.62,-344 349.62,-350 349.62,-356 349.62,-356 349.62,-368 349.62,-368 349.62,-374 343.62,-380 337.62,-380"/>
<text text-anchor="middle" x="293.62" y="-356.95" font-family="Times,serif" font-size="14.00">remediationLevel</text>
</g>
<!-- properties&#45;&gt;properties.remediationLevel -->
<g id="edge55" class="edge">
<title>properties&#45;&gt;properties.remediationLevel</title>
<path fill="none" stroke="black" d="M160.68,-558.75C161.79,-557.56 162.82,-556.31 163.75,-555 208.5,-491.52 145.53,-439.6 199.75,-384 207.06,-376.51 216.41,-371.37 226.36,-367.89"/>
<polygon fill="black" stroke="black" points="227.22,-371.28 235.86,-365.14 225.28,-364.56 227.22,-371.28"/>
</g>
<!-- properties.reportConfidence -->
<g id="node68" class="node">
<title>properties.reportConfidence</title>
<path fill="none" stroke="black" d="M336.88,-337C336.88,-337 250.38,-337 250.38,-337 244.38,-337 238.38,-331 238.38,-325 238.38,-325 238.38,-313 238.38,-313 238.38,-307 244.38,-301 250.38,-301 250.38,-301 336.88,-301 336.88,-301 342.88,-301 348.88,-307 348.88,-313 348.88,-313 348.88,-325 348.88,-325 348.88,-331 342.88,-337 336.88,-337"/>
<text text-anchor="middle" x="293.62" y="-313.95" font-family="Times,serif" font-size="14.00">reportConfidence</text>
</g>
<!-- properties&#45;&gt;properties.reportConfidence -->
<g id="edge56" class="edge">
<title>properties&#45;&gt;properties.reportConfidence</title>
<path fill="none" stroke="black" d="M160.75,-558.8C161.84,-557.6 162.85,-556.33 163.75,-555 217.7,-475.06 133.84,-411.41 199.75,-341 207.15,-333.1 216.81,-327.8 227.11,-324.28"/>
<polygon fill="black" stroke="black" points="227.86,-327.71 236.55,-321.64 225.97,-320.97 227.86,-327.71"/>
</g>
<!-- properties.targetDistribution -->
<g id="node70" class="node">
<title>properties.targetDistribution</title>
<path fill="none" stroke="black" d="M337.62,-294C337.62,-294 249.62,-294 249.62,-294 243.62,-294 237.62,-288 237.62,-282 237.62,-282 237.62,-270 237.62,-270 237.62,-264 243.62,-258 249.62,-258 249.62,-258 337.62,-258 337.62,-258 343.62,-258 349.62,-264 349.62,-270 349.62,-270 349.62,-282 349.62,-282 349.62,-288 343.62,-294 337.62,-294"/>
<text text-anchor="middle" x="293.62" y="-270.95" font-family="Times,serif" font-size="14.00">targetDistribution</text>
</g>
<!-- properties&#45;&gt;properties.targetDistribution -->
<g id="edge57" class="edge">
<title>properties&#45;&gt;properties.targetDistribution</title>
<path fill="none" stroke="black" d="M160.79,-558.83C161.87,-557.62 162.87,-556.34 163.75,-555 226.95,-458.52 122.09,-383.27 199.75,-298 206.95,-290.09 216.43,-284.77 226.58,-281.24"/>
<polygon fill="black" stroke="black" points="227.22,-284.69 235.87,-278.58 225.3,-277.96 227.22,-284.69"/>
</g>
<!-- properties.temporalScore -->
<g id="node72" class="node">
<title>properties.temporalScore</title>
<path fill="none" stroke="black" d="M329.38,-251C329.38,-251 257.88,-251 257.88,-251 251.88,-251 245.88,-245 245.88,-239 245.88,-239 245.88,-227 245.88,-227 245.88,-221 251.88,-215 257.88,-215 257.88,-215 329.38,-215 329.38,-215 335.38,-215 341.38,-221 341.38,-227 341.38,-227 341.38,-239 341.38,-239 341.38,-245 335.38,-251 329.38,-251"/>
<text text-anchor="middle" x="293.62" y="-227.95" font-family="Times,serif" font-size="14.00">temporalScore</text>
</g>
<!-- properties&#45;&gt;properties.temporalScore -->
<g id="edge58" class="edge">
<title>properties&#45;&gt;properties.temporalScore</title>
<path fill="none" stroke="black" d="M161.12,-558.52C162.08,-557.4 162.96,-556.23 163.75,-555 236.22,-441.95 110.31,-355.18 199.75,-255 208.72,-244.96 221.35,-239.07 234.41,-235.72"/>
<polygon fill="black" stroke="black" points="234.84,-239.2 243.94,-233.77 233.44,-232.35 234.84,-239.2"/>
</g>
<!-- properties.vectorString -->
<g id="node74" class="node">
<title>properties.vectorString</title>
<path fill="none" stroke="black" d="M323,-208C323,-208 264.25,-208 264.25,-208 258.25,-208 252.25,-202 252.25,-196 252.25,-196 252.25,-184 252.25,-184 252.25,-178 258.25,-172 264.25,-172 264.25,-172 323,-172 323,-172 329,-172 335,-178 335,-184 335,-184 335,-196 335,-196 335,-202 329,-208 323,-208"/>
<text text-anchor="middle" x="293.62" y="-184.95" font-family="Times,serif" font-size="14.00">vectorString</text>
</g>
<!-- properties&#45;&gt;properties.vectorString -->
<g id="edge59" class="edge">
<title>properties&#45;&gt;properties.vectorString</title>
<path fill="none" stroke="black" d="M161.14,-558.53C162.09,-557.41 162.97,-556.24 163.75,-555 204.63,-490.17 149.13,-269.55 199.75,-212 210.14,-200.19 225.6,-194.11 240.94,-191.14"/>
<polygon fill="black" stroke="black" points="241.14,-194.65 250.52,-189.71 240.11,-187.72 241.14,-194.65"/>
</g>
<!-- properties.version -->
<g id="node77" class="node">
<title>properties.version</title>
<path fill="none" stroke="black" d="M309.5,-101C309.5,-101 277.75,-101 277.75,-101 271.75,-101 265.75,-95 265.75,-89 265.75,-89 265.75,-77 265.75,-77 265.75,-71 271.75,-65 277.75,-65 277.75,-65 309.5,-65 309.5,-65 315.5,-65 321.5,-71 321.5,-77 321.5,-77 321.5,-89 321.5,-89 321.5,-95 315.5,-101 309.5,-101"/>
<text text-anchor="middle" x="293.62" y="-77.95" font-family="Times,serif" font-size="14.00">version</text>
</g>
<!-- properties&#45;&gt;properties.version -->
<g id="edge60" class="edge">
<title>properties&#45;&gt;properties.version</title>
<path fill="none" stroke="black" d="M161.16,-558.54C162.11,-557.42 162.98,-556.24 163.75,-555 254.81,-408.73 123.5,-323.51 199.75,-169 212.34,-143.48 235.96,-121.77 256.22,-106.55"/>
<polygon fill="black" stroke="black" points="258.26,-109.4 264.32,-100.71 254.16,-103.73 258.26,-109.4"/>
</g>
<!-- properties.accessComplexity.$ref -->
<g id="node41" class="node">
<title>properties.accessComplexity.$ref</title>
<path fill="none" stroke="black" d="M476.5,-939C476.5,-939 446.5,-939 446.5,-939 440.5,-939 434.5,-933 434.5,-927 434.5,-927 434.5,-915 434.5,-915 434.5,-909 440.5,-903 446.5,-903 446.5,-903 476.5,-903 476.5,-903 482.5,-903 488.5,-909 488.5,-915 488.5,-915 488.5,-927 488.5,-927 488.5,-933 482.5,-939 476.5,-939"/>
<text text-anchor="middle" x="461.5" y="-915.95" font-family="Times,serif" font-size="14.00">$ref</text>
</g>
<!-- properties.accessComplexity&#45;&gt;properties.accessComplexity.$ref -->
<g id="edge61" class="edge">
<title>properties.accessComplexity&#45;&gt;properties.accessComplexity.$ref</title>
<path fill="none" stroke="black" d="M351.25,-921C374.89,-921 401.72,-921 422.88,-921"/>
<polygon fill="black" stroke="black" points="422.79,-924.5 432.79,-921 422.79,-917.5 422.79,-924.5"/>
</g>
<!-- properties.accessVector.$ref -->
<g id="node43" class="node">
<title>properties.accessVector.$ref</title>
<path fill="none" stroke="black" d="M476.5,-896C476.5,-896 446.5,-896 446.5,-896 440.5,-896 434.5,-890 434.5,-884 434.5,-884 434.5,-872 434.5,-872 434.5,-866 440.5,-860 446.5,-860 446.5,-860 476.5,-860 476.5,-860 482.5,-860 488.5,-866 488.5,-872 488.5,-872 488.5,-884 488.5,-884 488.5,-890 482.5,-896 476.5,-896"/>
<text text-anchor="middle" x="461.5" y="-872.95" font-family="Times,serif" font-size="14.00">$ref</text>
</g>
<!-- properties.accessVector&#45;&gt;properties.accessVector.$ref -->
<g id="edge62" class="edge">
<title>properties.accessVector&#45;&gt;properties.accessVector.$ref</title>
<path fill="none" stroke="black" d="M336.91,-878C363.43,-878 397.31,-878 422.89,-878"/>
<polygon fill="black" stroke="black" points="422.84,-881.5 432.84,-878 422.84,-874.5 422.84,-881.5"/>
</g>
<!-- properties.authentication.$ref -->
<g id="node45" class="node">
<title>properties.authentication.$ref</title>
<path fill="none" stroke="black" d="M476.5,-853C476.5,-853 446.5,-853 446.5,-853 440.5,-853 434.5,-847 434.5,-841 434.5,-841 434.5,-829 434.5,-829 434.5,-823 440.5,-817 446.5,-817 446.5,-817 476.5,-817 476.5,-817 482.5,-817 488.5,-823 488.5,-829 488.5,-829 488.5,-841 488.5,-841 488.5,-847 482.5,-853 476.5,-853"/>
<text text-anchor="middle" x="461.5" y="-829.95" font-family="Times,serif" font-size="14.00">$ref</text>
</g>
<!-- properties.authentication&#45;&gt;properties.authentication.$ref -->
<g id="edge63" class="edge">
<title>properties.authentication&#45;&gt;properties.authentication.$ref</title>
<path fill="none" stroke="black" d="M339.95,-835C366,-835 398.33,-835 422.95,-835"/>
<polygon fill="black" stroke="black" points="422.84,-838.5 432.84,-835 422.84,-831.5 422.84,-838.5"/>
</g>
<!-- properties.availabilityImpact.$ref -->
<g id="node47" class="node">
<title>properties.availabilityImpact.$ref</title>
<path fill="none" stroke="black" d="M476.5,-810C476.5,-810 446.5,-810 446.5,-810 440.5,-810 434.5,-804 434.5,-798 434.5,-798 434.5,-786 434.5,-786 434.5,-780 440.5,-774 446.5,-774 446.5,-774 476.5,-774 476.5,-774 482.5,-774 488.5,-780 488.5,-786 488.5,-786 488.5,-798 488.5,-798 488.5,-804 482.5,-810 476.5,-810"/>
<text text-anchor="middle" x="461.5" y="-786.95" font-family="Times,serif" font-size="14.00">$ref</text>
</g>
<!-- properties.availabilityImpact&#45;&gt;properties.availabilityImpact.$ref -->
<g id="edge64" class="edge">
<title>properties.availabilityImpact&#45;&gt;properties.availabilityImpact.$ref</title>
<path fill="none" stroke="black" d="M351.25,-792C374.89,-792 401.72,-792 422.88,-792"/>
<polygon fill="black" stroke="black" points="422.79,-795.5 432.79,-792 422.79,-788.5 422.79,-795.5"/>
</g>
<!-- properties.availabilityRequirement.$ref -->
<g id="node49" class="node">
<title>properties.availabilityRequirement.$ref</title>
<path fill="none" stroke="black" d="M476.5,-767C476.5,-767 446.5,-767 446.5,-767 440.5,-767 434.5,-761 434.5,-755 434.5,-755 434.5,-743 434.5,-743 434.5,-737 440.5,-731 446.5,-731 446.5,-731 476.5,-731 476.5,-731 482.5,-731 488.5,-737 488.5,-743 488.5,-743 488.5,-755 488.5,-755 488.5,-761 482.5,-767 476.5,-767"/>
<text text-anchor="middle" x="461.5" y="-743.95" font-family="Times,serif" font-size="14.00">$ref</text>
</g>
<!-- properties.availabilityRequirement&#45;&gt;properties.availabilityRequirement.$ref -->
<g id="edge65" class="edge">
<title>properties.availabilityRequirement&#45;&gt;properties.availabilityRequirement.$ref</title>
<path fill="none" stroke="black" d="M367.38,-749C386.57,-749 406.5,-749 422.98,-749"/>
<polygon fill="black" stroke="black" points="422.79,-752.5 432.79,-749 422.79,-745.5 422.79,-752.5"/>
</g>
<!-- properties.baseScore.$ref -->
<g id="node51" class="node">
<title>properties.baseScore.$ref</title>
<path fill="none" stroke="black" d="M476.5,-724C476.5,-724 446.5,-724 446.5,-724 440.5,-724 434.5,-718 434.5,-712 434.5,-712 434.5,-700 434.5,-700 434.5,-694 440.5,-688 446.5,-688 446.5,-688 476.5,-688 476.5,-688 482.5,-688 488.5,-694 488.5,-700 488.5,-700 488.5,-712 488.5,-712 488.5,-718 482.5,-724 476.5,-724"/>
<text text-anchor="middle" x="461.5" y="-700.95" font-family="Times,serif" font-size="14.00">$ref</text>
</g>
<!-- properties.baseScore&#45;&gt;properties.baseScore.$ref -->
<g id="edge66" class="edge">
<title>properties.baseScore&#45;&gt;properties.baseScore.$ref</title>
<path fill="none" stroke="black" d="M329.4,-706C356.75,-706 394.79,-706 422.85,-706"/>
<polygon fill="black" stroke="black" points="422.69,-709.5 432.69,-706 422.69,-702.5 422.69,-709.5"/>
</g>
<!-- properties.collateralDamagePotential.$ref -->
<g id="node53" class="node">
<title>properties.collateralDamagePotential.$ref</title>
<path fill="none" stroke="black" d="M476.5,-681C476.5,-681 446.5,-681 446.5,-681 440.5,-681 434.5,-675 434.5,-669 434.5,-669 434.5,-657 434.5,-657 434.5,-651 440.5,-645 446.5,-645 446.5,-645 476.5,-645 476.5,-645 482.5,-645 488.5,-651 488.5,-657 488.5,-657 488.5,-669 488.5,-669 488.5,-675 482.5,-681 476.5,-681"/>
<text text-anchor="middle" x="461.5" y="-657.95" font-family="Times,serif" font-size="14.00">$ref</text>
</g>
<!-- properties.collateralDamagePotential&#45;&gt;properties.collateralDamagePotential.$ref -->
<g id="edge67" class="edge">
<title>properties.collateralDamagePotential&#45;&gt;properties.collateralDamagePotential.$ref</title>
<path fill="none" stroke="black" d="M373.68,-663C390.93,-663 408.4,-663 423.11,-663"/>
<polygon fill="black" stroke="black" points="422.74,-666.5 432.74,-663 422.74,-659.5 422.74,-666.5"/>
</g>
<!-- properties.confidentialityImpact.$ref -->
<g id="node55" class="node">
<title>properties.confidentialityImpact.$ref</title>
<path fill="none" stroke="black" d="M476.5,-638C476.5,-638 446.5,-638 446.5,-638 440.5,-638 434.5,-632 434.5,-626 434.5,-626 434.5,-614 434.5,-614 434.5,-608 440.5,-602 446.5,-602 446.5,-602 476.5,-602 476.5,-602 482.5,-602 488.5,-608 488.5,-614 488.5,-614 488.5,-626 488.5,-626 488.5,-632 482.5,-638 476.5,-638"/>
<text text-anchor="middle" x="461.5" y="-614.95" font-family="Times,serif" font-size="14.00">$ref</text>
</g>
<!-- properties.confidentialityImpact&#45;&gt;properties.confidentialityImpact.$ref -->
<g id="edge68" class="edge">
<title>properties.confidentialityImpact&#45;&gt;properties.confidentialityImpact.$ref</title>
<path fill="none" stroke="black" d="M360.18,-620C381.43,-620 404.27,-620 422.78,-620"/>
<polygon fill="black" stroke="black" points="422.74,-623.5 432.74,-620 422.74,-616.5 422.74,-623.5"/>
</g>
<!-- properties.confidentialityRequirement.$ref -->
<g id="node57" class="node">
<title>properties.confidentialityRequirement.$ref</title>
<path fill="none" stroke="black" d="M476.5,-595C476.5,-595 446.5,-595 446.5,-595 440.5,-595 434.5,-589 434.5,-583 434.5,-583 434.5,-571 434.5,-571 434.5,-565 440.5,-559 446.5,-559 446.5,-559 476.5,-559 476.5,-559 482.5,-559 488.5,-565 488.5,-571 488.5,-571 488.5,-583 488.5,-583 488.5,-589 482.5,-595 476.5,-595"/>
<text text-anchor="middle" x="461.5" y="-571.95" font-family="Times,serif" font-size="14.00">$ref</text>
</g>
<!-- properties.confidentialityRequirement&#45;&gt;properties.confidentialityRequirement.$ref -->
<g id="edge69" class="edge">
<title>properties.confidentialityRequirement&#45;&gt;properties.confidentialityRequirement.$ref</title>
<path fill="none" stroke="black" d="M376.59,-577C392.75,-577 408.96,-577 422.77,-577"/>
<polygon fill="black" stroke="black" points="422.7,-580.5 432.7,-577 422.7,-573.5 422.7,-580.5"/>
</g>
<!-- properties.environmentalScore.$ref -->
<g id="node59" class="node">
<title>properties.environmentalScore.$ref</title>
<path fill="none" stroke="black" d="M476.5,-552C476.5,-552 446.5,-552 446.5,-552 440.5,-552 434.5,-546 434.5,-540 434.5,-540 434.5,-528 434.5,-528 434.5,-522 440.5,-516 446.5,-516 446.5,-516 476.5,-516 476.5,-516 482.5,-516 488.5,-522 488.5,-528 488.5,-528 488.5,-540 488.5,-540 488.5,-546 482.5,-552 476.5,-552"/>
<text text-anchor="middle" x="461.5" y="-528.95" font-family="Times,serif" font-size="14.00">$ref</text>
</g>
<!-- properties.environmentalScore&#45;&gt;properties.environmentalScore.$ref -->
<g id="edge70" class="edge">
<title>properties.environmentalScore&#45;&gt;properties.environmentalScore.$ref</title>
<path fill="none" stroke="black" d="M356.86,-534C379.09,-534 403.44,-534 422.95,-534"/>
<polygon fill="black" stroke="black" points="422.89,-537.5 432.89,-534 422.89,-530.5 422.89,-537.5"/>
</g>
<!-- properties.exploitability.$ref -->
<g id="node61" class="node">
<title>properties.exploitability.$ref</title>
<path fill="none" stroke="black" d="M476.5,-509C476.5,-509 446.5,-509 446.5,-509 440.5,-509 434.5,-503 434.5,-497 434.5,-497 434.5,-485 434.5,-485 434.5,-479 440.5,-473 446.5,-473 446.5,-473 476.5,-473 476.5,-473 482.5,-473 488.5,-479 488.5,-485 488.5,-485 488.5,-497 488.5,-497 488.5,-503 482.5,-509 476.5,-509"/>
<text text-anchor="middle" x="461.5" y="-485.95" font-family="Times,serif" font-size="14.00">$ref</text>
</g>
<!-- properties.exploitability&#45;&gt;properties.exploitability.$ref -->
<g id="edge71" class="edge">
<title>properties.exploitability&#45;&gt;properties.exploitability.$ref</title>
<path fill="none" stroke="black" d="M337.77,-491C364.13,-491 397.5,-491 422.79,-491"/>
<polygon fill="black" stroke="black" points="422.63,-494.5 432.63,-491 422.63,-487.5 422.63,-494.5"/>
</g>
<!-- properties.integrityImpact.$ref -->
<g id="node63" class="node">
<title>properties.integrityImpact.$ref</title>
<path fill="none" stroke="black" d="M476.5,-466C476.5,-466 446.5,-466 446.5,-466 440.5,-466 434.5,-460 434.5,-454 434.5,-454 434.5,-442 434.5,-442 434.5,-436 440.5,-430 446.5,-430 446.5,-430 476.5,-430 476.5,-430 482.5,-430 488.5,-436 488.5,-442 488.5,-442 488.5,-454 488.5,-454 488.5,-460 482.5,-466 476.5,-466"/>
<text text-anchor="middle" x="461.5" y="-442.95" font-family="Times,serif" font-size="14.00">$ref</text>
</g>
<!-- properties.integrityImpact&#45;&gt;properties.integrityImpact.$ref -->
<g id="edge72" class="edge">
<title>properties.integrityImpact&#45;&gt;properties.integrityImpact.$ref</title>
<path fill="none" stroke="black" d="M343.94,-448C369.27,-448 399.63,-448 423.01,-448"/>
<polygon fill="black" stroke="black" points="422.7,-451.5 432.7,-448 422.7,-444.5 422.7,-451.5"/>
</g>
<!-- properties.integrityRequirement.$ref -->
<g id="node65" class="node">
<title>properties.integrityRequirement.$ref</title>
<path fill="none" stroke="black" d="M476.5,-423C476.5,-423 446.5,-423 446.5,-423 440.5,-423 434.5,-417 434.5,-411 434.5,-411 434.5,-399 434.5,-399 434.5,-393 440.5,-387 446.5,-387 446.5,-387 476.5,-387 476.5,-387 482.5,-387 488.5,-393 488.5,-399 488.5,-399 488.5,-411 488.5,-411 488.5,-417 482.5,-423 476.5,-423"/>
<text text-anchor="middle" x="461.5" y="-399.95" font-family="Times,serif" font-size="14.00">$ref</text>
</g>
<!-- properties.integrityRequirement&#45;&gt;properties.integrityRequirement.$ref -->
<g id="edge73" class="edge">
<title>properties.integrityRequirement&#45;&gt;properties.integrityRequirement.$ref</title>
<path fill="none" stroke="black" d="M360.18,-405C381.43,-405 404.27,-405 422.78,-405"/>
<polygon fill="black" stroke="black" points="422.74,-408.5 432.74,-405 422.74,-401.5 422.74,-408.5"/>
</g>
<!-- properties.remediationLevel.$ref -->
<g id="node67" class="node">
<title>properties.remediationLevel.$ref</title>
<path fill="none" stroke="black" d="M476.5,-380C476.5,-380 446.5,-380 446.5,-380 440.5,-380 434.5,-374 434.5,-368 434.5,-368 434.5,-356 434.5,-356 434.5,-350 440.5,-344 446.5,-344 446.5,-344 476.5,-344 476.5,-344 482.5,-344 488.5,-350 488.5,-356 488.5,-356 488.5,-368 488.5,-368 488.5,-374 482.5,-380 476.5,-380"/>
<text text-anchor="middle" x="461.5" y="-356.95" font-family="Times,serif" font-size="14.00">$ref</text>
</g>
<!-- properties.remediationLevel&#45;&gt;properties.remediationLevel.$ref -->
<g id="edge74" class="edge">
<title>properties.remediationLevel&#45;&gt;properties.remediationLevel.$ref</title>
<path fill="none" stroke="black" d="M349.86,-362C373.87,-362 401.39,-362 422.97,-362"/>
<polygon fill="black" stroke="black" points="422.78,-365.5 432.78,-362 422.78,-358.5 422.78,-365.5"/>
</g>
<!-- properties.reportConfidence.$ref -->
<g id="node69" class="node">
<title>properties.reportConfidence.$ref</title>
<path fill="none" stroke="black" d="M476.5,-337C476.5,-337 446.5,-337 446.5,-337 440.5,-337 434.5,-331 434.5,-325 434.5,-325 434.5,-313 434.5,-313 434.5,-307 440.5,-301 446.5,-301 446.5,-301 476.5,-301 476.5,-301 482.5,-301 488.5,-307 488.5,-313 488.5,-313 488.5,-325 488.5,-325 488.5,-331 482.5,-337 476.5,-337"/>
<text text-anchor="middle" x="461.5" y="-313.95" font-family="Times,serif" font-size="14.00">$ref</text>
</g>
<!-- properties.reportConfidence&#45;&gt;properties.reportConfidence.$ref -->
<g id="edge75" class="edge">
<title>properties.reportConfidence&#45;&gt;properties.reportConfidence.$ref</title>
<path fill="none" stroke="black" d="M348.94,-319C373.17,-319 401.13,-319 422.99,-319"/>
<polygon fill="black" stroke="black" points="422.93,-322.5 432.93,-319 422.93,-315.5 422.93,-322.5"/>
</g>
<!-- properties.targetDistribution.$ref -->
<g id="node71" class="node">
<title>properties.targetDistribution.$ref</title>
<path fill="none" stroke="black" d="M476.5,-294C476.5,-294 446.5,-294 446.5,-294 440.5,-294 434.5,-288 434.5,-282 434.5,-282 434.5,-270 434.5,-270 434.5,-264 440.5,-258 446.5,-258 446.5,-258 476.5,-258 476.5,-258 482.5,-258 488.5,-264 488.5,-270 488.5,-270 488.5,-282 488.5,-282 488.5,-288 482.5,-294 476.5,-294"/>
<text text-anchor="middle" x="461.5" y="-270.95" font-family="Times,serif" font-size="14.00">$ref</text>
</g>
<!-- properties.targetDistribution&#45;&gt;properties.targetDistribution.$ref -->
<g id="edge76" class="edge">
<title>properties.targetDistribution&#45;&gt;properties.targetDistribution.$ref</title>
<path fill="none" stroke="black" d="M349.86,-276C373.87,-276 401.39,-276 422.97,-276"/>
<polygon fill="black" stroke="black" points="422.78,-279.5 432.78,-276 422.78,-272.5 422.78,-279.5"/>
</g>
<!-- properties.temporalScore.$ref -->
<g id="node73" class="node">
<title>properties.temporalScore.$ref</title>
<path fill="none" stroke="black" d="M476.5,-251C476.5,-251 446.5,-251 446.5,-251 440.5,-251 434.5,-245 434.5,-239 434.5,-239 434.5,-227 434.5,-227 434.5,-221 440.5,-215 446.5,-215 446.5,-215 476.5,-215 476.5,-215 482.5,-215 488.5,-221 488.5,-227 488.5,-227 488.5,-239 488.5,-239 488.5,-245 482.5,-251 476.5,-251"/>
<text text-anchor="middle" x="461.5" y="-227.95" font-family="Times,serif" font-size="14.00">$ref</text>
</g>
<!-- properties.temporalScore&#45;&gt;properties.temporalScore.$ref -->
<g id="edge77" class="edge">
<title>properties.temporalScore&#45;&gt;properties.temporalScore.$ref</title>
<path fill="none" stroke="black" d="M341.71,-233C367.44,-233 398.87,-233 422.94,-233"/>
<polygon fill="black" stroke="black" points="422.93,-236.5 432.93,-233 422.93,-229.5 422.93,-236.5"/>
</g>
<!-- properties.vectorString.pattern -->
<g id="node75" class="node">
<title>properties.vectorString.pattern</title>
<path fill="none" stroke="black" d="M476.5,-208C476.5,-208 446.5,-208 446.5,-208 440.5,-208 434.5,-202 434.5,-196 434.5,-196 434.5,-184 434.5,-184 434.5,-178 440.5,-172 446.5,-172 446.5,-172 476.5,-172 476.5,-172 482.5,-172 488.5,-178 488.5,-184 488.5,-184 488.5,-196 488.5,-196 488.5,-202 482.5,-208 476.5,-208"/>
<text text-anchor="middle" x="461.5" y="-184.95" font-family="Times,serif" font-size="14.00">pattern</text>
</g>
<!-- properties.vectorString&#45;&gt;properties.vectorString.pattern -->
<g id="edge78" class="edge">
<title>properties.vectorString&#45;&gt;properties.vectorString.pattern</title>
<path fill="none" stroke="black" d="M335.2,-190C361.98,-190 396.82,-190 422.96,-190"/>
<polygon fill="black" stroke="black" points="422.79,-193.5 432.79,-190 422.79,-186.5 422.79,-193.5"/>
</g>
<!-- properties.vectorString.type -->
<g id="node76" class="node">
<title>properties.vectorString.type</title>
<path fill="none" stroke="black" d="M476.5,-165C476.5,-165 446.5,-165 446.5,-165 440.5,-165 434.5,-159 434.5,-153 434.5,-153 434.5,-141 434.5,-141 434.5,-135 440.5,-129 446.5,-129 446.5,-129 476.5,-129 476.5,-129 482.5,-129 488.5,-135 488.5,-141 488.5,-141 488.5,-153 488.5,-153 488.5,-159 482.5,-165 476.5,-165"/>
<text text-anchor="middle" x="461.5" y="-141.95" font-family="Times,serif" font-size="14.00">type</text>
</g>
<!-- properties.vectorString&#45;&gt;properties.vectorString.type -->
<g id="edge79" class="edge">
<title>properties.vectorString&#45;&gt;properties.vectorString.type</title>
<path fill="none" stroke="black" d="M335.2,-179.48C362.11,-172.51 397.14,-163.43 423.32,-156.64"/>
<polygon fill="black" stroke="black" points="424.03,-160.07 432.84,-154.17 422.28,-153.29 424.03,-160.07"/>
</g>
<!-- properties.version.description -->
<g id="node78" class="node">
<title>properties.version.description</title>
<path fill="none" stroke="black" d="M487.5,-122C487.5,-122 435.5,-122 435.5,-122 429.5,-122 423.5,-116 423.5,-110 423.5,-110 423.5,-98 423.5,-98 423.5,-92 429.5,-86 435.5,-86 435.5,-86 487.5,-86 487.5,-86 493.5,-86 499.5,-92 499.5,-98 499.5,-98 499.5,-110 499.5,-110 499.5,-116 493.5,-122 487.5,-122"/>
<text text-anchor="middle" x="461.5" y="-98.95" font-family="Times,serif" font-size="14.00">description</text>
</g>
<!-- properties.version&#45;&gt;properties.version.description -->
<g id="edge80" class="edge">
<title>properties.version&#45;&gt;properties.version.description</title>
<path fill="none" stroke="black" d="M321.64,-86.42C346.04,-89.51 382.51,-94.13 411.96,-97.85"/>
<polygon fill="black" stroke="black" points="411.41,-101.31 421.77,-99.1 412.29,-94.37 411.41,-101.31"/>
</g>
<!-- properties.version.enum[] -->
<g id="node79" class="node">
<title>properties.version.enum[]</title>
<path fill="none" stroke="black" d="M477.38,-79C477.38,-79 445.62,-79 445.62,-79 439.62,-79 433.62,-73 433.62,-67 433.62,-67 433.62,-55 433.62,-55 433.62,-49 439.62,-43 445.62,-43 445.62,-43 477.38,-43 477.38,-43 483.38,-43 489.38,-49 489.38,-55 489.38,-55 489.38,-67 489.38,-67 489.38,-73 483.38,-79 477.38,-79"/>
<text text-anchor="middle" x="461.5" y="-55.95" font-family="Times,serif" font-size="14.00">enum[]</text>
</g>
<!-- properties.version&#45;&gt;properties.version.enum[] -->
<g id="edge81" class="edge">
<title>properties.version&#45;&gt;properties.version.enum[]</title>
<path fill="none" stroke="black" d="M321.64,-79.42C348.91,-75.8 391.28,-70.18 422.05,-66.1"/>
<polygon fill="black" stroke="black" points="422.26,-69.6 431.72,-64.82 421.34,-62.66 422.26,-69.6"/>
</g>
<!-- properties.version.type -->
<g id="node80" class="node">
<title>properties.version.type</title>
<path fill="none" stroke="black" d="M476.5,-36C476.5,-36 446.5,-36 446.5,-36 440.5,-36 434.5,-30 434.5,-24 434.5,-24 434.5,-12 434.5,-12 434.5,-6 440.5,0 446.5,0 446.5,0 476.5,0 476.5,0 482.5,0 488.5,-6 488.5,-12 488.5,-12 488.5,-24 488.5,-24 488.5,-30 482.5,-36 476.5,-36"/>
<text text-anchor="middle" x="461.5" y="-12.95" font-family="Times,serif" font-size="14.00">type</text>
</g>
<!-- properties.version&#45;&gt;properties.version.type -->
<g id="edge82" class="edge">
<title>properties.version&#45;&gt;properties.version.type</title>
<path fill="none" stroke="black" d="M321.64,-72.41C349.4,-61.54 392.8,-44.53 423.68,-32.43"/>
<polygon fill="black" stroke="black" points="424.6,-35.83 432.63,-28.92 422.04,-29.31 424.6,-35.83"/>
</g>
</g>
</svg>
