<?xml version="1.0" encoding="UTF-8" standalone="no"?>
<!DOCTYPE svg PUBLIC "-//W3C//DTD SVG 1.1//EN"
 "http://www.w3.org/Graphics/SVG/1.1/DTD/svg11.dtd">
<!-- Generated by graphviz version 12.0.0 (20240704.0754)
 -->
<!-- Title: G Pages: 1 -->
<svg width="1532pt" height="3558pt"
 viewBox="0.00 0.00 367.75 854.00" xmlns="http://www.w3.org/2000/svg" xmlns:xlink="http://www.w3.org/1999/xlink">
<g id="graph0" class="graph" transform="scale(4.16667 4.16667) rotate(0) translate(4 850)">
<title>G</title>
<polygon fill="white" stroke="none" points="-4,4 -4,-850 363.75,-850 363.75,4 -4,4"/>
<!-- 90ee417d&#45;9868&#45;4292&#45;bbf6&#45;b057339cf4ae -->
<g id="node1" class="node">
<title>90ee417d&#45;9868&#45;4292&#45;bbf6&#45;b057339cf4ae</title>
<polygon fill="none" stroke="black" points="54,-441 0,-441 0,-405 54,-405 54,-441"/>
<text text-anchor="middle" x="27" y="-417.95" font-family="Times,serif" font-size="14.00">.</text>
</g>
<!-- created -->
<g id="node2" class="node">
<title>created</title>
<polygon fill="none" stroke="black" points="190.38,-846 135.38,-846 135.38,-810 190.38,-810 190.38,-846"/>
<text text-anchor="middle" x="162.88" y="-822.95" font-family="Times,serif" font-size="14.00">created</text>
</g>
<!-- 90ee417d&#45;9868&#45;4292&#45;bbf6&#45;b057339cf4ae&#45;&gt;created -->
<g id="edge1" class="edge">
<title>90ee417d&#45;9868&#45;4292&#45;bbf6&#45;b057339cf4ae&#45;&gt;created</title>
<path fill="none" stroke="black" d="M28.64,-441.34C31.33,-509.17 43.92,-744.83 90,-801 98.57,-811.44 111.61,-817.85 124.25,-821.78"/>
<polygon fill="black" stroke="black" points="123.1,-825.09 133.66,-824.25 124.87,-818.32 123.1,-825.09"/>
</g>
<!-- created_by_ref -->
<g id="node3" class="node">
<title>created_by_ref</title>
<polygon fill="none" stroke="black" points="211.38,-792 114.38,-792 114.38,-756 211.38,-756 211.38,-792"/>
<text text-anchor="middle" x="162.88" y="-768.95" font-family="Times,serif" font-size="14.00">created_by_ref</text>
</g>
<!-- 90ee417d&#45;9868&#45;4292&#45;bbf6&#45;b057339cf4ae&#45;&gt;created_by_ref -->
<g id="edge2" class="edge">
<title>90ee417d&#45;9868&#45;4292&#45;bbf6&#45;b057339cf4ae&#45;&gt;created_by_ref</title>
<path fill="none" stroke="black" d="M29.18,-441.22C33.48,-502.48 50.23,-699.81 90,-747 93.97,-751.71 98.86,-755.61 104.19,-758.82"/>
<polygon fill="black" stroke="black" points="102.33,-761.8 112.83,-763.21 105.51,-755.56 102.33,-761.8"/>
</g>
<!-- description -->
<g id="node4" class="node">
<title>description</title>
<polygon fill="none" stroke="black" points="200.88,-738 124.88,-738 124.88,-702 200.88,-702 200.88,-738"/>
<text text-anchor="middle" x="162.88" y="-714.95" font-family="Times,serif" font-size="14.00">description</text>
</g>
<!-- 90ee417d&#45;9868&#45;4292&#45;bbf6&#45;b057339cf4ae&#45;&gt;description -->
<g id="edge3" class="edge">
<title>90ee417d&#45;9868&#45;4292&#45;bbf6&#45;b057339cf4ae&#45;&gt;description</title>
<path fill="none" stroke="black" d="M29.93,-441.17C36.04,-495.4 56.52,-654.72 90,-693 96.37,-700.28 104.91,-705.61 113.87,-709.5"/>
<polygon fill="black" stroke="black" points="112.47,-712.71 123.06,-712.91 114.91,-706.15 112.47,-712.71"/>
</g>
<!-- external_references[] -->
<g id="node5" class="node">
<title>external_references[]</title>
<polygon fill="none" stroke="black" points="228.25,-684 97.5,-684 97.5,-648 228.25,-648 228.25,-684"/>
<text text-anchor="middle" x="162.88" y="-660.95" font-family="Times,serif" font-size="14.00">external_references[]</text>
</g>
<!-- 90ee417d&#45;9868&#45;4292&#45;bbf6&#45;b057339cf4ae&#45;&gt;external_references[] -->
<g id="edge4" class="edge">
<title>90ee417d&#45;9868&#45;4292&#45;bbf6&#45;b057339cf4ae&#45;&gt;external_references[]</title>
<path fill="none" stroke="black" d="M28,-441.26C29,-482.08 37.07,-581.67 90,-639 90.47,-639.51 90.94,-640 91.43,-640.49"/>
<polygon fill="black" stroke="black" points="88.95,-642.98 98.9,-646.63 93.4,-637.57 88.95,-642.98"/>
</g>
<!-- id -->
<g id="node10" class="node">
<title>id</title>
<polygon fill="none" stroke="black" points="189.88,-630 135.88,-630 135.88,-594 189.88,-594 189.88,-630"/>
<text text-anchor="middle" x="162.88" y="-606.95" font-family="Times,serif" font-size="14.00">id</text>
</g>
<!-- 90ee417d&#45;9868&#45;4292&#45;bbf6&#45;b057339cf4ae&#45;&gt;id -->
<g id="edge5" class="edge">
<title>90ee417d&#45;9868&#45;4292&#45;bbf6&#45;b057339cf4ae&#45;&gt;id</title>
<path fill="none" stroke="black" d="M30.11,-441.45C34.85,-474.6 49.31,-544.56 90,-585 99.41,-594.35 112.37,-600.51 124.69,-604.55"/>
<polygon fill="black" stroke="black" points="123.68,-607.9 134.26,-607.28 125.6,-601.17 123.68,-607.9"/>
</g>
<!-- modified -->
<g id="node11" class="node">
<title>modified</title>
<polygon fill="none" stroke="black" points="195.62,-576 130.12,-576 130.12,-540 195.62,-540 195.62,-576"/>
<text text-anchor="middle" x="162.88" y="-552.95" font-family="Times,serif" font-size="14.00">modified</text>
</g>
<!-- 90ee417d&#45;9868&#45;4292&#45;bbf6&#45;b057339cf4ae&#45;&gt;modified -->
<g id="edge6" class="edge">
<title>90ee417d&#45;9868&#45;4292&#45;bbf6&#45;b057339cf4ae&#45;&gt;modified</title>
<path fill="none" stroke="black" d="M34.04,-441.24C42.78,-465.03 61.17,-506.5 90,-531 98.37,-538.11 108.79,-543.44 119.08,-547.4"/>
<polygon fill="black" stroke="black" points="117.64,-550.61 128.24,-550.56 119.92,-543.99 117.64,-550.61"/>
</g>
<!-- name -->
<g id="node12" class="node">
<title>name</title>
<polygon fill="none" stroke="black" points="189.88,-522 135.88,-522 135.88,-486 189.88,-486 189.88,-522"/>
<text text-anchor="middle" x="162.88" y="-498.95" font-family="Times,serif" font-size="14.00">name</text>
</g>
<!-- 90ee417d&#45;9868&#45;4292&#45;bbf6&#45;b057339cf4ae&#45;&gt;name -->
<g id="edge7" class="edge">
<title>90ee417d&#45;9868&#45;4292&#45;bbf6&#45;b057339cf4ae&#45;&gt;name</title>
<path fill="none" stroke="black" d="M45.63,-441.43C57.36,-452.86 73.57,-467.2 90,-477 100.76,-483.42 113.3,-488.76 124.87,-492.96"/>
<polygon fill="black" stroke="black" points="123.55,-496.2 134.14,-496.13 125.82,-489.58 123.55,-496.2"/>
</g>
<!-- object_marking_refs -->
<g id="node13" class="node">
<title>object_marking_refs</title>
<polygon fill="none" stroke="black" points="227.12,-468 98.62,-468 98.62,-432 227.12,-432 227.12,-468"/>
<text text-anchor="middle" x="162.88" y="-444.95" font-family="Times,serif" font-size="14.00">object_marking_refs</text>
</g>
<!-- 90ee417d&#45;9868&#45;4292&#45;bbf6&#45;b057339cf4ae&#45;&gt;object_marking_refs -->
<g id="edge8" class="edge">
<title>90ee417d&#45;9868&#45;4292&#45;bbf6&#45;b057339cf4ae&#45;&gt;object_marking_refs</title>
<path fill="none" stroke="black" d="M54.45,-428.33C64.04,-430.27 75.4,-432.56 87.08,-434.92"/>
<polygon fill="black" stroke="black" points="86.36,-438.34 96.85,-436.89 87.74,-431.48 86.36,-438.34"/>
</g>
<!-- spec_version -->
<g id="node14" class="node">
<title>spec_version</title>
<polygon fill="none" stroke="black" points="206.12,-414 119.62,-414 119.62,-378 206.12,-378 206.12,-414"/>
<text text-anchor="middle" x="162.88" y="-390.95" font-family="Times,serif" font-size="14.00">spec_version</text>
</g>
<!-- 90ee417d&#45;9868&#45;4292&#45;bbf6&#45;b057339cf4ae&#45;&gt;spec_version -->
<g id="edge9" class="edge">
<title>90ee417d&#45;9868&#45;4292&#45;bbf6&#45;b057339cf4ae&#45;&gt;spec_version</title>
<path fill="none" stroke="black" d="M54.45,-417.67C69.72,-414.59 89.5,-410.6 107.91,-406.88"/>
<polygon fill="black" stroke="black" points="108.55,-410.33 117.66,-404.92 107.17,-403.46 108.55,-410.33"/>
</g>
<!-- type -->
<g id="node15" class="node">
<title>type</title>
<polygon fill="none" stroke="black" points="189.88,-360 135.88,-360 135.88,-324 189.88,-324 189.88,-360"/>
<text text-anchor="middle" x="162.88" y="-336.95" font-family="Times,serif" font-size="14.00">type</text>
</g>
<!-- 90ee417d&#45;9868&#45;4292&#45;bbf6&#45;b057339cf4ae&#45;&gt;type -->
<g id="edge10" class="edge">
<title>90ee417d&#45;9868&#45;4292&#45;bbf6&#45;b057339cf4ae&#45;&gt;type</title>
<path fill="none" stroke="black" d="M45.63,-404.57C57.36,-393.14 73.57,-378.8 90,-369 100.76,-362.58 113.3,-357.24 124.87,-353.04"/>
<polygon fill="black" stroke="black" points="125.82,-356.42 134.14,-349.87 123.55,-349.8 125.82,-356.42"/>
</g>
<!-- x_capec_abstraction -->
<g id="node16" class="node">
<title>x_capec_abstraction</title>
<polygon fill="none" stroke="black" points="226,-306 99.75,-306 99.75,-270 226,-270 226,-306"/>
<text text-anchor="middle" x="162.88" y="-282.95" font-family="Times,serif" font-size="14.00">x_capec_abstraction</text>
</g>
<!-- 90ee417d&#45;9868&#45;4292&#45;bbf6&#45;b057339cf4ae&#45;&gt;x_capec_abstraction -->
<g id="edge11" class="edge">
<title>90ee417d&#45;9868&#45;4292&#45;bbf6&#45;b057339cf4ae&#45;&gt;x_capec_abstraction</title>
<path fill="none" stroke="black" d="M34.04,-404.76C42.78,-380.97 61.17,-339.5 90,-315 90.94,-314.2 91.9,-313.43 92.89,-312.67"/>
<polygon fill="black" stroke="black" points="94.63,-315.72 101.06,-307.29 90.78,-309.87 94.63,-315.72"/>
</g>
<!-- x_capec_child_of_refs -->
<g id="node17" class="node">
<title>x_capec_child_of_refs</title>
<polygon fill="none" stroke="black" points="232.38,-252 93.38,-252 93.38,-216 232.38,-216 232.38,-252"/>
<text text-anchor="middle" x="162.88" y="-228.95" font-family="Times,serif" font-size="14.00">x_capec_child_of_refs</text>
</g>
<!-- 90ee417d&#45;9868&#45;4292&#45;bbf6&#45;b057339cf4ae&#45;&gt;x_capec_child_of_refs -->
<g id="edge12" class="edge">
<title>90ee417d&#45;9868&#45;4292&#45;bbf6&#45;b057339cf4ae&#45;&gt;x_capec_child_of_refs</title>
<path fill="none" stroke="black" d="M30.11,-404.55C34.85,-371.4 49.31,-301.44 90,-261 90.6,-260.4 91.22,-259.82 91.85,-259.24"/>
<polygon fill="black" stroke="black" points="93.68,-262.25 99.51,-253.41 89.44,-256.68 93.68,-262.25"/>
</g>
<!-- x_capec_domains -->
<g id="node18" class="node">
<title>x_capec_domains</title>
<polygon fill="none" stroke="black" points="219.62,-198 106.12,-198 106.12,-162 219.62,-162 219.62,-198"/>
<text text-anchor="middle" x="162.88" y="-174.95" font-family="Times,serif" font-size="14.00">x_capec_domains</text>
</g>
<!-- 90ee417d&#45;9868&#45;4292&#45;bbf6&#45;b057339cf4ae&#45;&gt;x_capec_domains -->
<g id="edge13" class="edge">
<title>90ee417d&#45;9868&#45;4292&#45;bbf6&#45;b057339cf4ae&#45;&gt;x_capec_domains</title>
<path fill="none" stroke="black" d="M28,-404.74C29,-363.92 37.07,-264.33 90,-207 91.98,-204.86 94.14,-202.88 96.45,-201.07"/>
<polygon fill="black" stroke="black" points="98.26,-204.07 104.67,-195.63 94.4,-198.22 98.26,-204.07"/>
</g>
<!-- x_capec_parent_of_refs -->
<g id="node19" class="node">
<title>x_capec_parent_of_refs</title>
<polygon fill="none" stroke="black" points="235.75,-144 90,-144 90,-108 235.75,-108 235.75,-144"/>
<text text-anchor="middle" x="162.88" y="-120.95" font-family="Times,serif" font-size="14.00">x_capec_parent_of_refs</text>
</g>
<!-- 90ee417d&#45;9868&#45;4292&#45;bbf6&#45;b057339cf4ae&#45;&gt;x_capec_parent_of_refs -->
<g id="edge14" class="edge">
<title>90ee417d&#45;9868&#45;4292&#45;bbf6&#45;b057339cf4ae&#45;&gt;x_capec_parent_of_refs</title>
<path fill="none" stroke="black" d="M29.93,-404.83C36.04,-350.6 56.52,-191.28 90,-153 90.35,-152.6 90.71,-152.2 91.07,-151.81"/>
<polygon fill="black" stroke="black" points="93.14,-154.66 98.4,-145.46 88.55,-149.37 93.14,-154.66"/>
</g>
<!-- x_capec_status -->
<g id="node20" class="node">
<title>x_capec_status</title>
<polygon fill="none" stroke="black" points="211.75,-90 114,-90 114,-54 211.75,-54 211.75,-90"/>
<text text-anchor="middle" x="162.88" y="-66.95" font-family="Times,serif" font-size="14.00">x_capec_status</text>
</g>
<!-- 90ee417d&#45;9868&#45;4292&#45;bbf6&#45;b057339cf4ae&#45;&gt;x_capec_status -->
<g id="edge15" class="edge">
<title>90ee417d&#45;9868&#45;4292&#45;bbf6&#45;b057339cf4ae&#45;&gt;x_capec_status</title>
<path fill="none" stroke="black" d="M29.18,-404.78C33.48,-343.52 50.23,-146.19 90,-99 93.92,-94.35 98.72,-90.5 103.98,-87.31"/>
<polygon fill="black" stroke="black" points="105.17,-90.63 112.47,-82.95 101.97,-84.41 105.17,-90.63"/>
</g>
<!-- x_capec_version -->
<g id="node21" class="node">
<title>x_capec_version</title>
<polygon fill="none" stroke="black" points="216.25,-36 109.5,-36 109.5,0 216.25,0 216.25,-36"/>
<text text-anchor="middle" x="162.88" y="-12.95" font-family="Times,serif" font-size="14.00">x_capec_version</text>
</g>
<!-- 90ee417d&#45;9868&#45;4292&#45;bbf6&#45;b057339cf4ae&#45;&gt;x_capec_version -->
<g id="edge16" class="edge">
<title>90ee417d&#45;9868&#45;4292&#45;bbf6&#45;b057339cf4ae&#45;&gt;x_capec_version</title>
<path fill="none" stroke="black" d="M28.64,-404.66C31.33,-336.83 43.92,-101.17 90,-45 92.82,-41.56 96.13,-38.56 99.74,-35.94"/>
<polygon fill="black" stroke="black" points="101.23,-39.14 107.98,-30.97 97.61,-33.14 101.23,-39.14"/>
</g>
<!-- external_references[].description -->
<g id="node6" class="node">
<title>external_references[].description</title>
<polygon fill="none" stroke="black" points="353.75,-765 277.75,-765 277.75,-729 353.75,-729 353.75,-765"/>
<text text-anchor="middle" x="315.75" y="-741.95" font-family="Times,serif" font-size="14.00">description</text>
</g>
<!-- external_references[]&#45;&gt;external_references[].description -->
<g id="edge17" class="edge">
<title>external_references[]&#45;&gt;external_references[].description</title>
<path fill="none" stroke="black" d="M218.01,-684.42C224.11,-687.05 230.14,-689.92 235.75,-693 253.29,-702.61 255.27,-708.67 271.75,-720 272.94,-720.81 274.14,-721.63 275.37,-722.46"/>
<polygon fill="black" stroke="black" points="273.39,-725.34 283.67,-727.9 277.22,-719.49 273.39,-725.34"/>
</g>
<!-- external_references[].external_id -->
<g id="node7" class="node">
<title>external_references[].external_id</title>
<polygon fill="none" stroke="black" points="354.12,-711 277.38,-711 277.38,-675 354.12,-675 354.12,-711"/>
<text text-anchor="middle" x="315.75" y="-687.95" font-family="Times,serif" font-size="14.00">external_id</text>
</g>
<!-- external_references[]&#45;&gt;external_references[].external_id -->
<g id="edge18" class="edge">
<title>external_references[]&#45;&gt;external_references[].external_id</title>
<path fill="none" stroke="black" d="M228.74,-677.61C241.2,-679.84 254.06,-682.14 265.92,-684.26"/>
<polygon fill="black" stroke="black" points="264.98,-687.65 275.44,-685.97 266.22,-680.76 264.98,-687.65"/>
</g>
<!-- external_references[].source_name -->
<g id="node8" class="node">
<title>external_references[].source_name</title>
<polygon fill="none" stroke="black" points="359.75,-657 271.75,-657 271.75,-621 359.75,-621 359.75,-657"/>
<text text-anchor="middle" x="315.75" y="-633.95" font-family="Times,serif" font-size="14.00">source_name</text>
</g>
<!-- external_references[]&#45;&gt;external_references[].source_name -->
<g id="edge19" class="edge">
<title>external_references[]&#45;&gt;external_references[].source_name</title>
<path fill="none" stroke="black" d="M228.74,-654.39C239.18,-652.52 249.9,-650.61 260.08,-648.78"/>
<polygon fill="black" stroke="black" points="260.57,-652.25 269.8,-647.04 259.34,-645.36 260.57,-652.25"/>
</g>
<!-- external_references[].url -->
<g id="node9" class="node">
<title>external_references[].url</title>
<polygon fill="none" stroke="black" points="342.75,-603 288.75,-603 288.75,-567 342.75,-567 342.75,-603"/>
<text text-anchor="middle" x="315.75" y="-579.95" font-family="Times,serif" font-size="14.00">url</text>
</g>
<!-- external_references[]&#45;&gt;external_references[].url -->
<g id="edge20" class="edge">
<title>external_references[]&#45;&gt;external_references[].url</title>
<path fill="none" stroke="black" d="M218.01,-647.58C224.11,-644.95 230.14,-642.08 235.75,-639 253.29,-629.39 255.27,-623.33 271.75,-612 274.1,-610.38 276.55,-608.74 279.02,-607.11"/>
<polygon fill="black" stroke="black" points="280.83,-610.12 287.33,-601.75 277.03,-604.23 280.83,-610.12"/>
</g>
</g>
</svg>
