<?xml version="1.0" encoding="UTF-8" standalone="no"?>
<!DOCTYPE svg PUBLIC "-//W3C//DTD SVG 1.1//EN"
 "http://www.w3.org/Graphics/SVG/1.1/DTD/svg11.dtd">
<!-- Generated by graphviz version 12.0.0 (20240704.0754)
 -->
<!-- Title: G Pages: 1 -->
<svg width="944pt" height="2208pt"
 viewBox="0.00 0.00 226.50 530.00" xmlns="http://www.w3.org/2000/svg" xmlns:xlink="http://www.w3.org/1999/xlink">
<g id="graph0" class="graph" transform="scale(4.16667 4.16667) rotate(0) translate(4 526)">
<title>G</title>
<polygon fill="white" stroke="none" points="-4,4 -4,-526 222.5,-526 222.5,4 -4,4"/>
<!-- c46187e2&#45;938e&#45;4fcc&#45;bd21&#45;f2437319f763 -->
<g id="node1" class="node">
<title>c46187e2&#45;938e&#45;4fcc&#45;bd21&#45;f2437319f763</title>
<polygon fill="none" stroke="black" points="54,-279 0,-279 0,-243 54,-243 54,-279"/>
<text text-anchor="middle" x="27" y="-255.95" font-family="Times,serif" font-size="14.00">.</text>
</g>
<!-- created -->
<g id="node2" class="node">
<title>created</title>
<polygon fill="none" stroke="black" points="181.75,-522 126.75,-522 126.75,-486 181.75,-486 181.75,-522"/>
<text text-anchor="middle" x="154.25" y="-498.95" font-family="Times,serif" font-size="14.00">created</text>
</g>
<!-- c46187e2&#45;938e&#45;4fcc&#45;bd21&#45;f2437319f763&#45;&gt;created -->
<g id="edge1" class="edge">
<title>c46187e2&#45;938e&#45;4fcc&#45;bd21&#45;f2437319f763&#45;&gt;created</title>
<path fill="none" stroke="black" d="M28.2,-279.39C29.6,-320.07 38.48,-418.66 90,-477 96.83,-484.74 106.27,-490.33 115.76,-494.34"/>
<polygon fill="black" stroke="black" points="114.36,-497.55 124.95,-497.71 116.77,-490.98 114.36,-497.55"/>
</g>
<!-- created_by_ref -->
<g id="node3" class="node">
<title>created_by_ref</title>
<polygon fill="none" stroke="black" points="202.75,-468 105.75,-468 105.75,-432 202.75,-432 202.75,-468"/>
<text text-anchor="middle" x="154.25" y="-444.95" font-family="Times,serif" font-size="14.00">created_by_ref</text>
</g>
<!-- c46187e2&#45;938e&#45;4fcc&#45;bd21&#45;f2437319f763&#45;&gt;created_by_ref -->
<g id="edge2" class="edge">
<title>c46187e2&#45;938e&#45;4fcc&#45;bd21&#45;f2437319f763&#45;&gt;created_by_ref</title>
<path fill="none" stroke="black" d="M30.29,-279.27C35.31,-312.15 50.21,-381.67 90,-423 91.78,-424.85 93.71,-426.58 95.75,-428.2"/>
<polygon fill="black" stroke="black" points="93.78,-431.09 104.03,-433.75 97.67,-425.27 93.78,-431.09"/>
</g>
<!-- description -->
<g id="node4" class="node">
<title>description</title>
<polygon fill="none" stroke="black" points="192.25,-414 116.25,-414 116.25,-378 192.25,-378 192.25,-414"/>
<text text-anchor="middle" x="154.25" y="-390.95" font-family="Times,serif" font-size="14.00">description</text>
</g>
<!-- c46187e2&#45;938e&#45;4fcc&#45;bd21&#45;f2437319f763&#45;&gt;description -->
<g id="edge3" class="edge">
<title>c46187e2&#45;938e&#45;4fcc&#45;bd21&#45;f2437319f763&#45;&gt;description</title>
<path fill="none" stroke="black" d="M34.35,-279.45C43.34,-303.1 61.88,-344.01 90,-369 94.63,-373.11 99.98,-376.67 105.57,-379.72"/>
<polygon fill="black" stroke="black" points="103.9,-382.8 114.42,-384.03 106.96,-376.51 103.9,-382.8"/>
</g>
<!-- id -->
<g id="node5" class="node">
<title>id</title>
<polygon fill="none" stroke="black" points="181.25,-360 127.25,-360 127.25,-324 181.25,-324 181.25,-360"/>
<text text-anchor="middle" x="154.25" y="-336.95" font-family="Times,serif" font-size="14.00">id</text>
</g>
<!-- c46187e2&#45;938e&#45;4fcc&#45;bd21&#45;f2437319f763&#45;&gt;id -->
<g id="edge4" class="edge">
<title>c46187e2&#45;938e&#45;4fcc&#45;bd21&#45;f2437319f763&#45;&gt;id</title>
<path fill="none" stroke="black" d="M46.04,-279.43C57.81,-290.73 73.92,-304.92 90,-315 98.13,-320.1 107.38,-324.65 116.26,-328.5"/>
<polygon fill="black" stroke="black" points="114.81,-331.7 125.39,-332.27 117.48,-325.22 114.81,-331.7"/>
</g>
<!-- modified -->
<g id="node6" class="node">
<title>modified</title>
<polygon fill="none" stroke="black" points="187,-306 121.5,-306 121.5,-270 187,-270 187,-306"/>
<text text-anchor="middle" x="154.25" y="-282.95" font-family="Times,serif" font-size="14.00">modified</text>
</g>
<!-- c46187e2&#45;938e&#45;4fcc&#45;bd21&#45;f2437319f763&#45;&gt;modified -->
<g id="edge5" class="edge">
<title>c46187e2&#45;938e&#45;4fcc&#45;bd21&#45;f2437319f763&#45;&gt;modified</title>
<path fill="none" stroke="black" d="M54.26,-266.66C70.41,-270.14 91.52,-274.69 110.08,-278.69"/>
<polygon fill="black" stroke="black" points="109.26,-282.1 119.77,-280.78 110.73,-275.25 109.26,-282.1"/>
</g>
<!-- name -->
<g id="node7" class="node">
<title>name</title>
<polygon fill="none" stroke="black" points="181.25,-252 127.25,-252 127.25,-216 181.25,-216 181.25,-252"/>
<text text-anchor="middle" x="154.25" y="-228.95" font-family="Times,serif" font-size="14.00">name</text>
</g>
<!-- c46187e2&#45;938e&#45;4fcc&#45;bd21&#45;f2437319f763&#45;&gt;name -->
<g id="edge6" class="edge">
<title>c46187e2&#45;938e&#45;4fcc&#45;bd21&#45;f2437319f763&#45;&gt;name</title>
<path fill="none" stroke="black" d="M54.26,-255.34C72.13,-251.49 96.04,-246.33 115.89,-242.05"/>
<polygon fill="black" stroke="black" points="116.51,-245.5 125.55,-239.97 115.04,-238.66 116.51,-245.5"/>
</g>
<!-- object_marking_refs -->
<g id="node8" class="node">
<title>object_marking_refs</title>
<polygon fill="none" stroke="black" points="218.5,-198 90,-198 90,-162 218.5,-162 218.5,-198"/>
<text text-anchor="middle" x="154.25" y="-174.95" font-family="Times,serif" font-size="14.00">object_marking_refs</text>
</g>
<!-- c46187e2&#45;938e&#45;4fcc&#45;bd21&#45;f2437319f763&#45;&gt;object_marking_refs -->
<g id="edge7" class="edge">
<title>c46187e2&#45;938e&#45;4fcc&#45;bd21&#45;f2437319f763&#45;&gt;object_marking_refs</title>
<path fill="none" stroke="black" d="M46.04,-242.57C57.81,-231.27 73.92,-217.08 90,-207 91.82,-205.86 93.7,-204.74 95.62,-203.66"/>
<polygon fill="black" stroke="black" points="96.9,-206.94 104.11,-199.18 93.63,-200.75 96.9,-206.94"/>
</g>
<!-- spec_version -->
<g id="node9" class="node">
<title>spec_version</title>
<polygon fill="none" stroke="black" points="197.5,-144 111,-144 111,-108 197.5,-108 197.5,-144"/>
<text text-anchor="middle" x="154.25" y="-120.95" font-family="Times,serif" font-size="14.00">spec_version</text>
</g>
<!-- c46187e2&#45;938e&#45;4fcc&#45;bd21&#45;f2437319f763&#45;&gt;spec_version -->
<g id="edge8" class="edge">
<title>c46187e2&#45;938e&#45;4fcc&#45;bd21&#45;f2437319f763&#45;&gt;spec_version</title>
<path fill="none" stroke="black" d="M34.35,-242.55C43.34,-218.9 61.88,-177.99 90,-153 93.27,-150.09 96.9,-147.47 100.72,-145.1"/>
<polygon fill="black" stroke="black" points="102.09,-148.34 109.18,-140.46 98.73,-142.2 102.09,-148.34"/>
</g>
<!-- type -->
<g id="node10" class="node">
<title>type</title>
<polygon fill="none" stroke="black" points="181.25,-90 127.25,-90 127.25,-54 181.25,-54 181.25,-90"/>
<text text-anchor="middle" x="154.25" y="-66.95" font-family="Times,serif" font-size="14.00">type</text>
</g>
<!-- c46187e2&#45;938e&#45;4fcc&#45;bd21&#45;f2437319f763&#45;&gt;type -->
<g id="edge9" class="edge">
<title>c46187e2&#45;938e&#45;4fcc&#45;bd21&#45;f2437319f763&#45;&gt;type</title>
<path fill="none" stroke="black" d="M30.29,-242.73C35.31,-209.85 50.21,-140.33 90,-99 97.16,-91.56 106.7,-86.07 116.19,-82.06"/>
<polygon fill="black" stroke="black" points="117.19,-85.42 125.34,-78.65 114.75,-78.86 117.19,-85.42"/>
</g>
<!-- x_capec_version -->
<g id="node11" class="node">
<title>x_capec_version</title>
<polygon fill="none" stroke="black" points="207.62,-36 100.88,-36 100.88,0 207.62,0 207.62,-36"/>
<text text-anchor="middle" x="154.25" y="-12.95" font-family="Times,serif" font-size="14.00">x_capec_version</text>
</g>
<!-- c46187e2&#45;938e&#45;4fcc&#45;bd21&#45;f2437319f763&#45;&gt;x_capec_version -->
<g id="edge10" class="edge">
<title>c46187e2&#45;938e&#45;4fcc&#45;bd21&#45;f2437319f763&#45;&gt;x_capec_version</title>
<path fill="none" stroke="black" d="M28.2,-242.61C29.6,-201.93 38.48,-103.34 90,-45 90.58,-44.35 91.17,-43.71 91.79,-43.08"/>
<polygon fill="black" stroke="black" points="93.96,-45.83 99.43,-36.75 89.5,-40.43 93.96,-45.83"/>
</g>
</g>
</svg>
