<?xml version="1.0" encoding="UTF-8" standalone="no"?>
<!DOCTYPE svg PUBLIC "-//W3C//DTD SVG 1.1//EN"
 "http://www.w3.org/Graphics/SVG/1.1/DTD/svg11.dtd">
<!-- Generated by graphviz version 12.0.0 (20240704.0754)
 -->
<!-- Title: G Pages: 1 -->
<svg width="944pt" height="1758pt"
 viewBox="0.00 0.00 226.50 422.00" xmlns="http://www.w3.org/2000/svg" xmlns:xlink="http://www.w3.org/1999/xlink">
<g id="graph0" class="graph" transform="scale(4.16667 4.16667) rotate(0) translate(4 418)">
<title>G</title>
<polygon fill="white" stroke="none" points="-4,4 -4,-418 222.5,-418 222.5,4 -4,4"/>
<!-- 239ff49a&#45;ae07&#45;47e4&#45;8d87&#45;cc7910e5b037 -->
<g id="node1" class="node">
<title>239ff49a&#45;ae07&#45;47e4&#45;8d87&#45;cc7910e5b037</title>
<polygon fill="none" stroke="black" points="54,-225 0,-225 0,-189 54,-189 54,-225"/>
<text text-anchor="middle" x="27" y="-201.95" font-family="Times,serif" font-size="14.00">.</text>
</g>
<!-- created -->
<g id="node2" class="node">
<title>created</title>
<polygon fill="none" stroke="black" points="181.75,-414 126.75,-414 126.75,-378 181.75,-378 181.75,-414"/>
<text text-anchor="middle" x="154.25" y="-390.95" font-family="Times,serif" font-size="14.00">created</text>
</g>
<!-- 239ff49a&#45;ae07&#45;47e4&#45;8d87&#45;cc7910e5b037&#45;&gt;created -->
<g id="edge1" class="edge">
<title>239ff49a&#45;ae07&#45;47e4&#45;8d87&#45;cc7910e5b037&#45;&gt;created</title>
<path fill="none" stroke="black" d="M30.29,-225.27C35.31,-258.15 50.21,-327.67 90,-369 97.1,-376.37 106.54,-381.84 115.95,-385.84"/>
<polygon fill="black" stroke="black" points="114.43,-389.01 125.03,-389.24 116.89,-382.46 114.43,-389.01"/>
</g>
<!-- id -->
<g id="node3" class="node">
<title>id</title>
<polygon fill="none" stroke="black" points="181.25,-360 127.25,-360 127.25,-324 181.25,-324 181.25,-360"/>
<text text-anchor="middle" x="154.25" y="-336.95" font-family="Times,serif" font-size="14.00">id</text>
</g>
<!-- 239ff49a&#45;ae07&#45;47e4&#45;8d87&#45;cc7910e5b037&#45;&gt;id -->
<g id="edge2" class="edge">
<title>239ff49a&#45;ae07&#45;47e4&#45;8d87&#45;cc7910e5b037&#45;&gt;id</title>
<path fill="none" stroke="black" d="M34.35,-225.45C43.34,-249.1 61.88,-290.01 90,-315 97.5,-321.67 106.9,-326.87 116.14,-330.85"/>
<polygon fill="black" stroke="black" points="114.79,-334.08 125.38,-334.43 117.32,-327.55 114.79,-334.08"/>
</g>
<!-- identity_class -->
<g id="node4" class="node">
<title>identity_class</title>
<polygon fill="none" stroke="black" points="199.38,-306 109.12,-306 109.12,-270 199.38,-270 199.38,-306"/>
<text text-anchor="middle" x="154.25" y="-282.95" font-family="Times,serif" font-size="14.00">identity_class</text>
</g>
<!-- 239ff49a&#45;ae07&#45;47e4&#45;8d87&#45;cc7910e5b037&#45;&gt;identity_class -->
<g id="edge3" class="edge">
<title>239ff49a&#45;ae07&#45;47e4&#45;8d87&#45;cc7910e5b037&#45;&gt;identity_class</title>
<path fill="none" stroke="black" d="M46.04,-225.43C57.81,-236.73 73.92,-250.92 90,-261 92.75,-262.72 95.63,-264.39 98.58,-265.98"/>
<polygon fill="black" stroke="black" points="96.94,-269.07 107.45,-270.45 100.09,-262.82 96.94,-269.07"/>
</g>
<!-- modified -->
<g id="node5" class="node">
<title>modified</title>
<polygon fill="none" stroke="black" points="187,-252 121.5,-252 121.5,-216 187,-216 187,-252"/>
<text text-anchor="middle" x="154.25" y="-228.95" font-family="Times,serif" font-size="14.00">modified</text>
</g>
<!-- 239ff49a&#45;ae07&#45;47e4&#45;8d87&#45;cc7910e5b037&#45;&gt;modified -->
<g id="edge4" class="edge">
<title>239ff49a&#45;ae07&#45;47e4&#45;8d87&#45;cc7910e5b037&#45;&gt;modified</title>
<path fill="none" stroke="black" d="M54.26,-212.66C70.41,-216.14 91.52,-220.69 110.08,-224.69"/>
<polygon fill="black" stroke="black" points="109.26,-228.1 119.77,-226.78 110.73,-221.25 109.26,-228.1"/>
</g>
<!-- name -->
<g id="node6" class="node">
<title>name</title>
<polygon fill="none" stroke="black" points="181.25,-198 127.25,-198 127.25,-162 181.25,-162 181.25,-198"/>
<text text-anchor="middle" x="154.25" y="-174.95" font-family="Times,serif" font-size="14.00">name</text>
</g>
<!-- 239ff49a&#45;ae07&#45;47e4&#45;8d87&#45;cc7910e5b037&#45;&gt;name -->
<g id="edge5" class="edge">
<title>239ff49a&#45;ae07&#45;47e4&#45;8d87&#45;cc7910e5b037&#45;&gt;name</title>
<path fill="none" stroke="black" d="M54.26,-201.34C72.13,-197.49 96.04,-192.33 115.89,-188.05"/>
<polygon fill="black" stroke="black" points="116.51,-191.5 125.55,-185.97 115.04,-184.66 116.51,-191.5"/>
</g>
<!-- object_marking_refs -->
<g id="node7" class="node">
<title>object_marking_refs</title>
<polygon fill="none" stroke="black" points="218.5,-144 90,-144 90,-108 218.5,-108 218.5,-144"/>
<text text-anchor="middle" x="154.25" y="-120.95" font-family="Times,serif" font-size="14.00">object_marking_refs</text>
</g>
<!-- 239ff49a&#45;ae07&#45;47e4&#45;8d87&#45;cc7910e5b037&#45;&gt;object_marking_refs -->
<g id="edge6" class="edge">
<title>239ff49a&#45;ae07&#45;47e4&#45;8d87&#45;cc7910e5b037&#45;&gt;object_marking_refs</title>
<path fill="none" stroke="black" d="M46.04,-188.57C57.81,-177.27 73.92,-163.08 90,-153 91.82,-151.86 93.7,-150.74 95.62,-149.66"/>
<polygon fill="black" stroke="black" points="96.9,-152.94 104.11,-145.18 93.63,-146.75 96.9,-152.94"/>
</g>
<!-- spec_version -->
<g id="node8" class="node">
<title>spec_version</title>
<polygon fill="none" stroke="black" points="197.5,-90 111,-90 111,-54 197.5,-54 197.5,-90"/>
<text text-anchor="middle" x="154.25" y="-66.95" font-family="Times,serif" font-size="14.00">spec_version</text>
</g>
<!-- 239ff49a&#45;ae07&#45;47e4&#45;8d87&#45;cc7910e5b037&#45;&gt;spec_version -->
<g id="edge7" class="edge">
<title>239ff49a&#45;ae07&#45;47e4&#45;8d87&#45;cc7910e5b037&#45;&gt;spec_version</title>
<path fill="none" stroke="black" d="M34.35,-188.55C43.34,-164.9 61.88,-123.99 90,-99 93.27,-96.09 96.9,-93.47 100.72,-91.1"/>
<polygon fill="black" stroke="black" points="102.09,-94.34 109.18,-86.46 98.73,-88.2 102.09,-94.34"/>
</g>
<!-- type -->
<g id="node9" class="node">
<title>type</title>
<polygon fill="none" stroke="black" points="181.25,-36 127.25,-36 127.25,0 181.25,0 181.25,-36"/>
<text text-anchor="middle" x="154.25" y="-12.95" font-family="Times,serif" font-size="14.00">type</text>
</g>
<!-- 239ff49a&#45;ae07&#45;47e4&#45;8d87&#45;cc7910e5b037&#45;&gt;type -->
<g id="edge8" class="edge">
<title>239ff49a&#45;ae07&#45;47e4&#45;8d87&#45;cc7910e5b037&#45;&gt;type</title>
<path fill="none" stroke="black" d="M30.29,-188.73C35.31,-155.85 50.21,-86.33 90,-45 97.16,-37.56 106.7,-32.07 116.19,-28.06"/>
<polygon fill="black" stroke="black" points="117.19,-31.42 125.34,-24.65 114.75,-24.86 117.19,-31.42"/>
</g>
</g>
</svg>
