<?xml version="1.0" encoding="UTF-8" standalone="no"?>
<!DOCTYPE svg PUBLIC "-//W3C//DTD SVG 1.1//EN"
 "http://www.w3.org/Graphics/SVG/1.1/DTD/svg11.dtd">
<!-- Generated by graphviz version 12.0.0 (20240704.0754)
 -->
<!-- Title: G Pages: 1 -->
<svg width="1254pt" height="1308pt"
 viewBox="0.00 0.00 301.00 314.00" xmlns="http://www.w3.org/2000/svg" xmlns:xlink="http://www.w3.org/1999/xlink">
<g id="graph0" class="graph" transform="scale(4.16667 4.16667) rotate(0) translate(4 310)">
<title>G</title>
<polygon fill="white" stroke="none" points="-4,4 -4,-310 297,-310 297,4 -4,4"/>
<!-- 1916a39e&#45;3c14&#45;42fb&#45;9f05&#45;645575e39de0 -->
<g id="node1" class="node">
<title>1916a39e&#45;3c14&#45;42fb&#45;9f05&#45;645575e39de0</title>
<polygon fill="none" stroke="black" points="54,-171 0,-171 0,-135 54,-135 54,-171"/>
<text text-anchor="middle" x="27" y="-147.95" font-family="Times,serif" font-size="14.00">.</text>
</g>
<!-- created -->
<g id="node2" class="node">
<title>created</title>
<polygon fill="none" stroke="black" points="166.75,-306 111.75,-306 111.75,-270 166.75,-270 166.75,-306"/>
<text text-anchor="middle" x="139.25" y="-282.95" font-family="Times,serif" font-size="14.00">created</text>
</g>
<!-- 1916a39e&#45;3c14&#45;42fb&#45;9f05&#45;645575e39de0&#45;&gt;created -->
<g id="edge1" class="edge">
<title>1916a39e&#45;3c14&#45;42fb&#45;9f05&#45;645575e39de0&#45;&gt;created</title>
<path fill="none" stroke="black" d="M34.94,-171.4C44.44,-194.62 63.41,-234.7 90,-261 93.55,-264.51 97.65,-267.71 101.93,-270.58"/>
<polygon fill="black" stroke="black" points="99.78,-273.37 110.15,-275.55 103.4,-267.38 99.78,-273.37"/>
</g>
<!-- definition -->
<g id="node3" class="node">
<title>definition</title>
<polygon fill="none" stroke="black" points="173.5,-252 105,-252 105,-216 173.5,-216 173.5,-252"/>
<text text-anchor="middle" x="139.25" y="-228.95" font-family="Times,serif" font-size="14.00">definition</text>
</g>
<!-- 1916a39e&#45;3c14&#45;42fb&#45;9f05&#45;645575e39de0&#45;&gt;definition -->
<g id="edge2" class="edge">
<title>1916a39e&#45;3c14&#45;42fb&#45;9f05&#45;645575e39de0&#45;&gt;definition</title>
<path fill="none" stroke="black" d="M46.97,-171.35C58.83,-182.35 74.71,-196.24 90,-207 91.74,-208.22 93.53,-209.44 95.37,-210.63"/>
<polygon fill="black" stroke="black" points="93.1,-213.35 103.45,-215.64 96.79,-207.39 93.1,-213.35"/>
</g>
<!-- definition_type -->
<g id="node5" class="node">
<title>definition_type</title>
<polygon fill="none" stroke="black" points="188.5,-198 90,-198 90,-162 188.5,-162 188.5,-198"/>
<text text-anchor="middle" x="139.25" y="-174.95" font-family="Times,serif" font-size="14.00">definition_type</text>
</g>
<!-- 1916a39e&#45;3c14&#45;42fb&#45;9f05&#45;645575e39de0&#45;&gt;definition_type -->
<g id="edge3" class="edge">
<title>1916a39e&#45;3c14&#45;42fb&#45;9f05&#45;645575e39de0&#45;&gt;definition_type</title>
<path fill="none" stroke="black" d="M54.41,-159.47C61.76,-161.27 70.06,-163.3 78.5,-165.37"/>
<polygon fill="black" stroke="black" points="77.61,-168.75 88.15,-167.73 79.27,-161.95 77.61,-168.75"/>
</g>
<!-- id -->
<g id="node6" class="node">
<title>id</title>
<polygon fill="none" stroke="black" points="166.25,-144 112.25,-144 112.25,-108 166.25,-108 166.25,-144"/>
<text text-anchor="middle" x="139.25" y="-120.95" font-family="Times,serif" font-size="14.00">id</text>
</g>
<!-- 1916a39e&#45;3c14&#45;42fb&#45;9f05&#45;645575e39de0&#45;&gt;id -->
<g id="edge4" class="edge">
<title>1916a39e&#45;3c14&#45;42fb&#45;9f05&#45;645575e39de0&#45;&gt;id</title>
<path fill="none" stroke="black" d="M54.41,-146.53C68.45,-143.09 85.95,-138.81 101.32,-135.04"/>
<polygon fill="black" stroke="black" points="101.71,-138.55 110.59,-132.77 100.04,-131.75 101.71,-138.55"/>
</g>
<!-- spec_version -->
<g id="node7" class="node">
<title>spec_version</title>
<polygon fill="none" stroke="black" points="182.5,-90 96,-90 96,-54 182.5,-54 182.5,-90"/>
<text text-anchor="middle" x="139.25" y="-66.95" font-family="Times,serif" font-size="14.00">spec_version</text>
</g>
<!-- 1916a39e&#45;3c14&#45;42fb&#45;9f05&#45;645575e39de0&#45;&gt;spec_version -->
<g id="edge5" class="edge">
<title>1916a39e&#45;3c14&#45;42fb&#45;9f05&#45;645575e39de0&#45;&gt;spec_version</title>
<path fill="none" stroke="black" d="M46.97,-134.65C58.83,-123.65 74.71,-109.76 90,-99 91.17,-98.18 92.37,-97.36 93.58,-96.54"/>
<polygon fill="black" stroke="black" points="95.32,-99.59 101.92,-91.29 91.59,-93.66 95.32,-99.59"/>
</g>
<!-- type -->
<g id="node8" class="node">
<title>type</title>
<polygon fill="none" stroke="black" points="166.25,-36 112.25,-36 112.25,0 166.25,0 166.25,-36"/>
<text text-anchor="middle" x="139.25" y="-12.95" font-family="Times,serif" font-size="14.00">type</text>
</g>
<!-- 1916a39e&#45;3c14&#45;42fb&#45;9f05&#45;645575e39de0&#45;&gt;type -->
<g id="edge6" class="edge">
<title>1916a39e&#45;3c14&#45;42fb&#45;9f05&#45;645575e39de0&#45;&gt;type</title>
<path fill="none" stroke="black" d="M34.94,-134.6C44.44,-111.38 63.41,-71.3 90,-45 93.63,-41.41 97.83,-38.15 102.22,-35.23"/>
<polygon fill="black" stroke="black" points="103.87,-38.32 110.65,-30.18 100.27,-32.31 103.87,-38.32"/>
</g>
<!-- definition.statement -->
<g id="node4" class="node">
<title>definition.statement</title>
<polygon fill="none" stroke="black" points="293,-252 224.5,-252 224.5,-216 293,-216 293,-252"/>
<text text-anchor="middle" x="258.75" y="-228.95" font-family="Times,serif" font-size="14.00">statement</text>
</g>
<!-- definition&#45;&gt;definition.statement -->
<g id="edge7" class="edge">
<title>definition&#45;&gt;definition.statement</title>
<path fill="none" stroke="black" d="M173.92,-234C185.97,-234 199.74,-234 212.6,-234"/>
<polygon fill="black" stroke="black" points="212.56,-237.5 222.56,-234 212.56,-230.5 212.56,-237.5"/>
</g>
</g>
</svg>
