<?xml version="1.0" encoding="UTF-8" standalone="no"?>
<!DOCTYPE svg PUBLIC "-//W3C//DTD SVG 1.1//EN"
 "http://www.w3.org/Graphics/SVG/1.1/DTD/svg11.dtd">
<!-- Generated by graphviz version 12.0.0 (20240704.0754)
 -->
<!-- Title: G Pages: 1 -->
<svg width="944pt" height="2433pt"
 viewBox="0.00 0.00 226.50 584.00" xmlns="http://www.w3.org/2000/svg" xmlns:xlink="http://www.w3.org/1999/xlink">
<g id="graph0" class="graph" transform="scale(4.16667 4.16667) rotate(0) translate(4 580)">
<title>G</title>
<polygon fill="white" stroke="none" points="-4,4 -4,-580 222.5,-580 222.5,4 -4,4"/>
<!-- 8053bd4b&#45;f36b&#45;497a&#45;bd18&#45;16b8f0ae25ee -->
<g id="node1" class="node">
<title>8053bd4b&#45;f36b&#45;497a&#45;bd18&#45;16b8f0ae25ee</title>
<polygon fill="none" stroke="black" points="54,-306 0,-306 0,-270 54,-270 54,-306"/>
<text text-anchor="middle" x="27" y="-282.95" font-family="Times,serif" font-size="14.00">.</text>
</g>
<!-- created -->
<g id="node2" class="node">
<title>created</title>
<polygon fill="none" stroke="black" points="181.75,-576 126.75,-576 126.75,-540 181.75,-540 181.75,-576"/>
<text text-anchor="middle" x="154.25" y="-552.95" font-family="Times,serif" font-size="14.00">created</text>
</g>
<!-- 8053bd4b&#45;f36b&#45;497a&#45;bd18&#45;16b8f0ae25ee&#45;&gt;created -->
<g id="edge1" class="edge">
<title>8053bd4b&#45;f36b&#45;497a&#45;bd18&#45;16b8f0ae25ee&#45;&gt;created</title>
<path fill="none" stroke="black" d="M27.48,-306.3C27.2,-350.41 32.48,-463.89 90,-531 96.77,-538.9 106.27,-544.56 115.85,-548.57"/>
<polygon fill="black" stroke="black" points="114.54,-551.82 125.13,-551.93 116.92,-545.24 114.54,-551.82"/>
</g>
<!-- created_by_ref -->
<g id="node3" class="node">
<title>created_by_ref</title>
<polygon fill="none" stroke="black" points="202.75,-522 105.75,-522 105.75,-486 202.75,-486 202.75,-522"/>
<text text-anchor="middle" x="154.25" y="-498.95" font-family="Times,serif" font-size="14.00">created_by_ref</text>
</g>
<!-- 8053bd4b&#45;f36b&#45;497a&#45;bd18&#45;16b8f0ae25ee&#45;&gt;created_by_ref -->
<g id="edge2" class="edge">
<title>8053bd4b&#45;f36b&#45;497a&#45;bd18&#45;16b8f0ae25ee&#45;&gt;created_by_ref</title>
<path fill="none" stroke="black" d="M29.11,-306.34C32.27,-343.26 44.37,-427.24 90,-477 91.91,-479.08 94,-481 96.23,-482.79"/>
<polygon fill="black" stroke="black" points="93.89,-485.43 104.14,-488.13 97.81,-479.63 93.89,-485.43"/>
</g>
<!-- id -->
<g id="node4" class="node">
<title>id</title>
<polygon fill="none" stroke="black" points="181.25,-468 127.25,-468 127.25,-432 181.25,-432 181.25,-468"/>
<text text-anchor="middle" x="154.25" y="-444.95" font-family="Times,serif" font-size="14.00">id</text>
</g>
<!-- 8053bd4b&#45;f36b&#45;497a&#45;bd18&#45;16b8f0ae25ee&#45;&gt;id -->
<g id="edge3" class="edge">
<title>8053bd4b&#45;f36b&#45;497a&#45;bd18&#45;16b8f0ae25ee&#45;&gt;id</title>
<path fill="none" stroke="black" d="M31.88,-306.17C38.84,-334.64 55.99,-389.9 90,-423 97.4,-430.2 107.01,-435.62 116.5,-439.63"/>
<polygon fill="black" stroke="black" points="115.03,-442.82 125.63,-443.06 117.5,-436.27 115.03,-442.82"/>
</g>
<!-- modified -->
<g id="node5" class="node">
<title>modified</title>
<polygon fill="none" stroke="black" points="187,-414 121.5,-414 121.5,-378 187,-378 187,-414"/>
<text text-anchor="middle" x="154.25" y="-390.95" font-family="Times,serif" font-size="14.00">modified</text>
</g>
<!-- 8053bd4b&#45;f36b&#45;497a&#45;bd18&#45;16b8f0ae25ee&#45;&gt;modified -->
<g id="edge4" class="edge">
<title>8053bd4b&#45;f36b&#45;497a&#45;bd18&#45;16b8f0ae25ee&#45;&gt;modified</title>
<path fill="none" stroke="black" d="M38.18,-306.3C49,-324.32 67.62,-351.62 90,-369 96.28,-373.88 103.57,-378.05 110.93,-381.54"/>
<polygon fill="black" stroke="black" points="109.32,-384.66 119.88,-385.44 112.11,-378.24 109.32,-384.66"/>
</g>
<!-- object_marking_refs -->
<g id="node6" class="node">
<title>object_marking_refs</title>
<polygon fill="none" stroke="black" points="218.5,-360 90,-360 90,-324 218.5,-324 218.5,-360"/>
<text text-anchor="middle" x="154.25" y="-336.95" font-family="Times,serif" font-size="14.00">object_marking_refs</text>
</g>
<!-- 8053bd4b&#45;f36b&#45;497a&#45;bd18&#45;16b8f0ae25ee&#45;&gt;object_marking_refs -->
<g id="edge5" class="edge">
<title>8053bd4b&#45;f36b&#45;497a&#45;bd18&#45;16b8f0ae25ee&#45;&gt;object_marking_refs</title>
<path fill="none" stroke="black" d="M54.23,-299.47C65.26,-304.29 78.25,-309.93 90,-315 93.13,-316.35 96.36,-317.74 99.61,-319.13"/>
<polygon fill="black" stroke="black" points="98.06,-322.28 108.63,-323 100.82,-315.84 98.06,-322.28"/>
</g>
<!-- relationship_type -->
<g id="node7" class="node">
<title>relationship_type</title>
<polygon fill="none" stroke="black" points="209.12,-306 99.38,-306 99.38,-270 209.12,-270 209.12,-306"/>
<text text-anchor="middle" x="154.25" y="-282.95" font-family="Times,serif" font-size="14.00">relationship_type</text>
</g>
<!-- 8053bd4b&#45;f36b&#45;497a&#45;bd18&#45;16b8f0ae25ee&#45;&gt;relationship_type -->
<g id="edge6" class="edge">
<title>8053bd4b&#45;f36b&#45;497a&#45;bd18&#45;16b8f0ae25ee&#45;&gt;relationship_type</title>
<path fill="none" stroke="black" d="M54.26,-288C64.1,-288 75.77,-288 87.58,-288"/>
<polygon fill="black" stroke="black" points="87.39,-291.5 97.39,-288 87.39,-284.5 87.39,-291.5"/>
</g>
<!-- source_ref -->
<g id="node8" class="node">
<title>source_ref</title>
<polygon fill="none" stroke="black" points="190.75,-252 117.75,-252 117.75,-216 190.75,-216 190.75,-252"/>
<text text-anchor="middle" x="154.25" y="-228.95" font-family="Times,serif" font-size="14.00">source_ref</text>
</g>
<!-- 8053bd4b&#45;f36b&#45;497a&#45;bd18&#45;16b8f0ae25ee&#45;&gt;source_ref -->
<g id="edge7" class="edge">
<title>8053bd4b&#45;f36b&#45;497a&#45;bd18&#45;16b8f0ae25ee&#45;&gt;source_ref</title>
<path fill="none" stroke="black" d="M54.23,-276.53C65.26,-271.71 78.25,-266.07 90,-261 95.55,-258.61 101.38,-256.1 107.16,-253.63"/>
<polygon fill="black" stroke="black" points="108.23,-256.98 116.05,-249.83 105.48,-250.54 108.23,-256.98"/>
</g>
<!-- spec_version -->
<g id="node9" class="node">
<title>spec_version</title>
<polygon fill="none" stroke="black" points="197.5,-198 111,-198 111,-162 197.5,-162 197.5,-198"/>
<text text-anchor="middle" x="154.25" y="-174.95" font-family="Times,serif" font-size="14.00">spec_version</text>
</g>
<!-- 8053bd4b&#45;f36b&#45;497a&#45;bd18&#45;16b8f0ae25ee&#45;&gt;spec_version -->
<g id="edge8" class="edge">
<title>8053bd4b&#45;f36b&#45;497a&#45;bd18&#45;16b8f0ae25ee&#45;&gt;spec_version</title>
<path fill="none" stroke="black" d="M38.18,-269.7C49,-251.68 67.62,-224.38 90,-207 93.31,-204.43 96.89,-202.06 100.62,-199.88"/>
<polygon fill="black" stroke="black" points="102.18,-203.02 109.39,-195.26 98.91,-196.83 102.18,-203.02"/>
</g>
<!-- target_ref -->
<g id="node10" class="node">
<title>target_ref</title>
<polygon fill="none" stroke="black" points="188.5,-144 120,-144 120,-108 188.5,-108 188.5,-144"/>
<text text-anchor="middle" x="154.25" y="-120.95" font-family="Times,serif" font-size="14.00">target_ref</text>
</g>
<!-- 8053bd4b&#45;f36b&#45;497a&#45;bd18&#45;16b8f0ae25ee&#45;&gt;target_ref -->
<g id="edge9" class="edge">
<title>8053bd4b&#45;f36b&#45;497a&#45;bd18&#45;16b8f0ae25ee&#45;&gt;target_ref</title>
<path fill="none" stroke="black" d="M31.88,-269.83C38.84,-241.36 55.99,-186.1 90,-153 95.52,-147.63 102.27,-143.25 109.29,-139.7"/>
<polygon fill="black" stroke="black" points="110.55,-142.97 118.26,-135.71 107.7,-136.58 110.55,-142.97"/>
</g>
<!-- type -->
<g id="node11" class="node">
<title>type</title>
<polygon fill="none" stroke="black" points="181.25,-90 127.25,-90 127.25,-54 181.25,-54 181.25,-90"/>
<text text-anchor="middle" x="154.25" y="-66.95" font-family="Times,serif" font-size="14.00">type</text>
</g>
<!-- 8053bd4b&#45;f36b&#45;497a&#45;bd18&#45;16b8f0ae25ee&#45;&gt;type -->
<g id="edge10" class="edge">
<title>8053bd4b&#45;f36b&#45;497a&#45;bd18&#45;16b8f0ae25ee&#45;&gt;type</title>
<path fill="none" stroke="black" d="M29.11,-269.66C32.27,-232.74 44.37,-148.76 90,-99 97.04,-91.33 106.62,-85.75 116.19,-81.73"/>
<polygon fill="black" stroke="black" points="117.25,-85.07 125.44,-78.34 114.85,-78.49 117.25,-85.07"/>
</g>
<!-- x_capec_version -->
<g id="node12" class="node">
<title>x_capec_version</title>
<polygon fill="none" stroke="black" points="207.62,-36 100.88,-36 100.88,0 207.62,0 207.62,-36"/>
<text text-anchor="middle" x="154.25" y="-12.95" font-family="Times,serif" font-size="14.00">x_capec_version</text>
</g>
<!-- 8053bd4b&#45;f36b&#45;497a&#45;bd18&#45;16b8f0ae25ee&#45;&gt;x_capec_version -->
<g id="edge11" class="edge">
<title>8053bd4b&#45;f36b&#45;497a&#45;bd18&#45;16b8f0ae25ee&#45;&gt;x_capec_version</title>
<path fill="none" stroke="black" d="M27.48,-269.7C27.2,-225.59 32.48,-112.11 90,-45 90.57,-44.34 91.16,-43.69 91.76,-43.06"/>
<polygon fill="black" stroke="black" points="93.95,-45.79 99.33,-36.67 89.43,-40.44 93.95,-45.79"/>
</g>
</g>
</svg>
