<?xml version="1.0" encoding="UTF-8" standalone="no"?>
<!DOCTYPE svg PUBLIC "-//W3C//DTD SVG 1.1//EN"
 "http://www.w3.org/Graphics/SVG/1.1/DTD/svg11.dtd">
<!-- Generated by graphviz version 12.0.0 (20240704.0754)
 -->
<!-- Title: G Pages: 1 -->
<svg width="1022pt" height="971pt"
 viewBox="0.00 0.00 245.25 233.00" xmlns="http://www.w3.org/2000/svg" xmlns:xlink="http://www.w3.org/1999/xlink">
<g id="graph0" class="graph" transform="scale(4.16667 4.16667) rotate(0) translate(4 229)">
<title>G</title>
<polygon fill="white" stroke="none" points="-4,4 -4,-229 241.25,-229 241.25,4 -4,4"/>
<!-- 02f19f67&#45;78ac&#45;4eab&#45;a713&#45;3c89ca061a0c -->
<g id="node1" class="node">
<title>02f19f67&#45;78ac&#45;4eab&#45;a713&#45;3c89ca061a0c</title>
<polygon fill="none" stroke="black" points="54,-117 0,-117 0,-81 54,-81 54,-117"/>
<text text-anchor="middle" x="27" y="-93.95" font-family="Times,serif" font-size="14.00">.</text>
</g>
<!-- action -->
<g id="node2" class="node">
<title>action</title>
<polygon fill="none" stroke="black" points="144,-198 90,-198 90,-162 144,-162 144,-198"/>
<text text-anchor="middle" x="117" y="-174.95" font-family="Times,serif" font-size="14.00">action</text>
</g>
<!-- 02f19f67&#45;78ac&#45;4eab&#45;a713&#45;3c89ca061a0c&#45;&gt;action -->
<g id="edge1" class="edge">
<title>02f19f67&#45;78ac&#45;4eab&#45;a713&#45;3c89ca061a0c&#45;&gt;action</title>
<path fill="none" stroke="black" d="M47.97,-117.38C59.78,-128.25 74.93,-142.2 87.93,-154.17"/>
<polygon fill="black" stroke="black" points="85.27,-156.47 95,-160.67 90.01,-151.32 85.27,-156.47"/>
</g>
<!-- id -->
<g id="node5" class="node">
<title>id</title>
<polygon fill="none" stroke="black" points="144,-144 90,-144 90,-108 144,-108 144,-144"/>
<text text-anchor="middle" x="117" y="-120.95" font-family="Times,serif" font-size="14.00">id</text>
</g>
<!-- 02f19f67&#45;78ac&#45;4eab&#45;a713&#45;3c89ca061a0c&#45;&gt;id -->
<g id="edge2" class="edge">
<title>02f19f67&#45;78ac&#45;4eab&#45;a713&#45;3c89ca061a0c&#45;&gt;id</title>
<path fill="none" stroke="black" d="M54.4,-107.1C62.06,-109.45 70.57,-112.06 78.76,-114.57"/>
<polygon fill="black" stroke="black" points="77.58,-117.87 88.17,-117.46 79.64,-111.18 77.58,-117.87"/>
</g>
<!-- name -->
<g id="node6" class="node">
<title>name</title>
<polygon fill="none" stroke="black" points="144,-90 90,-90 90,-54 144,-54 144,-90"/>
<text text-anchor="middle" x="117" y="-66.95" font-family="Times,serif" font-size="14.00">name</text>
</g>
<!-- 02f19f67&#45;78ac&#45;4eab&#45;a713&#45;3c89ca061a0c&#45;&gt;name -->
<g id="edge3" class="edge">
<title>02f19f67&#45;78ac&#45;4eab&#45;a713&#45;3c89ca061a0c&#45;&gt;name</title>
<path fill="none" stroke="black" d="M54.4,-90.9C62.06,-88.55 70.57,-85.94 78.76,-83.43"/>
<polygon fill="black" stroke="black" points="79.64,-86.82 88.17,-80.54 77.58,-80.13 79.64,-86.82"/>
</g>
<!-- type -->
<g id="node7" class="node">
<title>type</title>
<polygon fill="none" stroke="black" points="144,-36 90,-36 90,0 144,0 144,-36"/>
<text text-anchor="middle" x="117" y="-12.95" font-family="Times,serif" font-size="14.00">type</text>
</g>
<!-- 02f19f67&#45;78ac&#45;4eab&#45;a713&#45;3c89ca061a0c&#45;&gt;type -->
<g id="edge4" class="edge">
<title>02f19f67&#45;78ac&#45;4eab&#45;a713&#45;3c89ca061a0c&#45;&gt;type</title>
<path fill="none" stroke="black" d="M47.97,-80.62C59.78,-69.75 74.93,-55.8 87.93,-43.83"/>
<polygon fill="black" stroke="black" points="90.01,-46.68 95,-37.33 85.27,-41.53 90.01,-46.68"/>
</g>
<!-- action.type -->
<g id="node3" class="node">
<title>action.type</title>
<polygon fill="none" stroke="black" points="235.62,-225 181.62,-225 181.62,-189 235.62,-189 235.62,-225"/>
<text text-anchor="middle" x="208.62" y="-201.95" font-family="Times,serif" font-size="14.00">type</text>
</g>
<!-- action&#45;&gt;action.type -->
<g id="edge5" class="edge">
<title>action&#45;&gt;action.type</title>
<path fill="none" stroke="black" d="M144.41,-187.95C152.61,-190.43 161.81,-193.2 170.6,-195.85"/>
<polygon fill="black" stroke="black" points="169.37,-199.13 179.96,-198.67 171.39,-192.43 169.37,-199.13"/>
</g>
<!-- action.volume -->
<g id="node4" class="node">
<title>action.volume</title>
<polygon fill="none" stroke="black" points="237.25,-171 180,-171 180,-135 237.25,-135 237.25,-171"/>
<text text-anchor="middle" x="208.62" y="-147.95" font-family="Times,serif" font-size="14.00">volume</text>
</g>
<!-- action&#45;&gt;action.volume -->
<g id="edge6" class="edge">
<title>action&#45;&gt;action.volume</title>
<path fill="none" stroke="black" d="M144.41,-172.05C152,-169.76 160.45,-167.21 168.64,-164.74"/>
<polygon fill="black" stroke="black" points="169.52,-168.13 178.09,-161.9 167.5,-161.43 169.52,-168.13"/>
</g>
</g>
</svg>
