<?xml version="1.0" encoding="UTF-8" standalone="no"?>
<!DOCTYPE svg PUBLIC "-//W3C//DTD SVG 1.1//EN"
 "http://www.w3.org/Graphics/SVG/1.1/DTD/svg11.dtd">
<!-- Generated by graphviz version 12.0.0 (20240704.0754)
 -->
<!-- Title: G Pages: 1 -->
<svg width="1852pt" height="858pt"
 viewBox="0.00 0.00 444.50 206.00" xmlns="http://www.w3.org/2000/svg" xmlns:xlink="http://www.w3.org/1999/xlink">
<g id="graph0" class="graph" transform="scale(4.16667 4.16667) rotate(0) translate(4 202)">
<title>G</title>
<polygon fill="white" stroke="none" points="-4,4 -4,-202 440.5,-202 440.5,4 -4,4"/>
<!-- 47f10867&#45;8425&#45;4db3&#45;8069&#45;d1a3631d7622 -->
<g id="node1" class="node">
<title>47f10867&#45;8425&#45;4db3&#45;8069&#45;d1a3631d7622</title>
<polygon fill="none" stroke="black" points="54,-90 0,-90 0,-54 54,-54 54,-90"/>
<text text-anchor="middle" x="27" y="-66.95" font-family="Times,serif" font-size="14.00">.</text>
</g>
<!-- dependencies[] -->
<g id="node2" class="node">
<title>dependencies[]</title>
<polygon fill="none" stroke="black" points="187.75,-144 90,-144 90,-108 187.75,-108 187.75,-144"/>
<text text-anchor="middle" x="138.88" y="-120.95" font-family="Times,serif" font-size="14.00">dependencies[]</text>
</g>
<!-- 47f10867&#45;8425&#45;4db3&#45;8069&#45;d1a3631d7622&#45;&gt;dependencies[] -->
<g id="edge1" class="edge">
<title>47f10867&#45;8425&#45;4db3&#45;8069&#45;d1a3631d7622&#45;&gt;dependencies[]</title>
<path fill="none" stroke="black" d="M54.32,-84.93C65.13,-90.25 78,-96.57 90.35,-102.64"/>
<polygon fill="black" stroke="black" points="88.68,-105.72 99.19,-106.99 91.76,-99.44 88.68,-105.72"/>
</g>
<!-- name -->
<g id="node8" class="node">
<title>name</title>
<polygon fill="none" stroke="black" points="165.88,-90 111.88,-90 111.88,-54 165.88,-54 165.88,-90"/>
<text text-anchor="middle" x="138.88" y="-66.95" font-family="Times,serif" font-size="14.00">name</text>
</g>
<!-- 47f10867&#45;8425&#45;4db3&#45;8069&#45;d1a3631d7622&#45;&gt;name -->
<g id="edge2" class="edge">
<title>47f10867&#45;8425&#45;4db3&#45;8069&#45;d1a3631d7622&#45;&gt;name</title>
<path fill="none" stroke="black" d="M54.32,-72C68.08,-72 85.16,-72 100.29,-72"/>
<polygon fill="black" stroke="black" points="99.88,-75.5 109.88,-72 99.88,-68.5 99.88,-75.5"/>
</g>
<!-- type -->
<g id="node9" class="node">
<title>type</title>
<polygon fill="none" stroke="black" points="165.88,-36 111.88,-36 111.88,0 165.88,0 165.88,-36"/>
<text text-anchor="middle" x="138.88" y="-12.95" font-family="Times,serif" font-size="14.00">type</text>
</g>
<!-- 47f10867&#45;8425&#45;4db3&#45;8069&#45;d1a3631d7622&#45;&gt;type -->
<g id="edge3" class="edge">
<title>47f10867&#45;8425&#45;4db3&#45;8069&#45;d1a3631d7622&#45;&gt;type</title>
<path fill="none" stroke="black" d="M54.32,-59.07C68.35,-52.17 85.83,-43.58 101.18,-36.03"/>
<polygon fill="black" stroke="black" points="102.6,-39.24 110.03,-31.68 99.51,-32.95 102.6,-39.24"/>
</g>
<!-- dependencies[].id -->
<g id="node3" class="node">
<title>dependencies[].id</title>
<polygon fill="none" stroke="black" points="285.75,-198 231.75,-198 231.75,-162 285.75,-162 285.75,-198"/>
<text text-anchor="middle" x="258.75" y="-174.95" font-family="Times,serif" font-size="14.00">id</text>
</g>
<!-- dependencies[]&#45;&gt;dependencies[].id -->
<g id="edge4" class="edge">
<title>dependencies[]&#45;&gt;dependencies[].id</title>
<path fill="none" stroke="black" d="M180.11,-144.43C193.35,-150.5 207.98,-157.2 220.95,-163.14"/>
<polygon fill="black" stroke="black" points="219.46,-166.31 230,-167.29 222.37,-159.94 219.46,-166.31"/>
</g>
<!-- dependencies[].kill_chain -->
<g id="node4" class="node">
<title>dependencies[].kill_chain</title>
<polygon fill="none" stroke="black" points="293.75,-144 223.75,-144 223.75,-108 293.75,-108 293.75,-144"/>
<text text-anchor="middle" x="258.75" y="-120.95" font-family="Times,serif" font-size="14.00">kill_chain</text>
</g>
<!-- dependencies[]&#45;&gt;dependencies[].kill_chain -->
<g id="edge5" class="edge">
<title>dependencies[]&#45;&gt;dependencies[].kill_chain</title>
<path fill="none" stroke="black" d="M188.16,-126C196.01,-126 204.13,-126 211.92,-126"/>
<polygon fill="black" stroke="black" points="211.91,-129.5 221.91,-126 211.91,-122.5 211.91,-129.5"/>
</g>
<!-- dependencies[].name -->
<g id="node7" class="node">
<title>dependencies[].name</title>
<polygon fill="none" stroke="black" points="285.75,-90 231.75,-90 231.75,-54 285.75,-54 285.75,-90"/>
<text text-anchor="middle" x="258.75" y="-66.95" font-family="Times,serif" font-size="14.00">name</text>
</g>
<!-- dependencies[]&#45;&gt;dependencies[].name -->
<g id="edge6" class="edge">
<title>dependencies[]&#45;&gt;dependencies[].name</title>
<path fill="none" stroke="black" d="M180.11,-107.57C193.35,-101.5 207.98,-94.8 220.95,-88.86"/>
<polygon fill="black" stroke="black" points="222.37,-92.06 230,-84.71 219.46,-85.69 222.37,-92.06"/>
</g>
<!-- dependencies[].kill_chain.kill_chain_name -->
<g id="node5" class="node">
<title>dependencies[].kill_chain.kill_chain_name</title>
<polygon fill="none" stroke="black" points="436.5,-171 329.75,-171 329.75,-135 436.5,-135 436.5,-171"/>
<text text-anchor="middle" x="383.12" y="-147.95" font-family="Times,serif" font-size="14.00">kill_chain_name</text>
</g>
<!-- dependencies[].kill_chain&#45;&gt;dependencies[].kill_chain.kill_chain_name -->
<g id="edge7" class="edge">
<title>dependencies[].kill_chain&#45;&gt;dependencies[].kill_chain.kill_chain_name</title>
<path fill="none" stroke="black" d="M294.16,-133.59C301.83,-135.28 310.2,-137.13 318.62,-138.99"/>
<polygon fill="black" stroke="black" points="317.68,-142.37 328.2,-141.1 319.19,-135.53 317.68,-142.37"/>
</g>
<!-- dependencies[].kill_chain.phase_name -->
<g id="node6" class="node">
<title>dependencies[].kill_chain.phase_name</title>
<polygon fill="none" stroke="black" points="424.88,-117 341.38,-117 341.38,-81 424.88,-81 424.88,-117"/>
<text text-anchor="middle" x="383.12" y="-93.95" font-family="Times,serif" font-size="14.00">phase_name</text>
</g>
<!-- dependencies[].kill_chain&#45;&gt;dependencies[].kill_chain.phase_name -->
<g id="edge8" class="edge">
<title>dependencies[].kill_chain&#45;&gt;dependencies[].kill_chain.phase_name</title>
<path fill="none" stroke="black" d="M294.16,-118.41C305.31,-115.95 317.94,-113.16 330.08,-110.48"/>
<polygon fill="black" stroke="black" points="330.54,-113.97 339.55,-108.39 329.03,-107.13 330.54,-113.97"/>
</g>
</g>
</svg>
