<?xml version="1.0" encoding="UTF-8" standalone="no"?>
<!DOCTYPE svg PUBLIC "-//W3C//DTD SVG 1.1//EN"
 "http://www.w3.org/Graphics/SVG/1.1/DTD/svg11.dtd">
<!-- Generated by graphviz version 12.0.0 (20240704.0754)
 -->
<!-- Title: G Pages: 1 -->
<svg width="778pt" height="408pt"
 viewBox="0.00 0.00 186.75 98.00" xmlns="http://www.w3.org/2000/svg" xmlns:xlink="http://www.w3.org/1999/xlink">
<g id="graph0" class="graph" transform="scale(4.16667 4.16667) rotate(0) translate(4 94)">
<title>G</title>
<polygon fill="white" stroke="none" points="-4,4 -4,-94 182.75,-94 182.75,4 -4,4"/>
<!-- f7621639&#45;6b76&#45;46c6&#45;8e8c&#45;0d1fb05f968e -->
<g id="node1" class="node">
<title>f7621639&#45;6b76&#45;46c6&#45;8e8c&#45;0d1fb05f968e</title>
<polygon fill="none" stroke="black" points="54,-63 0,-63 0,-27 54,-27 54,-63"/>
<text text-anchor="middle" x="27" y="-39.95" font-family="Times,serif" font-size="14.00">.</text>
</g>
<!-- dependencies -->
<g id="node2" class="node">
<title>dependencies</title>
<polygon fill="none" stroke="black" points="178.75,-90 90,-90 90,-54 178.75,-54 178.75,-90"/>
<text text-anchor="middle" x="134.38" y="-66.95" font-family="Times,serif" font-size="14.00">dependencies</text>
</g>
<!-- f7621639&#45;6b76&#45;46c6&#45;8e8c&#45;0d1fb05f968e&#45;&gt;dependencies -->
<g id="edge1" class="edge">
<title>f7621639&#45;6b76&#45;46c6&#45;8e8c&#45;0d1fb05f968e&#45;&gt;dependencies</title>
<path fill="none" stroke="black" d="M54.32,-51.74C61.78,-53.66 70.19,-55.81 78.67,-57.98"/>
<polygon fill="black" stroke="black" points="77.76,-61.36 88.32,-60.45 79.5,-54.58 77.76,-61.36"/>
</g>
<!-- type -->
<g id="node3" class="node">
<title>type</title>
<polygon fill="none" stroke="black" points="161.38,-36 107.38,-36 107.38,0 161.38,0 161.38,-36"/>
<text text-anchor="middle" x="134.38" y="-12.95" font-family="Times,serif" font-size="14.00">type</text>
</g>
<!-- f7621639&#45;6b76&#45;46c6&#45;8e8c&#45;0d1fb05f968e&#45;&gt;type -->
<g id="edge2" class="edge">
<title>f7621639&#45;6b76&#45;46c6&#45;8e8c&#45;0d1fb05f968e&#45;&gt;type</title>
<path fill="none" stroke="black" d="M54.32,-38.26C66.89,-35.03 82.16,-31.12 95.92,-27.6"/>
<polygon fill="black" stroke="black" points="96.74,-31 105.56,-25.13 95,-24.22 96.74,-31"/>
</g>
</g>
</svg>
