<?xml version="1.0" encoding="UTF-8" standalone="no"?>
<!DOCTYPE svg PUBLIC "-//W3C//DTD SVG 1.1//EN"
 "http://www.w3.org/Graphics/SVG/1.1/DTD/svg11.dtd">
<!-- Generated by graphviz version 12.0.0 (20240704.0754)
 -->
<!-- Title: G Pages: 1 -->
<svg width="2897pt" height="6258pt"
 viewBox="0.00 0.00 695.25 1502.00" xmlns="http://www.w3.org/2000/svg" xmlns:xlink="http://www.w3.org/1999/xlink">
<g id="graph0" class="graph" transform="scale(4.16667 4.16667) rotate(0) translate(4 1498)">
<title>G</title>
<polygon fill="white" stroke="none" points="-4,4 -4,-1498 691.25,-1498 691.25,4 -4,4"/>
<!-- a0623730&#45;ac00&#45;4245&#45;8d57&#45;4579dba097f1 -->
<g id="node1" class="node">
<title>a0623730&#45;ac00&#45;4245&#45;8d57&#45;4579dba097f1</title>
<polygon fill="none" stroke="black" points="54,-1170 0,-1170 0,-1134 54,-1134 54,-1170"/>
<text text-anchor="middle" x="27" y="-1146.95" font-family="Times,serif" font-size="14.00">.</text>
</g>
<!-- atomic_tests[] -->
<g id="node2" class="node">
<title>atomic_tests[]</title>
<polygon fill="none" stroke="black" points="190.38,-1224 97.12,-1224 97.12,-1188 190.38,-1188 190.38,-1224"/>
<text text-anchor="middle" x="143.75" y="-1200.95" font-family="Times,serif" font-size="14.00">atomic_tests[]</text>
</g>
<!-- a0623730&#45;ac00&#45;4245&#45;8d57&#45;4579dba097f1&#45;&gt;atomic_tests[] -->
<g id="edge1" class="edge">
<title>a0623730&#45;ac00&#45;4245&#45;8d57&#45;4579dba097f1&#45;&gt;atomic_tests[]</title>
<path fill="none" stroke="black" d="M54.33,-1164.39C65.93,-1169.85 79.95,-1176.45 93.38,-1182.77"/>
<polygon fill="black" stroke="black" points="91.57,-1185.78 102.11,-1186.87 94.55,-1179.45 91.57,-1185.78"/>
</g>
<!-- attack_technique -->
<g id="node51" class="node">
<title>attack_technique</title>
<polygon fill="none" stroke="black" points="197.5,-1170 90,-1170 90,-1134 197.5,-1134 197.5,-1170"/>
<text text-anchor="middle" x="143.75" y="-1146.95" font-family="Times,serif" font-size="14.00">attack_technique</text>
</g>
<!-- a0623730&#45;ac00&#45;4245&#45;8d57&#45;4579dba097f1&#45;&gt;attack_technique -->
<g id="edge2" class="edge">
<title>a0623730&#45;ac00&#45;4245&#45;8d57&#45;4579dba097f1&#45;&gt;attack_technique</title>
<path fill="none" stroke="black" d="M54.33,-1152C61.69,-1152 70.02,-1152 78.57,-1152"/>
<polygon fill="black" stroke="black" points="78.33,-1155.5 88.33,-1152 78.33,-1148.5 78.33,-1155.5"/>
</g>
<!-- display_name -->
<g id="node52" class="node">
<title>display_name</title>
<polygon fill="none" stroke="black" points="189.62,-1116 97.88,-1116 97.88,-1080 189.62,-1080 189.62,-1116"/>
<text text-anchor="middle" x="143.75" y="-1092.95" font-family="Times,serif" font-size="14.00">display_name</text>
</g>
<!-- a0623730&#45;ac00&#45;4245&#45;8d57&#45;4579dba097f1&#45;&gt;display_name -->
<g id="edge3" class="edge">
<title>a0623730&#45;ac00&#45;4245&#45;8d57&#45;4579dba097f1&#45;&gt;display_name</title>
<path fill="none" stroke="black" d="M54.33,-1139.61C65.93,-1134.15 79.95,-1127.55 93.38,-1121.23"/>
<polygon fill="black" stroke="black" points="94.55,-1124.55 102.11,-1117.13 91.57,-1118.22 94.55,-1124.55"/>
</g>
<!-- atomic_tests[].auto_generated_guid -->
<g id="node3" class="node">
<title>atomic_tests[].auto_generated_guid</title>
<polygon fill="none" stroke="black" points="383.38,-1440 254.12,-1440 254.12,-1404 383.38,-1404 383.38,-1440"/>
<text text-anchor="middle" x="318.75" y="-1416.95" font-family="Times,serif" font-size="14.00">auto_generated_guid</text>
</g>
<!-- atomic_tests[]&#45;&gt;atomic_tests[].auto_generated_guid -->
<g id="edge4" class="edge">
<title>atomic_tests[]&#45;&gt;atomic_tests[].auto_generated_guid</title>
<path fill="none" stroke="black" d="M148.23,-1224.26C156.34,-1261.79 179.99,-1347.98 233.5,-1395 236.69,-1397.8 240.17,-1400.31 243.84,-1402.56"/>
<polygon fill="black" stroke="black" points="242.14,-1405.62 252.61,-1407.22 245.42,-1399.44 242.14,-1405.62"/>
</g>
<!-- atomic_tests[].dependencies[] -->
<g id="node4" class="node">
<title>atomic_tests[].dependencies[]</title>
<polygon fill="none" stroke="black" points="367.62,-1386 269.88,-1386 269.88,-1350 367.62,-1350 367.62,-1386"/>
<text text-anchor="middle" x="318.75" y="-1362.95" font-family="Times,serif" font-size="14.00">dependencies[]</text>
</g>
<!-- atomic_tests[]&#45;&gt;atomic_tests[].dependencies[] -->
<g id="edge5" class="edge">
<title>atomic_tests[]&#45;&gt;atomic_tests[].dependencies[]</title>
<path fill="none" stroke="black" d="M157.07,-1224.3C172.96,-1247.05 202.3,-1286.27 233.5,-1314 245.83,-1324.96 260.61,-1335.22 274.31,-1343.79"/>
<polygon fill="black" stroke="black" points="272.4,-1346.72 282.77,-1348.93 276.04,-1340.74 272.4,-1346.72"/>
</g>
<!-- atomic_tests[].dependency_executor_name -->
<g id="node8" class="node">
<title>atomic_tests[].dependency_executor_name</title>
<polygon fill="none" stroke="black" points="404,-1305 233.5,-1305 233.5,-1269 404,-1269 404,-1305"/>
<text text-anchor="middle" x="318.75" y="-1281.95" font-family="Times,serif" font-size="14.00">dependency_executor_name</text>
</g>
<!-- atomic_tests[]&#45;&gt;atomic_tests[].dependency_executor_name -->
<g id="edge6" class="edge">
<title>atomic_tests[]&#45;&gt;atomic_tests[].dependency_executor_name</title>
<path fill="none" stroke="black" d="M171.03,-1224.26C188.23,-1235.64 211.52,-1249.96 233.5,-1260 236.85,-1261.53 240.32,-1263.01 243.84,-1264.44"/>
<polygon fill="black" stroke="black" points="242.55,-1267.69 253.14,-1268.01 245.07,-1261.16 242.55,-1267.69"/>
</g>
<!-- atomic_tests[].description -->
<g id="node9" class="node">
<title>atomic_tests[].description</title>
<polygon fill="none" stroke="black" points="356.75,-1251 280.75,-1251 280.75,-1215 356.75,-1215 356.75,-1251"/>
<text text-anchor="middle" x="318.75" y="-1227.95" font-family="Times,serif" font-size="14.00">description</text>
</g>
<!-- atomic_tests[]&#45;&gt;atomic_tests[].description -->
<g id="edge7" class="edge">
<title>atomic_tests[]&#45;&gt;atomic_tests[].description</title>
<path fill="none" stroke="black" d="M190.66,-1213.16C214.85,-1216.94 244.53,-1221.57 269.12,-1225.41"/>
<polygon fill="black" stroke="black" points="268.46,-1228.85 278.88,-1226.93 269.54,-1221.93 268.46,-1228.85"/>
</g>
<!-- atomic_tests[].executor -->
<g id="node10" class="node">
<title>atomic_tests[].executor</title>
<polygon fill="none" stroke="black" points="350,-1197 287.5,-1197 287.5,-1161 350,-1161 350,-1197"/>
<text text-anchor="middle" x="318.75" y="-1173.95" font-family="Times,serif" font-size="14.00">executor</text>
</g>
<!-- atomic_tests[]&#45;&gt;atomic_tests[].executor -->
<g id="edge8" class="edge">
<title>atomic_tests[]&#45;&gt;atomic_tests[].executor</title>
<path fill="none" stroke="black" d="M190.66,-1198.84C217.13,-1194.7 250.17,-1189.55 275.93,-1185.53"/>
<polygon fill="black" stroke="black" points="276.36,-1189 285.7,-1184 275.28,-1182.09 276.36,-1189"/>
</g>
<!-- atomic_tests[].input_arguments -->
<g id="node16" class="node">
<title>atomic_tests[].input_arguments</title>
<polygon fill="none" stroke="black" points="372.5,-900 265,-900 265,-864 372.5,-864 372.5,-900"/>
<text text-anchor="middle" x="318.75" y="-876.95" font-family="Times,serif" font-size="14.00">input_arguments</text>
</g>
<!-- atomic_tests[]&#45;&gt;atomic_tests[].input_arguments -->
<g id="edge9" class="edge">
<title>atomic_tests[]&#45;&gt;atomic_tests[].input_arguments</title>
<path fill="none" stroke="black" d="M187.59,-1187.62C191.2,-1185.06 194.58,-1182.19 197.5,-1179 270.44,-1099.32 301.91,-969.63 312.86,-911.65"/>
<polygon fill="black" stroke="black" points="316.29,-912.36 314.62,-901.9 309.4,-911.11 316.29,-912.36"/>
</g>
<!-- atomic_tests[].name -->
<g id="node49" class="node">
<title>atomic_tests[].name</title>
<polygon fill="none" stroke="black" points="345.75,-846 291.75,-846 291.75,-810 345.75,-810 345.75,-846"/>
<text text-anchor="middle" x="318.75" y="-822.95" font-family="Times,serif" font-size="14.00">name</text>
</g>
<!-- atomic_tests[]&#45;&gt;atomic_tests[].name -->
<g id="edge10" class="edge">
<title>atomic_tests[]&#45;&gt;atomic_tests[].name</title>
<path fill="none" stroke="black" d="M189.53,-1187.61C192.56,-1185.07 195.28,-1182.22 197.5,-1179 279.81,-1059.76 141.76,-967.14 233.5,-855 244.88,-841.09 263.45,-834.26 280.27,-830.93"/>
<polygon fill="black" stroke="black" points="280.7,-834.41 290.03,-829.39 279.6,-827.5 280.7,-834.41"/>
</g>
<!-- atomic_tests[].supported_platforms -->
<g id="node50" class="node">
<title>atomic_tests[].supported_platforms</title>
<polygon fill="none" stroke="black" points="383,-792 254.5,-792 254.5,-756 383,-756 383,-792"/>
<text text-anchor="middle" x="318.75" y="-768.95" font-family="Times,serif" font-size="14.00">supported_platforms</text>
</g>
<!-- atomic_tests[]&#45;&gt;atomic_tests[].supported_platforms -->
<g id="edge11" class="edge">
<title>atomic_tests[]&#45;&gt;atomic_tests[].supported_platforms</title>
<path fill="none" stroke="black" d="M189.58,-1187.65C192.6,-1185.1 195.3,-1182.23 197.5,-1179 244.89,-1109.18 180.59,-866.73 233.5,-801 236.59,-797.16 240.22,-793.87 244.22,-791.03"/>
<polygon fill="black" stroke="black" points="245.97,-794.07 252.82,-785.98 242.42,-788.03 245.97,-794.07"/>
</g>
<!-- atomic_tests[].dependencies[].description -->
<g id="node5" class="node">
<title>atomic_tests[].dependencies[].description</title>
<polygon fill="none" stroke="black" points="545.62,-1494 469.62,-1494 469.62,-1458 545.62,-1458 545.62,-1494"/>
<text text-anchor="middle" x="507.62" y="-1470.95" font-family="Times,serif" font-size="14.00">description</text>
</g>
<!-- atomic_tests[].dependencies[]&#45;&gt;atomic_tests[].dependencies[].description -->
<g id="edge12" class="edge">
<title>atomic_tests[].dependencies[]&#45;&gt;atomic_tests[].dependencies[].description</title>
<path fill="none" stroke="black" d="M367.92,-1377.38C380.49,-1381.39 393.46,-1387.04 404,-1395 427.02,-1412.37 417.64,-1430.78 440,-1449 445.59,-1453.55 452.04,-1457.43 458.69,-1460.7"/>
<polygon fill="black" stroke="black" points="457.26,-1463.89 467.82,-1464.73 460.09,-1457.49 457.26,-1463.89"/>
</g>
<!-- atomic_tests[].dependencies[].get_prereq_command -->
<g id="node6" class="node">
<title>atomic_tests[].dependencies[].get_prereq_command</title>
<polygon fill="none" stroke="black" points="575.25,-1440 440,-1440 440,-1404 575.25,-1404 575.25,-1440"/>
<text text-anchor="middle" x="507.62" y="-1416.95" font-family="Times,serif" font-size="14.00">get_prereq_command</text>
</g>
<!-- atomic_tests[].dependencies[]&#45;&gt;atomic_tests[].dependencies[].get_prereq_command -->
<g id="edge13" class="edge">
<title>atomic_tests[].dependencies[]&#45;&gt;atomic_tests[].dependencies[].get_prereq_command</title>
<path fill="none" stroke="black" d="M367.87,-1381.91C387.4,-1387.55 410.4,-1394.19 432,-1400.44"/>
<polygon fill="black" stroke="black" points="430.77,-1403.72 441.35,-1403.14 432.72,-1397 430.77,-1403.72"/>
</g>
<!-- atomic_tests[].dependencies[].prereq_command -->
<g id="node7" class="node">
<title>atomic_tests[].dependencies[].prereq_command</title>
<polygon fill="none" stroke="black" points="563.62,-1386 451.62,-1386 451.62,-1350 563.62,-1350 563.62,-1386"/>
<text text-anchor="middle" x="507.62" y="-1362.95" font-family="Times,serif" font-size="14.00">prereq_command</text>
</g>
<!-- atomic_tests[].dependencies[]&#45;&gt;atomic_tests[].dependencies[].prereq_command -->
<g id="edge14" class="edge">
<title>atomic_tests[].dependencies[]&#45;&gt;atomic_tests[].dependencies[].prereq_command</title>
<path fill="none" stroke="black" d="M367.87,-1368C389.81,-1368 416.14,-1368 439.94,-1368"/>
<polygon fill="black" stroke="black" points="439.87,-1371.5 449.87,-1368 439.87,-1364.5 439.87,-1371.5"/>
</g>
<!-- atomic_tests[].executor.cleanup_command -->
<g id="node11" class="node">
<title>atomic_tests[].executor.cleanup_command</title>
<polygon fill="none" stroke="black" points="567.38,-1332 447.88,-1332 447.88,-1296 567.38,-1296 567.38,-1332"/>
<text text-anchor="middle" x="507.62" y="-1308.95" font-family="Times,serif" font-size="14.00">cleanup_command</text>
</g>
<!-- atomic_tests[].executor&#45;&gt;atomic_tests[].executor.cleanup_command -->
<g id="edge15" class="edge">
<title>atomic_tests[].executor&#45;&gt;atomic_tests[].executor.cleanup_command</title>
<path fill="none" stroke="black" d="M350.49,-1182.57C367.98,-1186.01 389.25,-1192.77 404,-1206 433.32,-1232.31 411.68,-1259.61 440,-1287 440.62,-1287.6 441.26,-1288.19 441.91,-1288.77"/>
<polygon fill="black" stroke="black" points="439.73,-1291.51 449.85,-1294.67 443.91,-1285.9 439.73,-1291.51"/>
</g>
<!-- atomic_tests[].executor.command -->
<g id="node12" class="node">
<title>atomic_tests[].executor.command</title>
<polygon fill="none" stroke="black" points="543,-1278 472.25,-1278 472.25,-1242 543,-1242 543,-1278"/>
<text text-anchor="middle" x="507.62" y="-1254.95" font-family="Times,serif" font-size="14.00">command</text>
</g>
<!-- atomic_tests[].executor&#45;&gt;atomic_tests[].executor.command -->
<g id="edge16" class="edge">
<title>atomic_tests[].executor&#45;&gt;atomic_tests[].executor.command</title>
<path fill="none" stroke="black" d="M350.35,-1186.16C366.78,-1190.65 387.08,-1197.26 404,-1206 421.77,-1215.18 422.59,-1223.16 440,-1233 446.72,-1236.79 454.07,-1240.33 461.37,-1243.51"/>
<polygon fill="black" stroke="black" points="459.96,-1246.72 470.54,-1247.33 462.65,-1240.25 459.96,-1246.72"/>
</g>
<!-- atomic_tests[].executor.elevation_required -->
<g id="node13" class="node">
<title>atomic_tests[].executor.elevation_required</title>
<polygon fill="none" stroke="black" points="566.25,-1224 449,-1224 449,-1188 566.25,-1188 566.25,-1224"/>
<text text-anchor="middle" x="507.62" y="-1200.95" font-family="Times,serif" font-size="14.00">elevation_required</text>
</g>
<!-- atomic_tests[].executor&#45;&gt;atomic_tests[].executor.elevation_required -->
<g id="edge17" class="edge">
<title>atomic_tests[].executor&#45;&gt;atomic_tests[].executor.elevation_required</title>
<path fill="none" stroke="black" d="M350.19,-1183.4C373.76,-1186.8 407.34,-1191.65 437.35,-1195.99"/>
<polygon fill="black" stroke="black" points="436.75,-1199.44 447.15,-1197.41 437.75,-1192.51 436.75,-1199.44"/>
</g>
<!-- atomic_tests[].executor.name -->
<g id="node14" class="node">
<title>atomic_tests[].executor.name</title>
<polygon fill="none" stroke="black" points="534.62,-1170 480.62,-1170 480.62,-1134 534.62,-1134 534.62,-1170"/>
<text text-anchor="middle" x="507.62" y="-1146.95" font-family="Times,serif" font-size="14.00">name</text>
</g>
<!-- atomic_tests[].executor&#45;&gt;atomic_tests[].executor.name -->
<g id="edge18" class="edge">
<title>atomic_tests[].executor&#45;&gt;atomic_tests[].executor.name</title>
<path fill="none" stroke="black" d="M350.19,-1174.6C382.62,-1169.92 434,-1162.49 468.96,-1157.44"/>
<polygon fill="black" stroke="black" points="469.24,-1160.94 478.63,-1156.04 468.23,-1154.01 469.24,-1160.94"/>
</g>
<!-- atomic_tests[].executor.steps -->
<g id="node15" class="node">
<title>atomic_tests[].executor.steps</title>
<polygon fill="none" stroke="black" points="534.62,-1116 480.62,-1116 480.62,-1080 534.62,-1080 534.62,-1116"/>
<text text-anchor="middle" x="507.62" y="-1092.95" font-family="Times,serif" font-size="14.00">steps</text>
</g>
<!-- atomic_tests[].executor&#45;&gt;atomic_tests[].executor.steps -->
<g id="edge19" class="edge">
<title>atomic_tests[].executor&#45;&gt;atomic_tests[].executor.steps</title>
<path fill="none" stroke="black" d="M350.26,-1164.93C374.48,-1153.84 409.27,-1138.12 440,-1125 449.59,-1120.91 460.02,-1116.61 469.71,-1112.67"/>
<polygon fill="black" stroke="black" points="470.9,-1115.97 478.86,-1108.99 468.28,-1109.48 470.9,-1115.97"/>
</g>
<!-- atomic_tests[].input_arguments.dumpert_exe -->
<g id="node17" class="node">
<title>atomic_tests[].input_arguments.dumpert_exe</title>
<polygon fill="none" stroke="black" points="551.25,-1062 464,-1062 464,-1026 551.25,-1026 551.25,-1062"/>
<text text-anchor="middle" x="507.62" y="-1038.95" font-family="Times,serif" font-size="14.00">dumpert_exe</text>
</g>
<!-- atomic_tests[].input_arguments&#45;&gt;atomic_tests[].input_arguments.dumpert_exe -->
<g id="edge20" class="edge">
<title>atomic_tests[].input_arguments&#45;&gt;atomic_tests[].input_arguments.dumpert_exe</title>
<path fill="none" stroke="black" d="M331.73,-900.13C351.33,-928.54 392.8,-983.72 440,-1017 444.13,-1019.91 448.62,-1022.58 453.25,-1025"/>
<polygon fill="black" stroke="black" points="451.63,-1028.11 462.16,-1029.27 454.66,-1021.79 451.63,-1028.11"/>
</g>
<!-- atomic_tests[].input_arguments.input_file -->
<g id="node21" class="node">
<title>atomic_tests[].input_arguments.input_file</title>
<polygon fill="none" stroke="black" points="541.88,-1008 473.38,-1008 473.38,-972 541.88,-972 541.88,-1008"/>
<text text-anchor="middle" x="507.62" y="-984.95" font-family="Times,serif" font-size="14.00">input_file</text>
</g>
<!-- atomic_tests[].input_arguments&#45;&gt;atomic_tests[].input_arguments.input_file -->
<g id="edge21" class="edge">
<title>atomic_tests[].input_arguments&#45;&gt;atomic_tests[].input_arguments.input_file</title>
<path fill="none" stroke="black" d="M351.45,-900.32C382.73,-918.4 430.71,-946.13 465.03,-965.96"/>
<polygon fill="black" stroke="black" points="463.05,-968.86 473.46,-970.83 466.55,-962.8 463.05,-968.86"/>
</g>
<!-- atomic_tests[].input_arguments.mimikatz_exe -->
<g id="node25" class="node">
<title>atomic_tests[].input_arguments.mimikatz_exe</title>
<polygon fill="none" stroke="black" points="554.62,-900 460.62,-900 460.62,-864 554.62,-864 554.62,-900"/>
<text text-anchor="middle" x="507.62" y="-876.95" font-family="Times,serif" font-size="14.00">mimikatz_exe</text>
</g>
<!-- atomic_tests[].input_arguments&#45;&gt;atomic_tests[].input_arguments.mimikatz_exe -->
<g id="edge22" class="edge">
<title>atomic_tests[].input_arguments&#45;&gt;atomic_tests[].input_arguments.mimikatz_exe</title>
<path fill="none" stroke="black" d="M372.8,-882C396.65,-882 424.84,-882 449.19,-882"/>
<polygon fill="black" stroke="black" points="448.92,-885.5 458.92,-882 448.92,-878.5 448.92,-885.5"/>
</g>
<!-- atomic_tests[].input_arguments.output_file -->
<g id="node29" class="node">
<title>atomic_tests[].input_arguments.output_file</title>
<polygon fill="none" stroke="black" points="545.25,-765 470,-765 470,-729 545.25,-729 545.25,-765"/>
<text text-anchor="middle" x="507.62" y="-741.95" font-family="Times,serif" font-size="14.00">output_file</text>
</g>
<!-- atomic_tests[].input_arguments&#45;&gt;atomic_tests[].input_arguments.output_file -->
<g id="edge23" class="edge">
<title>atomic_tests[].input_arguments&#45;&gt;atomic_tests[].input_arguments.output_file</title>
<path fill="none" stroke="black" d="M372.8,-869.47C383.57,-865.72 394.5,-860.96 404,-855 437.84,-833.76 468.22,-798.82 486.98,-774.45"/>
<polygon fill="black" stroke="black" points="489.69,-776.67 492.91,-766.58 484.1,-772.46 489.69,-776.67"/>
</g>
<!-- atomic_tests[].input_arguments.output_folder -->
<g id="node33" class="node">
<title>atomic_tests[].input_arguments.output_folder</title>
<polygon fill="none" stroke="black" points="552.38,-603 462.88,-603 462.88,-567 552.38,-567 552.38,-603"/>
<text text-anchor="middle" x="507.62" y="-579.95" font-family="Times,serif" font-size="14.00">output_folder</text>
</g>
<!-- atomic_tests[].input_arguments&#45;&gt;atomic_tests[].input_arguments.output_folder -->
<g id="edge24" class="edge">
<title>atomic_tests[].input_arguments&#45;&gt;atomic_tests[].input_arguments.output_folder</title>
<path fill="none" stroke="black" d="M372.89,-873.73C384.41,-869.73 395.64,-863.79 404,-855 446.81,-810.02 418.15,-778.13 440,-720 454.37,-681.77 476.02,-639.91 490.71,-613.1"/>
<polygon fill="black" stroke="black" points="493.64,-615.03 495.42,-604.59 487.52,-611.64 493.64,-615.03"/>
</g>
<!-- atomic_tests[].input_arguments.procdump_exe -->
<g id="node37" class="node">
<title>atomic_tests[].input_arguments.procdump_exe</title>
<polygon fill="none" stroke="black" points="556.12,-441 459.12,-441 459.12,-405 556.12,-405 556.12,-441"/>
<text text-anchor="middle" x="507.62" y="-417.95" font-family="Times,serif" font-size="14.00">procdump_exe</text>
</g>
<!-- atomic_tests[].input_arguments&#45;&gt;atomic_tests[].input_arguments.procdump_exe -->
<g id="edge25" class="edge">
<title>atomic_tests[].input_arguments&#45;&gt;atomic_tests[].input_arguments.procdump_exe</title>
<path fill="none" stroke="black" d="M372.92,-874.84C384.73,-870.81 396.07,-864.59 404,-855 446.35,-803.75 421.02,-621.72 440,-558 451.59,-519.08 473.66,-477.67 489.21,-451.14"/>
<polygon fill="black" stroke="black" points="492.13,-453.08 494.24,-442.7 486.12,-449.49 492.13,-453.08"/>
</g>
<!-- atomic_tests[].input_arguments.remote_script -->
<g id="node41" class="node">
<title>atomic_tests[].input_arguments.remote_script</title>
<polygon fill="none" stroke="black" points="553.12,-279 462.12,-279 462.12,-243 553.12,-243 553.12,-279"/>
<text text-anchor="middle" x="507.62" y="-255.95" font-family="Times,serif" font-size="14.00">remote_script</text>
</g>
<!-- atomic_tests[].input_arguments&#45;&gt;atomic_tests[].input_arguments.remote_script -->
<g id="edge26" class="edge">
<title>atomic_tests[].input_arguments&#45;&gt;atomic_tests[].input_arguments.remote_script</title>
<path fill="none" stroke="black" d="M372.77,-875.22C384.73,-871.2 396.18,-864.88 404,-855 467.49,-774.77 412.87,-494.65 440,-396 450.77,-356.84 473.01,-315.49 488.83,-289.03"/>
<polygon fill="black" stroke="black" points="491.74,-290.97 493.96,-280.61 485.76,-287.33 491.74,-290.97"/>
</g>
<!-- atomic_tests[].input_arguments.xordump_exe -->
<g id="node45" class="node">
<title>atomic_tests[].input_arguments.xordump_exe</title>
<polygon fill="none" stroke="black" points="553.12,-117 462.12,-117 462.12,-81 553.12,-81 553.12,-117"/>
<text text-anchor="middle" x="507.62" y="-93.95" font-family="Times,serif" font-size="14.00">xordump_exe</text>
</g>
<!-- atomic_tests[].input_arguments&#45;&gt;atomic_tests[].input_arguments.xordump_exe -->
<g id="edge27" class="edge">
<title>atomic_tests[].input_arguments&#45;&gt;atomic_tests[].input_arguments.xordump_exe</title>
<path fill="none" stroke="black" d="M372.91,-875.33C384.87,-871.3 396.29,-864.96 404,-855 446.34,-800.37 422.35,-300.83 440,-234 450.37,-194.74 472.69,-153.4 488.64,-126.98"/>
<polygon fill="black" stroke="black" points="491.56,-128.92 493.82,-118.57 485.6,-125.25 491.56,-128.92"/>
</g>
<!-- atomic_tests[].input_arguments.dumpert_exe.default -->
<g id="node18" class="node">
<title>atomic_tests[].input_arguments.dumpert_exe.default</title>
<polygon fill="none" stroke="black" points="676.25,-1278 622.25,-1278 622.25,-1242 676.25,-1242 676.25,-1278"/>
<text text-anchor="middle" x="649.25" y="-1254.95" font-family="Times,serif" font-size="14.00">default</text>
</g>
<!-- atomic_tests[].input_arguments.dumpert_exe&#45;&gt;atomic_tests[].input_arguments.dumpert_exe.default -->
<g id="edge28" class="edge">
<title>atomic_tests[].input_arguments.dumpert_exe&#45;&gt;atomic_tests[].input_arguments.dumpert_exe.default</title>
<path fill="none" stroke="black" d="M551.69,-1054.38C560.54,-1058.3 569.04,-1063.66 575.25,-1071 622.89,-1127.31 570.86,-1171.29 611.25,-1233 612.15,-1234.37 613.14,-1235.7 614.21,-1236.98"/>
<polygon fill="black" stroke="black" points="611.44,-1239.16 621.03,-1243.66 616.33,-1234.16 611.44,-1239.16"/>
</g>
<!-- atomic_tests[].input_arguments.dumpert_exe.description -->
<g id="node19" class="node">
<title>atomic_tests[].input_arguments.dumpert_exe.description</title>
<polygon fill="none" stroke="black" points="687.25,-1224 611.25,-1224 611.25,-1188 687.25,-1188 687.25,-1224"/>
<text text-anchor="middle" x="649.25" y="-1200.95" font-family="Times,serif" font-size="14.00">description</text>
</g>
<!-- atomic_tests[].input_arguments.dumpert_exe&#45;&gt;atomic_tests[].input_arguments.dumpert_exe.description -->
<g id="edge29" class="edge">
<title>atomic_tests[].input_arguments.dumpert_exe&#45;&gt;atomic_tests[].input_arguments.dumpert_exe.description</title>
<path fill="none" stroke="black" d="M551.49,-1055.02C560.25,-1058.89 568.76,-1064.08 575.25,-1071 609.88,-1107.89 581.4,-1138.15 611.25,-1179 611.32,-1179.1 611.39,-1179.19 611.46,-1179.29"/>
<polygon fill="black" stroke="black" points="608.75,-1181.51 618.1,-1186.48 613.89,-1176.76 608.75,-1181.51"/>
</g>
<!-- atomic_tests[].input_arguments.dumpert_exe.type -->
<g id="node20" class="node">
<title>atomic_tests[].input_arguments.dumpert_exe.type</title>
<polygon fill="none" stroke="black" points="676.25,-1170 622.25,-1170 622.25,-1134 676.25,-1134 676.25,-1170"/>
<text text-anchor="middle" x="649.25" y="-1146.95" font-family="Times,serif" font-size="14.00">type</text>
</g>
<!-- atomic_tests[].input_arguments.dumpert_exe&#45;&gt;atomic_tests[].input_arguments.dumpert_exe.type -->
<g id="edge30" class="edge">
<title>atomic_tests[].input_arguments.dumpert_exe&#45;&gt;atomic_tests[].input_arguments.dumpert_exe.type</title>
<path fill="none" stroke="black" d="M551.61,-1056.99C559.97,-1060.7 568.28,-1065.32 575.25,-1071 597.61,-1089.22 591.29,-1104.18 611.25,-1125 611.95,-1125.73 612.67,-1126.45 613.41,-1127.17"/>
<polygon fill="black" stroke="black" points="610.84,-1129.57 620.67,-1133.51 615.44,-1124.3 610.84,-1129.57"/>
</g>
<!-- atomic_tests[].input_arguments.input_file.default -->
<g id="node22" class="node">
<title>atomic_tests[].input_arguments.input_file.default</title>
<polygon fill="none" stroke="black" points="676.25,-1116 622.25,-1116 622.25,-1080 676.25,-1080 676.25,-1116"/>
<text text-anchor="middle" x="649.25" y="-1092.95" font-family="Times,serif" font-size="14.00">default</text>
</g>
<!-- atomic_tests[].input_arguments.input_file&#45;&gt;atomic_tests[].input_arguments.input_file.default -->
<g id="edge31" class="edge">
<title>atomic_tests[].input_arguments.input_file&#45;&gt;atomic_tests[].input_arguments.input_file.default</title>
<path fill="none" stroke="black" d="M542.26,-999.2C553.54,-1003.39 565.67,-1009.19 575.25,-1017 597.61,-1035.22 591.29,-1050.18 611.25,-1071 611.95,-1071.73 612.67,-1072.45 613.41,-1073.17"/>
<polygon fill="black" stroke="black" points="610.84,-1075.57 620.67,-1079.51 615.44,-1070.3 610.84,-1075.57"/>
</g>
<!-- atomic_tests[].input_arguments.input_file.description -->
<g id="node23" class="node">
<title>atomic_tests[].input_arguments.input_file.description</title>
<polygon fill="none" stroke="black" points="687.25,-1062 611.25,-1062 611.25,-1026 687.25,-1026 687.25,-1062"/>
<text text-anchor="middle" x="649.25" y="-1038.95" font-family="Times,serif" font-size="14.00">description</text>
</g>
<!-- atomic_tests[].input_arguments.input_file&#45;&gt;atomic_tests[].input_arguments.input_file.description -->
<g id="edge32" class="edge">
<title>atomic_tests[].input_arguments.input_file&#45;&gt;atomic_tests[].input_arguments.input_file.description</title>
<path fill="none" stroke="black" d="M542.07,-1002.93C559.55,-1009.7 581.25,-1018.09 600.47,-1025.52"/>
<polygon fill="black" stroke="black" points="599.15,-1028.76 609.74,-1029.11 601.67,-1022.23 599.15,-1028.76"/>
</g>
<!-- atomic_tests[].input_arguments.input_file.type -->
<g id="node24" class="node">
<title>atomic_tests[].input_arguments.input_file.type</title>
<polygon fill="none" stroke="black" points="676.25,-1008 622.25,-1008 622.25,-972 676.25,-972 676.25,-1008"/>
<text text-anchor="middle" x="649.25" y="-984.95" font-family="Times,serif" font-size="14.00">type</text>
</g>
<!-- atomic_tests[].input_arguments.input_file&#45;&gt;atomic_tests[].input_arguments.input_file.type -->
<g id="edge33" class="edge">
<title>atomic_tests[].input_arguments.input_file&#45;&gt;atomic_tests[].input_arguments.input_file.type</title>
<path fill="none" stroke="black" d="M542.07,-990C562.76,-990 589.37,-990 610.77,-990"/>
<polygon fill="black" stroke="black" points="610.55,-993.5 620.55,-990 610.55,-986.5 610.55,-993.5"/>
</g>
<!-- atomic_tests[].input_arguments.mimikatz_exe.default -->
<g id="node26" class="node">
<title>atomic_tests[].input_arguments.mimikatz_exe.default</title>
<polygon fill="none" stroke="black" points="676.25,-954 622.25,-954 622.25,-918 676.25,-918 676.25,-954"/>
<text text-anchor="middle" x="649.25" y="-930.95" font-family="Times,serif" font-size="14.00">default</text>
</g>
<!-- atomic_tests[].input_arguments.mimikatz_exe&#45;&gt;atomic_tests[].input_arguments.mimikatz_exe.default -->
<g id="edge34" class="edge">
<title>atomic_tests[].input_arguments.mimikatz_exe&#45;&gt;atomic_tests[].input_arguments.mimikatz_exe.default</title>
<path fill="none" stroke="black" d="M555.12,-899.98C573.51,-907.1 594.35,-915.15 611.64,-921.84"/>
<polygon fill="black" stroke="black" points="609.89,-924.92 620.48,-925.26 612.42,-918.39 609.89,-924.92"/>
</g>
<!-- atomic_tests[].input_arguments.mimikatz_exe.description -->
<g id="node27" class="node">
<title>atomic_tests[].input_arguments.mimikatz_exe.description</title>
<polygon fill="none" stroke="black" points="687.25,-900 611.25,-900 611.25,-864 687.25,-864 687.25,-900"/>
<text text-anchor="middle" x="649.25" y="-876.95" font-family="Times,serif" font-size="14.00">description</text>
</g>
<!-- atomic_tests[].input_arguments.mimikatz_exe&#45;&gt;atomic_tests[].input_arguments.mimikatz_exe.description -->
<g id="edge35" class="edge">
<title>atomic_tests[].input_arguments.mimikatz_exe&#45;&gt;atomic_tests[].input_arguments.mimikatz_exe.description</title>
<path fill="none" stroke="black" d="M555.12,-882C569.39,-882 585.13,-882 599.55,-882"/>
<polygon fill="black" stroke="black" points="599.26,-885.5 609.26,-882 599.26,-878.5 599.26,-885.5"/>
</g>
<!-- atomic_tests[].input_arguments.mimikatz_exe.type -->
<g id="node28" class="node">
<title>atomic_tests[].input_arguments.mimikatz_exe.type</title>
<polygon fill="none" stroke="black" points="676.25,-846 622.25,-846 622.25,-810 676.25,-810 676.25,-846"/>
<text text-anchor="middle" x="649.25" y="-822.95" font-family="Times,serif" font-size="14.00">type</text>
</g>
<!-- atomic_tests[].input_arguments.mimikatz_exe&#45;&gt;atomic_tests[].input_arguments.mimikatz_exe.type -->
<g id="edge36" class="edge">
<title>atomic_tests[].input_arguments.mimikatz_exe&#45;&gt;atomic_tests[].input_arguments.mimikatz_exe.type</title>
<path fill="none" stroke="black" d="M555.12,-864.02C573.51,-856.9 594.35,-848.85 611.64,-842.16"/>
<polygon fill="black" stroke="black" points="612.42,-845.61 620.48,-838.74 609.89,-839.08 612.42,-845.61"/>
</g>
<!-- atomic_tests[].input_arguments.output_file.default -->
<g id="node30" class="node">
<title>atomic_tests[].input_arguments.output_file.default</title>
<polygon fill="none" stroke="black" points="676.25,-792 622.25,-792 622.25,-756 676.25,-756 676.25,-792"/>
<text text-anchor="middle" x="649.25" y="-768.95" font-family="Times,serif" font-size="14.00">default</text>
</g>
<!-- atomic_tests[].input_arguments.output_file&#45;&gt;atomic_tests[].input_arguments.output_file.default -->
<g id="edge37" class="edge">
<title>atomic_tests[].input_arguments.output_file&#45;&gt;atomic_tests[].input_arguments.output_file.default</title>
<path fill="none" stroke="black" d="M545.68,-754.16C565.8,-758.06 590.62,-762.86 610.81,-766.76"/>
<polygon fill="black" stroke="black" points="610.12,-770.19 620.6,-768.65 611.45,-763.32 610.12,-770.19"/>
</g>
<!-- atomic_tests[].input_arguments.output_file.description -->
<g id="node31" class="node">
<title>atomic_tests[].input_arguments.output_file.description</title>
<polygon fill="none" stroke="black" points="687.25,-738 611.25,-738 611.25,-702 687.25,-702 687.25,-738"/>
<text text-anchor="middle" x="649.25" y="-714.95" font-family="Times,serif" font-size="14.00">description</text>
</g>
<!-- atomic_tests[].input_arguments.output_file&#45;&gt;atomic_tests[].input_arguments.output_file.description -->
<g id="edge38" class="edge">
<title>atomic_tests[].input_arguments.output_file&#45;&gt;atomic_tests[].input_arguments.output_file.description</title>
<path fill="none" stroke="black" d="M545.68,-739.84C562.24,-736.63 582,-732.81 599.72,-729.38"/>
<polygon fill="black" stroke="black" points="600.39,-732.82 609.54,-727.49 599.06,-725.95 600.39,-732.82"/>
</g>
<!-- atomic_tests[].input_arguments.output_file.type -->
<g id="node32" class="node">
<title>atomic_tests[].input_arguments.output_file.type</title>
<polygon fill="none" stroke="black" points="676.25,-684 622.25,-684 622.25,-648 676.25,-648 676.25,-684"/>
<text text-anchor="middle" x="649.25" y="-660.95" font-family="Times,serif" font-size="14.00">type</text>
</g>
<!-- atomic_tests[].input_arguments.output_file&#45;&gt;atomic_tests[].input_arguments.output_file.type -->
<g id="edge39" class="edge">
<title>atomic_tests[].input_arguments.output_file&#45;&gt;atomic_tests[].input_arguments.output_file.type</title>
<path fill="none" stroke="black" d="M540.31,-728.62C561.66,-716.23 589.87,-699.87 612.1,-686.97"/>
<polygon fill="black" stroke="black" points="613.64,-690.12 620.54,-682.08 610.13,-684.07 613.64,-690.12"/>
</g>
<!-- atomic_tests[].input_arguments.output_folder.default -->
<g id="node34" class="node">
<title>atomic_tests[].input_arguments.output_folder.default</title>
<polygon fill="none" stroke="black" points="676.25,-630 622.25,-630 622.25,-594 676.25,-594 676.25,-630"/>
<text text-anchor="middle" x="649.25" y="-606.95" font-family="Times,serif" font-size="14.00">default</text>
</g>
<!-- atomic_tests[].input_arguments.output_folder&#45;&gt;atomic_tests[].input_arguments.output_folder.default -->
<g id="edge40" class="edge">
<title>atomic_tests[].input_arguments.output_folder&#45;&gt;atomic_tests[].input_arguments.output_folder.default</title>
<path fill="none" stroke="black" d="M552.8,-593.54C571.42,-597.14 592.85,-601.29 610.69,-604.74"/>
<polygon fill="black" stroke="black" points="609.85,-608.14 620.34,-606.6 611.18,-601.27 609.85,-608.14"/>
</g>
<!-- atomic_tests[].input_arguments.output_folder.description -->
<g id="node35" class="node">
<title>atomic_tests[].input_arguments.output_folder.description</title>
<polygon fill="none" stroke="black" points="687.25,-576 611.25,-576 611.25,-540 687.25,-540 687.25,-576"/>
<text text-anchor="middle" x="649.25" y="-552.95" font-family="Times,serif" font-size="14.00">description</text>
</g>
<!-- atomic_tests[].input_arguments.output_folder&#45;&gt;atomic_tests[].input_arguments.output_folder.description -->
<g id="edge41" class="edge">
<title>atomic_tests[].input_arguments.output_folder&#45;&gt;atomic_tests[].input_arguments.output_folder.description</title>
<path fill="none" stroke="black" d="M552.8,-576.46C567.7,-573.58 584.41,-570.35 599.63,-567.4"/>
<polygon fill="black" stroke="black" points="600.29,-570.84 609.44,-565.51 598.96,-563.97 600.29,-570.84"/>
</g>
<!-- atomic_tests[].input_arguments.output_folder.type -->
<g id="node36" class="node">
<title>atomic_tests[].input_arguments.output_folder.type</title>
<polygon fill="none" stroke="black" points="676.25,-522 622.25,-522 622.25,-486 676.25,-486 676.25,-522"/>
<text text-anchor="middle" x="649.25" y="-498.95" font-family="Times,serif" font-size="14.00">type</text>
</g>
<!-- atomic_tests[].input_arguments.output_folder&#45;&gt;atomic_tests[].input_arguments.output_folder.type -->
<g id="edge42" class="edge">
<title>atomic_tests[].input_arguments.output_folder&#45;&gt;atomic_tests[].input_arguments.output_folder.type</title>
<path fill="none" stroke="black" d="M540.31,-566.62C561.66,-554.23 589.87,-537.87 612.1,-524.97"/>
<polygon fill="black" stroke="black" points="613.64,-528.12 620.54,-520.08 610.13,-522.07 613.64,-528.12"/>
</g>
<!-- atomic_tests[].input_arguments.procdump_exe.default -->
<g id="node38" class="node">
<title>atomic_tests[].input_arguments.procdump_exe.default</title>
<polygon fill="none" stroke="black" points="676.25,-468 622.25,-468 622.25,-432 676.25,-432 676.25,-468"/>
<text text-anchor="middle" x="649.25" y="-444.95" font-family="Times,serif" font-size="14.00">default</text>
</g>
<!-- atomic_tests[].input_arguments.procdump_exe&#45;&gt;atomic_tests[].input_arguments.procdump_exe.default -->
<g id="edge43" class="edge">
<title>atomic_tests[].input_arguments.procdump_exe&#45;&gt;atomic_tests[].input_arguments.procdump_exe.default</title>
<path fill="none" stroke="black" d="M556.29,-432.22C574.13,-435.67 594.13,-439.53 610.91,-442.78"/>
<polygon fill="black" stroke="black" points="609.97,-446.16 620.46,-444.63 611.3,-439.29 609.97,-446.16"/>
</g>
<!-- atomic_tests[].input_arguments.procdump_exe.description -->
<g id="node39" class="node">
<title>atomic_tests[].input_arguments.procdump_exe.description</title>
<polygon fill="none" stroke="black" points="687.25,-414 611.25,-414 611.25,-378 687.25,-378 687.25,-414"/>
<text text-anchor="middle" x="649.25" y="-390.95" font-family="Times,serif" font-size="14.00">description</text>
</g>
<!-- atomic_tests[].input_arguments.procdump_exe&#45;&gt;atomic_tests[].input_arguments.procdump_exe.description -->
<g id="edge44" class="edge">
<title>atomic_tests[].input_arguments.procdump_exe&#45;&gt;atomic_tests[].input_arguments.procdump_exe.description</title>
<path fill="none" stroke="black" d="M556.29,-413.78C570.37,-411.06 585.8,-408.08 599.93,-405.34"/>
<polygon fill="black" stroke="black" points="600.3,-408.84 609.45,-403.5 598.97,-401.97 600.3,-408.84"/>
</g>
<!-- atomic_tests[].input_arguments.procdump_exe.type -->
<g id="node40" class="node">
<title>atomic_tests[].input_arguments.procdump_exe.type</title>
<polygon fill="none" stroke="black" points="676.25,-360 622.25,-360 622.25,-324 676.25,-324 676.25,-360"/>
<text text-anchor="middle" x="649.25" y="-336.95" font-family="Times,serif" font-size="14.00">type</text>
</g>
<!-- atomic_tests[].input_arguments.procdump_exe&#45;&gt;atomic_tests[].input_arguments.procdump_exe.type -->
<g id="edge45" class="edge">
<title>atomic_tests[].input_arguments.procdump_exe&#45;&gt;atomic_tests[].input_arguments.procdump_exe.type</title>
<path fill="none" stroke="black" d="M540.31,-404.62C561.66,-392.23 589.87,-375.87 612.1,-362.97"/>
<polygon fill="black" stroke="black" points="613.64,-366.12 620.54,-358.08 610.13,-360.07 613.64,-366.12"/>
</g>
<!-- atomic_tests[].input_arguments.remote_script.default -->
<g id="node42" class="node">
<title>atomic_tests[].input_arguments.remote_script.default</title>
<polygon fill="none" stroke="black" points="676.25,-306 622.25,-306 622.25,-270 676.25,-270 676.25,-306"/>
<text text-anchor="middle" x="649.25" y="-282.95" font-family="Times,serif" font-size="14.00">default</text>
</g>
<!-- atomic_tests[].input_arguments.remote_script&#45;&gt;atomic_tests[].input_arguments.remote_script.default -->
<g id="edge46" class="edge">
<title>atomic_tests[].input_arguments.remote_script&#45;&gt;atomic_tests[].input_arguments.remote_script.default</title>
<path fill="none" stroke="black" d="M553.57,-269.69C572.06,-273.27 593.21,-277.36 610.84,-280.76"/>
<polygon fill="black" stroke="black" points="610.15,-284.2 620.63,-282.66 611.48,-277.32 610.15,-284.2"/>
</g>
<!-- atomic_tests[].input_arguments.remote_script.description -->
<g id="node43" class="node">
<title>atomic_tests[].input_arguments.remote_script.description</title>
<polygon fill="none" stroke="black" points="687.25,-252 611.25,-252 611.25,-216 687.25,-216 687.25,-252"/>
<text text-anchor="middle" x="649.25" y="-228.95" font-family="Times,serif" font-size="14.00">description</text>
</g>
<!-- atomic_tests[].input_arguments.remote_script&#45;&gt;atomic_tests[].input_arguments.remote_script.description -->
<g id="edge47" class="edge">
<title>atomic_tests[].input_arguments.remote_script&#45;&gt;atomic_tests[].input_arguments.remote_script.description</title>
<path fill="none" stroke="black" d="M553.57,-252.31C568.31,-249.46 584.75,-246.28 599.74,-243.38"/>
<polygon fill="black" stroke="black" points="600.23,-246.85 609.38,-241.52 598.9,-239.98 600.23,-246.85"/>
</g>
<!-- atomic_tests[].input_arguments.remote_script.type -->
<g id="node44" class="node">
<title>atomic_tests[].input_arguments.remote_script.type</title>
<polygon fill="none" stroke="black" points="676.25,-198 622.25,-198 622.25,-162 676.25,-162 676.25,-198"/>
<text text-anchor="middle" x="649.25" y="-174.95" font-family="Times,serif" font-size="14.00">type</text>
</g>
<!-- atomic_tests[].input_arguments.remote_script&#45;&gt;atomic_tests[].input_arguments.remote_script.type -->
<g id="edge48" class="edge">
<title>atomic_tests[].input_arguments.remote_script&#45;&gt;atomic_tests[].input_arguments.remote_script.type</title>
<path fill="none" stroke="black" d="M540.31,-242.62C561.66,-230.23 589.87,-213.87 612.1,-200.97"/>
<polygon fill="black" stroke="black" points="613.64,-204.12 620.54,-196.08 610.13,-198.07 613.64,-204.12"/>
</g>
<!-- atomic_tests[].input_arguments.xordump_exe.default -->
<g id="node46" class="node">
<title>atomic_tests[].input_arguments.xordump_exe.default</title>
<polygon fill="none" stroke="black" points="676.25,-144 622.25,-144 622.25,-108 676.25,-108 676.25,-144"/>
<text text-anchor="middle" x="649.25" y="-120.95" font-family="Times,serif" font-size="14.00">default</text>
</g>
<!-- atomic_tests[].input_arguments.xordump_exe&#45;&gt;atomic_tests[].input_arguments.xordump_exe.default -->
<g id="edge49" class="edge">
<title>atomic_tests[].input_arguments.xordump_exe&#45;&gt;atomic_tests[].input_arguments.xordump_exe.default</title>
<path fill="none" stroke="black" d="M553.57,-107.69C572.06,-111.27 593.21,-115.36 610.84,-118.76"/>
<polygon fill="black" stroke="black" points="610.15,-122.2 620.63,-120.66 611.48,-115.32 610.15,-122.2"/>
</g>
<!-- atomic_tests[].input_arguments.xordump_exe.description -->
<g id="node47" class="node">
<title>atomic_tests[].input_arguments.xordump_exe.description</title>
<polygon fill="none" stroke="black" points="687.25,-90 611.25,-90 611.25,-54 687.25,-54 687.25,-90"/>
<text text-anchor="middle" x="649.25" y="-66.95" font-family="Times,serif" font-size="14.00">description</text>
</g>
<!-- atomic_tests[].input_arguments.xordump_exe&#45;&gt;atomic_tests[].input_arguments.xordump_exe.description -->
<g id="edge50" class="edge">
<title>atomic_tests[].input_arguments.xordump_exe&#45;&gt;atomic_tests[].input_arguments.xordump_exe.description</title>
<path fill="none" stroke="black" d="M553.57,-90.31C568.31,-87.46 584.75,-84.28 599.74,-81.38"/>
<polygon fill="black" stroke="black" points="600.23,-84.85 609.38,-79.52 598.9,-77.98 600.23,-84.85"/>
</g>
<!-- atomic_tests[].input_arguments.xordump_exe.type -->
<g id="node48" class="node">
<title>atomic_tests[].input_arguments.xordump_exe.type</title>
<polygon fill="none" stroke="black" points="676.25,-36 622.25,-36 622.25,0 676.25,0 676.25,-36"/>
<text text-anchor="middle" x="649.25" y="-12.95" font-family="Times,serif" font-size="14.00">type</text>
</g>
<!-- atomic_tests[].input_arguments.xordump_exe&#45;&gt;atomic_tests[].input_arguments.xordump_exe.type -->
<g id="edge51" class="edge">
<title>atomic_tests[].input_arguments.xordump_exe&#45;&gt;atomic_tests[].input_arguments.xordump_exe.type</title>
<path fill="none" stroke="black" d="M540.31,-80.62C561.66,-68.23 589.87,-51.87 612.1,-38.97"/>
<polygon fill="black" stroke="black" points="613.64,-42.12 620.54,-34.08 610.13,-36.07 613.64,-42.12"/>
</g>
</g>
</svg>
