<?xml version="1.0" encoding="UTF-8" standalone="no"?>
<!DOCTYPE svg PUBLIC "-//W3C//DTD SVG 1.1//EN"
 "http://www.w3.org/Graphics/SVG/1.1/DTD/svg11.dtd">
<!-- Generated by graphviz version 9.0.0 (20230911.1827)
 -->
<!-- Title: G Pages: 1 -->
<svg width="2897pt" height="5021pt"
 viewBox="0.00 0.00 695.25 1205.00" xmlns="http://www.w3.org/2000/svg" xmlns:xlink="http://www.w3.org/1999/xlink">
<g id="graph0" class="graph" transform="scale(4.16667 4.16667) rotate(0) translate(4 1201)">
<title>G</title>
<polygon fill="white" stroke="none" points="-4,4 -4,-1201 691.25,-1201 691.25,4 -4,4"/>
<!-- atomic_tests[] -->
<g id="node1" class="node">
<title>atomic_tests[]</title>
<path fill="none" stroke="black" d="M178.38,-982C178.38,-982 109.12,-982 109.12,-982 103.12,-982 97.12,-976 97.12,-970 97.12,-970 97.12,-958 97.12,-958 97.12,-952 103.12,-946 109.12,-946 109.12,-946 178.38,-946 178.38,-946 184.38,-946 190.38,-952 190.38,-958 190.38,-958 190.38,-970 190.38,-970 190.38,-976 184.38,-982 178.38,-982"/>
<text text-anchor="middle" x="143.75" y="-958.95" font-family="Times,serif" font-size="14.00">atomic_tests[]</text>
</g>
<!-- atomic_tests[].auto_generated_guid -->
<g id="node3" class="node">
<title>atomic_tests[].auto_generated_guid</title>
<path fill="none" stroke="black" d="M371.38,-1154C371.38,-1154 266.12,-1154 266.12,-1154 260.12,-1154 254.12,-1148 254.12,-1142 254.12,-1142 254.12,-1130 254.12,-1130 254.12,-1124 260.12,-1118 266.12,-1118 266.12,-1118 371.38,-1118 371.38,-1118 377.38,-1118 383.38,-1124 383.38,-1130 383.38,-1130 383.38,-1142 383.38,-1142 383.38,-1148 377.38,-1154 371.38,-1154"/>
<text text-anchor="middle" x="318.75" y="-1130.95" font-family="Times,serif" font-size="14.00">auto_generated_guid</text>
</g>
<!-- atomic_tests[]&#45;&gt;atomic_tests[].auto_generated_guid -->
<g id="edge1" class="edge">
<title>atomic_tests[]&#45;&gt;atomic_tests[].auto_generated_guid</title>
<path fill="none" stroke="black" d="M150.42,-982.37C161.22,-1014.22 187.83,-1079.57 233.5,-1114 236.67,-1116.39 240.09,-1118.53 243.65,-1120.43"/>
<polygon fill="black" stroke="black" points="242.12,-1123.58 252.67,-1124.57 245.04,-1117.21 242.12,-1123.58"/>
</g>
<!-- atomic_tests[].dependencies[] -->
<g id="node4" class="node">
<title>atomic_tests[].dependencies[]</title>
<path fill="none" stroke="black" d="M355.62,-1111C355.62,-1111 281.88,-1111 281.88,-1111 275.88,-1111 269.88,-1105 269.88,-1099 269.88,-1099 269.88,-1087 269.88,-1087 269.88,-1081 275.88,-1075 281.88,-1075 281.88,-1075 355.62,-1075 355.62,-1075 361.62,-1075 367.62,-1081 367.62,-1087 367.62,-1087 367.62,-1099 367.62,-1099 367.62,-1105 361.62,-1111 355.62,-1111"/>
<text text-anchor="middle" x="318.75" y="-1087.95" font-family="Times,serif" font-size="14.00">dependencies[]</text>
</g>
<!-- atomic_tests[]&#45;&gt;atomic_tests[].dependencies[] -->
<g id="edge2" class="edge">
<title>atomic_tests[]&#45;&gt;atomic_tests[].dependencies[]</title>
<path fill="none" stroke="black" d="M160.34,-982.37C177.05,-1001.27 205.03,-1030.72 233.5,-1051 242.98,-1057.75 253.71,-1064 264.26,-1069.5"/>
<polygon fill="black" stroke="black" points="262.41,-1072.49 272.92,-1073.86 265.56,-1066.24 262.41,-1072.49"/>
</g>
<!-- atomic_tests[].dependency_executor_name -->
<g id="node8" class="node">
<title>atomic_tests[].dependency_executor_name</title>
<path fill="none" stroke="black" d="M392,-1047C392,-1047 245.5,-1047 245.5,-1047 239.5,-1047 233.5,-1041 233.5,-1035 233.5,-1035 233.5,-1023 233.5,-1023 233.5,-1017 239.5,-1011 245.5,-1011 245.5,-1011 392,-1011 392,-1011 398,-1011 404,-1017 404,-1023 404,-1023 404,-1035 404,-1035 404,-1041 398,-1047 392,-1047"/>
<text text-anchor="middle" x="318.75" y="-1023.95" font-family="Times,serif" font-size="14.00">dependency_executor_name</text>
</g>
<!-- atomic_tests[]&#45;&gt;atomic_tests[].dependency_executor_name -->
<g id="edge3" class="edge">
<title>atomic_tests[]&#45;&gt;atomic_tests[].dependency_executor_name</title>
<path fill="none" stroke="black" d="M178.63,-982.35C192.86,-989.62 209.93,-997.78 233.47,-1006.74"/>
<polygon fill="black" stroke="black" points="231.96,-1009.92 242.55,-1010.11 234.39,-1003.35 231.96,-1009.92"/>
</g>
<!-- atomic_tests[].description -->
<g id="node9" class="node">
<title>atomic_tests[].description</title>
<path fill="none" stroke="black" d="M344.75,-1004C344.75,-1004 292.75,-1004 292.75,-1004 286.75,-1004 280.75,-998 280.75,-992 280.75,-992 280.75,-980 280.75,-980 280.75,-974 286.75,-968 292.75,-968 292.75,-968 344.75,-968 344.75,-968 350.75,-968 356.75,-974 356.75,-980 356.75,-980 356.75,-992 356.75,-992 356.75,-998 350.75,-1004 344.75,-1004"/>
<text text-anchor="middle" x="318.75" y="-980.95" font-family="Times,serif" font-size="14.00">description</text>
</g>
<!-- atomic_tests[]&#45;&gt;atomic_tests[].description -->
<g id="edge4" class="edge">
<title>atomic_tests[]&#45;&gt;atomic_tests[].description</title>
<path fill="none" stroke="black" d="M190.66,-969.84C214.85,-972.91 244.53,-976.69 269.12,-979.82"/>
<polygon fill="black" stroke="black" points="268.51,-983.27 278.88,-981.06 269.4,-976.32 268.51,-983.27"/>
</g>
<!-- atomic_tests[].executor -->
<g id="node10" class="node">
<title>atomic_tests[].executor</title>
<path fill="none" stroke="black" d="M338,-961C338,-961 299.5,-961 299.5,-961 293.5,-961 287.5,-955 287.5,-949 287.5,-949 287.5,-937 287.5,-937 287.5,-931 293.5,-925 299.5,-925 299.5,-925 338,-925 338,-925 344,-925 350,-931 350,-937 350,-937 350,-949 350,-949 350,-955 344,-961 338,-961"/>
<text text-anchor="middle" x="318.75" y="-937.95" font-family="Times,serif" font-size="14.00">executor</text>
</g>
<!-- atomic_tests[]&#45;&gt;atomic_tests[].executor -->
<g id="edge5" class="edge">
<title>atomic_tests[]&#45;&gt;atomic_tests[].executor</title>
<path fill="none" stroke="black" d="M190.66,-958.43C217.13,-955.21 250.17,-951.2 275.93,-948.08"/>
<polygon fill="black" stroke="black" points="276.19,-951.57 285.69,-946.89 275.35,-944.62 276.19,-951.57"/>
</g>
<!-- atomic_tests[].input_arguments -->
<g id="node16" class="node">
<title>atomic_tests[].input_arguments</title>
<path fill="none" stroke="black" d="M360.5,-724C360.5,-724 277,-724 277,-724 271,-724 265,-718 265,-712 265,-712 265,-700 265,-700 265,-694 271,-688 277,-688 277,-688 360.5,-688 360.5,-688 366.5,-688 372.5,-694 372.5,-700 372.5,-700 372.5,-712 372.5,-712 372.5,-718 366.5,-724 360.5,-724"/>
<text text-anchor="middle" x="318.75" y="-700.95" font-family="Times,serif" font-size="14.00">input_arguments</text>
</g>
<!-- atomic_tests[]&#45;&gt;atomic_tests[].input_arguments -->
<g id="edge6" class="edge">
<title>atomic_tests[]&#45;&gt;atomic_tests[].input_arguments</title>
<path fill="none" stroke="black" d="M190.64,-947.4C193.08,-945.75 195.39,-943.96 197.5,-942 260.6,-883.53 295.69,-784.49 310.02,-735.39"/>
<polygon fill="black" stroke="black" points="313.38,-736.35 312.73,-725.78 306.64,-734.45 313.38,-736.35"/>
</g>
<!-- atomic_tests[].name -->
<g id="node49" class="node">
<title>atomic_tests[].name</title>
<path fill="none" stroke="black" d="M333.75,-681C333.75,-681 303.75,-681 303.75,-681 297.75,-681 291.75,-675 291.75,-669 291.75,-669 291.75,-657 291.75,-657 291.75,-651 297.75,-645 303.75,-645 303.75,-645 333.75,-645 333.75,-645 339.75,-645 345.75,-651 345.75,-657 345.75,-657 345.75,-669 345.75,-669 345.75,-675 339.75,-681 333.75,-681"/>
<text text-anchor="middle" x="318.75" y="-657.95" font-family="Times,serif" font-size="14.00">name</text>
</g>
<!-- atomic_tests[]&#45;&gt;atomic_tests[].name -->
<g id="edge7" class="edge">
<title>atomic_tests[]&#45;&gt;atomic_tests[].name</title>
<path fill="none" stroke="black" d="M190.78,-948.72C193.28,-946.74 195.56,-944.51 197.5,-942 267.98,-850.7 156.82,-771.16 233.5,-685 245.18,-671.88 263.61,-666.14 280.26,-663.78"/>
<polygon fill="black" stroke="black" points="280.3,-667.29 289.89,-662.79 279.59,-660.33 280.3,-667.29"/>
</g>
<!-- atomic_tests[].supported_platforms[] -->
<g id="node50" class="node">
<title>atomic_tests[].supported_platforms[]</title>
<path fill="none" stroke="black" d="M375.5,-638C375.5,-638 262,-638 262,-638 256,-638 250,-632 250,-626 250,-626 250,-614 250,-614 250,-608 256,-602 262,-602 262,-602 375.5,-602 375.5,-602 381.5,-602 387.5,-608 387.5,-614 387.5,-614 387.5,-626 387.5,-626 387.5,-632 381.5,-638 375.5,-638"/>
<text text-anchor="middle" x="318.75" y="-614.95" font-family="Times,serif" font-size="14.00">supported_platforms[]</text>
</g>
<!-- atomic_tests[]&#45;&gt;atomic_tests[].supported_platforms[] -->
<g id="edge8" class="edge">
<title>atomic_tests[]&#45;&gt;atomic_tests[].supported_platforms[]</title>
<path fill="none" stroke="black" d="M190.83,-948.76C193.32,-946.78 195.58,-944.53 197.5,-942 278.51,-834.9 145.21,-743.19 233.5,-642 235.46,-639.76 237.61,-637.73 239.92,-635.9"/>
<polygon fill="black" stroke="black" points="241.7,-638.91 248.23,-630.57 237.93,-633.02 241.7,-638.91"/>
</g>
<!-- . -->
<g id="node2" class="node">
<title>.</title>
<path fill="none" stroke="black" d="M42,-939C42,-939 12,-939 12,-939 6,-939 0,-933 0,-927 0,-927 0,-915 0,-915 0,-909 6,-903 12,-903 12,-903 42,-903 42,-903 48,-903 54,-909 54,-915 54,-915 54,-927 54,-927 54,-933 48,-939 42,-939"/>
<text text-anchor="middle" x="27" y="-915.95" font-family="Times,serif" font-size="14.00">.</text>
</g>
<!-- .&#45;&gt;atomic_tests[] -->
<g id="edge9" class="edge">
<title>.&#45;&gt;atomic_tests[]</title>
<path fill="none" stroke="black" d="M54.33,-930.87C63.85,-934.44 75.01,-938.62 86.14,-942.79"/>
<polygon fill="black" stroke="black" points="84.73,-945.99 95.32,-946.23 87.18,-939.44 84.73,-945.99"/>
</g>
<!-- attack_technique -->
<g id="node51" class="node">
<title>attack_technique</title>
<path fill="none" stroke="black" d="M185.5,-939C185.5,-939 102,-939 102,-939 96,-939 90,-933 90,-927 90,-927 90,-915 90,-915 90,-909 96,-903 102,-903 102,-903 185.5,-903 185.5,-903 191.5,-903 197.5,-909 197.5,-915 197.5,-915 197.5,-927 197.5,-927 197.5,-933 191.5,-939 185.5,-939"/>
<text text-anchor="middle" x="143.75" y="-915.95" font-family="Times,serif" font-size="14.00">attack_technique</text>
</g>
<!-- .&#45;&gt;attack_technique -->
<g id="edge10" class="edge">
<title>.&#45;&gt;attack_technique</title>
<path fill="none" stroke="black" d="M54.33,-921C61.69,-921 70.02,-921 78.57,-921"/>
<polygon fill="black" stroke="black" points="78.33,-924.5 88.33,-921 78.33,-917.5 78.33,-924.5"/>
</g>
<!-- display_name -->
<g id="node52" class="node">
<title>display_name</title>
<path fill="none" stroke="black" d="M177.62,-896C177.62,-896 109.88,-896 109.88,-896 103.88,-896 97.88,-890 97.88,-884 97.88,-884 97.88,-872 97.88,-872 97.88,-866 103.88,-860 109.88,-860 109.88,-860 177.62,-860 177.62,-860 183.62,-860 189.62,-866 189.62,-872 189.62,-872 189.62,-884 189.62,-884 189.62,-890 183.62,-896 177.62,-896"/>
<text text-anchor="middle" x="143.75" y="-872.95" font-family="Times,serif" font-size="14.00">display_name</text>
</g>
<!-- .&#45;&gt;display_name -->
<g id="edge11" class="edge">
<title>.&#45;&gt;display_name</title>
<path fill="none" stroke="black" d="M54.33,-911.13C64.15,-907.45 75.72,-903.12 87.19,-898.82"/>
<polygon fill="black" stroke="black" points="88.09,-902.22 96.23,-895.43 85.64,-895.66 88.09,-902.22"/>
</g>
<!-- atomic_tests[].dependencies[].description -->
<g id="node5" class="node">
<title>atomic_tests[].dependencies[].description</title>
<path fill="none" stroke="black" d="M533.62,-1197C533.62,-1197 481.62,-1197 481.62,-1197 475.62,-1197 469.62,-1191 469.62,-1185 469.62,-1185 469.62,-1173 469.62,-1173 469.62,-1167 475.62,-1161 481.62,-1161 481.62,-1161 533.62,-1161 533.62,-1161 539.62,-1161 545.62,-1167 545.62,-1173 545.62,-1173 545.62,-1185 545.62,-1185 545.62,-1191 539.62,-1197 533.62,-1197"/>
<text text-anchor="middle" x="507.62" y="-1173.95" font-family="Times,serif" font-size="14.00">description</text>
</g>
<!-- atomic_tests[].dependencies[]&#45;&gt;atomic_tests[].dependencies[].description -->
<g id="edge12" class="edge">
<title>atomic_tests[].dependencies[]&#45;&gt;atomic_tests[].dependencies[].description</title>
<path fill="none" stroke="black" d="M367.72,-1100.22C380.16,-1103.47 393.1,-1108.19 404,-1115 424.85,-1128.03 419.58,-1143.31 440,-1157 445.78,-1160.87 452.29,-1164.11 458.93,-1166.81"/>
<polygon fill="black" stroke="black" points="457.35,-1169.96 467.94,-1170.09 459.74,-1163.38 457.35,-1169.96"/>
</g>
<!-- atomic_tests[].dependencies[].get_prereq_command -->
<g id="node6" class="node">
<title>atomic_tests[].dependencies[].get_prereq_command</title>
<path fill="none" stroke="black" d="M563.25,-1154C563.25,-1154 452,-1154 452,-1154 446,-1154 440,-1148 440,-1142 440,-1142 440,-1130 440,-1130 440,-1124 446,-1118 452,-1118 452,-1118 563.25,-1118 563.25,-1118 569.25,-1118 575.25,-1124 575.25,-1130 575.25,-1130 575.25,-1142 575.25,-1142 575.25,-1148 569.25,-1154 563.25,-1154"/>
<text text-anchor="middle" x="507.62" y="-1130.95" font-family="Times,serif" font-size="14.00">get_prereq_command</text>
</g>
<!-- atomic_tests[].dependencies[]&#45;&gt;atomic_tests[].dependencies[].get_prereq_command -->
<g id="edge13" class="edge">
<title>atomic_tests[].dependencies[]&#45;&gt;atomic_tests[].dependencies[].get_prereq_command</title>
<path fill="none" stroke="black" d="M367.87,-1104.07C386.39,-1108.33 408.04,-1113.32 428.66,-1118.06"/>
<polygon fill="black" stroke="black" points="427.64,-1121.42 438.17,-1120.25 429.21,-1114.6 427.64,-1121.42"/>
</g>
<!-- atomic_tests[].dependencies[].prereq_command -->
<g id="node7" class="node">
<title>atomic_tests[].dependencies[].prereq_command</title>
<path fill="none" stroke="black" d="M551.62,-1111C551.62,-1111 463.62,-1111 463.62,-1111 457.62,-1111 451.62,-1105 451.62,-1099 451.62,-1099 451.62,-1087 451.62,-1087 451.62,-1081 457.62,-1075 463.62,-1075 463.62,-1075 551.62,-1075 551.62,-1075 557.62,-1075 563.62,-1081 563.62,-1087 563.62,-1087 563.62,-1099 563.62,-1099 563.62,-1105 557.62,-1111 551.62,-1111"/>
<text text-anchor="middle" x="507.62" y="-1087.95" font-family="Times,serif" font-size="14.00">prereq_command</text>
</g>
<!-- atomic_tests[].dependencies[]&#45;&gt;atomic_tests[].dependencies[].prereq_command -->
<g id="edge14" class="edge">
<title>atomic_tests[].dependencies[]&#45;&gt;atomic_tests[].dependencies[].prereq_command</title>
<path fill="none" stroke="black" d="M367.87,-1093C389.81,-1093 416.14,-1093 439.94,-1093"/>
<polygon fill="black" stroke="black" points="439.87,-1096.5 449.87,-1093 439.87,-1089.5 439.87,-1096.5"/>
</g>
<!-- atomic_tests[].executor.cleanup_command -->
<g id="node11" class="node">
<title>atomic_tests[].executor.cleanup_command</title>
<path fill="none" stroke="black" d="M555.38,-1068C555.38,-1068 459.88,-1068 459.88,-1068 453.88,-1068 447.88,-1062 447.88,-1056 447.88,-1056 447.88,-1044 447.88,-1044 447.88,-1038 453.88,-1032 459.88,-1032 459.88,-1032 555.38,-1032 555.38,-1032 561.38,-1032 567.38,-1038 567.38,-1044 567.38,-1044 567.38,-1056 567.38,-1056 567.38,-1062 561.38,-1068 555.38,-1068"/>
<text text-anchor="middle" x="507.62" y="-1044.95" font-family="Times,serif" font-size="14.00">cleanup_command</text>
</g>
<!-- atomic_tests[].executor&#45;&gt;atomic_tests[].executor.cleanup_command -->
<g id="edge15" class="edge">
<title>atomic_tests[].executor&#45;&gt;atomic_tests[].executor.cleanup_command</title>
<path fill="none" stroke="black" d="M350.35,-945.18C367.57,-947.74 388.64,-953.24 404,-965 427.1,-982.69 417.49,-1003.13 439.28,-1025.84"/>
<polygon fill="black" stroke="black" points="436.65,-1028.18 446.42,-1032.28 441.34,-1022.98 436.65,-1028.18"/>
</g>
<!-- atomic_tests[].executor.command -->
<g id="node12" class="node">
<title>atomic_tests[].executor.command</title>
<path fill="none" stroke="black" d="M531,-1025C531,-1025 484.25,-1025 484.25,-1025 478.25,-1025 472.25,-1019 472.25,-1013 472.25,-1013 472.25,-1001 472.25,-1001 472.25,-995 478.25,-989 484.25,-989 484.25,-989 531,-989 531,-989 537,-989 543,-995 543,-1001 543,-1001 543,-1013 543,-1013 543,-1019 537,-1025 531,-1025"/>
<text text-anchor="middle" x="507.62" y="-1001.95" font-family="Times,serif" font-size="14.00">command</text>
</g>
<!-- atomic_tests[].executor&#45;&gt;atomic_tests[].executor.command -->
<g id="edge16" class="edge">
<title>atomic_tests[].executor&#45;&gt;atomic_tests[].executor.command</title>
<path fill="none" stroke="black" d="M350.37,-949.04C366.62,-952.73 386.74,-958.08 404,-965 420.99,-971.81 423.24,-977.65 440,-985 446.74,-987.95 454.01,-990.74 461.19,-993.27"/>
<polygon fill="black" stroke="black" points="459.9,-996.53 470.49,-996.42 462.14,-989.9 459.9,-996.53"/>
</g>
<!-- atomic_tests[].executor.elevation_required -->
<g id="node13" class="node">
<title>atomic_tests[].executor.elevation_required</title>
<path fill="none" stroke="black" d="M554.25,-982C554.25,-982 461,-982 461,-982 455,-982 449,-976 449,-970 449,-970 449,-958 449,-958 449,-952 455,-946 461,-946 461,-946 554.25,-946 554.25,-946 560.25,-946 566.25,-952 566.25,-958 566.25,-958 566.25,-970 566.25,-970 566.25,-976 560.25,-982 554.25,-982"/>
<text text-anchor="middle" x="507.62" y="-958.95" font-family="Times,serif" font-size="14.00">elevation_required</text>
</g>
<!-- atomic_tests[].executor&#45;&gt;atomic_tests[].executor.elevation_required -->
<g id="edge17" class="edge">
<title>atomic_tests[].executor&#45;&gt;atomic_tests[].executor.elevation_required</title>
<path fill="none" stroke="black" d="M350.19,-946.42C373.76,-949.07 407.34,-952.84 437.35,-956.21"/>
<polygon fill="black" stroke="black" points="436.81,-959.68 447.14,-957.32 437.6,-952.72 436.81,-959.68"/>
</g>
<!-- atomic_tests[].executor.name -->
<g id="node14" class="node">
<title>atomic_tests[].executor.name</title>
<path fill="none" stroke="black" d="M522.62,-939C522.62,-939 492.62,-939 492.62,-939 486.62,-939 480.62,-933 480.62,-927 480.62,-927 480.62,-915 480.62,-915 480.62,-909 486.62,-903 492.62,-903 492.62,-903 522.62,-903 522.62,-903 528.62,-903 534.62,-909 534.62,-915 534.62,-915 534.62,-927 534.62,-927 534.62,-933 528.62,-939 522.62,-939"/>
<text text-anchor="middle" x="507.62" y="-915.95" font-family="Times,serif" font-size="14.00">name</text>
</g>
<!-- atomic_tests[].executor&#45;&gt;atomic_tests[].executor.name -->
<g id="edge18" class="edge">
<title>atomic_tests[].executor&#45;&gt;atomic_tests[].executor.name</title>
<path fill="none" stroke="black" d="M350.19,-939.42C382.62,-935.6 434,-929.55 468.96,-925.43"/>
<polygon fill="black" stroke="black" points="469.1,-928.94 478.63,-924.3 468.29,-921.99 469.1,-928.94"/>
</g>
<!-- atomic_tests[].executor.steps -->
<g id="node15" class="node">
<title>atomic_tests[].executor.steps</title>
<path fill="none" stroke="black" d="M522.62,-896C522.62,-896 492.62,-896 492.62,-896 486.62,-896 480.62,-890 480.62,-884 480.62,-884 480.62,-872 480.62,-872 480.62,-866 486.62,-860 492.62,-860 492.62,-860 522.62,-860 522.62,-860 528.62,-860 534.62,-866 534.62,-872 534.62,-872 534.62,-884 534.62,-884 534.62,-890 528.62,-896 522.62,-896"/>
<text text-anchor="middle" x="507.62" y="-872.95" font-family="Times,serif" font-size="14.00">steps</text>
</g>
<!-- atomic_tests[].executor&#45;&gt;atomic_tests[].executor.steps -->
<g id="edge19" class="edge">
<title>atomic_tests[].executor&#45;&gt;atomic_tests[].executor.steps</title>
<path fill="none" stroke="black" d="M350.32,-931.84C374.58,-923.03 409.39,-910.53 440,-900 449.52,-896.73 459.84,-893.27 469.45,-890.1"/>
<polygon fill="black" stroke="black" points="470.47,-893.45 478.87,-887 468.28,-886.8 470.47,-893.45"/>
</g>
<!-- atomic_tests[].input_arguments.dumpert_exe -->
<g id="node17" class="node">
<title>atomic_tests[].input_arguments.dumpert_exe</title>
<path fill="none" stroke="black" d="M539.25,-853C539.25,-853 476,-853 476,-853 470,-853 464,-847 464,-841 464,-841 464,-829 464,-829 464,-823 470,-817 476,-817 476,-817 539.25,-817 539.25,-817 545.25,-817 551.25,-823 551.25,-829 551.25,-829 551.25,-841 551.25,-841 551.25,-847 545.25,-853 539.25,-853"/>
<text text-anchor="middle" x="507.62" y="-829.95" font-family="Times,serif" font-size="14.00">dumpert_exe</text>
</g>
<!-- atomic_tests[].input_arguments&#45;&gt;atomic_tests[].input_arguments.dumpert_exe -->
<g id="edge20" class="edge">
<title>atomic_tests[].input_arguments&#45;&gt;atomic_tests[].input_arguments.dumpert_exe</title>
<path fill="none" stroke="black" d="M335.89,-724.43C357.46,-748.01 397.88,-788.71 440,-813 444.1,-815.36 448.48,-817.51 452.97,-819.46"/>
<polygon fill="black" stroke="black" points="451.57,-822.67 462.16,-823.1 454.15,-816.16 451.57,-822.67"/>
</g>
<!-- atomic_tests[].input_arguments.input_file -->
<g id="node21" class="node">
<title>atomic_tests[].input_arguments.input_file</title>
<path fill="none" stroke="black" d="M529.88,-810C529.88,-810 485.38,-810 485.38,-810 479.38,-810 473.38,-804 473.38,-798 473.38,-798 473.38,-786 473.38,-786 473.38,-780 479.38,-774 485.38,-774 485.38,-774 529.88,-774 529.88,-774 535.88,-774 541.88,-780 541.88,-786 541.88,-786 541.88,-798 541.88,-798 541.88,-804 535.88,-810 529.88,-810"/>
<text text-anchor="middle" x="507.62" y="-786.95" font-family="Times,serif" font-size="14.00">input_file</text>
</g>
<!-- atomic_tests[].input_arguments&#45;&gt;atomic_tests[].input_arguments.input_file -->
<g id="edge21" class="edge">
<title>atomic_tests[].input_arguments&#45;&gt;atomic_tests[].input_arguments.input_file</title>
<path fill="none" stroke="black" d="M359.84,-724.45C390.19,-738.42 431.84,-757.58 463.02,-771.93"/>
<polygon fill="black" stroke="black" points="461.24,-774.97 471.78,-775.97 464.16,-768.61 461.24,-774.97"/>
</g>
<!-- atomic_tests[].input_arguments.mimikatz_exe -->
<g id="node25" class="node">
<title>atomic_tests[].input_arguments.mimikatz_exe</title>
<path fill="none" stroke="black" d="M542.62,-724C542.62,-724 472.62,-724 472.62,-724 466.62,-724 460.62,-718 460.62,-712 460.62,-712 460.62,-700 460.62,-700 460.62,-694 466.62,-688 472.62,-688 472.62,-688 542.62,-688 542.62,-688 548.62,-688 554.62,-694 554.62,-700 554.62,-700 554.62,-712 554.62,-712 554.62,-718 548.62,-724 542.62,-724"/>
<text text-anchor="middle" x="507.62" y="-700.95" font-family="Times,serif" font-size="14.00">mimikatz_exe</text>
</g>
<!-- atomic_tests[].input_arguments&#45;&gt;atomic_tests[].input_arguments.mimikatz_exe -->
<g id="edge22" class="edge">
<title>atomic_tests[].input_arguments&#45;&gt;atomic_tests[].input_arguments.mimikatz_exe</title>
<path fill="none" stroke="black" d="M372.8,-706C396.65,-706 424.84,-706 449.19,-706"/>
<polygon fill="black" stroke="black" points="448.92,-709.5 458.92,-706 448.92,-702.5 448.92,-709.5"/>
</g>
<!-- atomic_tests[].input_arguments.output_file -->
<g id="node29" class="node">
<title>atomic_tests[].input_arguments.output_file</title>
<path fill="none" stroke="black" d="M533.25,-617C533.25,-617 482,-617 482,-617 476,-617 470,-611 470,-605 470,-605 470,-593 470,-593 470,-587 476,-581 482,-581 482,-581 533.25,-581 533.25,-581 539.25,-581 545.25,-587 545.25,-593 545.25,-593 545.25,-605 545.25,-605 545.25,-611 539.25,-617 533.25,-617"/>
<text text-anchor="middle" x="507.62" y="-593.95" font-family="Times,serif" font-size="14.00">output_file</text>
</g>
<!-- atomic_tests[].input_arguments&#45;&gt;atomic_tests[].input_arguments.output_file -->
<g id="edge23" class="edge">
<title>atomic_tests[].input_arguments&#45;&gt;atomic_tests[].input_arguments.output_file</title>
<path fill="none" stroke="black" d="M372.74,-695.94C383.41,-692.88 394.31,-688.96 404,-684 433.41,-668.93 461.96,-644.21 481.44,-625.3"/>
<polygon fill="black" stroke="black" points="483.76,-627.93 488.4,-618.4 478.83,-622.96 483.76,-627.93"/>
</g>
<!-- atomic_tests[].input_arguments.output_folder -->
<g id="node33" class="node">
<title>atomic_tests[].input_arguments.output_folder</title>
<path fill="none" stroke="black" d="M540.38,-488C540.38,-488 474.88,-488 474.88,-488 468.88,-488 462.88,-482 462.88,-476 462.88,-476 462.88,-464 462.88,-464 462.88,-458 468.88,-452 474.88,-452 474.88,-452 540.38,-452 540.38,-452 546.38,-452 552.38,-458 552.38,-464 552.38,-464 552.38,-476 552.38,-476 552.38,-482 546.38,-488 540.38,-488"/>
<text text-anchor="middle" x="507.62" y="-464.95" font-family="Times,serif" font-size="14.00">output_folder</text>
</g>
<!-- atomic_tests[].input_arguments&#45;&gt;atomic_tests[].input_arguments.output_folder -->
<g id="edge24" class="edge">
<title>atomic_tests[].input_arguments&#45;&gt;atomic_tests[].input_arguments.output_folder</title>
<path fill="none" stroke="black" d="M372.8,-700.55C384.19,-697.23 395.38,-692.04 404,-684 440.68,-649.77 418.6,-622.38 440,-577 453.38,-548.64 472.66,-518.5 487.04,-497.46"/>
<polygon fill="black" stroke="black" points="489.78,-499.65 492.6,-489.44 484.02,-495.66 489.78,-499.65"/>
</g>
<!-- atomic_tests[].input_arguments.procdump_exe -->
<g id="node37" class="node">
<title>atomic_tests[].input_arguments.procdump_exe</title>
<path fill="none" stroke="black" d="M544.12,-359C544.12,-359 471.12,-359 471.12,-359 465.12,-359 459.12,-353 459.12,-347 459.12,-347 459.12,-335 459.12,-335 459.12,-329 465.12,-323 471.12,-323 471.12,-323 544.12,-323 544.12,-323 550.12,-323 556.12,-329 556.12,-335 556.12,-335 556.12,-347 556.12,-347 556.12,-353 550.12,-359 544.12,-359"/>
<text text-anchor="middle" x="507.62" y="-335.95" font-family="Times,serif" font-size="14.00">procdump_exe</text>
</g>
<!-- atomic_tests[].input_arguments&#45;&gt;atomic_tests[].input_arguments.procdump_exe -->
<g id="edge25" class="edge">
<title>atomic_tests[].input_arguments&#45;&gt;atomic_tests[].input_arguments.procdump_exe</title>
<path fill="none" stroke="black" d="M372.98,-701.84C384.64,-698.5 395.9,-692.98 404,-684 475.02,-605.17 403.2,-547.52 440,-448 450.74,-418.94 469.98,-389.3 485.03,-368.6"/>
<polygon fill="black" stroke="black" points="487.75,-370.81 490.91,-360.7 482.14,-366.63 487.75,-370.81"/>
</g>
<!-- atomic_tests[].input_arguments.remote_script -->
<g id="node41" class="node">
<title>atomic_tests[].input_arguments.remote_script</title>
<path fill="none" stroke="black" d="M541.12,-229C541.12,-229 474.12,-229 474.12,-229 468.12,-229 462.12,-223 462.12,-217 462.12,-217 462.12,-205 462.12,-205 462.12,-199 468.12,-193 474.12,-193 474.12,-193 541.12,-193 541.12,-193 547.12,-193 553.12,-199 553.12,-205 553.12,-205 553.12,-217 553.12,-217 553.12,-223 547.12,-229 541.12,-229"/>
<text text-anchor="middle" x="507.62" y="-205.95" font-family="Times,serif" font-size="14.00">remote_script</text>
</g>
<!-- atomic_tests[].input_arguments&#45;&gt;atomic_tests[].input_arguments.remote_script -->
<g id="edge26" class="edge">
<title>atomic_tests[].input_arguments&#45;&gt;atomic_tests[].input_arguments.remote_script</title>
<path fill="none" stroke="black" d="M372.89,-702.27C384.69,-698.93 396.05,-693.31 404,-684 456.93,-622.02 413.93,-396.22 440,-319 450.04,-289.27 469.53,-259.19 484.85,-238.35"/>
<polygon fill="black" stroke="black" points="487.62,-240.48 490.85,-230.39 482.04,-236.27 487.62,-240.48"/>
</g>
<!-- atomic_tests[].input_arguments.xordump_exe -->
<g id="node45" class="node">
<title>atomic_tests[].input_arguments.xordump_exe</title>
<path fill="none" stroke="black" d="M541.12,-100C541.12,-100 474.12,-100 474.12,-100 468.12,-100 462.12,-94 462.12,-88 462.12,-88 462.12,-76 462.12,-76 462.12,-70 468.12,-64 474.12,-64 474.12,-64 541.12,-64 541.12,-64 547.12,-64 553.12,-70 553.12,-76 553.12,-76 553.12,-88 553.12,-88 553.12,-94 547.12,-100 541.12,-100"/>
<text text-anchor="middle" x="507.62" y="-76.95" font-family="Times,serif" font-size="14.00">xordump_exe</text>
</g>
<!-- atomic_tests[].input_arguments&#45;&gt;atomic_tests[].input_arguments.xordump_exe -->
<g id="edge27" class="edge">
<title>atomic_tests[].input_arguments&#45;&gt;atomic_tests[].input_arguments.xordump_exe</title>
<path fill="none" stroke="black" d="M372.62,-702.53C384.58,-699.21 396.07,-693.53 404,-684 474.54,-599.22 405.86,-293.87 440,-189 449.59,-159.54 468.95,-129.94 484.34,-109.36"/>
<polygon fill="black" stroke="black" points="487.06,-111.57 490.38,-101.5 481.51,-107.3 487.06,-111.57"/>
</g>
<!-- atomic_tests[].input_arguments.dumpert_exe.default -->
<g id="node18" class="node">
<title>atomic_tests[].input_arguments.dumpert_exe.default</title>
<path fill="none" stroke="black" d="M664.25,-1025C664.25,-1025 634.25,-1025 634.25,-1025 628.25,-1025 622.25,-1019 622.25,-1013 622.25,-1013 622.25,-1001 622.25,-1001 622.25,-995 628.25,-989 634.25,-989 634.25,-989 664.25,-989 664.25,-989 670.25,-989 676.25,-995 676.25,-1001 676.25,-1001 676.25,-1013 676.25,-1013 676.25,-1019 670.25,-1025 664.25,-1025"/>
<text text-anchor="middle" x="649.25" y="-1001.95" font-family="Times,serif" font-size="14.00">default</text>
</g>
<!-- atomic_tests[].input_arguments.dumpert_exe&#45;&gt;atomic_tests[].input_arguments.dumpert_exe.default -->
<g id="edge28" class="edge">
<title>atomic_tests[].input_arguments.dumpert_exe&#45;&gt;atomic_tests[].input_arguments.dumpert_exe.default</title>
<path fill="none" stroke="black" d="M551.63,-842.41C560.38,-845.65 568.85,-850.31 575.25,-857 616.09,-899.71 575.29,-938.11 611.25,-985 611.89,-985.83 612.56,-986.64 613.28,-987.42"/>
<polygon fill="black" stroke="black" points="610.92,-990.01 620.79,-993.86 615.48,-984.69 610.92,-990.01"/>
</g>
<!-- atomic_tests[].input_arguments.dumpert_exe.description -->
<g id="node19" class="node">
<title>atomic_tests[].input_arguments.dumpert_exe.description</title>
<path fill="none" stroke="black" d="M675.25,-982C675.25,-982 623.25,-982 623.25,-982 617.25,-982 611.25,-976 611.25,-970 611.25,-970 611.25,-958 611.25,-958 611.25,-952 617.25,-946 623.25,-946 623.25,-946 675.25,-946 675.25,-946 681.25,-946 687.25,-952 687.25,-958 687.25,-958 687.25,-970 687.25,-970 687.25,-976 681.25,-982 675.25,-982"/>
<text text-anchor="middle" x="649.25" y="-958.95" font-family="Times,serif" font-size="14.00">description</text>
</g>
<!-- atomic_tests[].input_arguments.dumpert_exe&#45;&gt;atomic_tests[].input_arguments.dumpert_exe.description -->
<g id="edge29" class="edge">
<title>atomic_tests[].input_arguments.dumpert_exe&#45;&gt;atomic_tests[].input_arguments.dumpert_exe.description</title>
<path fill="none" stroke="black" d="M551.72,-843.29C560.26,-846.48 568.62,-850.89 575.25,-857 602.71,-882.3 587.66,-906.35 607.7,-936.46"/>
<polygon fill="black" stroke="black" points="604.92,-938.6 613.81,-944.37 610.46,-934.31 604.92,-938.6"/>
</g>
<!-- atomic_tests[].input_arguments.dumpert_exe.type -->
<g id="node20" class="node">
<title>atomic_tests[].input_arguments.dumpert_exe.type</title>
<path fill="none" stroke="black" d="M664.25,-939C664.25,-939 634.25,-939 634.25,-939 628.25,-939 622.25,-933 622.25,-927 622.25,-927 622.25,-915 622.25,-915 622.25,-909 628.25,-903 634.25,-903 634.25,-903 664.25,-903 664.25,-903 670.25,-903 676.25,-909 676.25,-915 676.25,-915 676.25,-927 676.25,-927 676.25,-933 670.25,-939 664.25,-939"/>
<text text-anchor="middle" x="649.25" y="-915.95" font-family="Times,serif" font-size="14.00">type</text>
</g>
<!-- atomic_tests[].input_arguments.dumpert_exe&#45;&gt;atomic_tests[].input_arguments.dumpert_exe.type -->
<g id="edge30" class="edge">
<title>atomic_tests[].input_arguments.dumpert_exe&#45;&gt;atomic_tests[].input_arguments.dumpert_exe.type</title>
<path fill="none" stroke="black" d="M551.46,-845.32C559.74,-848.35 568.07,-852.18 575.25,-857 595.67,-870.69 592.43,-883.17 611.25,-899 611.77,-899.44 612.3,-899.87 612.83,-900.3"/>
<polygon fill="black" stroke="black" points="610.64,-903.03 620.81,-906 614.71,-897.34 610.64,-903.03"/>
</g>
<!-- atomic_tests[].input_arguments.input_file.default -->
<g id="node22" class="node">
<title>atomic_tests[].input_arguments.input_file.default</title>
<path fill="none" stroke="black" d="M664.25,-896C664.25,-896 634.25,-896 634.25,-896 628.25,-896 622.25,-890 622.25,-884 622.25,-884 622.25,-872 622.25,-872 622.25,-866 628.25,-860 634.25,-860 634.25,-860 664.25,-860 664.25,-860 670.25,-860 676.25,-866 676.25,-872 676.25,-872 676.25,-884 676.25,-884 676.25,-890 670.25,-896 664.25,-896"/>
<text text-anchor="middle" x="649.25" y="-872.95" font-family="Times,serif" font-size="14.00">default</text>
</g>
<!-- atomic_tests[].input_arguments.input_file&#45;&gt;atomic_tests[].input_arguments.input_file.default -->
<g id="edge31" class="edge">
<title>atomic_tests[].input_arguments.input_file&#45;&gt;atomic_tests[].input_arguments.input_file.default</title>
<path fill="none" stroke="black" d="M542.1,-799.2C553.25,-802.57 565.33,-807.35 575.25,-814 595.67,-827.69 592.43,-840.17 611.25,-856 611.77,-856.44 612.3,-856.87 612.83,-857.3"/>
<polygon fill="black" stroke="black" points="610.64,-860.03 620.81,-863 614.71,-854.34 610.64,-860.03"/>
</g>
<!-- atomic_tests[].input_arguments.input_file.description -->
<g id="node23" class="node">
<title>atomic_tests[].input_arguments.input_file.description</title>
<path fill="none" stroke="black" d="M675.25,-853C675.25,-853 623.25,-853 623.25,-853 617.25,-853 611.25,-847 611.25,-841 611.25,-841 611.25,-829 611.25,-829 611.25,-823 617.25,-817 623.25,-817 623.25,-817 675.25,-817 675.25,-817 681.25,-817 687.25,-823 687.25,-829 687.25,-829 687.25,-841 687.25,-841 687.25,-847 681.25,-853 675.25,-853"/>
<text text-anchor="middle" x="649.25" y="-829.95" font-family="Times,serif" font-size="14.00">description</text>
</g>
<!-- atomic_tests[].input_arguments.input_file&#45;&gt;atomic_tests[].input_arguments.input_file.description -->
<g id="edge32" class="edge">
<title>atomic_tests[].input_arguments.input_file&#45;&gt;atomic_tests[].input_arguments.input_file.description</title>
<path fill="none" stroke="black" d="M542.07,-802.3C559.47,-807.66 581.05,-814.3 600.2,-820.2"/>
<polygon fill="black" stroke="black" points="599.12,-823.53 609.7,-823.13 601.18,-816.84 599.12,-823.53"/>
</g>
<!-- atomic_tests[].input_arguments.input_file.type -->
<g id="node24" class="node">
<title>atomic_tests[].input_arguments.input_file.type</title>
<path fill="none" stroke="black" d="M664.25,-810C664.25,-810 634.25,-810 634.25,-810 628.25,-810 622.25,-804 622.25,-798 622.25,-798 622.25,-786 622.25,-786 622.25,-780 628.25,-774 634.25,-774 634.25,-774 664.25,-774 664.25,-774 670.25,-774 676.25,-780 676.25,-786 676.25,-786 676.25,-798 676.25,-798 676.25,-804 670.25,-810 664.25,-810"/>
<text text-anchor="middle" x="649.25" y="-786.95" font-family="Times,serif" font-size="14.00">type</text>
</g>
<!-- atomic_tests[].input_arguments.input_file&#45;&gt;atomic_tests[].input_arguments.input_file.type -->
<g id="edge33" class="edge">
<title>atomic_tests[].input_arguments.input_file&#45;&gt;atomic_tests[].input_arguments.input_file.type</title>
<path fill="none" stroke="black" d="M542.07,-792C562.76,-792 589.37,-792 610.77,-792"/>
<polygon fill="black" stroke="black" points="610.55,-795.5 620.55,-792 610.55,-788.5 610.55,-795.5"/>
</g>
<!-- atomic_tests[].input_arguments.mimikatz_exe.default -->
<g id="node26" class="node">
<title>atomic_tests[].input_arguments.mimikatz_exe.default</title>
<path fill="none" stroke="black" d="M664.25,-767C664.25,-767 634.25,-767 634.25,-767 628.25,-767 622.25,-761 622.25,-755 622.25,-755 622.25,-743 622.25,-743 622.25,-737 628.25,-731 634.25,-731 634.25,-731 664.25,-731 664.25,-731 670.25,-731 676.25,-737 676.25,-743 676.25,-743 676.25,-755 676.25,-755 676.25,-761 670.25,-767 664.25,-767"/>
<text text-anchor="middle" x="649.25" y="-743.95" font-family="Times,serif" font-size="14.00">default</text>
</g>
<!-- atomic_tests[].input_arguments.mimikatz_exe&#45;&gt;atomic_tests[].input_arguments.mimikatz_exe.default -->
<g id="edge34" class="edge">
<title>atomic_tests[].input_arguments.mimikatz_exe&#45;&gt;atomic_tests[].input_arguments.mimikatz_exe.default</title>
<path fill="none" stroke="black" d="M555.12,-720.32C573.34,-725.93 593.95,-732.28 611.15,-737.57"/>
<polygon fill="black" stroke="black" points="609.86,-740.84 620.45,-740.44 611.92,-734.15 609.86,-740.84"/>
</g>
<!-- atomic_tests[].input_arguments.mimikatz_exe.description -->
<g id="node27" class="node">
<title>atomic_tests[].input_arguments.mimikatz_exe.description</title>
<path fill="none" stroke="black" d="M675.25,-724C675.25,-724 623.25,-724 623.25,-724 617.25,-724 611.25,-718 611.25,-712 611.25,-712 611.25,-700 611.25,-700 611.25,-694 617.25,-688 623.25,-688 623.25,-688 675.25,-688 675.25,-688 681.25,-688 687.25,-694 687.25,-700 687.25,-700 687.25,-712 687.25,-712 687.25,-718 681.25,-724 675.25,-724"/>
<text text-anchor="middle" x="649.25" y="-700.95" font-family="Times,serif" font-size="14.00">description</text>
</g>
<!-- atomic_tests[].input_arguments.mimikatz_exe&#45;&gt;atomic_tests[].input_arguments.mimikatz_exe.description -->
<g id="edge35" class="edge">
<title>atomic_tests[].input_arguments.mimikatz_exe&#45;&gt;atomic_tests[].input_arguments.mimikatz_exe.description</title>
<path fill="none" stroke="black" d="M555.12,-706C569.39,-706 585.13,-706 599.55,-706"/>
<polygon fill="black" stroke="black" points="599.26,-709.5 609.26,-706 599.26,-702.5 599.26,-709.5"/>
</g>
<!-- atomic_tests[].input_arguments.mimikatz_exe.type -->
<g id="node28" class="node">
<title>atomic_tests[].input_arguments.mimikatz_exe.type</title>
<path fill="none" stroke="black" d="M664.25,-681C664.25,-681 634.25,-681 634.25,-681 628.25,-681 622.25,-675 622.25,-669 622.25,-669 622.25,-657 622.25,-657 622.25,-651 628.25,-645 634.25,-645 634.25,-645 664.25,-645 664.25,-645 670.25,-645 676.25,-651 676.25,-657 676.25,-657 676.25,-669 676.25,-669 676.25,-675 670.25,-681 664.25,-681"/>
<text text-anchor="middle" x="649.25" y="-657.95" font-family="Times,serif" font-size="14.00">type</text>
</g>
<!-- atomic_tests[].input_arguments.mimikatz_exe&#45;&gt;atomic_tests[].input_arguments.mimikatz_exe.type -->
<g id="edge36" class="edge">
<title>atomic_tests[].input_arguments.mimikatz_exe&#45;&gt;atomic_tests[].input_arguments.mimikatz_exe.type</title>
<path fill="none" stroke="black" d="M555.12,-691.68C573.34,-686.07 593.95,-679.72 611.15,-674.43"/>
<polygon fill="black" stroke="black" points="611.92,-677.85 620.45,-671.56 609.86,-671.16 611.92,-677.85"/>
</g>
<!-- atomic_tests[].input_arguments.output_file.default -->
<g id="node30" class="node">
<title>atomic_tests[].input_arguments.output_file.default</title>
<path fill="none" stroke="black" d="M664.25,-638C664.25,-638 634.25,-638 634.25,-638 628.25,-638 622.25,-632 622.25,-626 622.25,-626 622.25,-614 622.25,-614 622.25,-608 628.25,-602 634.25,-602 634.25,-602 664.25,-602 664.25,-602 670.25,-602 676.25,-608 676.25,-614 676.25,-614 676.25,-626 676.25,-626 676.25,-632 670.25,-638 664.25,-638"/>
<text text-anchor="middle" x="649.25" y="-614.95" font-family="Times,serif" font-size="14.00">default</text>
</g>
<!-- atomic_tests[].input_arguments.output_file&#45;&gt;atomic_tests[].input_arguments.output_file.default -->
<g id="edge37" class="edge">
<title>atomic_tests[].input_arguments.output_file&#45;&gt;atomic_tests[].input_arguments.output_file.default</title>
<path fill="none" stroke="black" d="M545.68,-604.57C565.8,-607.6 590.62,-611.33 610.81,-614.37"/>
<polygon fill="black" stroke="black" points="610.18,-617.81 620.59,-615.84 611.22,-610.89 610.18,-617.81"/>
</g>
<!-- atomic_tests[].input_arguments.output_file.description -->
<g id="node31" class="node">
<title>atomic_tests[].input_arguments.output_file.description</title>
<path fill="none" stroke="black" d="M675.25,-595C675.25,-595 623.25,-595 623.25,-595 617.25,-595 611.25,-589 611.25,-583 611.25,-583 611.25,-571 611.25,-571 611.25,-565 617.25,-559 623.25,-559 623.25,-559 675.25,-559 675.25,-559 681.25,-559 687.25,-565 687.25,-571 687.25,-571 687.25,-583 687.25,-583 687.25,-589 681.25,-595 675.25,-595"/>
<text text-anchor="middle" x="649.25" y="-571.95" font-family="Times,serif" font-size="14.00">description</text>
</g>
<!-- atomic_tests[].input_arguments.output_file&#45;&gt;atomic_tests[].input_arguments.output_file.description -->
<g id="edge38" class="edge">
<title>atomic_tests[].input_arguments.output_file&#45;&gt;atomic_tests[].input_arguments.output_file.description</title>
<path fill="none" stroke="black" d="M545.68,-593.16C562.24,-590.55 582,-587.44 599.72,-584.65"/>
<polygon fill="black" stroke="black" points="600.2,-588.11 609.53,-583.1 599.11,-581.2 600.2,-588.11"/>
</g>
<!-- atomic_tests[].input_arguments.output_file.type -->
<g id="node32" class="node">
<title>atomic_tests[].input_arguments.output_file.type</title>
<path fill="none" stroke="black" d="M664.25,-552C664.25,-552 634.25,-552 634.25,-552 628.25,-552 622.25,-546 622.25,-540 622.25,-540 622.25,-528 622.25,-528 622.25,-522 628.25,-516 634.25,-516 634.25,-516 664.25,-516 664.25,-516 670.25,-516 676.25,-522 676.25,-528 676.25,-528 676.25,-540 676.25,-540 676.25,-546 670.25,-552 664.25,-552"/>
<text text-anchor="middle" x="649.25" y="-528.95" font-family="Times,serif" font-size="14.00">type</text>
</g>
<!-- atomic_tests[].input_arguments.output_file&#45;&gt;atomic_tests[].input_arguments.output_file.type -->
<g id="edge39" class="edge">
<title>atomic_tests[].input_arguments.output_file&#45;&gt;atomic_tests[].input_arguments.output_file.type</title>
<path fill="none" stroke="black" d="M545.68,-581.75C566.08,-572.25 591.32,-560.5 611.66,-551.04"/>
<polygon fill="black" stroke="black" points="613.13,-554.21 620.72,-546.82 610.17,-547.87 613.13,-554.21"/>
</g>
<!-- atomic_tests[].input_arguments.output_folder.default -->
<g id="node34" class="node">
<title>atomic_tests[].input_arguments.output_folder.default</title>
<path fill="none" stroke="black" d="M664.25,-509C664.25,-509 634.25,-509 634.25,-509 628.25,-509 622.25,-503 622.25,-497 622.25,-497 622.25,-485 622.25,-485 622.25,-479 628.25,-473 634.25,-473 634.25,-473 664.25,-473 664.25,-473 670.25,-473 676.25,-479 676.25,-485 676.25,-485 676.25,-497 676.25,-497 676.25,-503 670.25,-509 664.25,-509"/>
<text text-anchor="middle" x="649.25" y="-485.95" font-family="Times,serif" font-size="14.00">default</text>
</g>
<!-- atomic_tests[].input_arguments.output_folder&#45;&gt;atomic_tests[].input_arguments.output_folder.default -->
<g id="edge40" class="edge">
<title>atomic_tests[].input_arguments.output_folder&#45;&gt;atomic_tests[].input_arguments.output_folder.default</title>
<path fill="none" stroke="black" d="M552.8,-476.64C571.42,-479.44 592.85,-482.67 610.69,-485.35"/>
<polygon fill="black" stroke="black" points="609.92,-488.77 620.33,-486.8 610.96,-481.85 609.92,-488.77"/>
</g>
<!-- atomic_tests[].input_arguments.output_folder.description -->
<g id="node35" class="node">
<title>atomic_tests[].input_arguments.output_folder.description</title>
<path fill="none" stroke="black" d="M675.25,-466C675.25,-466 623.25,-466 623.25,-466 617.25,-466 611.25,-460 611.25,-454 611.25,-454 611.25,-442 611.25,-442 611.25,-436 617.25,-430 623.25,-430 623.25,-430 675.25,-430 675.25,-430 681.25,-430 687.25,-436 687.25,-442 687.25,-442 687.25,-454 687.25,-454 687.25,-460 681.25,-466 675.25,-466"/>
<text text-anchor="middle" x="649.25" y="-442.95" font-family="Times,serif" font-size="14.00">description</text>
</g>
<!-- atomic_tests[].input_arguments.output_folder&#45;&gt;atomic_tests[].input_arguments.output_folder.description -->
<g id="edge41" class="edge">
<title>atomic_tests[].input_arguments.output_folder&#45;&gt;atomic_tests[].input_arguments.output_folder.description</title>
<path fill="none" stroke="black" d="M552.8,-463.04C567.7,-460.69 584.41,-458.06 599.63,-455.66"/>
<polygon fill="black" stroke="black" points="600.1,-459.13 609.43,-454.12 599.01,-452.22 600.1,-459.13"/>
</g>
<!-- atomic_tests[].input_arguments.output_folder.type -->
<g id="node36" class="node">
<title>atomic_tests[].input_arguments.output_folder.type</title>
<path fill="none" stroke="black" d="M664.25,-423C664.25,-423 634.25,-423 634.25,-423 628.25,-423 622.25,-417 622.25,-411 622.25,-411 622.25,-399 622.25,-399 622.25,-393 628.25,-387 634.25,-387 634.25,-387 664.25,-387 664.25,-387 670.25,-387 676.25,-393 676.25,-399 676.25,-399 676.25,-411 676.25,-411 676.25,-417 670.25,-423 664.25,-423"/>
<text text-anchor="middle" x="649.25" y="-399.95" font-family="Times,serif" font-size="14.00">type</text>
</g>
<!-- atomic_tests[].input_arguments.output_folder&#45;&gt;atomic_tests[].input_arguments.output_folder.type -->
<g id="edge42" class="edge">
<title>atomic_tests[].input_arguments.output_folder&#45;&gt;atomic_tests[].input_arguments.output_folder.type</title>
<path fill="none" stroke="black" d="M548.26,-451.55C568.13,-442.3 592.03,-431.17 611.48,-422.12"/>
<polygon fill="black" stroke="black" points="612.81,-425.36 620.4,-417.97 609.86,-419.01 612.81,-425.36"/>
</g>
<!-- atomic_tests[].input_arguments.procdump_exe.default -->
<g id="node38" class="node">
<title>atomic_tests[].input_arguments.procdump_exe.default</title>
<path fill="none" stroke="black" d="M664.25,-380C664.25,-380 634.25,-380 634.25,-380 628.25,-380 622.25,-374 622.25,-368 622.25,-368 622.25,-356 622.25,-356 622.25,-350 628.25,-344 634.25,-344 634.25,-344 664.25,-344 664.25,-344 670.25,-344 676.25,-350 676.25,-356 676.25,-356 676.25,-368 676.25,-368 676.25,-374 670.25,-380 664.25,-380"/>
<text text-anchor="middle" x="649.25" y="-356.95" font-family="Times,serif" font-size="14.00">default</text>
</g>
<!-- atomic_tests[].input_arguments.procdump_exe&#45;&gt;atomic_tests[].input_arguments.procdump_exe.default -->
<g id="edge43" class="edge">
<title>atomic_tests[].input_arguments.procdump_exe&#45;&gt;atomic_tests[].input_arguments.procdump_exe.default</title>
<path fill="none" stroke="black" d="M556.29,-348.17C574.13,-350.85 594.13,-353.86 610.91,-356.38"/>
<polygon fill="black" stroke="black" points="610.04,-359.79 620.45,-357.82 611.08,-352.87 610.04,-359.79"/>
</g>
<!-- atomic_tests[].input_arguments.procdump_exe.description -->
<g id="node39" class="node">
<title>atomic_tests[].input_arguments.procdump_exe.description</title>
<path fill="none" stroke="black" d="M675.25,-337C675.25,-337 623.25,-337 623.25,-337 617.25,-337 611.25,-331 611.25,-325 611.25,-325 611.25,-313 611.25,-313 611.25,-307 617.25,-301 623.25,-301 623.25,-301 675.25,-301 675.25,-301 681.25,-301 687.25,-307 687.25,-313 687.25,-313 687.25,-325 687.25,-325 687.25,-331 681.25,-337 675.25,-337"/>
<text text-anchor="middle" x="649.25" y="-313.95" font-family="Times,serif" font-size="14.00">description</text>
</g>
<!-- atomic_tests[].input_arguments.procdump_exe&#45;&gt;atomic_tests[].input_arguments.procdump_exe.description -->
<g id="edge44" class="edge">
<title>atomic_tests[].input_arguments.procdump_exe&#45;&gt;atomic_tests[].input_arguments.procdump_exe.description</title>
<path fill="none" stroke="black" d="M556.29,-333.49C570.37,-331.27 585.8,-328.84 599.93,-326.61"/>
<polygon fill="black" stroke="black" points="600.11,-330.13 609.44,-325.12 599.02,-323.21 600.11,-330.13"/>
</g>
<!-- atomic_tests[].input_arguments.procdump_exe.type -->
<g id="node40" class="node">
<title>atomic_tests[].input_arguments.procdump_exe.type</title>
<path fill="none" stroke="black" d="M664.25,-294C664.25,-294 634.25,-294 634.25,-294 628.25,-294 622.25,-288 622.25,-282 622.25,-282 622.25,-270 622.25,-270 622.25,-264 628.25,-258 634.25,-258 634.25,-258 664.25,-258 664.25,-258 670.25,-258 676.25,-264 676.25,-270 676.25,-270 676.25,-282 676.25,-282 676.25,-288 670.25,-294 664.25,-294"/>
<text text-anchor="middle" x="649.25" y="-270.95" font-family="Times,serif" font-size="14.00">type</text>
</g>
<!-- atomic_tests[].input_arguments.procdump_exe&#45;&gt;atomic_tests[].input_arguments.procdump_exe.type -->
<g id="edge45" class="edge">
<title>atomic_tests[].input_arguments.procdump_exe&#45;&gt;atomic_tests[].input_arguments.procdump_exe.type</title>
<path fill="none" stroke="black" d="M548.26,-322.55C568.13,-313.3 592.03,-302.17 611.48,-293.12"/>
<polygon fill="black" stroke="black" points="612.81,-296.36 620.4,-288.97 609.86,-290.01 612.81,-296.36"/>
</g>
<!-- atomic_tests[].input_arguments.remote_script.default -->
<g id="node42" class="node">
<title>atomic_tests[].input_arguments.remote_script.default</title>
<path fill="none" stroke="black" d="M664.25,-251C664.25,-251 634.25,-251 634.25,-251 628.25,-251 622.25,-245 622.25,-239 622.25,-239 622.25,-227 622.25,-227 622.25,-221 628.25,-215 634.25,-215 634.25,-215 664.25,-215 664.25,-215 670.25,-215 676.25,-221 676.25,-227 676.25,-227 676.25,-239 676.25,-239 676.25,-245 670.25,-251 664.25,-251"/>
<text text-anchor="middle" x="649.25" y="-227.95" font-family="Times,serif" font-size="14.00">default</text>
</g>
<!-- atomic_tests[].input_arguments.remote_script&#45;&gt;atomic_tests[].input_arguments.remote_script.default -->
<g id="edge46" class="edge">
<title>atomic_tests[].input_arguments.remote_script&#45;&gt;atomic_tests[].input_arguments.remote_script.default</title>
<path fill="none" stroke="black" d="M553.57,-218.08C572.06,-220.99 593.21,-224.33 610.84,-227.1"/>
<polygon fill="black" stroke="black" points="610.2,-230.55 620.62,-228.65 611.29,-223.63 610.2,-230.55"/>
</g>
<!-- atomic_tests[].input_arguments.remote_script.description -->
<g id="node43" class="node">
<title>atomic_tests[].input_arguments.remote_script.description</title>
<path fill="none" stroke="black" d="M675.25,-208C675.25,-208 623.25,-208 623.25,-208 617.25,-208 611.25,-202 611.25,-196 611.25,-196 611.25,-184 611.25,-184 611.25,-178 617.25,-172 623.25,-172 623.25,-172 675.25,-172 675.25,-172 681.25,-172 687.25,-178 687.25,-184 687.25,-184 687.25,-196 687.25,-196 687.25,-202 681.25,-208 675.25,-208"/>
<text text-anchor="middle" x="649.25" y="-184.95" font-family="Times,serif" font-size="14.00">description</text>
</g>
<!-- atomic_tests[].input_arguments.remote_script&#45;&gt;atomic_tests[].input_arguments.remote_script.description -->
<g id="edge47" class="edge">
<title>atomic_tests[].input_arguments.remote_script&#45;&gt;atomic_tests[].input_arguments.remote_script.description</title>
<path fill="none" stroke="black" d="M553.57,-204.24C568.31,-202.02 584.75,-199.55 599.74,-197.3"/>
<polygon fill="black" stroke="black" points="600,-200.8 609.37,-195.85 598.96,-193.87 600,-200.8"/>
</g>
<!-- atomic_tests[].input_arguments.remote_script.type -->
<g id="node44" class="node">
<title>atomic_tests[].input_arguments.remote_script.type</title>
<path fill="none" stroke="black" d="M664.25,-165C664.25,-165 634.25,-165 634.25,-165 628.25,-165 622.25,-159 622.25,-153 622.25,-153 622.25,-141 622.25,-141 622.25,-135 628.25,-129 634.25,-129 634.25,-129 664.25,-129 664.25,-129 670.25,-129 676.25,-135 676.25,-141 676.25,-141 676.25,-153 676.25,-153 676.25,-159 670.25,-165 664.25,-165"/>
<text text-anchor="middle" x="649.25" y="-141.95" font-family="Times,serif" font-size="14.00">type</text>
</g>
<!-- atomic_tests[].input_arguments.remote_script&#45;&gt;atomic_tests[].input_arguments.remote_script.type -->
<g id="edge48" class="edge">
<title>atomic_tests[].input_arguments.remote_script&#45;&gt;atomic_tests[].input_arguments.remote_script.type</title>
<path fill="none" stroke="black" d="M548.64,-192.66C568.49,-183.56 592.3,-172.64 611.67,-163.77"/>
<polygon fill="black" stroke="black" points="612.91,-167.05 620.54,-159.7 609.99,-160.69 612.91,-167.05"/>
</g>
<!-- atomic_tests[].input_arguments.xordump_exe.default -->
<g id="node46" class="node">
<title>atomic_tests[].input_arguments.xordump_exe.default</title>
<path fill="none" stroke="black" d="M664.25,-122C664.25,-122 634.25,-122 634.25,-122 628.25,-122 622.25,-116 622.25,-110 622.25,-110 622.25,-98 622.25,-98 622.25,-92 628.25,-86 634.25,-86 634.25,-86 664.25,-86 664.25,-86 670.25,-86 676.25,-92 676.25,-98 676.25,-98 676.25,-110 676.25,-110 676.25,-116 670.25,-122 664.25,-122"/>
<text text-anchor="middle" x="649.25" y="-98.95" font-family="Times,serif" font-size="14.00">default</text>
</g>
<!-- atomic_tests[].input_arguments.xordump_exe&#45;&gt;atomic_tests[].input_arguments.xordump_exe.default -->
<g id="edge49" class="edge">
<title>atomic_tests[].input_arguments.xordump_exe&#45;&gt;atomic_tests[].input_arguments.xordump_exe.default</title>
<path fill="none" stroke="black" d="M553.57,-89.08C572.06,-91.99 593.21,-95.33 610.84,-98.1"/>
<polygon fill="black" stroke="black" points="610.2,-101.55 620.62,-99.65 611.29,-94.63 610.2,-101.55"/>
</g>
<!-- atomic_tests[].input_arguments.xordump_exe.description -->
<g id="node47" class="node">
<title>atomic_tests[].input_arguments.xordump_exe.description</title>
<path fill="none" stroke="black" d="M675.25,-79C675.25,-79 623.25,-79 623.25,-79 617.25,-79 611.25,-73 611.25,-67 611.25,-67 611.25,-55 611.25,-55 611.25,-49 617.25,-43 623.25,-43 623.25,-43 675.25,-43 675.25,-43 681.25,-43 687.25,-49 687.25,-55 687.25,-55 687.25,-67 687.25,-67 687.25,-73 681.25,-79 675.25,-79"/>
<text text-anchor="middle" x="649.25" y="-55.95" font-family="Times,serif" font-size="14.00">description</text>
</g>
<!-- atomic_tests[].input_arguments.xordump_exe&#45;&gt;atomic_tests[].input_arguments.xordump_exe.description -->
<g id="edge50" class="edge">
<title>atomic_tests[].input_arguments.xordump_exe&#45;&gt;atomic_tests[].input_arguments.xordump_exe.description</title>
<path fill="none" stroke="black" d="M553.57,-75.24C568.31,-73.02 584.75,-70.55 599.74,-68.3"/>
<polygon fill="black" stroke="black" points="600,-71.8 609.37,-66.85 598.96,-64.87 600,-71.8"/>
</g>
<!-- atomic_tests[].input_arguments.xordump_exe.type -->
<g id="node48" class="node">
<title>atomic_tests[].input_arguments.xordump_exe.type</title>
<path fill="none" stroke="black" d="M664.25,-36C664.25,-36 634.25,-36 634.25,-36 628.25,-36 622.25,-30 622.25,-24 622.25,-24 622.25,-12 622.25,-12 622.25,-6 628.25,0 634.25,0 634.25,0 664.25,0 664.25,0 670.25,0 676.25,-6 676.25,-12 676.25,-12 676.25,-24 676.25,-24 676.25,-30 670.25,-36 664.25,-36"/>
<text text-anchor="middle" x="649.25" y="-12.95" font-family="Times,serif" font-size="14.00">type</text>
</g>
<!-- atomic_tests[].input_arguments.xordump_exe&#45;&gt;atomic_tests[].input_arguments.xordump_exe.type -->
<g id="edge51" class="edge">
<title>atomic_tests[].input_arguments.xordump_exe&#45;&gt;atomic_tests[].input_arguments.xordump_exe.type</title>
<path fill="none" stroke="black" d="M548.64,-63.66C568.49,-54.56 592.3,-43.64 611.67,-34.77"/>
<polygon fill="black" stroke="black" points="612.91,-38.05 620.54,-30.7 609.99,-31.69 612.91,-38.05"/>
</g>
</g>
</svg>
